<svg xmlns="http://www.w3.org/2000/svg" fill="none" viewBox="0 0 62 62">
  <circle cx="31" cy="31" r="29.705" fill="#150110" stroke="url(#a)" stroke-width="2.59"/>
  <mask id="b" width="50" height="50" x="6" y="6" maskUnits="userSpaceOnUse" style="mask-type:alpha">
    <circle cx="31" cy="31" r="25" fill="#000"/>
  </mask>
  <g mask="url(#b)">
    <path fill="#6AEDCB" d="m23.2776 86.4301 25.8925 6.9325 15.4125-57.805-37.4325 30.3975-3.8725 20.475Z"/>
    <path fill="#30C7FF" d="M30.5525 65.4649c4.905-5.225 10.8525-3.53 15.84-5.285 3.1775-1.1175 5.8-3.4525 7.635-6.275 2.895-4.4525 3.5075-10.3925 7.46-13.94.7725-.695 1.6675-1.285 2.2375-2.1525.4425-.6725.66-1.4675.8675-2.245L73.14 3.79492c-6.7425 1.48-11.86 6.81248-16.5075 11.91498-19.685 21.605-38.84 43.7925-60.5025 63.4175l27.16 7.3075c2.005.5375 3.405-9.4075 3.53-10.265.565-3.93 1.255-7.5025 3.7325-10.705Z"/>
    <path fill="#6C5DFE" d="M-2.90745 79.4152s4.57-3.0575 8.17-3.9675c3.6-.91 9.32745-3.2275 12.68245-6.6725 3.355-3.445 5.0275-6.7475 6.3176-11.93 1.29-5.1825 5.4599-9.6925 10.7625-11.4325 5.3024-1.7375 16.1549-2.0875 18.925-11.3175 2.7699-9.23 3.5499-22.6425 18.955-29.57253L83.0376-33.0398l-5.0126-1.3425L-17.7 69.7852l-3.625 4.685 18.41755 4.945Z"/>
    <path fill="#A20ED3" d="M-10.82 77.2951s3.58248-3.075 6.03248-10.5625c1.38001-4.2125 3.17501-8.3075 6.04251-11.735 4.3625-5.21 10.56751-8.08 17.10751-9.4475.9025-.19 1.8025-.32 2.68-.61 1.655-.55 3.225-1.3325 4.6625-2.32 4.1775-2.8775 6.6275-8.145 8.8175-14.6675 2.19-6.5225 7.3625-14.76 12.4975-19.00998 5.1375-4.25 9.42-6.9525 17.2025-11.68 7.7825-4.7275 16.54-10.87002 17.54-30.64252L63.8-38.1924l-72.79001 66.63-12.33749 46.04 10.5075 2.8175Z"/>
    <path fill="#D60A99" d="M-11.17 36.5774s4.90002-6.6825 15.10252-8.835C14.135 25.5899 18.67 30.2099 26.3525 17.0174 34.035 3.8249 33.14-1.1526 40.68-7.7201c7.54-6.5675 13.2675-9.1775 20.4775-12.8725 7.21-3.695 10.9275-5.4125 13.42-14.715L51.09-41.6001l-56.82248 57.87L-11.17 36.5774Z"/>
    <path fill="#F005C4" d="M57.18-39.965c-4.5575 2.085-9.9175 4.4-12.6225 9.5975S38.8-19.4725 34.77-14.925c-4.03 4.5475-7.745 4.585-12.315 7.80503-4.5675 3.22-7.77 10.2075-9.655 15.0325C10.915 12.7375 8.20504 15.1225 4.05504 18.455c-4.1500007 3.3325-11.4525 4.04-11.4525 4.04l6.2575-23.352471 8.59-17.687529L36.175-45.595l21.005 5.63Z"/>
    <path fill="#FF744B" d="M-3.45496 7.77495c.0425-.16.7125-.495.845-.595.7775-.575 1.5125-1.2025 2.202505-1.8775 2.777495-2.73 3.319995-5.904997 4.012495-9.565.4775-2.535.725-6.38745 2.56-8.39245 1.815-1.9825 3.3475-3.65 9.68746-5.2051 3.94-.965 7.995-2.4174 11.0425-5.2749 3.5325-3.31 4.4575-7.965 6.4925-12.1975 1.66-3.45 4.015-7.0975 7.4275-9.0175l-28.2725-7.575L-3.45496 7.77495Z"/>
  </g>
  <circle cx="31" cy="31" r="22.55" fill="#fff"/>
  <mask id="c" width="36" height="38" x="13" y="12" maskUnits="userSpaceOnUse" style="mask-type:alpha">
    <path fill="#000" fill-rule="evenodd" d="M48.6265 36.0508c-.0277-.174-.128-.2743-.2581-.3712-1.6492-1.2254-3.2979-2.4521-4.9436-3.6831-.1476-.1101-.3029-.192-.4728-.2586-4.8275-1.8859-9.6554-3.7715-14.4804-5.6643-2.9399-1.1533-5.8656-2.345-8.9331-3.1357-.1301-.0332-.2534-.0695-.3891-.0584-1.3872.1101-2.7748.2172-4.1615.329-.1062.0085-.2193-.0035-.3371.0708-.0529.2718-.2197.5295-.2248.8542.145 0 .2658-.0008.3861 0 1.513.0162 3.0265.0371 4.54.0448.3332.0017.6413.0708.9493.1903 7.4278 2.8823 14.8547 5.7658 22.2875 8.6344.7604.2936 1.467.6567 2.1356 1.1226 1.2574.8773 2.5375 1.7217 3.8278 2.5926.1519-.2309.1451-.2309.0742-.6674Z" clip-rule="evenodd"/>
    <path fill="#000" fill-rule="evenodd" d="M47.9479 37.1935c-.96-.5816-1.9201-1.1636-2.8835-1.74-.3717-.2227-.7237-.4817-1.1325-.6388-8.0336-3.0879-16.0681-6.1749-24.1013-9.2659-.1839-.0708-.3682-.1092-.562-.1288-1.1196-.1114-2.2388-.2262-3.358-.3388-.5884-.0593-1.1772-.1156-1.7754-.175-.093.2842-.2287.536-.2381.8351 1.3266.2551 2.6318.4979 3.9332.7595.5909.119 1.1994.1694 1.7669.3857 7.6475 2.9177 15.2941 5.8379 22.9403 8.7603.7655.2927 1.5527.5355 2.2866.9003.8534.4241 1.685.8905 2.5286 1.3342.093.0491.1753.1332.3187.1157.1502-.2121.3085-.4357.4574-.6465-.0456-.1002-.1212-.1211-.1809-.157ZM22.1203 29.1517c-1.0484-.3968-2.087-.8248-3.1511-1.1721-1.1568-.3776-2.3382-.6784-3.5095-1.0112-.5521-.1566-1.1051-.3098-1.6875-.4728v.8854c10.8979 4.0991 21.7929 8.197 32.7054 12.3018.2189-.3102.4229-.5991.6456-.9157-.7749-.3435-1.4985-.7045-2.2503-.9908-7.5818-2.8818-15.1679-5.7526-22.7526-8.6246ZM15.2017 22.3456c.9541-.1557 1.9073-.3179 2.8618-.4706.4374-.0704.8623-.1596 1.3202-.0188 1.4524.4459 2.9172.8508 4.3769 1.2749 1.0189.2957 2.0622.5189 3.0504.9059 5.2192 2.0443 10.4316 4.1069 15.6466 6.1613.1472.0581.2867.1208.4113.2223 1.5937 1.2997 3.1873 2.5994 4.7861 3.8927.2398.1937.457.4216.7548.5701.0346-.2211-.0627-.4033-.0627-.5957 0-.2236-.1105-.3763-.2761-.5214-1.888-1.6466-3.7723-3.2979-5.6535-4.953-.149-.1305-.309-.2223-.4907-.2944-3.2949-1.3061-6.5881-2.6156-9.8821-3.9229-.829-.329-1.6414-.7203-2.4948-.9622-3.5859-1.0168-7.1845-1.9867-10.7777-2.9779-.1702-.0469-.3277-.046-.4971-.0017-.4552.1195-.9143.2245-1.3709.3388-.5479.1374-1.0949.2795-1.6415.419-.1015.3188-.1958.6145-.288.9038.0837.064.1588.0413.227.0298ZM21.5967 31.5821c-1.1397-.4262-2.3016-.7979-3.405-1.315-1.3974-.655-2.7875-1.3257-4.1828-1.985-.0887-.0418-.1728-.1416-.3068-.0687v.8043c.0431.0286.0901.0645.1413.0935 1.4652.8418 2.9296 1.6841 4.3966 2.5217.1348.0772.2833.1323.4296.1869 4.0685 1.5087 8.1373 3.0162 12.2062 4.5237 4.5434 1.6829 9.0872 3.3653 13.6497 5.0545.3806-.253.7672-.5099 1.2062-.8021-.1711-.0658-.2786-.1084-.387-.149-7.9167-2.9539-15.8338-5.9049-23.748-8.8648ZM43.2019 42.0569c-1.1879-.4356-2.3758-.8721-3.5637-1.3086-7.0475-2.5913-14.0947-5.1821-21.1431-7.7708-.2172-.0798-.4177-.1809-.6093-.3102-1.3014-.8786-2.6058-1.752-3.9102-2.6263-.0968-.0648-.183-.1519-.3328-.1792v.8739c1.3838 1.0718 2.7692 2.1445 4.1547 3.218.116.0901.2479.1434.3853.1937 6.5445 2.3874 13.0877 4.7781 19.6313 7.1675 1.4704.5368 2.942 1.0714 4.4158 1.6078.3755-.2624.7698-.4809 1.1107-.7659-.044-.0781-.0939-.0832-.1387-.0999Z" clip-rule="evenodd"/>
    <path fill="#000" fill-rule="evenodd" d="M18.5061 19.6977c4.0821 1.0825 8.1663 2.1573 12.2472 3.2428.8273.2202 1.6738.3776 2.4717.6951 2.7125 1.0778 5.4207 2.1658 8.1318 3.2466.2168.0871.4049.2031.576.3644 1.9641 1.8536 3.9315 3.7037 5.9003 5.5521.0844.0798.151.1903.3089.2236-.0589-.4613-.0939-.8718-.4685-1.2391-1.9713-1.9338-3.9191-3.8923-5.8554-5.8606-.434-.4403-.9029-.7693-1.4845-.9873-2.0297-.7608-3.998-1.6645-6.1242-2.1842-5.3809-1.3142-10.7405-2.7133-16.1095-4.0766-.1255-.032-.2526-.0717-.3891-.0132-.5978.2551-1.1982.5043-1.7955.7548-.1123.3443-.2185.6725-.3452 1.062.8184-.2705 1.5659-.5069 2.3049-.7676.2198-.0768.4143-.0704.6311-.0128ZM17.973 35.2456c-.163-.0589-.3021-.137-.4313-.2513-1.199-1.0552-2.401-2.107-3.6038-3.1575-.1033-.09-.2006-.195-.3678-.2594v.8884c1.2083 1.184 2.4376 2.3856 3.6605 3.5935.1852.183.3883.3089.6341.3972 6.3742 2.2888 12.7468 4.5831 19.1202 6.8761.9967.3584 1.9947.7143 3.0038 1.0752.367-.2428.7275-.4813 1.1542-.7625-.4941-.1813-.9199-.3387-1.3462-.4936-7.2745-2.6369-14.5482-5.273-21.8237-7.9061Z" clip-rule="evenodd"/>
    <path fill="#000" fill-rule="evenodd" d="M17.7662 17.8181c1.2643.3157 2.5328.6157 3.7988.925 5.1232 1.2511 10.2473 2.4978 15.3684 3.7596 1.1452.282 2.3186.4706 3.4045.9685.1911.0879.3507.1954.4941.3482 1.8164 1.932 3.6358 3.8615 5.4547 5.7906.5052.535 1.0113 1.0688 1.5169 1.603-.0196-.3964.0252-.783-.2658-1.1064-2.2683-2.5191-4.5272-5.0468-6.7843-7.5754-.1127-.1258-.2403-.1937-.3964-.2299-2.9032-.6802-5.8051-1.3599-8.7078-2.0413-4.6061-1.0812-9.2134-2.1582-13.8161-3.2543-.4327-.1033-.7975-.0952-1.1427.1881-.0183.015-.0371.0303-.0734.0606-.1096.3452-.2253.7079-.3622 1.1384.3994-.1984.7335-.3597 1.062-.5312.1489-.0777.2829-.0853.4493-.0435ZM38.5789 44.9827c-7.0015-2.5038-14.0047-5.0034-21.0083-7.5016-.1754-.0623-.32-.1511-.4463-.2893-1.0219-1.1162-2.0481-2.2277-3.0734-3.3405-.16-.1733-.3201-.3469-.5419-.5871v.9813c1.1243 1.3437 2.2751 2.7146 3.4177 4.092.134.1612.3038.2274.486.2922 5.7705 2.0451 11.5414 4.0902 17.3119 6.1358 1.0211.3622 2.0417.7258 3.0786 1.0936.3614-.2398.7181-.4771 1.0765-.7152-.0815-.1288-.2044-.1267-.3008-.1612Z" clip-rule="evenodd"/>
    <path fill="#000" fill-rule="evenodd" d="M17.1854 39.6482c-.2001-.0708-.3571-.1767-.4873-.349-.6626-.879-1.3338-1.7512-2.0033-2.6242-.3951-.515-.7923-1.0283-1.1887-1.5424-.0205.0055-.0414.0102-.0623.0158v.9092c.9805 1.3919 1.9994 2.8319 3.0098 4.2784.1455.2082.32.3311.5615.4156 5.3055 1.8505 10.6079 3.7092 15.9116 5.5657.9191.3221 1.8403.6383 2.7534.9545.358-.2381.6968-.4638 1.0906-.7258-.1592-.0593-.2492-.0939-.3401-.1259-6.4152-2.258-12.8296-4.516-19.2452-6.7719ZM28.0947 18.6484c4.144.937 8.2871 1.8786 12.4319 2.8114.1775.0397.3008.1126.4173.2487 2.1014 2.4701 4.2067 4.9364 6.3128 7.403.0947.111.1775.2386.3252.3145-.0222-.5043-.1541-.9157-.4775-1.3065-1.8915-2.2819-3.7651-4.5779-5.6173-6.8914-.3465-.4331-.7096-.7271-1.2703-.7655-.1903-.0132-.3759-.0857-.5645-.1263-3.5039-.7599-7.0083-1.5173-10.5118-2.2798-3.5031-.7629-7.0049-1.5318-10.5089-2.2925-.1126-.0244-.2265-.0841-.3528-.0393-.3729.1323-.7471.2594-1.1858.4109.1464.0486.2215.0806.2996.0981 3.567.806 7.1354 1.6078 10.7021 2.4147Z" clip-rule="evenodd"/>
    <path fill="#000" fill-rule="evenodd" d="M19.6175 15.3564c1.9853.4173 3.9715.832 5.9569 1.2485 5.0699 1.0637 10.1398 2.1309 15.2118 3.1839.2752.0572.4476.1818.6123.3926 1.9103 2.4521 3.8278 4.8987 5.744 7.3466.0423.0538.0674.1357.1848.1135-.0977-.3281-.0367-.6818-.2697-.9894-1.8612-2.4582-3.7121-4.9244-5.564-7.3894-.1066-.1421-.2274-.2202-.4113-.2569-1.5045-.2969-3.006-.6118-4.5092-.9156-5.2325-1.0578-10.4658-2.113-15.6986-3.1703-.0828-.0171-.1617-.0516-.2479-.0209-.3559.1271-.7122.2539-1.0817.3853.041.0422.0546.0683.0726.0721ZM16.8651 41.7586c-.262-.0905-.4476-.2279-.6016-.4685-.8466-1.3228-1.7119-2.6331-2.5734-3.946-.0844-.1289-.1455-.2765-.3294-.4139.0081.3639-.1267.6942.0154.9536.3243.5914.6379 1.1999 1.0671 1.7217.5842.71 1.2148 1.3816 1.8228 2.072.1135.1293.2428.23.3943.3123 1.2719.6912 2.5418 1.3876 3.8112 2.0835.1698.093.3456.1694.529.233 3.3397 1.1512 6.6785 2.3062 10.0178 3.4591.864.2983 1.7285.594 2.5882.8888.3376-.2543.7002-.4361 1.0215-.7177-.0665-.032-.0968-.0503-.1293-.0614-5.8771-2.04-11.7547-4.0808-17.6336-6.1165Z" clip-rule="evenodd"/>
    <path fill="#000" fill-rule="evenodd" d="M46.9771 25.9359c.0281-.0119.0572-.0239.0857-.0358-.0891-.317-.0529-.6528-.2654-.9541-1.6657-2.3578-3.3217-4.723-4.9751-7.0902-.1212-.1728-.2641-.2522-.4689-.2902-1.746-.3217-3.4899-.6541-5.2342-.9822-1.9939-.375-3.9882-.7484-5.9817-1.1239-2.2427-.4224-4.4862-.844-6.728-1.2702-.4877-.0926-1.0872.0298-1.5531.3477 6.5628 1.2809 13.1112 2.5597 19.6263 3.8317 1.8496 2.5477 3.6716 5.0575 5.4944 7.5672Z" clip-rule="evenodd"/>
    <path fill="#000" fill-rule="evenodd" d="M46.7515 24.2979c-.0089-.5738-.2509-1.0543-.5359-1.4938-1.3658-2.1087-2.7585-4.1998-4.1363-6.3008-.0964-.1468-.2159-.21-.3802-.2386-2.2623-.3912-4.5245-.7817-6.7851-1.1798-3.1059-.5461-6.2134-1.085-9.3146-1.6598-.5858-.1088-1.0454.117-1.5403.3465 5.9036 1.0744 11.8068 2.1484 17.7284 3.2258 1.6508 2.4287 3.3076 4.8646 4.964 7.3005Z" clip-rule="evenodd"/>
    <path fill="#000" fill-rule="evenodd" d="M44.8744 20.1141c.026-.0162.0512-.032.0772-.0482-.6298-1.8006-1.7464-3.3341-2.7351-4.9572-1.8326-.2978-3.669-.5931-5.5042-.8952-3.0282-.4984-6.0577-.9895-9.0812-1.513-.5572-.0965-.9976.1113-1.4678.34 5.3054.9012 10.6113 1.8028 15.9047 2.7022.9426 1.4687 1.8749 2.9203 2.8064 4.3714ZM42.3592 14.4028c-.0273-.0085-.0606-.0217-.0951-.0281-2.215-.4318-4.4307-.8632-6.6461-1.2933-1.9201-.3729-3.8423-.7313-5.7752-1.0347-.6012-.0943-1.1431-.038-1.7298.282 4.7973.7621 9.5403 1.516 14.2863 2.27.0226-.0606.0201-.1289-.0401-.1959ZM32.3963 49.228c-1.9039-.6537-3.809-1.3039-5.7116-1.961-.1319-.0453-.2565-.0593-.4391-.038 1.4968.8175 2.9458 1.606 4.391 2.4005.2987.1647.6136.2735.9494.3606.329-.221.6545-.4391.9775-.6554-.0473-.0947-.1152-.0888-.1672-.1067Z" clip-rule="evenodd"/>
  </mask>
  <g mask="url(#c)">
    <path fill="#6AEDCB" d="M20.8761 71.3598 45.3205 83.3l26.5924-54.5846L28.7147 51.717l-7.8386 19.6428Z"/>
    <path fill="#30C7FF" d="M32.1992 51.8904c5.902-4.2511 11.4969-1.4062 16.8064-2.1847 3.3825-.4953 6.4488-2.3114 8.8256-4.7662 3.7495-3.8724 5.5146-9.6703 10.1416-12.4355.9046-.5421 1.9109-.9558 2.6473-1.7091.5716-.5839.9428-1.3335 1.3007-2.0677L86.613-1.26042c-7.0042.16327-13.1387 4.48011-18.7603 8.65922C44.043 25.0927 20.648 43.4699-4.7466 58.807l25.6341 12.5601c1.8927.9253 5.221-8.709 5.5122-9.5389 1.327-3.8049 2.7089-7.2294 5.7995-9.9378Z"/>
    <path fill="#6C5DFE" d="M-3.84372 59.2804s5.14682-2.1571 8.90983-2.3636c3.76301-.2065 9.91899-1.4014 13.93079-4.1807 4.0119-2.7793 6.3201-5.7439 8.6128-10.6555 2.2926-4.9116 7.3234-8.5934 12.9437-9.2956 5.6199-.6998 16.4984 1.0617 21.0524-7.594 4.5539-8.6557 7.9388-21.86465 24.6317-25.772516L103.634-36.0286l-4.7317-2.3119-115.6089 85.1519-4.5219 3.962 17.38478 8.507Z"/>
    <path fill="#C908A4" d="M-11.3133 55.6302s4.16652-2.3665 8.0629-9.3487c2.19373-3.9279 4.77801-7.658 8.30086-10.5147 5.35864-4.3416 12.09764-5.994 18.87824-6.0846.936-.0138 1.8578.0317 2.7883-.0865 1.7555-.2261 3.4716-.7003 5.0955-1.4045 4.7209-2.0541 8.1856-6.8249 11.6354-12.8963C46.8976 9.22345 53.6518 2.02355 59.5933-1.21157c5.944-3.23463 10.7354-5.09399 19.407-8.28998 8.6716-3.19595 18.5895-7.61195 23.4307-27.11355l-16.9578-8.2864L.009379 7.31752-21.2323 50.7805l9.919 4.8497Z"/>
    <path fill="#D60A99" d="M-3.74497 15.0023S2.43541 9.29837 13.017 9.13795c10.5815-.16041 14.2007 5.32345 24.4186-6.3242C47.6535-8.83394 47.7298-13.9662 56.5176-19.0422c8.7878-5.0761 15.0006-6.5623 22.9012-8.8411 7.9005-2.2788 11.9376-3.2669 16.2292-12.0487L73.4749-50.7671 5.62006-4.16942-3.74497 15.0023Z"/>
    <path fill="#F005C4" d="M79.2234-47.9546c-4.9453 1.1908-10.7347 2.4547-14.4398 7.1061-3.7052 4.6514-7.8537 9.7334-12.7523 13.4797-4.8986 3.7463-8.6065 3.0613-13.7849 5.3803-5.176 2.3194-9.7247 8.6572-12.5406 13.09704-2.8159 4.43981-5.9791 6.28866-10.761 8.8013419C10.1629 2.42258 2.75104 1.70744 2.75104 1.70744L13.525-20.338l11.9959-15.9489L59.3943-57.647l19.8291 9.6924Z"/>
  </g>
  <defs>
    <linearGradient id="a" x1="51.6667" x2="-27.6619" y1="148.393" y2="129.086" gradientUnits="userSpaceOnUse">
      <stop stop-color="#28D2FF"/>
      <stop offset="1" stop-color="#D7099C"/>
    </linearGradient>
  </defs>
</svg>
