<svg xmlns="http://www.w3.org/2000/svg" fill="none" viewBox="0 0 145 32">
  <rect width="32" height="32" x=".333252" fill="url(#a)" rx="16"/>
  <path fill="#1F0860" d="M19.4222 6h-5.8826L6.33325 25h5.03445l3.5856-1.1583h3.0552L21.6016 25h4.7317L19.4222 6Zm-6.6483 14.8121 3.5931-10.4977h.2302c.0476.134.0926.2782.1402.4375l3.4505 10.0602-2.1769-1.1583h-3.0552l-2.1794 1.1583h-.0025Z"/>
  <mask id="b" width="17" height="16" x="44" y="8" maskUnits="userSpaceOnUse" style="mask-type:alpha">
    <path fill="#1F0860" d="M53.833 15.2877c.2762 0 .5-.2239.5-.5v-1.88l3.38 3.38-3.38 3.38v-1.88c0-.2762-.2238-.5-.5-.5h-7.5v-2h7.5Zm6.35 1.35c.0967-.0908.1515-.2175.1515-.35 0-.1326-.0548-.2593-.1515-.35l-6.79-6.79004c-.0939-.09466-.2217-.1479-.355-.1479-.1333 0-.2611.05324-.355.1479l-.2.19999c-.0977.09408-.152.22442-.15.36v3.58005h-7.5c-.2761 0-.5.2238-.5.5v5c0 .2761.2239.5.5.5h7.5v3.58c-.002.1355.0523.2659.15.36l.2.2c.0939.0946.2217.1479.355.1479.1333 0 .2611-.0533.355-.1479l6.79-6.79Z"/>
  </mask>
  <g mask="url(#b)">
    <path fill="#1F0860" d="M40.3333 4h24v24h-24z"/>
  </g>
  <path fill="#0B78DD" d="M104.333 16c0-8.83656-7.1632-16-15.9997-16-8.8366 0-16 7.16344-16 16 0 8.8366 7.1634 16 16 16 8.8365 0 15.9997-7.1634 15.9997-16Z"/>
  <path fill="#fff" d="M91.4726 5.94824h-6.5515L78.2107 20.322l4.6854 2.8588L87.7402 26h.0199v-5.2413h-.0199l-3.4147-2.1441 3.4147-8.5369h.9133l3.4147 8.5369-3.4147 2.1441h-.0199V26h.0199l4.8442-2.8192 4.6853-2.8588-6.7104-14.37376Z"/>
  <path fill="#000064" d="M144.333 16c0-8.83656-7.163-16-16-16-8.836 0-16 7.16344-16 16 0 8.8366 7.164 16 16 16 8.837 0 16-7.1634 16-16Z"/>
  <path fill="#fff" d="M125.053 25h6.561l6.719-14.3366-4.692-2.85152L128.791 5h-.02v5.2277h.02l3.419 2.1386-3.419 8.5149h-.915l-3.419-8.5149 3.419-2.1386h.02V5h-.02l-4.851 2.81188-4.692 2.85152L125.053 25Z"/>
  <defs>
    <linearGradient id="a" x1=".333252" x2="31.4296" y1="6.17544" y2="6.72405" gradientUnits="userSpaceOnUse">
      <stop stop-color="#fff"/>
      <stop offset="1" stop-color="#F6F7FF"/>
    </linearGradient>
  </defs>
</svg>
