<svg xmlns="http://www.w3.org/2000/svg" fill="none" viewBox="0 0 139 32">
  <g clip-path="url(#a)">
    <path fill="#A20ED3" d="M26.8426 13.6522c-2.0755-2.5253-3.577-4.73129-5.5067-7.8478C19.0442 8.57287 17.667 12.1256 17.667 16c0 1.2929.1536 2.5499.4432 3.7541 3.3928 2.8174 6.8118 3.1149 13.911 7.2797 2.8601 1.6779 4.4215 3.1221 5.2857 4.5502 3.7953-.883 7.0721-3.1163 9.2965-6.1665-1.9102-1.5256-4.4965-2.6269-7.4939-3.644-4.2131-1.4298-9.5292-4.7918-12.2669-8.1213Z"/>
    <path fill="#6C5DFE" d="M21.3354 5.80437c1.93 3.1165 3.4313 5.32233 5.5068 7.84783 2.7377 3.3295 8.0536 6.6915 12.2669 8.1212 2.9976 1.0173 5.5839 2.1185 7.4939 3.6441 1.5572-2.1355 2.5985-4.6715 2.9406-7.4243-.8103-3.43-2.1109-7.4611-6.4219-8.76997-4.8682-1.47813-11.5415-2.1046-16.249-7.71312-2.1502 1.00994-4.0392 2.48446-5.5373 4.29426Z"/>
    <path fill="#30C7FF" d="M33.6671.00003037C31.238.00003047 28.9352.541601 26.873 1.51017c4.7075 5.60853 11.3808 6.23517 16.249 7.71312 4.311 1.30891 5.6117 5.33981 6.4218 8.77001.0812-.6531.1233-1.3182.1233-1.9933 0-6.79416-4.2349-12.5991-10.209-14.91953L36.2618.209572c-.8445-.1377755-1.7113-.20954167-2.5947-.20954163Z"/>
    <path fill="#D60A99" d="M32.0214 27.0338c-7.0994-4.165-10.5185-4.4625-13.911-7.2799C19.7995 26.7794 26.1235 32 33.6672 32c1.252 0 2.4706-.1439 3.6399-.416-.8643-1.4283-2.4255-2.8723-5.2857-4.5502Z"/>
  </g>
  <mask id="b" width="17" height="16" x="61" y="8" maskUnits="userSpaceOnUse" style="mask-type:alpha">
    <path fill="#1F0860" d="M71.167 15.2877c.2761 0 .5-.2239.5-.5v-1.88l3.38 3.38-3.38 3.38v-1.88c0-.2762-.2239-.5-.5-.5h-7.5v-2h7.5Zm6.35 1.35c.0967-.0908.1515-.2175.1515-.35 0-.1326-.0548-.2593-.1515-.35l-6.79-6.79004c-.0939-.09466-.2217-.1479-.355-.1479-.1333 0-.2611.05324-.355.1479l-.2.19999c-.0977.09408-.152.22442-.15.36v3.58005h-7.5c-.2762 0-.5.2238-.5.5v5c0 .2761.2238.5.5.5h7.5v3.58c-.002.1355.0523.2659.15.36l.2.2c.0939.0946.2217.1479.355.1479.1333 0 .2611-.0533.355-.1479l6.79-6.79Z"/>
  </mask>
  <g mask="url(#b)">
    <path fill="#1F0860" d="M57.667 4h24v24h-24z"/>
  </g>
  <rect width="32" height="32" x="89.667" fill="url(#c)" rx="16"/>
  <path fill="#1F0860" d="M108.756 6h-5.883l-7.206 19h5.034l3.586-1.1583h3.055L110.935 25h4.732l-6.911-19Zm-6.648 14.8121 3.593-10.4977h.23c.048.134.093.2782.14.4375l3.451 10.0602-2.177-1.1583h-3.055l-2.18 1.1583h-.002Z"/>
  <defs>
    <linearGradient id="c" x1="89.667" x2="120.763" y1="6.17544" y2="6.72405" gradientUnits="userSpaceOnUse">
      <stop stop-color="#fff"/>
      <stop offset="1" stop-color="#F6F7FF"/>
    </linearGradient>
    <clipPath id="a">
      <path fill="#fff" d="M17.667 32V0h32v32z"/>
    </clipPath>
  </defs>
</svg>
