<svg xmlns="http://www.w3.org/2000/svg" fill="none" viewBox="0 0 138 32">
  <g clip-path="url(#a)">
    <mask id="b" width="32" height="32" x="17" y="0" maskUnits="userSpaceOnUse" style="mask-type:alpha">
      <path fill="#000" d="M33 32c8.8366 0 16-7.1634 16-16 0-8.83656-7.1634-16-16-16S17 7.16344 17 16c0 8.8366 7.1634 16 16 16Z"/>
    </mask>
    <g mask="url(#b)">
      <path fill="#6AEDCB" d="m28.0576 51.4751 16.5712 4.4368 9.864-36.9952L30.536 38.3711l-2.4784 13.104Z"/>
      <path fill="#30C7FF" d="M32.7135 38.0575c3.1392-3.344 6.9456-2.2592 10.1376-3.3824 2.0336-.7152 3.712-2.2096 4.8864-4.016 1.8528-2.8496 2.2448-6.6512 4.7744-8.9216.4944-.4448 1.0672-.8224 1.432-1.3776.2832-.4304.4224-.9392.5552-1.4368l5.4704-20.33435c-4.3152.947195-7.5904 4.36-10.5648 7.6256C36.8063 20.0415 24.5471 34.2415 10.6831 46.8015l17.3824 4.6768c1.2832.344 2.1792-6.0208 2.2592-6.5696.3616-2.5152.8032-4.8016 2.3888-6.8512Z"/>
      <path fill="#6C5DFE" d="M11.2989 46.9856s2.9248-1.9568 5.2288-2.5392 5.9696-2.0656 8.1168-4.2704c2.1472-2.2048 3.2176-4.3184 4.0432-7.6352.8256-3.3168 3.4944-6.2032 6.888-7.3168 3.3936-1.112 10.3392-1.336 12.112-7.2432 1.7728-5.9072 2.272-14.49125 12.1312-18.926444L66.3037-24.9856l-3.208-.8592L1.83172 40.8224l-2.320001 2.9984L11.2989 46.9856Z"/>
      <path fill="#A20ED3" d="M6.23502 45.6288s2.2928-1.968 3.86078-6.76c.8832-2.696 2.032-5.3168 3.8672-7.5104 2.792-3.3344 6.7632-5.1712 10.9488-6.0464.5776-.1216 1.1536-.2048 1.7152-.3904 1.0592-.352 2.064-.8528 2.984-1.4848 2.6736-1.8416 4.2417-5.2128 5.6433-9.3872 1.4016-4.1744 4.7119-9.4464 7.9983-12.1664 3.288-2.720007 6.0289-4.4496 11.0097-7.4752 4.9807-3.0256 10.5856-6.9568 11.2256-19.6112l-11.496-3.08L7.40622 14.36-.489746 43.8256l6.724766 1.8032Z"/>
      <path fill="#D60A99" d="M6.01123 19.5696s3.136-4.2768 9.66557-5.6544c6.5296-1.3776 9.432 1.5792 14.3488-6.86399 4.9168-8.4432 4.344-11.6288 9.1696-15.832 4.8256-4.20321 8.4912-5.87361 13.1056-8.23841 4.6144-2.3648 6.9937-3.464 8.5889-9.4176L45.8576-30.464 9.49123 6.57281l-3.48 12.99679Z"/>
      <path fill="#F005C4" d="M49.7549-29.4176c-2.9168 1.3345-6.3472 2.8161-8.0784 6.1425-1.7312 3.3264-3.6848 6.9728-6.264 9.8832s-4.9568 2.9344-7.8816 4.99515c-2.9232 2.0608-4.9728 6.5328-6.1792 9.62081-1.2064 3.088-2.9408 4.61439-5.5968 6.74719-2.656 2.13285-7.32961 2.58565-7.32961 2.58565L12.4301-4.38875l5.4976-11.31995 18.384-17.3121 13.4432 3.6032Z"/>
      <path fill="#FF744B" d="M10.9487 1.13598c.0272-.1024.456-.3168.5408-.3808.4976-.368.968-.7696028 1.4096-1.201602 1.7776-1.747198 2.1248-3.779198 2.568-6.121598.3056-1.6224.464-4.08798 1.6384-5.37118 1.1616-1.2688 2.1424-2.336 6.2-3.3312 2.5216-.6176 5.1168-1.5472 7.0672-3.376 2.2608-2.1184 2.8528-5.0976 4.1552-7.8064 1.0624-2.208 2.5696-4.5424 4.7536-5.7712l-18.0944-4.848L10.9487 1.13598Z"/>
      <path fill="#fff" d="M32.9999 30.432c7.9705 0 14.432-6.4614 14.432-14.432 0-7.97058-6.4615-14.43201-14.432-14.43201-7.9706 0-14.432 6.46143-14.432 14.43201 0 7.9706 6.4614 14.432 14.432 14.432Z"/>
      <path fill="#000" d="M27.6522 20.5836c-.1571 0-.2806-.0336-.3704-.1009-.0786-.0786-.1459-.1851-.2021-.3197l-3.1823-7.809-.0336-.1515c0-.101.0336-.1851.101-.2524.0786-.0786.174-.1178.2862-.1178h1.9027c.2469 0 .4097.1178.4883.3534l1.9026 5.1667 1.9195-5.1667c.0786-.2356.2413-.3534.4883-.3534h1.9026c.101 0 .1909.0392.2694.1178.0786.0673.1179.1514.1179.2524l-.0337.1515-3.1823 7.809c-.0561.1346-.1291.2411-.2189.3197-.0898.0673-.2133.1009-.3704.1009h-1.7848Zm10.1061.1683c-1.347 0-2.4078-.3646-3.1822-1.0939-.7746-.7293-1.1787-1.7896-1.2123-3.1808v-.589c.0448-1.324.4545-2.3562 1.2291-3.0967.7858-.7517 1.8353-1.1276 3.1486-1.1276.9541 0 1.7567.1964 2.4077.5891.6624.3815 1.1562.9088 1.4818 1.582.3368.6731.5051 1.4473.5051 2.3224v.404c0 .1121-.0394.2131-.1179.3029-.0786.0785-.1796.1179-.3031.1179h-5.388v.1177c.0224.5274.1515.9536.3872 1.2791.2359.3253.5783.488 1.0272.488.2807 0 .5107-.056.6903-.1683.1796-.1234.3424-.2693.4883-.4375.1011-.1235.1797-.1965.2357-.2189.0673-.0336.1685-.0504.3032-.0504h2.0878c.101 0 .1851.0336.2525.101.0785.056.1179.1346.1179.2355 0 .2919-.1683.6283-.5051 1.0098-.3256.3816-.8026.7125-1.4312.9929-.6286.2805-1.3695.4208-2.2226.4208Zm1.4144-5.4359v-.0337c0-.5498-.1291-.9817-.3873-1.2959-.2469-.3253-.5949-.488-1.0439-.488-.4377 0-.7857.1627-1.044.488-.2469.3142-.3704.7461-.3704 1.2959v.0337h2.8456Z"/>
    </g>
  </g>
  <mask id="c" width="17" height="16" x="61" y="8" maskUnits="userSpaceOnUse" style="mask-type:alpha">
    <path fill="#1F0860" d="M70.5 15.2877c.2761 0 .5-.2239.5-.5v-1.88l3.38 3.38-3.38 3.38v-1.88c0-.2762-.2239-.5-.5-.5H63v-2h7.5Zm6.35 1.35c.0967-.0908.1515-.2175.1515-.35 0-.1326-.0548-.2593-.1515-.35l-6.79-6.79004c-.0939-.09466-.2217-.1479-.355-.1479-.1333 0-.2611.05324-.355.1479l-.2.19999c-.0977.09408-.152.22442-.15.36v3.58005h-7.5c-.2761 0-.5.2238-.5.5v5c0 .2761.2239.5.5.5H69v3.58c-.002.1355.0523.2659.15.36l.2.2c.0939.0946.2217.1479.355.1479.1333 0 .2611-.0533.355-.1479l6.79-6.79Z"/>
  </mask>
  <g mask="url(#c)">
    <path fill="#1F0860" d="M57 4h24v24H57z"/>
  </g>
  <g clip-path="url(#d)">
    <path fill="#A20ED3" d="M98.1756 13.6522c-2.0755-2.5253-3.577-4.73129-5.5067-7.8478C90.3772 8.57287 89 12.1256 89 16c0 1.2929.1536 2.5499.4432 3.7541 3.3928 2.8174 6.8118 3.1149 13.9108 7.2797 2.86 1.6779 4.422 3.1221 5.286 4.5502 3.795-.883 7.072-3.1163 9.296-6.1665-1.91-1.5256-4.496-2.6269-7.493-3.644-4.214-1.4298-9.53-4.7918-12.2674-8.1213Z"/>
    <path fill="#6C5DFE" d="M92.6685 5.80437c1.9299 3.1165 3.4312 5.32233 5.5067 7.84783 2.7378 3.3295 8.0538 6.6915 12.2668 8.1212 2.998 1.0173 5.584 2.1185 7.494 3.6441 1.557-2.1355 2.598-4.6715 2.941-7.4243-.811-3.43-2.111-7.4611-6.422-8.76997-4.869-1.47813-11.542-2.1046-16.2492-7.71312-2.1503 1.00994-4.0393 2.48446-5.5373 4.29426Z"/>
    <path fill="#30C7FF" d="M105 .00003037c-2.429 1e-7-4.732.54157063-6.7939 1.51013963 4.7069 5.60853 11.3809 6.23517 16.2489 7.71312 4.311 1.30891 5.612 5.33981 6.422 8.77001.081-.6531.123-1.3182.123-1.9933 0-6.79416-4.235-12.5991-10.209-14.91953l-3.196-.870898C106.75.0717965 105.884.00003033 105 .00003037Z"/>
    <path fill="#D60A99" d="M103.354 27.0338c-7.099-4.165-10.518-4.4625-13.9106-7.2799C91.1325 26.7794 97.4565 32 105 32c1.252 0 2.471-.1439 3.64-.416-.864-1.4283-2.425-2.8723-5.286-4.5502Z"/>
  </g>
  <defs>
    <clipPath id="a">
      <path fill="#fff" d="M17 0h32v32H17z"/>
    </clipPath>
    <clipPath id="d">
      <path fill="#fff" d="M89 32V0h32v32z"/>
    </clipPath>
  </defs>
</svg>
