<svg xmlns="http://www.w3.org/2000/svg" fill="none" viewBox="0 0 24 24">
  <mask id="a" width="17" height="16" x="4" y="4" maskUnits="userSpaceOnUse" style="mask-type:alpha">
    <path fill="#1F0860" d="M13.5 11.2879c.2761 0 .5-.2239.5-.5v-1.88l3.38 3.38-3.38 3.38v-1.88c0-.2761-.2239-.5-.5-.5H6v-2h7.5Zm6.35 1.35c.0967-.0907.1515-.2174.1515-.35 0-.1326-.0548-.2593-.1515-.35l-6.79-6.79C12.9661 5.05324 12.8383 5 12.705 5c-.1333 0-.2611.05324-.355.1479l-.2.2c-.0977.09407-.152.22441-.15.36v3.58H4.5c-.27614 0-.5.22386-.5.5v5c0 .2761.22386.5.5.5H12v3.58c-.002.1356.0523.2659.15.36l.2.2c.0939.0947.2217.1479.355.1479.1333 0 .2611-.0532.355-.1479l6.79-6.79Z"/>
  </mask>
  <g mask="url(#a)">
    <path fill="#1F0860" d="M0 0h24v24H0z"/>
  </g>
</svg>
