<svg xmlns="http://www.w3.org/2000/svg" fill="none" viewBox="0 0 24 24">
  <path fill="#1F0860" d="M.387667 7.78956c-.122081-.15929-.170624-.36287-.133526-.56C1.03793 3.84715 3.63709 1.17867 7.00133.302435 10.3656-.573804 13.9389.487013 16.2773 3.05623l1.3352-1.33334c.1856-.20111.477-.2655.7303-.16137.2532.10412.4147.35474.4047.62804v5.18667c-.0137.36236-.3047.65297-.6676.66666h-5.2476c-.2671-.00374-.5063-.16611-.608-.41277-.1017-.24665-.0464-.53009.1407-.72056l1.9494-1.96c-1.6294-1.80602-4.1141-2.58328-6.4842-2.02837-2.3701.55491-4.24986 2.35401-4.90554 4.69504-.10165.26336-.35837.43426-.64092.42666H.948477c-.217527.01412-.427808-.08087-.56081-.25333ZM23.8348 21.9629l-5.341-5.3333c-.173-.1769-.3656-.3334-.5742-.4667l-1.3352-.92c.8878-1.0901 1.5177-2.3663 1.8426-3.7333.0371-.1972-.0114-.4008-.1335-.56-.1246-.1608-.3171-.2544-.5207-.2534h-1.3353c-.2967 0-.5578.1956-.6409.48-.6557 2.3411-2.5355 4.1402-4.9056 4.6951-2.37007.5549-4.85477-.2224-6.4842-2.0284l1.94948-1.96c.22335-.188.29835-.4992.18513-.7681-.11323-.2689-.38838-.4331-.67917-.4052H.668072c-.362892.0136-.6539218.3043-.66763032.6666v5.1734c-.01002772.2733.15147332.5239.40472332.628.253249.1041.544649.0397.730245-.1614l1.33526-1.3333c3.32379 3.6074 8.87593 4.0326 12.71173.9733l1.0014 1.3334c.1188.1717.2529.3323.4006.48l5.341 5.3333c.1254.1262.296.1972.474.1972.1781 0 .3487-.071.4741-.1972l.9346-.9333c.2452-.2487.2568-.6441.0267-.9067Z"/>
</svg>
