<svg width="24" height="24" viewBox="0 0 24 24" fill="none" xmlns="http://www.w3.org/2000/svg">
<circle cx="12" cy="12" r="12" fill="#1F0860"/>
<path d="M14.7907 11.3243H15.5349V12.027H14.7907V11.3243ZM8.46512 12.027H9.2093V11.3243H8.46512V12.027ZM20 11.3243V16.2432C20 16.4365 19.8326 16.5946 19.6279 16.5946H18.1395C17.9349 16.5946 17.7674 16.4365 17.7674 16.2432V14.1351H16.6512V16.2432C16.6512 16.4365 16.4837 16.5946 16.2791 16.5946H15.1628V17.6486C15.1628 17.8419 14.9953 18 14.7907 18H13.3023C13.0977 18 12.9302 17.8419 12.9302 17.6486V16.2432C12.9302 16.05 13.0977 15.8919 13.3023 15.8919H14.4186V15.1892H9.5814V15.8919H10.6977C10.9023 15.8919 11.0698 16.05 11.0698 16.2432V17.6486C11.0698 17.8419 10.9023 18 10.6977 18H9.2093C9.00465 18 8.83721 17.8419 8.83721 17.6486V16.5946H7.72093C7.51628 16.5946 7.34884 16.4365 7.34884 16.2432V14.1351H6.23256V16.2432C6.23256 16.4365 6.06512 16.5946 5.86047 16.5946H4.37209C4.16744 16.5946 4 16.4365 4 16.2432V11.3243C4 11.1311 4.16744 10.973 4.37209 10.973H5.86047V9.56757C5.86047 9.37432 6.02791 9.21622 6.23256 9.21622H7.72093V8.16216C7.72093 7.96892 7.88837 7.81081 8.09302 7.81081H9.2093V7.10811H8.09302C7.88837 7.10811 7.72093 6.95 7.72093 6.75676V5.35135C7.72093 5.15811 7.88837 5 8.09302 5H9.5814C9.78605 5 9.95349 5.15811 9.95349 5.35135V6.40541H11.0698C11.2744 6.40541 11.4419 6.56351 11.4419 6.75676V7.81081H12.5581V6.75676C12.5581 6.56351 12.7256 6.40541 12.9302 6.40541H14.0465V5.35135C14.0465 5.15811 14.214 5 14.4186 5H15.907C16.1116 5 16.2791 5.15811 16.2791 5.35135V6.75676C16.2791 6.95 16.1116 7.10811 15.907 7.10811H14.7907V7.81081H15.907C16.1116 7.81081 16.2791 7.96892 16.2791 8.16216V9.21622H17.7674C17.9721 9.21622 18.1395 9.37432 18.1395 9.56757V10.973H19.6279C19.8326 10.973 20 11.1311 20 11.3243ZM9.95349 10.973C9.95349 10.7797 9.78605 10.6216 9.5814 10.6216H8.09302C7.88837 10.6216 7.72093 10.7797 7.72093 10.973V12.3784C7.72093 12.5716 7.88837 12.7297 8.09302 12.7297H9.5814C9.78605 12.7297 9.95349 12.5716 9.95349 12.3784V10.973ZM16.2791 10.973C16.2791 10.7797 16.1116 10.6216 15.907 10.6216H14.4186C14.214 10.6216 14.0465 10.7797 14.0465 10.973V12.3784C14.0465 12.5716 14.214 12.7297 14.4186 12.7297H15.907C16.1116 12.7297 16.2791 12.5716 16.2791 12.3784V10.973Z" fill="white"/>
</svg>
