<svg width="24" height="18" viewBox="0 0 24 18" fill="none" xmlns="http://www.w3.org/2000/svg">
<path d="M20.3304 1.50747C18.7536 0.793111 17.089 0.286306 15.3791 0C15.1454 0.414112 14.9337 0.839967 14.7448 1.27584C12.9233 1.00513 11.0712 1.00513 9.24975 1.27584C9.06082 0.839967 8.84912 0.414112 8.61549 0C6.90468 0.289588 5.23906 0.797562 3.66032 1.51121C0.526767 6.099 -0.32269 10.5729 0.102039 14.9832C1.93693 16.3252 3.99097 17.3456 6.17472 18C6.66623 17.3455 7.1013 16.6513 7.47533 15.9247C6.7652 15.6623 6.07984 15.3385 5.42719 14.957C5.59897 14.8337 5.76698 14.7067 5.92932 14.5834C7.82851 15.4673 9.90138 15.9255 12.0001 15.9255C14.0988 15.9255 16.1717 15.4673 18.0709 14.5834C18.2351 14.7161 18.4031 14.8431 18.573 14.957C17.9193 15.3395 17.2327 15.6639 16.5211 15.9265C16.8944 16.6529 17.3295 17.3466 17.8217 18C20.0073 17.3483 22.0629 16.3283 23.8982 14.9851C24.3965 9.87049 23.0468 5.43773 20.3304 1.50747ZM8.01332 12.2709C6.82974 12.2709 5.85192 11.208 5.85192 9.90037C5.85192 8.59278 6.79576 7.52055 8.00954 7.52055C9.22332 7.52055 10.1936 8.59278 10.1728 9.90037C10.1521 11.208 9.21955 12.2709 8.01332 12.2709ZM15.9869 12.2709C14.8014 12.2709 13.8274 11.208 13.8274 9.90037C13.8274 8.59278 14.7712 7.52055 15.9869 7.52055C17.2026 7.52055 18.1653 8.59278 18.1445 9.90037C18.1237 11.208 17.1931 12.2709 15.9869 12.2709Z" fill="#32C7FE"/>
</svg>
