<svg xmlns="http://www.w3.org/2000/svg" fill="none" viewBox="0 0 24 19">
  <path fill="#9388DB" d="M20.3303 2.50454c-1.5768-.71436-3.2414-1.22116-4.9514-1.50747-.2336.41411-.4453.83997-.6342 1.27584-1.8215-.27071-3.6736-.27071-5.49507 0-.18893-.43587-.40063-.86173-.63426-1.27584-1.71081.28959-3.37643.79756-4.95517 1.51121C.526645 7.09607-.322812 11.5699.101917 15.9803c1.834893 1.342 3.888933 2.3624 6.072673 3.0168.49152-.6545.92659-1.3488 1.30062-2.0754-.71013-.2623-1.39549-.5861-2.04814-.9676.17178-.1233.33978-.2503.50212-.3736 1.8992.8838 3.97207 1.3421 6.07081 1.3421 2.0987 0 4.1716-.4583 6.0708-1.3421.1642.1326.3322.2597.5021.3736-.6537.3825-1.3404.7069-2.0519.9695.3733.7264.8084 1.4201 1.3006 2.0735 2.1856-.6518 4.2412-1.6717 6.0764-3.015.4984-5.1145-.8513-9.5473-3.5677-13.47756ZM8.0132 13.2679c-1.18358 0-2.1614-1.0629-2.1614-2.3705 0-1.30755.94384-2.37978 2.15762-2.37978s2.18408 1.07223 2.16328 2.37978c-.0208 1.3076-.95327 2.3705-2.1595 2.3705Zm7.9736 0c-1.1855 0-2.1595-1.0629-2.1595-2.3705 0-1.30755.9438-2.37978 2.1595-2.37978 1.2156 0 2.1784 1.07223 2.1576 2.37978-.0208 1.3076-.9514 2.3705-2.1576 2.3705Z"/>
</svg>
