<svg width="32" height="19" viewBox="0 0 32 19" fill="none" xmlns="http://www.w3.org/2000/svg">
<path d="M9.00978 0C13.9752 0 18.0196 4.04966 18.0196 9.06162C18.0196 14.0736 13.9752 18.1232 9.00978 18.1232C4.04439 18.1232 0 14.1137 0 9.06162C0 4.00957 4.04439 0 9.00978 0ZM23.4254 0.521244C25.8681 0.521244 27.9103 4.37043 27.9103 9.06162C27.9103 13.7929 25.9081 17.602 23.4254 17.602C20.9427 17.602 18.9406 13.7929 18.9406 9.06162C18.9406 4.33033 20.9427 0.521244 23.4254 0.521244ZM30.3129 1.40335C31.2339 1.40335 31.9146 4.85158 31.9146 9.06162C31.9146 13.2717 31.1939 16.7199 30.3129 16.7199C29.4408 16.7199 28.7256 13.3403 28.7114 9.18769L28.7112 9.06162C28.7112 4.85158 29.432 1.40335 30.3129 1.40335Z" fill="#32C7FE"/>
</svg>
