<svg width="22" height="20" viewBox="0 0 22 20" fill="none" xmlns="http://www.w3.org/2000/svg">
<path fill-rule="evenodd" clip-rule="evenodd" d="M16.852 18.8806C17.1472 19.0896 17.5276 19.1419 17.8667 19.0136C18.2059 18.8843 18.4552 18.5946 18.5304 18.2436C19.327 14.4999 21.2593 5.02431 21.9844 1.61889C22.0394 1.36223 21.9477 1.09548 21.7461 0.924058C21.5444 0.752642 21.2648 0.703142 21.0155 0.795725C17.1719 2.21839 5.335 6.65964 0.496832 8.44989C0.189748 8.56356 -0.0100848 8.85873 -1.51171e-06 9.18231C0.0109985 9.50681 0.229165 9.78823 0.543582 9.88264C2.71333 10.5316 5.56141 11.4346 5.56141 11.4346C5.56141 11.4346 6.89241 15.4541 7.58633 17.4983C7.67341 17.755 7.87416 17.9566 8.13908 18.0263C8.40308 18.0951 8.68541 18.0226 8.8825 17.8366C9.99716 16.7842 11.7205 15.1571 11.7205 15.1571C11.7205 15.1571 14.9948 17.5579 16.852 18.8806ZM6.7595 10.9267L8.29858 16.0032L8.6405 12.7885C8.6405 12.7885 14.5869 7.42506 17.9767 4.36798C18.0757 4.27814 18.0895 4.12781 18.007 4.02239C17.9254 3.91698 17.7751 3.89223 17.6623 3.96373C13.7335 6.47264 6.7595 10.9267 6.7595 10.9267Z" fill="#32C7FE"/>
</svg>
