<svg width="23" height="18" viewBox="0 0 23 18" fill="none" xmlns="http://www.w3.org/2000/svg">
<path d="M23 2.13219C22.1378 2.49789 21.2236 2.73745 20.2879 2.84296C21.2743 2.27666 22.0134 1.38434 22.3675 0.332188C21.4388 0.858132 20.4248 1.22949 19.3679 1.43065C18.6559 0.703804 17.7153 0.222901 16.6914 0.0621793C15.6674 -0.0985427 14.617 0.0698522 13.7022 0.541369C12.7875 1.01289 12.0594 1.76131 11.6302 2.6711C11.201 3.58089 11.0946 4.60146 11.3275 5.57526C9.45169 5.48426 7.61661 5.01492 5.94102 4.19761C4.26543 3.38031 2.78666 2.23324 1.60042 0.830649C0.998001 1.83063 0.813314 3.01398 1.08386 4.14037C1.35441 5.26676 2.05991 6.25174 3.05708 6.89526C2.32073 6.87251 1.60087 6.67938 0.958333 6.33219C0.943555 7.38614 1.30907 8.41236 1.99247 9.2356C2.67587 10.0588 3.63476 10.628 4.70542 10.846C4.01168 11.0285 3.28349 11.0538 2.57792 10.9199C2.87815 11.8238 3.46481 12.6143 4.25549 13.1806C5.04617 13.7468 6.00114 14.0602 6.98625 14.0768C5.00222 15.5571 2.49052 16.2209 0 15.923C2.158 17.2589 4.67014 17.9672 7.23542 17.963C9.0533 17.9754 10.8546 17.6298 12.5288 16.9473C14.203 16.2649 15.7147 15.2601 16.9711 13.9946C18.2276 12.729 19.2022 11.2295 19.8352 9.58805C20.4682 7.94658 20.7462 6.19781 20.6521 4.44911C21.569 3.81461 22.3636 3.03048 23 2.13219Z" fill="#32C7FE"/>
</svg>
