<svg xmlns="http://www.w3.org/2000/svg" fill="none" viewBox="0 0 23 18">
  <path fill="#9388DB" d="M22.9999 2.12926c-.8623.3657-1.7764.60526-2.7121.71077.9864-.5663 1.7255-1.45862 2.0796-2.510772-.9287.525944-1.9428.897302-2.9996 1.098462-.712-.726846-1.6526-1.207748-2.6765-1.3684703-1.024-.1607217-2.0744.0076728-2.9892.4791893-.9147.471521-1.6429 1.219941-2.0721 2.129731-.4292.90979-.5355 1.93036-.3026 2.90416-1.87583-.091-3.71091-.56034-5.3865-1.37765-1.67559-.8173-3.15436-1.96437-4.34061-3.366961C.997879 1.8277.813192 3.01105 1.08374 4.13744c.27055 1.12639.97605 2.11137 1.97322 2.75489-.73636-.02275-1.45621-.21588-2.098749-.56307-.014778 1.05395.350739 2.08017 1.034139 2.90341.6834.82323 1.64229 1.39243 2.71294 1.61043-.69373.1825-1.42192.2078-2.1275.0739.30024.9038.8869 1.6944 1.67758 2.2606.79068.5663 1.74565.8797 2.73076.8963C5.0021 15.5542 2.4904 16.2179-.000122 15.92c2.158002 1.336 4.670142 2.0443 7.235412 2.04 1.81788.0124 3.61921-.3332 5.29341-1.0156 1.6742-.6824 3.1859-1.6872 4.4423-2.9528 1.2564-1.2655 2.2311-2.765 2.8641-4.40648.6329-1.64147.9109-3.39024.8169-5.13894.9169-.6345 1.7115-1.41863 2.3479-2.31692Z"/>
</svg>
