<svg width="24" height="24" viewBox="0 0 24 24" fill="none" xmlns="http://www.w3.org/2000/svg">
<path d="M12 24C18.6274 24 24 18.6274 24 12C24 5.37258 18.6274 0 12 0C5.37258 0 0 5.37258 0 12C0 18.6274 5.37258 24 12 24Z" fill="#1F0860"/>
<path fill-rule="evenodd" clip-rule="evenodd" d="M19.9791 14.2033C19.9671 14.1276 19.9235 14.0841 19.867 14.042C19.1504 13.5095 18.4341 12.9765 17.719 12.4417C17.6549 12.3938 17.5874 12.3582 17.5136 12.3293C15.416 11.5099 13.3183 10.6906 11.2219 9.86823C9.94455 9.36711 8.67331 8.84931 7.34052 8.50578C7.28397 8.49132 7.23039 8.47556 7.17144 8.48038C6.56873 8.52821 5.96583 8.57474 5.3633 8.62332C5.31714 8.62702 5.26801 8.62183 5.21684 8.65409C5.19385 8.77219 5.12137 8.88416 5.11914 9.02525C5.18217 9.02525 5.23464 9.02488 5.28692 9.02525C5.94432 9.03229 6.60191 9.04138 7.2595 9.04471C7.40429 9.04546 7.53815 9.07549 7.672 9.1274C10.8993 10.3797 14.1263 11.6326 17.3558 12.879C17.6862 13.0066 17.9932 13.1643 18.2837 13.3668C18.8301 13.7479 19.3862 14.1148 19.9469 14.4932C20.0129 14.3929 20.0099 14.3929 19.9791 14.2033Z" fill="white"/>
<path fill-rule="evenodd" clip-rule="evenodd" d="M19.6841 14.6996C19.2669 14.4469 18.8498 14.194 18.4312 13.9436C18.2697 13.8468 18.1168 13.7343 17.9392 13.666C14.4486 12.3243 10.9576 10.983 7.46723 9.64004C7.38733 9.60927 7.30724 9.59258 7.22307 9.58405C6.7366 9.53567 6.25031 9.48579 5.76403 9.43685C5.50837 9.41108 5.25253 9.38661 4.99261 9.36084C4.95219 9.48431 4.89324 9.59369 4.88916 9.72365C5.46555 9.83452 6.03266 9.94001 6.59811 10.0537C6.85488 10.1054 7.11925 10.1273 7.36582 10.2212C10.6886 11.489 14.011 12.7578 17.3333 14.0276C17.6659 14.1547 18.0079 14.2602 18.3268 14.4187C18.6976 14.603 19.0589 14.8056 19.4254 14.9985C19.4659 15.0198 19.5016 15.0563 19.5639 15.0487C19.6292 14.9566 19.698 14.8594 19.7627 14.7678C19.7428 14.7243 19.71 14.7152 19.6841 14.6996Z" fill="white"/>
<path fill-rule="evenodd" clip-rule="evenodd" d="M8.46217 11.2053C8.00666 11.0329 7.55542 10.847 7.09305 10.6961C6.59045 10.532 6.07709 10.4013 5.56819 10.2567C5.32829 10.1886 5.08802 10.1221 4.83496 10.0513C4.83496 10.1827 4.83496 10.2973 4.83496 10.436C9.57008 12.217 14.3039 13.9975 19.0453 15.781C19.1404 15.6462 19.229 15.5207 19.3258 15.3832C18.9892 15.2339 18.6747 15.0771 18.3481 14.9527C15.0538 13.7005 11.7577 12.4532 8.46217 11.2053Z" fill="white"/>
<path fill-rule="evenodd" clip-rule="evenodd" d="M5.45605 8.24843C5.87059 8.18076 6.28476 8.11031 6.69948 8.04394C6.88951 8.01335 7.07416 7.9746 7.27309 8.03578C7.90416 8.22952 8.54062 8.40546 9.17485 8.58974C9.61757 8.71821 10.0709 8.81517 10.5002 8.98333C12.7679 9.87154 15.0327 10.7677 17.2986 11.6604C17.3625 11.6856 17.4232 11.7129 17.4773 11.757C18.1697 12.3217 18.8622 12.8864 19.5569 13.4483C19.661 13.5325 19.7554 13.6315 19.8848 13.696C19.8998 13.6 19.8576 13.5208 19.8576 13.4372C19.8576 13.3401 19.8095 13.2737 19.7376 13.2107C18.9172 12.4952 18.0985 11.7778 17.2812 11.0586C17.2164 11.0019 17.1469 10.962 17.068 10.9307C15.6363 10.3632 14.2055 9.79423 12.7743 9.22619C12.414 9.08325 12.061 8.91325 11.6903 8.80813C10.1322 8.36634 8.56861 7.94494 7.00742 7.51427C6.93345 7.49388 6.86504 7.49425 6.79144 7.51353C6.59362 7.56544 6.39414 7.61105 6.19577 7.66073C5.95772 7.72043 5.72005 7.78216 5.48256 7.84279C5.43844 7.98128 5.39747 8.10975 5.35742 8.23545C5.39376 8.26326 5.42639 8.25343 5.45605 8.24843Z" fill="white"/>
<path fill-rule="evenodd" clip-rule="evenodd" d="M8.23483 12.2616C7.73964 12.0764 7.23482 11.9149 6.75539 11.6902C6.14823 11.4056 5.54422 11.1142 4.93798 10.8277C4.89942 10.8096 4.8629 10.7662 4.80469 10.7979C4.80469 10.911 4.80469 11.0261 4.80469 11.1474C4.82341 11.1598 4.84381 11.1753 4.86605 11.188C5.50269 11.5537 6.13896 11.9197 6.77634 12.2836C6.83492 12.3172 6.89944 12.3411 6.96303 12.3648C8.73075 13.0204 10.4987 13.6754 12.2666 14.3304C14.2406 15.0616 16.2149 15.7926 18.1973 16.5265C18.3627 16.4166 18.5306 16.305 18.7214 16.178C18.647 16.1494 18.6003 16.1309 18.5532 16.1133C15.1135 14.8298 11.6735 13.5476 8.23483 12.2616Z" fill="white"/>
<path fill-rule="evenodd" clip-rule="evenodd" d="M17.6221 16.8129C17.106 16.6236 16.5898 16.4339 16.0737 16.2443C13.0115 15.1184 9.9496 13.9927 6.8871 12.8679C6.79273 12.8332 6.7056 12.7893 6.62236 12.7331C6.05691 12.3514 5.49016 11.9719 4.92341 11.592C4.88133 11.5638 4.84388 11.526 4.77881 11.5142C4.77881 11.6395 4.77881 11.7581 4.77881 11.8938C5.38004 12.3596 5.98201 12.8256 6.58398 13.2921C6.63441 13.3312 6.69169 13.3544 6.75139 13.3762C9.59494 14.4135 12.4379 15.4523 15.2811 16.4905C15.92 16.7237 16.5594 16.956 17.1998 17.189C17.3629 17.075 17.5342 16.9801 17.6823 16.8563C17.6632 16.8223 17.6416 16.8201 17.6221 16.8129Z" fill="white"/>
<path fill-rule="evenodd" clip-rule="evenodd" d="M6.8919 7.09761C8.66555 7.56795 10.4401 8.03495 12.2132 8.50659C12.5727 8.60226 12.9405 8.67067 13.2872 8.8086C14.4658 9.2769 15.6424 9.74965 16.8204 10.2193C16.9146 10.2571 16.9964 10.3075 17.0707 10.3776C17.9241 11.1829 18.7789 11.9868 19.6343 12.7899C19.671 12.8246 19.7 12.8726 19.7685 12.8871C19.743 12.6866 19.7278 12.5083 19.565 12.3487C18.7085 11.5085 17.8622 10.6575 17.0208 9.8023C16.8323 9.61098 16.6285 9.46804 16.3759 9.3733C15.4939 9.04275 14.6387 8.65009 13.7149 8.42428C11.3769 7.85327 9.0482 7.24536 6.71541 6.65303C6.6609 6.63913 6.60565 6.62189 6.54633 6.64729C6.28659 6.75815 6.02574 6.86642 5.76619 6.97525C5.71744 7.12486 5.67127 7.26743 5.61621 7.43669C5.97179 7.31915 6.2966 7.21644 6.6177 7.10317C6.71318 7.0698 6.79772 7.07258 6.8919 7.09761Z" fill="white"/>
<path fill-rule="evenodd" clip-rule="evenodd" d="M6.66014 13.8531C6.58932 13.8275 6.52888 13.7936 6.47271 13.7439C5.95175 13.2854 5.4295 12.8284 4.90688 12.372C4.86201 12.3329 4.81974 12.2873 4.74707 12.2593C4.74707 12.3948 4.74707 12.5144 4.74707 12.6453C5.2721 13.1597 5.80622 13.6818 6.33756 14.2066C6.41802 14.2862 6.50626 14.3409 6.61305 14.3792C9.38264 15.3737 12.1515 16.3705 14.9207 17.3669C15.3538 17.5226 15.7874 17.6772 16.2259 17.834C16.3853 17.7286 16.542 17.6249 16.7273 17.5027C16.5127 17.424 16.3276 17.3555 16.1424 17.2882C12.9817 16.1425 9.82127 14.9972 6.66014 13.8531Z" fill="white"/>
<path fill-rule="evenodd" clip-rule="evenodd" d="M6.57024 6.28117C7.11956 6.41836 7.67073 6.54869 8.22079 6.6831C10.4468 7.22667 12.6732 7.76839 14.8983 8.3166C15.3959 8.43914 15.9057 8.52109 16.3775 8.73744C16.4606 8.77563 16.5299 8.82235 16.5922 8.88872C17.3814 9.72818 18.1719 10.5665 18.9623 11.4047C19.1818 11.6372 19.4016 11.8691 19.6213 12.1012C19.6128 11.929 19.6323 11.761 19.5058 11.6205C18.5203 10.5259 17.5388 9.42766 16.5581 8.32902C16.5091 8.27433 16.4537 8.24485 16.3859 8.22909C15.1244 7.93358 13.8636 7.63825 12.6024 7.34217C10.601 6.87239 8.59918 6.40446 6.59934 5.92818C6.41135 5.88332 6.25284 5.88684 6.10286 6.00994C6.09489 6.01643 6.08673 6.0231 6.07097 6.03627C6.02333 6.18625 5.97309 6.34383 5.91357 6.53089C6.0871 6.44469 6.23226 6.37461 6.37502 6.30008C6.43972 6.26634 6.49793 6.263 6.57024 6.28117Z" fill="white"/>
<path fill-rule="evenodd" clip-rule="evenodd" d="M15.6135 18.0838C12.5714 16.9959 9.5285 15.9099 6.48546 14.8244C6.40926 14.7974 6.34641 14.7588 6.29154 14.6987C5.84752 14.2137 5.40165 13.7308 4.95615 13.2473C4.88663 13.172 4.81711 13.0966 4.7207 12.9922C4.7207 13.1566 4.7207 13.2801 4.7207 13.4186C5.20921 14.0024 5.70922 14.5981 6.2057 15.1965C6.26391 15.2666 6.3377 15.2953 6.41686 15.3235C8.92412 16.2121 11.4316 17.1007 13.9388 17.9895C14.3825 18.1469 14.8259 18.3048 15.2764 18.4646C15.4334 18.3604 15.5884 18.2573 15.7442 18.1539C15.7088 18.0979 15.6554 18.0988 15.6135 18.0838Z" fill="white"/>
<path fill-rule="evenodd" clip-rule="evenodd" d="M6.31821 15.7664C6.23126 15.7356 6.16303 15.6896 6.10648 15.6147C5.81854 15.2328 5.5269 14.8538 5.236 14.4744C5.06431 14.2507 4.8917 14.0276 4.71945 13.8042C4.71055 13.8066 4.70147 13.8086 4.69238 13.8111C4.69238 13.9347 4.69238 14.0584 4.69238 14.2062C5.11845 14.811 5.5612 15.4367 6.00024 16.0652C6.06347 16.1557 6.1393 16.2091 6.24424 16.2458C8.54958 17.0499 10.8536 17.8576 13.1582 18.6643C13.5576 18.8042 13.9579 18.9416 14.3547 19.079C14.5102 18.9756 14.6574 18.8775 14.8286 18.7636C14.7594 18.7379 14.7203 18.7229 14.6808 18.7089C11.8932 17.7278 9.10599 16.7466 6.31821 15.7664Z" fill="white"/>
<path fill-rule="evenodd" clip-rule="evenodd" d="M11.058 6.64161C12.8585 7.04873 14.6587 7.4579 16.4596 7.86316C16.5367 7.88041 16.5903 7.91211 16.6409 7.97125C17.554 9.04449 18.4687 10.1161 19.3838 11.1878C19.425 11.236 19.4609 11.2915 19.5251 11.3245C19.5154 11.1053 19.4582 10.9266 19.3176 10.7568C18.4958 9.7653 17.6817 8.7677 16.8769 7.7625C16.7264 7.57432 16.5686 7.44659 16.325 7.4299C16.2423 7.42415 16.1617 7.39264 16.0797 7.37503C14.5573 7.04484 13.0347 6.71577 11.5124 6.38447C9.99033 6.05299 8.46881 5.71891 6.94636 5.38836C6.89742 5.37779 6.84792 5.35183 6.79304 5.3713C6.63101 5.42877 6.46842 5.48402 6.27783 5.54983C6.34142 5.57097 6.37405 5.58487 6.40798 5.59247C7.95786 5.94268 9.5083 6.29103 11.058 6.64161Z" fill="white"/>
<path fill-rule="evenodd" clip-rule="evenodd" d="M7.37478 5.2114C8.23741 5.39271 9.10042 5.57292 9.96305 5.75386C12.1659 6.21604 14.3687 6.67971 16.5725 7.13726C16.6921 7.1621 16.767 7.21624 16.8385 7.30782C17.6685 8.37328 18.5017 9.43632 19.3343 10.4999C19.3526 10.5233 19.3636 10.5589 19.4146 10.5492C19.3721 10.4067 19.3986 10.253 19.2974 10.1193C18.4887 9.05126 17.6845 7.97969 16.8799 6.90867C16.8335 6.84694 16.7811 6.81301 16.7012 6.79706C16.0475 6.66803 15.3951 6.53121 14.7419 6.39921C12.4684 5.93962 10.1946 5.48115 7.92095 5.02174C7.88498 5.01433 7.85068 4.99931 7.81323 5.01266C7.65862 5.06791 7.50381 5.12297 7.34326 5.18007C7.36106 5.19842 7.36699 5.20973 7.37478 5.2114Z" fill="white"/>
<path fill-rule="evenodd" clip-rule="evenodd" d="M6.17878 16.6835C6.06494 16.6442 5.98429 16.5845 5.91735 16.4799C5.54951 15.9052 5.1735 15.3358 4.79917 14.7653C4.76246 14.7093 4.73594 14.6452 4.65603 14.5854C4.65955 14.7436 4.60097 14.8871 4.66271 14.9998C4.80362 15.2568 4.93989 15.5212 5.12641 15.748C5.38023 16.0565 5.65426 16.3483 5.91847 16.6483C5.96778 16.7045 6.02396 16.7482 6.08978 16.784C6.64248 17.0844 7.19425 17.3869 7.74584 17.6893C7.81963 17.7298 7.89602 17.763 7.97574 17.7906C9.42692 18.2908 10.8777 18.7927 12.3287 19.2937C12.7042 19.4233 13.0798 19.5518 13.4534 19.6799C13.6001 19.5694 13.7577 19.4904 13.8973 19.368C13.8683 19.3541 13.8552 19.3461 13.8411 19.3413C11.2873 18.4549 8.73331 17.5681 6.17878 16.6835Z" fill="white"/>
<path fill-rule="evenodd" clip-rule="evenodd" d="M19.2633 9.80873C19.2755 9.80354 19.2881 9.79835 19.3006 9.79316C19.2618 9.6554 19.2776 9.50949 19.1852 9.37859C18.4614 8.35403 17.7418 7.32632 17.0234 6.29769C16.9707 6.2226 16.9086 6.18811 16.8196 6.17161C16.0609 6.03181 15.3032 5.88738 14.5452 5.7448C13.6788 5.58183 12.8123 5.4196 11.946 5.25644C10.9715 5.07289 9.99666 4.88971 9.02254 4.70448C8.81062 4.66425 8.55012 4.71746 8.34766 4.85559C11.1994 5.41218 14.0448 5.96785 16.8758 6.52054C17.6796 7.62761 18.4712 8.71817 19.2633 9.80873Z" fill="white"/>
<path fill-rule="evenodd" clip-rule="evenodd" d="M19.1652 9.09713C19.1613 8.84775 19.0562 8.63899 18.9323 8.44802C18.3388 7.53174 17.7337 6.62306 17.135 5.71012C17.0931 5.64634 17.0412 5.6189 16.9698 5.60647C15.9867 5.43646 15.0037 5.26681 14.0214 5.09382C12.6719 4.8565 11.3215 4.62234 9.97401 4.37259C9.71944 4.32531 9.51976 4.42339 9.30469 4.52314C11.87 4.99 14.4351 5.45667 17.0082 5.92482C17.7255 6.98015 18.4454 8.03864 19.1652 9.09713Z" fill="white"/>
<path fill-rule="evenodd" clip-rule="evenodd" d="M18.3492 7.27883C18.3605 7.27179 18.3715 7.26493 18.3828 7.25788C18.1091 6.47547 17.6239 5.80911 17.1943 5.10383C16.398 4.97441 15.6 4.84611 14.8026 4.71484C13.4867 4.49829 12.1703 4.28488 10.8565 4.05739C10.6144 4.01549 10.4231 4.10578 10.2188 4.20516C12.5241 4.59674 14.8296 4.9885 17.1298 5.37934C17.5394 6.01751 17.9445 6.64826 18.3492 7.27883Z" fill="white"/>
<path fill-rule="evenodd" clip-rule="evenodd" d="M17.2563 4.79714C17.2444 4.79343 17.23 4.78768 17.2149 4.7849C16.2525 4.59727 15.2897 4.40982 14.327 4.22293C13.4927 4.06089 12.6574 3.90514 11.8176 3.77332C11.5563 3.73235 11.3209 3.75682 11.0659 3.89587C13.1504 4.22701 15.2114 4.55462 17.2737 4.88224C17.2835 4.85591 17.2824 4.82625 17.2563 4.79714Z" fill="white"/>
<path fill-rule="evenodd" clip-rule="evenodd" d="M12.9275 19.9285C12.1002 19.6445 11.2724 19.3619 10.4457 19.0764C10.3884 19.0568 10.3342 19.0506 10.2549 19.0599C10.9053 19.4151 11.5349 19.7578 12.1629 20.103C12.2927 20.1746 12.4295 20.2218 12.5754 20.2597C12.7184 20.1636 12.8598 20.0689 13.0002 19.9749C12.9796 19.9337 12.9501 19.9363 12.9275 19.9285Z" fill="white"/>
</svg>
