<svg xmlns="http://www.w3.org/2000/svg" fill="none" viewBox="0 0 24 24">
  <g clip-path="url(#a)">
    <path fill="#1F0860" d="M6.79146 8.21784c1.78626-2.53199 3.82024-4.66793 5.72684-6.01326 2.0442-1.438803 3.7508-1.821107 4.8093-1.0629L20.38 3.33023c1.0577.75836 1.2644 2.50738.5814 4.92683-.6368 2.25544-1.9712 4.89384-3.7578 7.42414-2.5888 3.6721-6.0884 6.9576-8.63751 7.4201-.72291.1315-1.36958.0365-1.8975-.3424l-3.05217-2.1877c-1.0577-.7584-1.26461-2.5082-.58147-4.9268.63486-2.2569 1.96955-4.8935 3.75651-7.42656ZM13.083 3.009c-1.8198 1.28419-3.77024 3.33558-5.49414 5.78331-1.7239 2.44779-3.00807 4.97379-3.61549 7.12429-.54507 1.9302-.46761 3.371.20737 3.8548.67499.4838 2.05009.0844 3.68016-1.0684 1.81638-1.2836 3.7667-3.3358 5.4912-5.7801s3.0076-4.9764 3.615-7.12689c.5442-1.93001.4668-3.37528-.2074-3.85476-.274-.19651-.6627-.24678-1.1404-.15994-.6947.12631-1.5721.5446-2.5397 1.22832l.0034-.00063Zm-.3762 16.4057-2.2392-1.6054c-.59838.5745-1.2342 1.1081-1.90323 1.5973l2.20583 1.5821c.6818-.4762 1.3279-1.002 1.9332-1.5734l.0034-.0006Zm2.3271-2.4996-2.2535-1.6161c-.5262.6453-1.0649 1.251-1.6068 1.8102l2.2463 1.6103c.5283-.5416 1.0693-1.1442 1.6106-1.8038l.0034-.0006Zm3.7764-5.8365-2.2472-1.60569c-.346.69959-.7376 1.41029-1.1695 2.12279l2.2535 1.6162c.4307-.724.8208-1.4334 1.1632-2.1333Zm1.0035-6.94911-1.5407-1.10365c.067.621.0157 1.35334-.1557 2.18309l2.1747 1.56108c.2072-1.31204.0437-2.26499-.48-2.64021l.0017-.00031Zm.2539 3.68355L17.861 6.23111c-.2395.79706-.5309 1.57726-.8721 2.33556l2.2392 1.60533c.313-.71082.5779-1.44233.7927-2.18947.0146-.056.0307-.11317.0452-.16917l.0017-.00032Zm-2.9402 6.22606-2.2554-1.6167c-.2294.3566-.4701.7125-.7221 1.0678-.2521.3553-.5064.7012-.763 1.0378l2.2544 1.6159c.2567-.333.5113-.6787.7639-1.0371.2527-.3583.4929-.7136.7208-1.0657l.0014-.002Zm-9.89506 7.9174c.52691.3782 1.46471.2246 2.63026-.4097l-2.17467-1.5611c-.72151.4353-1.39177.7252-1.99486.8651l1.53927 1.1057Z"/>
    <path fill="gold" d="M13.083 3.009c-1.8198 1.28419-3.77024 3.33558-5.49414 5.78331-1.7239 2.44779-3.00807 4.97379-3.61549 7.12429-.54507 1.9302-.46761 3.371.20737 3.8548.67499.4838 2.05009.0844 3.68016-1.0684 1.81638-1.2836 3.7667-3.3358 5.4912-5.7801s3.0076-4.9764 3.615-7.12689c.5442-1.93001.4668-3.37528-.2074-3.85476-.274-.19651-.6627-.24678-1.1404-.15994-.6947.12631-1.5721.5446-2.5397 1.22832l.0034-.00063Zm6.7308 1.12049-1.5407-1.10365c.067.621.0157 1.35334-.1557 2.18309l2.1747 1.56108c.2072-1.31204.0437-2.26499-.48-2.64021l.0017-.00031Zm.2539 3.68355L17.861 6.23111c-.2395.79706-.5309 1.57726-.8721 2.33556l2.2392 1.60533c.313-.71082.5779-1.44233.7927-2.18947.0146-.056.0307-.11317.0452-.16917l.0017-.00032Zm-1.2574 3.26556-2.2472-1.60569c-.346.69959-.7376 1.41029-1.1695 2.12279l2.2535 1.6162c.4307-.724.8208-1.4334 1.1632-2.1333Zm-1.6828 2.9605-2.2554-1.6167c-.2294.3566-.4701.7125-.7221 1.0678-.2521.3553-.5064.7012-.763 1.0378l2.2544 1.6159c.2567-.333.5113-.6787.7639-1.0371.2527-.3583.4929-.7136.7208-1.0657l.0014-.002Zm-2.0936 2.876-2.2535-1.6161c-.5262.6453-1.0649 1.251-1.6068 1.8102l2.2463 1.6103c.5283-.5416 1.0693-1.1442 1.6106-1.8038l.0034-.0006Zm-2.3271 2.4996-2.2392-1.6054c-.59838.5745-1.2342 1.1081-1.90323 1.5973l2.20583 1.5821c.6818-.4762 1.3279-1.002 1.9332-1.5734l.0034-.0006Zm-5.47436 2.5418c.52691.3782 1.46471.2246 2.63026-.4097l-2.17467-1.5611c-.72151.4353-1.39177.7252-1.99486.8651l1.53927 1.1057Z"/>
    <path fill="#1F0860" d="M12.4607 12.2885c-1.3302 1.8801-2.75196 3.5271-4.00958 4.6395-.93689.8292-1.70038 1.2956-2.29665 1.404-.34754.0632-.64252.0073-.88493-.1676-.66453-.4752-.62595-1.5988.11574-3.4339.63124-1.5618 1.70971-3.4563 3.03844-5.33435 1.32874-1.87805 2.75188-3.5271 4.00958-4.63951 1.4789-1.3085 2.5201-1.71388 3.1849-1.23701.6649.47687.626 1.59883-.1157 3.43391-.6349 1.56064-1.7143 3.45536-3.0418 5.33496Zm2.5906-7.97153c-.0524-.0212-.1101-.02468-.1646-.00993-.6738.1225-2.8622 1.68132-5.67241 5.65735-3.11226 4.40551-3.68988 7.11401-3.38393 7.40291.37214.198 2.72305-1.2416 5.83684-5.6483 3.1138-4.40671 3.6893-7.11747 3.3841-7.40203Z"/>
  </g>
  <defs>
    <clipPath id="a">
      <path fill="#fff" d="M0 0h24v24H0z"/>
    </clipPath>
  </defs>
</svg>
