<svg xmlns="http://www.w3.org/2000/svg" fill="none" viewBox="0 0 27 24">
  <path fill="#1F0860" d="M26.487 6.88 20.9537.866667C20.4503.316413 19.7395.00210413 18.9937 0H8.00703c-.74578.00210413-1.4566.316413-1.96.866667L.513695 6.88c-.225369.24793-.349134.57162-.346667.90667v.4C.16642 8.4982.27492 8.80012.473695 9.04L12.4737 23.52c.2538.3047.6301.4806 1.0267.48.3965.0006.7728-.1753 1.0266-.48l12-14.48c.1988-.23988.3073-.5418.3067-.85333v-.4c.0025-.33505-.1213-.65874-.3467-.90667ZM13.5004 20.6133 9.7937 8.93333C9.6127 8.35559 9.06516 7.97231 8.46036 8H3.1137l4.89333-5.33333H18.9937L15.1804 6.88c-.1809.19496-.2285.47874-.1213.72208.1071.24335.3487.39973.6146.39792h8.2133L13.5004 20.6133Z"/>
</svg>