<svg xmlns="http://www.w3.org/2000/svg" fill="none" viewBox="0 0 18 18">
  <g clip-path="url(#a)">
    <path fill="#fff" d="m1.91989 9.03753 4.3125 4.30497-.795.795c-.07041.071-.16626.111-.26625.111s-.19584-.04-.26625-.111L.862389 10.095c-.070992-.0704-.110924-.16623-.110924-.26622 0-.09999.039932-.19584.110924-.26625l.525001-.525c.07041-.071.16626-.11093.26625-.11093s.19584.03993.26625.11093Zm15.21751-3.3825-.525-.5325c-.1484-.14384-.3841-.14384-.5325 0L8.91739 12.285l-.81-.81 5.25001-5.24997c.071-.07042.1109-.16626.1109-.26625s-.0399-.19584-.1109-.26625l-.525-.5325c-.1484-.14384-.3842-.14384-.5325 0L7.04989 10.4475l-1.38-1.40997c-.07041-.071-.16626-.11093-.26625-.11093s-.19584.03993-.26625.11093l-.525.525c-.07099.07041-.11092.16626-.11092.26625s.03993.19582.11092.26622l4.0425 4.0425c.07041.071.16626.111.26625.111s.19584-.04.26625-.111l7.95001-7.94997c.071-.07042.1109-.16626.1109-.26625s-.0399-.19584-.1109-.26625Z"/>
  </g>
  <defs>
    <clipPath id="a">
      <path fill="#fff" d="M0 .75h18v18H0z"/>
    </clipPath>
  </defs>
</svg>
