<svg xmlns="http://www.w3.org/2000/svg" fill="none" viewBox="0 0 24 24">
  <g clip-path="url(#a)">
    <path fill="#fff" d="M4.98787 11.4269c-.00002-.1341.02643-.2668.07783-.3906.0514-.1237.12674-.2361.22169-.3307.09495-.0946.20765-.1694.3316-.2203.12396-.0508.25675-.0767.39073-.0761l1.69411.0056c.27012 0 .52918.1073.72018.2984.19101.1911.29831.4502.29831.7204v6.4083c.19084-.0565.4356-.1168.70372-.1797.18617-.0439.35208-.1493.47084-.2993.11872-.15.18342-.3357.18342-.527V8.88695c0-.13382.0264-.26633.0775-.38997.0512-.12363.1263-.23598.2208-.33061.0946-.09463.2069-.1697.3305-.22092.1236-.05122.256-.07759.3898-.0776h1.6975c.2701.00004.5291.1074.7201.29847.191.19106.2983.45018.2984.72039v7.37799s.4248-.1721.8389-.3469c.1538-.0651.285-.174.3773-.3132.0923-.1392.1416-.3025.1417-.4695V6.33936c0-.13379.0263-.26628.0775-.38989.0512-.12361.1262-.23593.2208-.33054.0945-.09461.2068-.16966.3304-.22086.1235-.05121.256-.07756.3897-.07756h1.6975c.2701 0 .5292.10734.7202.29841.191.19107.2983.45022.2984.72044v7.24284c1.4716-1.0669 2.9631-2.3503 4.1467-3.89329.1717-.22398.2854-.487.3308-.7656.0454-.27859.0211-.5641-.0706-.83104-.8008-2.33476-2.303-4.36509-4.3012-5.81336C17.0149.83063 14.6183.0350992 12.1511.0010879 5.49789-.0883183-.000596 5.34462.00005757 12.001-.00647503 14.1073.543065 16.1779 1.59311 18.0036c.14481.2497.35785.4529.61409.5857.25625.1328.54505.1897.83249.164.32114-.0283.72096-.0683 1.19626-.1241.20688-.0236.39787-.1224.53661-.2777.13873-.1553.21551-.3563.21572-.5645v-6.3601"/>
    <path fill="#7378A5" d="M4.95125 21.7049c1.78929 1.3022 3.90377 2.0837 6.10955 2.2583 2.2057.1746 4.4168-.2646 6.3885-1.269 1.9717-1.0045 3.6272-2.535 4.7834-4.4222 1.1562-1.8872 1.7679-4.0576 1.7676-6.2711 0-.2763-.0128-.5495-.0313-.8212-4.3823 6.5379-12.4737 9.5944-19.01783 10.5255"/>
  </g>
  <defs>
    <clipPath id="a">
      <path fill="#fff" d="M0 0h24v24H0z"/>
    </clipPath>
  </defs>
</svg>
