<svg xmlns="http://www.w3.org/2000/svg" fill="none" viewBox="0 0 12 12">
  <path fill="#7378A5" d="M2.36381 12h7.27273c.30124 0 .54546-.2442.54546-.5455V5.27273c0-.30124-.24422-.54546-.54546-.54546h-.54545V3.09091C9.09109 1.38658 7.7045 0 6.00018 0 4.29585 0 2.90927 1.38658 2.90927 3.09091v1.63636h-.54546c-.30123 0-.54545.24422-.54545.54546v6.18177c0 .3013.24422.5455.54545.5455Zm5.18113-4.02342L5.99949 9.52204c-.10651.1065-.24611.15978-.38568.15978-.13956 0-.2792-.05328-.38567-.15978l-.77273-.77273c-.21301-.21302-.21301-.55833 0-.77138.21299-.21302.55837-.21302.77139 0l.38705.38702L6.77363 7.2052c.21298-.21302.55837-.21302.77138 0 .21299.21305.21299.55836-.00007.77138ZM4.00018 3.09091c0-1.1028.8972-2 2-2s2 .8972 2 2v1.63636h-4V3.09091Z"/>
</svg>
