<svg xmlns="http://www.w3.org/2000/svg" class="_1sjywpl0 _1sjywpl1 bc5nciic bc5nci190 bc5nci4jc" viewBox="0 0 144 185">
  <path fill="url(#a)" d="M0 71.6129C0 32.0622 32.0622 0 71.6129 0c39.5511 0 71.6131 32.0622 71.6131 71.6129V174.118c0 6.01-4.872 10.882-10.883 10.882H10.8824C4.87222 185 0 180.128 0 174.118V71.6129Z"/>
  <path fill="#007AFF" fill-rule="evenodd" d="M134.717 176.111V71.8216c0-34.9532-28.252-63.28834-63.1041-63.28834-34.8516 0-63.10444 28.33514-63.10444 63.28834V176.111c0 .197.15873.356.35452.356H134.363c.196 0 .354-.159.354-.356ZM71.6129 0C32.0622 0 0 32.1556 0 71.8216V176.111C0 181.02 3.96809 185 8.86298 185H134.363c4.895 0 8.863-3.98 8.863-8.889V71.8216C143.226 32.1556 111.164 0 71.6129 0Z" clip-rule="evenodd"/>
  <defs>
    <linearGradient id="a" x1="18.435" x2="143.747" y1="10.6666" y2="209.447" gradientUnits="userSpaceOnUse">
      <stop offset=".265625" stop-color="#fff"/>
      <stop offset=".734375" stop-color="#007AFF"/>
    </linearGradient>
  </defs>
</svg>
