<svg
    xmlns="http://www.w3.org/2000/svg"
    fill="none"
    viewBox="0 0 17 16"
    className="fill-current w-3 h-3"
>
    <path d="M1.83301 4.00033v1.66666c0 .55229.44771 1 1 1 .0884 0 .17319-.03512.2357-.09763.06251-.06251.09763-.1473.09763-.2357V4.00033h1.33333v7.99997c0 .7364.59696 1.3334 1.33334 1.3334h5.33329c.7364 0 1.3334-.597 1.3334-1.3334V4.00033h1.3333v2.33333c0 .18409.1492.33333.3333.33333.5523 0 1-.44771 1-1V4.00033c0-.73638-.5969-1.33334-1.3333-1.33334H3.16634c-.73638 0-1.33333.59696-1.33333 1.33334Zm4 7.99997V4.00033h2v7.99997h-2Zm5.33329 0H9.83301V4.00033h1.33329v7.99997Z" />
</svg>