<svg xmlns="http://www.w3.org/2000/svg" fill="none" viewBox="0 0 16 16">
  <path fill="#7378A5" d="M1.9806 6.02026C.885977 6.02026 0 6.90574 0 7.99986s.884979 1.9801 1.9806 1.9801c1.09262 0 1.97959-.88448 1.97959-1.9801 0-1.09412-.88697-1.9796-1.97959-1.9796Zm6.12197 0c-1.09212 0-1.98059.88498-1.98059 1.9791 0 1.09412.88747 1.9801 1.98059 1.9801s1.98163-.88448 1.98163-1.9801c-.001-1.09362-.88851-1.9791-1.98163-1.9791Zm5.91833 0c-1.0941 0-1.9811.88548-1.9811 1.9801 0 1.09312.8855 1.9791 1.9811 1.9791 1.0921 0 1.9791-.88448 1.9791-1.9791s-.887-1.9801-1.9791-1.9801Z"/>
</svg>
