<svg xmlns="http://www.w3.org/2000/svg" fill="none" viewBox="0 0 24 24">
  <path fill="#1F0860" d="M4.72714 24H19.2726c.6025 0 1.0909-.4884 1.0909-1.0909V10.5455c0-.60252-.4884-1.09095-1.0909-1.09095h-1.0909V6.18182C18.1817 2.77316 15.4085 0 11.9999 0 8.59121 0 5.81805 2.77316 5.81805 6.18182v3.27273H4.72714c-.60247 0-1.09091.48843-1.09091 1.09095v12.3636c0 .6025.48844 1.0909 1.09091 1.0909Zm10.36226-8.0468-3.0909 3.0909c-.213.213-.4922.3195-.7714.3195-.2791 0-.5584-.1065-.7713-.3195l-1.54546-1.5455c-.42604-.426-.42604-1.1166 0-1.5427.42596-.4261 1.11676-.4261 1.54276 0l.7741.774 2.3196-2.3195c.4259-.426 1.1167-.426 1.5427 0 .426.4261.426 1.1167-.0001 1.5428ZM7.99987 6.18182c0-2.2056 1.7944-4 4.00003-4 2.2056 0 4 1.7944 4 4v3.27273H7.99987V6.18182Z"/>
</svg>
