<svg xmlns="http://www.w3.org/2000/svg" fill="none" viewBox="0 0 13 13">
  <path fill="#7378A5" d="M11.6549 3.16667H2.98828c-.36819 0-.66667-.29848-.66667-.66667 0-.36819.29848-.66667.66667-.66667h8.66662C11.6549 1.09695 11.058.5 10.3216.5H2.98828C1.88371.5.988281 1.39543.988281 2.5v8.6667c0 .7363.596949 1.3333 1.333329 1.3333h9.33329c.7364 0 1.3334-.597 1.3334-1.3333V4.5c0-.73638-.597-1.33333-1.3334-1.33333ZM2.32161 11.1667V4.5h9.33329v1.33333H6.98828c-.36819 0-.66667.29848-.66667.66667v2.66667c0 .36819.29848.66666.66667.66666h4.66662v1.33337H2.32161ZM8.98828 7.5v.66667c0 .18409-.14924.33333-.33333.33333h-.66667c-.18409 0-.33333-.14924-.33333-.33333V7.5c0-.18409.14924-.33333.33333-.33333h.66667c.18409 0 .33333.14924.33333.33333Z"/>
</svg>
