<svg xmlns="http://www.w3.org/2000/svg" fill="none" viewBox="0 0 37 34">
  <g clip-path="url(#a)">
    <path fill="#fff" d="m8.72572 18.5642.9701-7.0405-8.41445-5.64239 7.68817 2.51553 1.81566-2.69092 6.6299-3.97374 14.6138 7.77711.7574 11.86611-6.5106 8.7392-5.1462.7617 2.6613-4.7053v-4.53l-1.935-3.5378-1.9662-1.2578-3.0244 3.0117v3.187l-2.3604 2.1347-2.9985.3507-1.328.7266-2.17886-.6714-.90785-3.157 1.63413-2.2199v-1.6436Z"/>
    <path fill="#94A6C3" d="M22.1618 5.82097c-1.603-.32071-3.3564-.23552-3.3564-.23552s-.5759 2.57065-4.145 3.24714c.0259 0 4.7156 1.54841 7.5014-3.01162ZM23.6144 29.1472c1.935-1.4632 3.3876-3.4776 4.0568-5.7576.0311-.0852.3009-.2356.4825-.3508.3008-.1754.6069-.3207.664-.5562.1193-.6715.1815-1.3731.1815-2.0746 0-.2606-.2749-.5262-.5447-.7867-.2127-.1754-.4253-.3809-.4253-.5262-.3009-2.6609-1.5719-5.1463-3.6003-6.9553l-.2127.2055c1.9661 1.7839 3.2371 4.2092 3.5121 6.7799.0311.2355.2697.466.5135.7015.2127.1754.4566.441.4566.5562 0 .6715-.0623 1.343-.1816 2.0145-.0311.1152-.3009.2355-.5136.3507-.3009.1454-.5758.2907-.6329.5262-.7263 2.4855-2.3915 4.6502-4.6015 6.0533.3943-.8168 1.6342-3.4776 2.2982-4.8256l-.1193-4.3245-3.8441-3.5929-2.1789.2906-2.3915 3.7433s1.1206 1.373-.4565 2.9815c-1.5407 1.5785-2.7547 1.9293-2.7547 1.9293l-1.1205-.5863c.332-.4109 1.0012-1.0223 1.5148-1.4332.8767-.7015 1.7534-.7617 1.7534-1.5183.0364-1.5835-1.7223-1.1475-1.7223-1.1475l-.6381.5862-.2697 2.1648-1.3281 1.6085-.1504-.03-2.17885-.466s1.33325-.6715 1.54595-1.4332c.2127-.7316-.4254-3.1569-.4565-3.3023.0311.0301.6381.5262.9078 1.343.4825-1.2878 1.1206-2.5155 1.3021-2.6308.1816-.1153 2.6302-1.373 2.6302-1.373l-.8145 2.0745.607-.3207 1.4525-3.4475s1.4215-.6715 2.4798-.6715c1.9038-.0301 4.7208-2.28 3.4498-6.31392.3631.14532 6.6558 3.18702 7.7452 9.15012.8145 4.5851-1.8779 8.8796-6.4172 11.365Z"/>
    <path fill="#1B314F" d="M16.414 6.46248c.6951-.79174.4254-1.95931.4254-1.95931L14.811 7.39954c-.0311 0 .7211.03007 1.603-.93706ZM9.60243 22.2772l.24382-1.1676s-1.00122 1.6938-1.08941 1.9293c-.09338.2656.06225.7316.45133.7015.39426-.03.87673-.5863.87673-.9922 0-.5261-.48247-.471-.48247-.471Z"/>
    <path fill="#1B314F" d="M27.5778 3.68618s1.5148.06013 3.0867.23552C27.1213 1.23078 23.7648.444045 21.0413.444045c-3.7507 0-6.2927 1.493285-6.4483 1.578475L15.7758.208527S11.055-.232443 9.38972 4.59317c-.42539-1.02225-.81446-2.51553-.81446-2.51553S6.12147 4.15721 7.27314 7.6048C4.45622 6.61262.435753 5.23459.280122 5.20953c-.2126956-.03007-.274948.06013-.274948.06013s-.0622525.08519.119317.23552c.337201.25556 6.692139 4.79052 8.087629 5.66752-.30089 1.0523-.30089 1.5484 0 2.0444.42539.6715.45133 1.0223.39426 1.5184-.06225.4961-.60696 4.7955-.72628 5.3217-.11931.5262-1.3903 2.3953-1.33324 2.9515.06226.5562.8456 2.9214 1.54594 3.187.51358.1754 1.78457.5562 2.6302.5562.3009 0 .5758-.0601.6951-.1754.5136-.4359.664-.5261 1.0272-.5261h.0882c.1504 0 .332.0301.5447.0301.4824 0 1.1205-.0902 1.5719-.4961.664-.6415 1.8156-1.5184 2.1788-1.9293.4565-.5562.6951-1.3129.5758-2.0745-.0934-.7016.3009-1.3179.7574-1.9293.5759-.7316 1.6342-2.0445 1.6342-2.0445 2.0906 1.5133 3.3927 3.8234 3.3927 6.3941 0 4.56-4.1138 8.2431-9.1978 8.2431-.7885 0-1.5407-.0852-2.2981-.2606 2.3292.7868 4.2954 1.0524 5.9036 1.0524 3.4187 0 5.2344-1.1977 5.2344-1.1977s-.6329.7918-1.6653 1.6937h.0311c5.6598-.7616 8.4145-5.2615 8.4145-5.2615s-.2127 1.4632-.4825 2.4554c7.5274-5.4671 6.2564-12.3071 6.2253-12.5376.0622.0852.8196.9621 1.2087 1.4331 1.2139-12.04646-8.9851-15.93502-8.9851-15.93502ZM15.9885 22.9235c-.1193.1453-.6329.5863-.9961.907-.3631.3207-.7574.6414-1.0582.9371-.1194.1152-.3632.1753-.7263.1753H12.3c.4565-.5862 1.7846-1.9292 2.2411-2.2198.5447-.3508.8197-.7016.4825-1.3129-.332-.6164-1.2088-.4661-1.2088-.4661s.5136-.2054.9701-.2054c-.5758-.1453-1.3021 0-1.6341.3207-.3631.3207-.3009 1.4632-.4513 2.1898-.1505.7617-.664 1.1425-1.4526 1.8441-.4254.3808-.7263.4961-.9701.4961-.51356-.0852-1.12052-.2355-1.54591-.3809-.30089-.3808-.75741-1.6386-.87672-2.1647.08819-.2907.45133-.907.6329-1.2578.36313-.6715.57583-1.0523.63808-1.4031.11932-.4961.51358-3.5678.66403-4.8507.39422.4961.93902 1.3179.81442 1.8441.8768-1.1976.2439-2.3702-.0622-2.8362-.2698-.4661-.63291-1.4031-.332-2.3953.3009-.9922 1.3903-3.74325 1.3903-3.74325s.3631.61636.8767.49609c.5136-.11525 4.6586-6.1385 4.6586-6.1385s1.1205 2.3652-.0623 4.09401c-1.2087 1.72379-2.3915 2.04449-2.3915 2.04449s1.6652.29064 3.206-.79174c.6329 1.43316 1.2398 2.9214 1.271 3.1269-.0934.2054-1.3021 3.0116-1.4215 3.187-.0622.0601-.4824.1754-.7885.2355-.5136.1453-.8145.2355-.939.3207-.2127.1754-1.1828 2.7461-1.6341 4.0038-.5447.1453-1.0894.441-1.4837 1.0223.2127-.1453.8767-.2355 1.3644-.2907.4254-.03 1.7223.6414 2.0595 1.8992v.0601c.0674.4611-.083.902-.3268 1.2528Zm-2.8429.3508c.275-.3809.2438-1.0223.275-1.2277.0311-.2055.0882-.5863.332-.6414.2438-.0602.8196.03.8196.4359 0 .3809-.4254.466-.7262.7316-.2179.2005-.6433.6414-.7004.7016Zm12.0718-5.5873c.3009-1.4883.332-2.7761.2438-3.8284 1.1776 1.5183 1.9039 3.3624 2.1166 5.2615.0311.2356.2698.4661.5136.7016.2127.1754.4565.4109.4565.5562 0 .6715-.0622 1.343-.1816 2.0194-.0311.0852-.3008.2356-.5135.3508-.3009.1453-.5759.2907-.6329.5262-.6641 2.2499-2.0907 4.2393-3.9946 5.6424 2.8118-2.8363 4.1709-7.5165 1.9921-11.2297Zm-1.9039 11.4903c1.9662-1.4633 3.481-3.5078 4.145-5.8178.0311-.0852.3009-.2356.4824-.3508.3009-.1453.607-.3207.6641-.5562.1193-.6715.1815-1.3731.1815-2.0746 0-.2606-.2749-.5262-.5447-.7867-.1504-.1754-.3942-.3809-.3942-.5262-.2439-2.1347-1.1206-4.1491-2.4798-5.8178-.6069-3.5077-3.0244-4.59009-3.0866-4.62015.0622.0902 1.6341 2.28005.5447 4.85065-1.1206 2.6007-3.9946 2.1949-4.2384 2.2199-.2438 0-1.1776 1.1676-2.3604 3.3323-.1504-.0601-.7885-.2054-1.5148-.0851.5447-1.4633 1.3644-3.5378 1.5148-3.7132.0623-.0602.5136-.1754.8197-.2606.5758-.1453.8456-.2355.9389-.3508.0623-.0902.3632-.7616.6641-1.4632.2749 0 .9701-.0601 1.0271-.0902.0623-.0601.6381-1.4883.6381-1.6636 0-.1454-1.1828-2.9816-1.6341-4.06398.2127-.23552.4254-.52616.6329-.84687 6.2045.64642 11.0498 5.73265 11.0498 11.89615 0 4.7354-2.874 8.8595-7.0501 10.7888Z"/>
    <path fill="#1B314F" d="M15.2624 13.3926c.5758-.6414.2749-1.8391-.7886-2.0445.275-.6114.6641-1.83907.6641-1.83907s-3.0867 4.67527-3.3565 4.76547c-.2749.0902-.5447-.937-.5447-.937-.5758 2.1347.9701 2.4253 1.1517 1.7538.8456-.2104 2.2981-1.0874 2.874-1.6987Z"/>
    <path fill="#FFD923" d="m12.6268 14.5299 1.5719-2.6007s.9079.441.4513 1.1425c-.5706.8168-2.0232 1.4582-2.0232 1.4582Z"/>
    <path fill="#D82122" d="M32.0859 26.5766c-.4565.5862-.9701 1.1976-1.5719 1.7839 3.9012-7.251.1816-13.8856.0312-14.1461.2749.2655.5447.5562.7885.8168 2.9933 3.212 3.3564 8.0376.7522 11.5454ZM35.7174 17.2513c-1.3644-3.5378-3.2994-6.5494-7.5637-9.26537-4.1139-2.63079-8.5338-2.42534-8.7776-2.39527h-.0623c.1505-.06013.3009-.0902.4514-.11525.9389-.29064 2.1477-.52616 3.3616-.67148 3.2112-.44598 6.4483.60633 8.6583 2.86129l.0622.06014c2.5109 2.57064 3.813 5.78274 3.8701 9.52594ZM27.1836 2.77929c-4.5081-.8168-7.4132-.4109-9.5039.35077-.0622-.23552-.2749-.70154-.4565-1.08238-.6277.73161-1.2969 1.60854-1.7171 2.16476-1.1517.76168-1.6342 1.49329-1.6342 1.49329.6641-2.19483 2.6043-3.82842 4.9647-4.23933.664-.11525 1.3903-.17538 2.1788-.17538 2.0855.03006 4.1709.52615 6.1682 1.48827ZM10.5103 8.39165c-3.53801-.11525-2.3604-4.094-2.29815-4.32451 0 .03006.23863 3.12688 2.29815 4.32451ZM13.9912 1.23071c-2.7235 1.57847-2.1788 5.34676-2.1788 5.34676-2.60421-3.82341 1.9662-5.25656 2.1788-5.34676Z"/>
    <path fill="#fff" d="M9.51431 9.44375c.18157.14532.36314.4109.15045.79175-.11932.2054-.30089.1754-.57584.0601-.36314-.1754-2.54197-1.40307-4.50811-2.66083 2.24109.76167 4.50811 1.57847 4.87125 1.75385 0 0 .03113.03007.06225.05513Z"/>
  </g>
  <defs>
    <clipPath id="a">
      <path fill="#fff" d="M0 0h36.6667v33.3333H0z" transform="translate(0 .198486)"/>
    </clipPath>
  </defs>
</svg>
