<svg width="16" height="16" viewBox="0 0 16 16" fill="none" xmlns="http://www.w3.org/2000/svg">
<path d="M1.6 0.0012207C0.712 0.0012207 0 0.713221 0 1.60122V9.60122C0 10.0256 0.168571 10.4325 0.468629 10.7326C0.768687 11.0326 1.17565 11.2012 1.6 11.2012H8V15.2012L10.4 12.8012L12.8 15.2012V11.2012H14.4C14.8243 11.2012 15.2313 11.0326 15.5314 10.7326C15.8314 10.4325 16 10.0256 16 9.60122V4.00122V2.40122V1.60122C16 1.17687 15.8314 0.769908 15.5314 0.46985C15.2313 0.169792 14.8243 0.0012207 14.4 0.0012207H11.2H1.6ZM8 1.60122L10.4 3.20122L12.8 1.60122V4.40122L15.2 5.60122L12.8 6.80122V9.60122L10.4 8.00122L8 9.60122V6.80122L5.6 5.60122L8 4.40122V1.60122ZM1.6 1.60122H5.6V3.20122H1.6V1.60122ZM1.6 4.80122H4V6.40122H1.6V4.80122ZM1.6 8.00122H5.6V9.60122H1.6V8.00122Z" fill="#D7099C"/>
</svg>
