<svg width="1479" height="634" viewBox="0 0 1479 634" fill="none" xmlns="http://www.w3.org/2000/svg">
<g opacity="0.6">
<path d="M0.999023 191.62C177.59 87.4594 522.912 -86.1637 491.474 52.6281C452.176 226.118 491.226 893.478 826.5 522C1161.77 150.522 1245.59 -44.3663 1364.98 73.6268C1460.49 168.021 1475.61 215.382 1478 228" stroke="#29D9FF"/>
<path d="M0 356C99.4931 160.356 323.374 -159.394 402.969 117.938C502.462 464.604 556.686 -30.4183 912.871 84.9703C1269.06 200.359 1196.43 484.584 1478 572" stroke="#6C5AFE"/>
<path d="M0 413.5C22.8179 528.167 118.62 720.6 321.283 577C574.611 397.5 770.979 219.5 1026.31 421C1230.57 582.2 1412.04 444.667 1478 355.5" stroke="#AF07C2"/>
</g>
</svg>
