<svg xmlns="http://www.w3.org/2000/svg" fill="none" viewBox="0 0 150 40">
  <path fill="#fff" d="M53.7543 15.7074c-.4079-1.6041-1.4364-2.7779-3.4473-2.7779-2.9676 0-4.2087 2.6402-4.2087 5.3196 0 2.6793 1.2411 5.3209 4.2087 5.3209 2.1546 0 3.3353-1.6229 3.5277-3.6574h2.3658c-.1939 3.3444-2.5396 5.6513-5.8892 5.6513-4.1498 0-6.6319-3.3256-6.6319-7.3163s2.4735-7.3221 6.6233-7.3221c3.1212.0188 5.5832 1.7606 5.8748 4.7732l-2.4232.0087ZM57.6326 19.9011c0-3.0908 1.8414-5.3195 5.0604-5.3195 3.219 0 5.0604 2.2287 5.0604 5.3195 0 3.0909-1.8414 5.3413-5.0604 5.3413-3.219 0-5.0604-2.2301-5.0604-5.3413Zm7.9102 0c0-1.7389-.8719-3.5589-2.8498-3.5589s-2.8498 1.8186-2.8498 3.5589.8719 3.5807 2.8498 3.5807 2.8498-1.8201 2.8498-3.5807ZM69.6538 11.001h2.2106v2.1127h-2.2106V11.001Zm0 3.8545h2.2106v10.113h-2.2106v-10.113ZM74.2689 15.1133h2.0943V16.6l.0388.0391c.3175-.5507.7734-1.0072 1.3217-1.3235.5482-.3162 1.1695-.481 1.801-.4777 2.1718 0 3.5479 1.1738 3.5479 3.4416v6.9453H80.862v-6.357c-.0388-1.5838-.6593-2.2678-1.9578-2.2678-1.4738 0-2.4247 1.1723-2.4247 2.659v5.9673h-2.2106v-10.113ZM97.79 25.2263h-1.5513l-.3678-1.6433c-1.2927 1.4868-2.482 1.9751-4.1655 1.9751-4.1469.0029-6.6347-3.3299-6.6347-7.3163s2.4878-7.3163 6.6318-7.3163c3.0165 0 5.5646 1.6229 5.9323 4.7732h-2.3657c-.2327-1.8389-1.8214-2.7779-3.5666-2.7779-2.9676 0-4.2086 2.6402-4.2086 5.3195 0 2.6794 1.241 5.321 4.2086 5.321 2.4807.0391 3.8381-1.4664 3.8783-3.8342h-3.6844v-1.8563h5.8893l.0043 7.3555ZM101.843 20.7458c0 1.5853.854 2.9938 2.695 2.9938 1.28 0 2.056-.5681 2.442-1.6824h2.096c-.484 2.2098-2.346 3.443-4.538 3.443-3.14 0-4.9052-2.2113-4.9052-5.321 0-2.8764 1.8672-5.3398 4.8482-5.3398 3.16 0 5.099 2.875 4.731 5.9064h-7.369Zm5.159-1.4665c-.078-1.4084-1.029-2.6793-2.521-2.6793-1.533 0-2.579 1.1723-2.638 2.6793h5.159ZM117.667 18.4969c-.175-1.2332-1.067-1.8969-2.288-1.8969-1.15 0-2.754.6057-2.754 3.6763 0 1.6824.737 3.4633 2.656 3.4633 1.28 0 2.172-.8608 2.386-2.3084h2.21c-.408 2.6214-2.011 4.069-4.596 4.069-3.141 0-4.867-2.2504-4.867-5.2239 0-3.0517 1.649-5.4369 4.945-5.4369 2.326 0 4.309 1.1738 4.518 3.6575h-2.21ZM121.745 11.2588h2.21v7.9423l3.995-4.0878h2.715l-3.84 3.7154 4.207 6.3976h-2.7l-3.064-4.9109-1.318 1.2912v3.6226h-2.205V11.2588ZM131.629 20.1589c0-3.0908 1.841-5.3195 5.06-5.3195 3.219 0 5.062 2.2287 5.062 5.3195 0 3.0909-1.843 5.3413-5.062 5.3413-3.219 0-5.06-2.2301-5.06-5.3413Zm7.911 0c0-1.7388-.873-3.5589-2.851-3.5589s-2.85 1.8186-2.85 3.5589c0 1.7404.872 3.5807 2.85 3.5807 1.978 0 2.851-1.8201 2.851-3.5807Z"/>
  <path fill="#8DC63F" d="M35.6793 18.9274c.0139 3.1639-.9026 6.2608-2.6335 8.8993-1.731 2.6384-4.1986 4.6998-7.0908 5.9234-2.8922 1.2236-6.0792 1.5545-9.1578.9509-3.0787-.6036-5.9108-2.1147-8.13817-4.3421-2.22737-2.2274-3.75-5.0711-4.37531-8.1715-.62532-3.1004-.32524-6.3182.86228-9.2466 1.18753-2.9284 3.20915-5.43569 5.8092-7.20494 2.6001-1.76925 5.6619-2.72094 8.7981-2.73473 4.2054-.01849 8.2458 1.64904 11.2325 4.63576 2.9867 2.98671 4.675 7.04801 4.6935 11.29051Z"/>
  <path fill="#F9E988" d="M34.49 18.9331c.0132 2.9262-.8341 5.7906-2.4346 8.2309-1.6006 2.4404-3.8825 4.3471-6.5573 5.4791-2.6747 1.1321-5.6222 1.4385-8.4696.8806-2.8474-.5579-5.4668-1.9551-7.52706-4.0149-2.06026-2.0598-3.46878-4.6896-4.04745-7.557-.57867-2.8674-.30149-5.8434.79647-8.5519 1.09797-2.7084 2.96741-5.02757 5.37194-6.66416 2.4045-1.6366 5.2361-2.51711 8.1366-2.53021 3.8893-.01726 7.6261 1.5246 10.3886 4.28647 2.7625 2.7619 4.3245 6.5176 4.3424 10.4411Z"/>
  <path fill="#fff" d="M20.0923 5.16414c.9323-.16693 1.8864-.16693 2.8187 0 .9413.15036 1.8512.4579 2.6922.90997.8366.46368 1.5593 1.09312 2.2786 1.68316.7194.59003 1.4352 1.19397 2.1166 1.85471.6956.65042 1.3026 1.39102 1.8052 2.20252.5175.805.9416 1.6673 1.264 2.5699.6124 1.8153.825 3.7709.5193 5.636h-.0907c-.3068-1.8489-.7228-3.6109-1.3789-5.2871-.308-.844-.6703-1.6669-1.0847-2.4633-.4324-.7965-.9089-1.5678-1.4272-2.31026-.5271-.7506-1.173-1.40855-1.912-1.94745-.7446-.53555-1.6007-.88215-2.4291-1.21136-.8285-.32921-1.6501-.67002-2.5142-.92041-.8641-.25038-1.742-.43817-2.6589-.62017l.0011-.09621Z"/>
  <path fill="#8BC53F" d="M27.2614 13.7109c-1.0641-.3106-2.1672-.7511-3.2841-1.1962-.0643-.2829-.3125-.6353-.8146-1.0654-.7297-.6387-2.1005-.6224-3.2852-.3396-1.3076-.3107-2.5992-.4208-3.839-.1159-10.14052 2.818-4.3906 9.6932-8.11357 16.6043.52972 1.1337 6.23937 7.7481 14.50117 5.9734 0 0-2.8255-6.8497 3.5506-10.1372 5.172-2.6766 8.9087-7.6287 1.2847-9.7234Z"/>
  <path fill="#fff" d="M28.5138 18.2098c.0007.1226-.0347.2427-.1017.3451-.067.1024-.1626.1824-.2746.23-.1121.0475-.2356.0605-.355.0373-.1194-.0233-.2292-.0817-.3157-.168-.0865-.0862-.1456-.1964-.17-.3166-.0244-.1201-.0129-.2449.033-.3585.0459-.1135.1241-.2108.2248-.2796.1008-.0687.2194-.1057.341-.1064.1629-.0006.3195.0639.4354.1795.1158.1156.1816.2728.1828.4372Z"/>
  <path fill="#009345" d="M19.8774 11.1051c.7389.0533 3.4105.9273 4.0999 1.4049-.5745-1.6808-2.5084-1.9045-4.0999-1.4049Z"/>
  <path fill="#fff" d="M20.5806 15.3558c.0002.5659-.1659 1.1192-.4774 1.5898-.3115.4706-.7543.8375-1.2725 1.0542-.5181.2167-1.0884.2735-1.6385.1633-.5502-.1103-1.0556-.3827-1.4524-.7827-.3967-.4001-.6669-.9098-.7764-1.4648-.1095-.555-.0534-1.1303.1612-1.6532.2146-.5228.5781-.9697 1.0444-1.2841.4664-.3144 1.0148-.4822 1.5757-.4822.3724-.0002.7411.0737 1.0852.2173.344.1437.6567.3543.92.6199.2634.2656.4723.5809.6148.9279.1425.347.2159.719.2159 1.0946Z"/>
  <path fill="#58595B" d="M19.7396 15.3813c0 .398-.117.7871-.3362 1.118-.2192.331-.5308.5889-.8953.7412-.3645.1523-.7655.1922-1.1525.1145-.3869-.0776-.7424-.2693-1.0213-.5507-.279-.2814-.469-.64-.546-1.0304-.0769-.3903-.0374-.795.1135-1.1627.151-.3677.4067-.682.7347-.9031.3281-.2211.7137-.3391 1.1083-.3391.529 0 1.0364.212 1.4105.5894.3741.3774.5843.8892.5843 1.4229Z"/>
  <path fill="#8BC53F" d="M30.8108 19.471c-2.2981 1.6333-4.9111 2.8725-8.618 2.8725-1.7351 0-2.0867-1.8547-3.2335-.9482-.5917.4706-2.6784 1.5231-4.3342 1.4432-1.6558-.08-4.34-1.0595-5.08808-4.6252-.29646 3.5657-.44813 6.1924-1.7753 9.2028 2.64288 4.2694 8.94428 7.5626 14.66438 6.1438-.6148-4.3296 3.1358-8.57 5.2489-10.74.8043-.8219 2.3326-2.1631 3.1358-3.3512v.0023Z"/>
  <path fill="#58595B" d="M30.7211 19.5776c-.7136.6561-1.5627 1.1418-2.4268 1.5707-.8746.419-1.7864.7539-2.7233 1.0004-.9376.2446-1.9155.4289-2.906.3385-.9905-.0904-2.0028-.4301-2.6589-1.1789l.031-.0359c.8044.5262 1.7328.7117 2.6567.7384.9364.0287 1.873-.0491 2.7922-.2319.9285-.196 1.8368-.4794 2.7129-.8462.8768-.3651 1.7443-.7882 2.4912-1.391l.031.0359Z"/>
</svg>