<svg xmlns="http://www.w3.org/2000/svg" fill="none" viewBox="0 0 185 32">
  <path fill="#fff" d="M27.2521 19.022c-.5549.3391-1.2023.4007-1.6955.1233-.6166-.3699-.9865-1.2023-.9865-2.343v-3.4835c0-1.6648-.6474-2.8671-1.7572-3.1753-1.8806-.55496-3.2987 1.7572-3.8227 2.6203l-3.3295 5.3333v-6.5664c-.0308-1.5106-.5241-2.40457-1.4489-2.68203-.6166-.18497-1.5414-.09248-2.4354 1.26393L4.34678 22.0123c-.98651-1.8805-1.51059-3.9768-1.51059-6.104 0-7.18294 5.76488-13.00947 12.82451-13.00947 7.0597 0 12.8246 5.82653 12.8246 13.00947V15.97c.0616 1.3873-.37 2.4971-1.2332 3.052Zm4.0693-3.1137v-.0616C31.2906 7.12229 24.2618.00097656 15.6607.00097656 7.02883.00097656 0 7.12229 0 15.9083c0 8.7552 7.02883 15.9074 15.6607 15.9074 3.9769 0 7.7379-1.5106 10.6358-4.2543.5857-.5549.6165-1.4489.0616-2.0347-.5241-.5857-1.4181-.6165-2.0038-.0925l-.0309.0309c-2.3429 2.2196-5.4874 3.4836-8.7243 3.4836-3.7919 0-7.183-1.6648-9.52595-4.316l6.68975-10.7282v4.9633c0 2.3738.9248 3.1445 1.6955 3.3603.7707.2158 1.9422.0617 3.2062-1.9422l3.6685-5.9498c.1233-.185.2158-.37.3391-.4933v3.0212c0 2.2196.894 4.0077 2.4354 4.8709 1.3873.8015 3.1445.709 4.5935-.185 1.788-1.1715 2.7437-3.2061 2.6203-5.6416Zm21.8264-5.4257c.3699.2158.7091.7398.7091 1.2023 0 .7398-.6166 1.3564-1.3257 1.3564-.1849 0-.3391-.0617-.4932-.0925-.8324-.6165-1.8805-1.0173-2.9903-1.0173-2.6204 0-4.4085 2.1271-4.4085 4.7784 0 2.6512 1.8189 4.7475 4.4085 4.7475 1.2947 0 2.4662-.5241 3.3294-1.3564.2158-.1542.4933-.2467.7707-.2467.7091 0 1.264.5549 1.264 1.264 0 .4624-.2775.8632-.6166 1.079-1.264 1.079-2.9595 1.788-4.7167 1.788-4.0077 0-7.2755-3.2986-7.2755-7.3679s3.2678-7.36796 7.2755-7.36796c1.4797-.03083 2.8978.43159 4.0693 1.23316Zm7.3371 3.0828c2.7437 0 5.025 2.3121 5.025 5.1791 0 2.8362-2.3121 5.2716-5.025 5.2716-2.867 0-5.2408-2.4046-5.2408-5.2716 0-2.867 2.3738-5.1791 5.2408-5.1791Zm-.0308 7.892c1.2023 0 2.2196-1.1406 2.2196-2.6821 0-1.5414-1.0173-2.5279-2.2196-2.5279-1.2948 0-2.3738.9557-2.3738 2.5279 0 1.5106 1.079 2.6821 2.3738 2.6821Zm6.7822.9557v-7.2755c0-.8015.6166-1.4489 1.4181-1.4489.7707 0 1.4181.6474 1.4181 1.4489v7.2755c0 .8015-.6474 1.4489-1.4181 1.4489-.7707 0-1.4181-.6782-1.4181-1.4489Zm-.2158-11.4681c0-.95569.7399-1.69556 1.6339-1.69556.9248 0 1.6647.77066 1.6647 1.69556 0 .9248-.7399 1.6647-1.6647 1.6647-.9249-.0308-1.6339-.7707-1.6339-1.6647Zm8.4778 7.5221v3.946c0 .8015-.6474 1.4489-1.4181 1.4489-.7708 0-1.4181-.6474-1.4181-1.4489v-7.6146c0-.6166.4932-1.1098 1.1098-1.1098.6165 0 1.079.5241 1.079 1.1098 1.1406-1.079 2.1579-1.2331 3.1136-1.2331 2.8362 0 4.1002 2.1271 4.1002 4.5626v4.2851c0 .8015-.6474 1.4489-1.4181 1.4489-.7708 0-1.4181-.6474-1.4181-1.4489v-3.946c0-1.2332-.1542-2.2813-1.9422-2.2813-1.264 0-1.788 1.0481-1.788 2.2813Zm15.7532 1.5106c-.3392 0-.555-.1542-.7399-.37l-3.2986-3.5761v6.3815c0 .8015-.6474 1.4489-1.4181 1.4489-.7707 0-1.4181-.6474-1.4181-1.4489V9.77352c.0925-.2158.3083-.36994.524-.36994.2467 0 .4625.2158.6166.36994l5.2716 5.91898c.1542.185.3391.2775.4625.2775.0924 0 .3082-.0925.4624-.2775l5.2716-5.91898c.1541-.15414.3391-.36994.6166-.36994.2466 0 .4624.15414.524.36994V22.4131c0 .8015-.6165 1.4489-1.4181 1.4489-.7707 0-1.4181-.6474-1.4181-1.4489v-6.3815l-3.2986 3.5761c-.2466.2158-.4624.37-.7398.37Zm13.6265 1.4797c1.263 0 2.342-1.1406 2.342-2.6821 0-1.5414-1.109-2.5587-2.342-2.5587-1.234 0-2.251 1.0482-2.251 2.5587 0 1.4798.987 2.6821 2.251 2.6821Zm3.021 1.2948-.062-.3391c-.555 1.079-2.312 1.5722-3.422 1.5722-2.651 0-4.6241-2.4046-4.6241-5.2716 0-2.8362 2.0041-5.1791 4.7781-5.1791.463 0 2.066.1233 3.299 1.5722l.062-.3391c0-.6166.462-1.1098 1.078-1.1098.617 0 1.11.524 1.11 1.1098v7.9537c0 .6165-.493 1.1098-1.11 1.1098-.647.0308-1.109-.4933-1.109-1.079Zm10.019-6.5664h-.308c-1.788.0925-2.128 1.1098-2.128 2.2813v3.946c0 .8015-.647 1.4489-1.418 1.4489-.77 0-1.418-.6474-1.418-1.4489v-7.6146c0-.6166.493-1.1098 1.11-1.1098.617 0 1.079.5241 1.079 1.1098 1.048-.9865 1.911-1.2023 2.775-1.2331h.277c.678 0 1.295.5857 1.295 1.3256.031.6782-.586 1.2948-1.264 1.2948Zm10.944 5.5491c.123.2158.216.4316.216.6782 0 .7399-.679 1.4181-1.418 1.4181-.494 0-.925-.37-1.264-.8016l-3.268-3.7918v3.1444c0 .8016-.648 1.449-1.418 1.449-.771 0-1.418-.6474-1.418-1.449V10.8217c0-.8016.616-1.44895 1.418-1.44895.801 0 1.418.64735 1.418 1.44895v7.2138l3.268-3.6069c.339-.37.739-.7707 1.233-.7707.709 0 1.356.6474 1.356 1.3872 0 .2158-.061.4625-.185.6474l-2.589 2.8362 2.651 3.2062Zm5.549-5.5183c-.771 0-2.035.4008-2.035 1.6031h4.1c-.03-1.2023-1.325-1.6031-2.065-1.6031Zm3.699 3.4219h-5.734c0 1.6956 1.634 1.973 2.343 1.973.524 0 1.264-.0924 1.85-.3699.185-.1233.462-.2158.74-.2158.616 0 1.14.5241 1.14 1.1715 0 .4316-.277.8015-.616 1.0173-.863.6474-2.004.8015-3.083.8015-2.867 0-5.241-1.5414-5.241-5.1483 0-2.8362 1.449-5.3024 4.84-5.3024 2.744 0 4.809 1.788 4.871 4.9633 0 .5858-.493 1.1098-1.11 1.1098Zm7.892 4.3468h-.77c-2.158 0-3.422-.9557-3.422-4.3159v-3.4836h-.74c-.678 0-1.264-.6166-1.264-1.2948 0-.7399.616-1.3256 1.264-1.3256h.74v-2.6821c0-.8015.616-1.44889 1.418-1.44889.77 0 1.418.64739 1.418 1.44889v2.6821h1.171c.679 0 1.264.5857 1.264 1.3256 0 .6782-.616 1.2948-1.264 1.2948h-1.171v2.9287c0 1.9421.092 2.3429.956 2.3429h.4c.679 0 1.264.5549 1.264 1.264 0 .6782-.585 1.2639-1.264 1.2639Zm13.719-13.5027c.37.2158.709.7398.709 1.2023 0 .7398-.617 1.3564-1.326 1.3564-.185 0-.339-.0617-.493-.0925-.832-.6165-1.88-1.0173-2.99-1.0173-2.621 0-4.409 2.1271-4.409 4.7784 0 2.6512 1.819 4.7475 4.409 4.7475 1.295 0 2.466-.5241 3.329-1.3564.216-.1542.493-.2467.771-.2467.709 0 1.264.5549 1.264 1.264 0 .4624-.278.8632-.617 1.079-1.264 1.079-2.959 1.788-4.716 1.788-4.008 0-7.276-3.2986-7.276-7.3679s3.268-7.36796 7.276-7.36796c1.479-.03083 2.928.43159 4.069 1.23316Zm7.183 10.9748c1.264 0 2.343-1.1406 2.343-2.6821 0-1.5414-1.11-2.5587-2.343-2.5587-1.264 0-2.251 1.0482-2.251 2.5587 0 1.4798 1.018 2.6821 2.251 2.6821Zm3.021 1.2948-.062-.3391c-.555 1.079-2.312 1.5722-3.422 1.5722-2.651 0-4.624-2.4046-4.624-5.2716 0-2.8362 2.004-5.1791 4.779-5.1791.462 0 2.065.1233 3.298 1.5722l.062-.3391c0-.6166.462-1.1098 1.079-1.1098.616 0 1.11.524 1.11 1.1098v7.9537c0 .6165-.494 1.1098-1.11 1.1098-.648.0308-1.11-.4933-1.11-1.079Zm9.958-1.2948c1.263 0 2.25-1.2023 2.25-2.6821 0-1.5414-1.017-2.5587-2.25-2.5587-1.264 0-2.343 1.0173-2.343 2.5587 0 1.5415 1.079 2.6821 2.343 2.6821Zm-2.343 1.6956v3.6069c0 .8015-.648 1.4489-1.419 1.4489-.77 0-1.418-.6474-1.418-1.4489V14.7985c0-.6166.494-1.1098 1.11-1.1098.617 0 1.079.5241 1.079 1.2331 1.048-1.079 2.343-1.3564 3.33-1.3564 2.743 0 4.778 2.3121 4.778 5.1791 0 2.8362-1.942 5.2716-4.624 5.2716-.833-.0308-2.066-.2774-2.836-.8631Z"/>
</svg>