<svg width="19" height="20" viewBox="0 0 19 20" fill="none" xmlns="http://www.w3.org/2000/svg">
<path d="M14.7492 7.91505H4.85694V5.93659H14.7492V7.91505ZM14.7492 11.872H4.85694V9.89351H14.7492V11.872ZM11.7815 15.8289H4.85694V13.8504H11.7815V15.8289ZM9.80309 1.97968C10.0654 1.97968 10.3171 2.0839 10.5026 2.26942C10.6881 2.45493 10.7923 2.70655 10.7923 2.96891C10.7923 3.23127 10.6881 3.48288 10.5026 3.6684C10.3171 3.85391 10.0654 3.95814 9.80309 3.95814C9.54073 3.95814 9.28911 3.85391 9.1036 3.6684C8.91808 3.48288 8.81386 3.23127 8.81386 2.96891C8.81386 2.70655 8.91808 2.45493 9.1036 2.26942C9.28911 2.0839 9.54073 1.97968 9.80309 1.97968ZM16.7277 1.97968H12.5927C12.1772 0.832173 11.0891 0.0012207 9.80309 0.0012207C8.51709 0.0012207 7.42894 0.832173 7.01346 1.97968H2.87848C2.35376 1.97968 1.85053 2.18812 1.4795 2.55916C1.10847 2.93019 0.900024 3.43342 0.900024 3.95814V17.8073C0.900024 18.3321 1.10847 18.8353 1.4795 19.2063C1.85053 19.5774 2.35376 19.7858 2.87848 19.7858H16.7277C17.2524 19.7858 17.7556 19.5774 18.1267 19.2063C18.4977 18.8353 18.7061 18.3321 18.7061 17.8073V3.95814C18.7061 3.43342 18.4977 2.93019 18.1267 2.55916C17.7556 2.18812 17.2524 1.97968 16.7277 1.97968Z" fill="#9388DB"/>
</svg>
