<svg width="26" height="25" viewBox="0 0 26 25" fill="none" xmlns="http://www.w3.org/2000/svg">
<path d="M12.5928 24.9865C19.5476 24.9865 25.1856 19.4059 25.1856 12.5219C25.1856 5.63794 19.5476 0.057373 12.5928 0.057373C5.63799 0.057373 0 5.63794 0 12.5219C0 19.4059 5.63799 24.9865 12.5928 24.9865Z" fill="#627EEA"/>
<path d="M12.9855 3.17188V10.0822L18.886 12.6924L12.9855 3.17188Z" fill="white" fill-opacity="0.602"/>
<path d="M12.9853 3.17188L7.08484 12.6924L12.9853 10.0822V3.17188Z" fill="white"/>
<path d="M12.9855 17.1697V21.8652L18.8894 13.7793L12.9855 17.1697Z" fill="white" fill-opacity="0.602"/>
<path d="M12.9853 21.8652V17.1697L7.08484 13.7793L12.9853 21.8652Z" fill="white"/>
<path d="M12.9855 16.0829L18.886 12.6924L12.9855 10.0823V16.0829Z" fill="white" fill-opacity="0.2"/>
<path d="M7.08484 12.6924L12.9853 16.0829V10.0823L7.08484 12.6924Z" fill="white" fill-opacity="0.602"/>
</svg>
