<svg xmlns="http://www.w3.org/2000/svg" fill="none" viewBox="0 0 12 18">
  <path fill="#D7099C" d="M3.35364 17.9764c.17582.0934.36129-.109.25365-.2765-.5843-.9094-1.13759-2.4396-.25606-4.4104 1.47006-3.2864 2.36459-4.98849 2.36459-4.98849s.47579 1.98639 1.76556 3.75249c1.24133 1.6998 1.92077 3.8376.82542 5.6185-.1028.1672.07847.3644.25314.275 1.35589-.6936 2.87666-2.0849 3.04826-4.8535.0632-.846-.0316-2.0304-.5061-3.52499-.61-1.8943-1.35995-2.77821-1.79386-3.1578-.1298-.11356-.33165-.01291-.321.1592.12644 2.04395-.6425 2.56263-1.08018 1.39371-.1748-.46688-.27674-1.27441-.27674-2.25783 0-1.63721-.475-3.32256-1.52221-4.69209-.27232-.356151-.59097-.688946-.95656-.9727409-.13235-.102765-.3242.0005294-.31209.1676469.08042 1.109884.00756 4.290744-2.78306 8.090874C-.47387 11.8245.506603 14.5317.854515 15.265c.665175 1.4046 1.593005 2.2296 2.499125 2.7114Z"/>
</svg>
