<svg width="124" height="125" viewBox="0 0 124 125" fill="none" xmlns="http://www.w3.org/2000/svg">
<circle cx="62" cy="62.7529" r="60" fill="#367BF5"/>
<circle cx="62" cy="62.7529" r="62" fill="#D7099C"/>
<circle cx="62" cy="62.7527" r="56.7742" fill="url(#paint0_linear_675_383)"/>
<path fill-rule="evenodd" clip-rule="evenodd" d="M74.3471 59.2538H77.6396V62.5448H74.3471V59.2538ZM46.3605 62.5448H49.653V59.2538H46.3605V62.5448ZM97.3949 59.2538V82.2908C97.3949 83.1958 96.654 83.9363 95.7486 83.9363H89.1635C88.2581 83.9363 87.5172 83.1958 87.5172 82.2908V72.4178H82.5784V82.2908C82.5784 83.1958 81.8376 83.9363 80.9322 83.9363H75.9934V88.8728C75.9934 89.7779 75.2525 90.5183 74.3471 90.5183H67.762C66.8565 90.5183 66.1157 89.7779 66.1157 88.8728V82.2908C66.1157 81.3858 66.8565 80.6453 67.762 80.6453H72.7008V80.6452H72.6851V77.3543H51.3705V80.6452H51.2993V80.6453H56.2381C57.1435 80.6453 57.8844 81.3858 57.8844 82.2908V88.8728C57.8844 89.7779 57.1435 90.5183 56.2381 90.5183H49.653C48.7476 90.5183 48.0067 89.7779 48.0067 88.8728V83.9363H43.0679C42.1625 83.9363 41.4217 83.1958 41.4217 82.2908V72.4178H36.4828V82.2908C36.4828 83.1958 35.742 83.9363 34.8366 83.9363H28.2515C27.346 83.9363 26.6052 83.1958 26.6052 82.2908V59.2538C26.6052 58.3488 27.346 57.6083 28.2515 57.6083H34.8366V51.0263C34.8366 50.1213 35.5774 49.3808 36.4828 49.3808H43.0679V44.4443C43.0679 43.5393 43.8088 42.7988 44.7142 42.7988H49.653V39.5078H44.7142C43.8088 39.5078 43.0679 38.7673 43.0679 37.8623V31.2803C43.0679 30.3752 43.8088 29.6348 44.7142 29.6348H51.2993C52.2047 29.6348 52.9456 30.3752 52.9456 31.2803V36.2168H57.8844C58.7898 36.2168 59.5306 36.9572 59.5306 37.8623V42.7988H64.4695V37.8623C64.4695 36.9572 65.2103 36.2168 66.1157 36.2168H71.0545V31.2803C71.0545 30.3752 71.7954 29.6348 72.7008 29.6348H79.2859C80.1913 29.6348 80.9322 30.3752 80.9322 31.2803V37.8623C80.9322 38.7673 80.1913 39.5078 79.2859 39.5078H74.3471V42.7988H79.2859C80.1913 42.7988 80.9322 43.5393 80.9322 44.4443V49.3808H87.5172C88.4227 49.3808 89.1635 50.1213 89.1635 51.0263V57.6083H95.7486C96.654 57.6083 97.3949 58.3488 97.3949 59.2538ZM52.9456 57.6083C52.9456 56.7033 52.2047 55.9628 51.2993 55.9628H44.7142C43.8088 55.9628 43.0679 56.7033 43.0679 57.6083V64.1903C43.0679 65.0953 43.8088 65.8358 44.7142 65.8358H51.2993C52.2047 65.8358 52.9456 65.0953 52.9456 64.1903V57.6083ZM80.9322 57.6083C80.9322 56.7033 80.1913 55.9628 79.2859 55.9628H72.7008C71.7954 55.9628 71.0545 56.7033 71.0545 57.6083V64.1903C71.0545 65.0953 71.7954 65.8358 72.7008 65.8358H79.2859C80.1913 65.8358 80.9322 65.0953 80.9322 64.1903V57.6083Z" fill="url(#paint1_linear_675_383)"/>
<defs>
<linearGradient id="paint0_linear_675_383" x1="13.7082" y1="5.97852" x2="62" y2="119.527" gradientUnits="userSpaceOnUse">
<stop stop-color="#2A3542"/>
<stop offset="1" stop-color="#4D2B43"/>
</linearGradient>
<linearGradient id="paint1_linear_675_383" x1="1.79003" y1="-5.34658" x2="105.437" y2="150.843" gradientUnits="userSpaceOnUse">
<stop offset="0.00652367" stop-color="#F005C4"/>
<stop offset="0.314174" stop-color="#6C5DFE"/>
<stop offset="0.546875" stop-color="#30C7FF"/>
<stop offset="1" stop-color="#FFD541"/>
</linearGradient>
</defs>
</svg>
