<svg xmlns="http://www.w3.org/2000/svg" fill="none" viewBox="0 0 284 300">
  <path fill="#F6ECD8" d="M160.995 21.9734c.001.0686-.018.136-.055.1936-.038.0576-.091.1028-.155.1296-.063.0269-.133.0343-.2.0212-.067-.0131-.129-.046-.178-.0946-.048-.0485-.081-.1104-.094-.1778-.013-.0674-.006-.1372.021-.2003.027-.0632.072-.1169.129-.1542.058-.0374.126-.0566.194-.0553.09 0 .176.0355.239.0989.063.0633.099.1493.099.2389ZM158.942 59.3135c0 .0449-.009.0894-.026.1308-.017.0414-.043.0789-.075.1104-.032.0314-.07.0562-.112.0728-.041.0166-.086.0247-.131.0238-.045.0009-.09-.0072-.131-.0238-.042-.0166-.08-.0414-.112-.0728-.032-.0315-.058-.069-.075-.1104-.017-.0414-.026-.0859-.026-.1308.001-.0902.038-.1761.103-.2393.064-.0631.151-.0985.241-.0985s.177.0354.241.0985c.065.0632.102.1491.103.2393ZM76.1028 32.2764c.0013.0699-.0184.1386-.0564.1973-.0381.0586-.0928.1046-.1571.1319-.0644.0274-.1355.0349-.2041.0216-.0687-.0134-.1318-.0469-.1812-.0964-.0495-.0494-.083-.1125-.0963-.1811-.0134-.0687-.0059-.1398.0215-.2041.0273-.0644.0733-.1191.132-.1571.0587-.0381.1274-.0577.1973-.0564.0913 0 .1789.0362.2434.1008.0646.0646.1009.1521.1009.2435ZM122.46 53.7852c.001.0581-.015.1152-.046.1642-.032.0489-.077.0874-.13.1105-.053.0231-.112.0298-.17.0193-.057-.0105-.109-.0379-.151-.0785-.041-.0406-.07-.0926-.082-.1495-.012-.0569-.006-.116.016-.1698s.059-.0998.107-.1323c.049-.0324.105-.0497.163-.0497.077 0 .15.0299.205.0833.054.0534.086.1261.088.2025ZM85.3338 49.8161c-.0017.0937-.0401.1829-.1069.2485-.0668.0656-.1567.1023-.2504.1023-.093 0-.1822-.0369-.248-.1027s-.1028-.155-.1028-.2481c0-.093.037-.1822.1028-.248s.155-.1028.248-.1028c.0937 0 .1836.0368.2504.1024s.1052.1548.1069.2484ZM176.073 41.1048c.002.1817-.049.36-.148.5123-.1.1524-.242.2718-.409.3431-.167.0713-.351.0913-.53.0575-.179-.0339-.343-.1201-.472-.2476-.13-.1276-.218-.2908-.255-.4688-.036-.178-.019-.3629.05-.531.069-.1681.186-.3119.337-.4132.151-.1012.329-.1553.511-.1553.119-.0009.237.0218.348.0667.111.045.212.1112.297.1951.085.0838.152.1836.199.2936.046.11.071.2281.072.3476ZM204.143 45.0675c.003.1935-.05.3838-.155.5466s-.256.2907-.433.3674c-.178.0768-.375.0989-.565.0635-.19-.0354-.366-.1266-.504-.2621-.138-.1354-.233-.309-.272-.4985-.039-.1895-.021-.3865.052-.5657.073-.1791.198-.3325.359-.4405.16-.1079.35-.1656.543-.1656.256-.0018.502.0977.684.2766.183.1789.287.4227.291.6783ZM81.092 70.6558c.0038.2282-.0603.4524-.1843.644-.1239.1917-.3021.3421-.5119.4321-.2097.09-.4415.1156-.6658.0734-.2243-.0421-.431-.15-.5938-.31-.1627-.16-.2742-.3649-.3202-.5884-.0459-.2236-.0243-.4558.0621-.667.0864-.2113.2338-.392.4233-.5192.1894-.1272.4125-.1952.6407-.1952.1499-.0017.2986.0262.4376.0821.139.056.2656.1389.3724.2439.1069.1051.1919.2302.2502.3682.0584.1381.0888.2863.0897.4361ZM182.978 60.2231c.003.1832-.049.3631-.149.5166-.101.1536-.244.2738-.413.3455-.168.0716-.355.0913-.535.0567-.18-.0347-.345-.1221-.475-.2512-.13-.1292-.219-.2941-.255-.4738-.036-.1797-.017-.3661.053-.5353.071-.1692.19-.3136.343-.4147.152-.1012.332-.1546.515-.1533.242 0 .474.0956.646.266.171.1704.268.4017.27.6435ZM198.504 78.5812c.004.2131-.056.4224-.172.6014-.115.179-.282.3194-.478.4033-.195.0839-.412.1076-.621.0679-.21-.0396-.402-.1408-.554-.2906-.152-.1497-.255-.3413-.297-.5501-.043-.2089-.022-.4256.06-.6225.081-.1969.22-.365.397-.4829.178-.1178.386-.1801.6-.1789.139-.0008.276.0257.405.0781.129.0525.246.1297.345.2275.099.0977.178.2139.232.3421.054.1281.082.2657.083.4047ZM231.141 46.0288c-.004.1575.039.3126.124.4455.084.1329.207.2375.351.3005.145.0629.304.0814.459.0531.155-.0283.299-.1022.411-.2123.113-.11.191-.2511.223-.4054.032-.1542.017-.3146-.042-.4605-.059-.146-.161-.2709-.292-.3589-.13-.088-.284-.135-.442-.135-.207-.0018-.407.0785-.555.2233-.149.1448-.234.3424-.237.5497ZM237.825 65.9721c0 .1285.038.2541.11.3609.071.1069.173.1901.291.2393.119.0492.25.062.376.037.126-.0251.241-.087.332-.1778.091-.0909.153-.2066.178-.3326.025-.126.012-.2567-.037-.3754-.049-.1187-.132-.2201-.239-.2915-.107-.0714-.233-.1095-.361-.1095-.172 0-.338.0685-.46.1903-.121.1218-.19.287-.19.4593ZM206.338 140.802c-.002-.167.045-.33.136-.47.09-.14.221-.249.374-.314.153-.066.322-.084.486-.052.164.031.314.11.432.228.119.117.199.267.232.43.033.164.016.333-.048.487-.064.154-.173.285-.312.377-.139.092-.302.14-.468.139-.109.001-.217-.02-.318-.061-.101-.041-.193-.102-.27-.179-.077-.076-.138-.168-.18-.268-.042-.101-.064-.208-.064-.317ZM179.671 152.027c-.001-.099.027-.197.082-.28.054-.083.131-.148.223-.187.091-.039.192-.049.289-.031.098.019.187.066.258.135.071.07.119.159.139.256.02.098.01.199-.028.29-.037.092-.101.171-.184.226-.082.055-.179.085-.278.085-.066.001-.131-.012-.191-.036-.061-.024-.116-.061-.163-.107-.046-.046-.083-.1-.108-.161-.026-.06-.039-.125-.039-.19ZM100.905 155.788c0-.091.036-.179.101-.243.065-.065.152-.101.243-.101.092 0 .179.036.244.101.064.064.101.152.101.243 0 .092-.037.179-.101.244-.065.064-.152.101-.244.101-.091 0-.178-.037-.243-.101-.065-.065-.101-.152-.101-.244ZM90.3035 96.8029c-.0013-.0683.0178-.1355.0549-.193.037-.0574.0903-.1026.1531-.1296.0628-.0271.1322-.0349.1994-.0223.0672.0125.1292.0448.178.0927.0488.0479.0822.1092.0961.1762.0138.0669.0073.1365-.0185.1998-.0259.0632-.07.1174-.1267.1555-.0568.0382-.1236.0585-.192.0585-.0449.0009-.0895-.0072-.1312-.0238-.0418-.0166-.0798-.0413-.1118-.0728-.0321-.0314-.0576-.069-.075-.1104-.0173-.0414-.0263-.0858-.0263-.1308ZM75.9275 152.969c.1327 0 .2404-.108.2404-.24 0-.133-.1077-.241-.2404-.241-.1328 0-.2404.108-.2404.241 0 .132.1076.24.2404.24ZM45.7072 154.866c-.0025-.176.0473-.348.143-.495.0958-.147.2333-.263.3949-.331.1615-.069.3399-.088.5123-.055.1724.033.331.117.4556.241.1246.123.2096.281.244.454.0344.172.0167.35-.0507.512-.0675.162-.1817.301-.3281.398-.1465.096-.3184.148-.494.146-.1148.001-.2287-.021-.3351-.064-.1063-.043-.2031-.107-.2846-.188-.0815-.081-.1462-.178-.1904-.284-.0441-.106-.0669-.219-.0669-.334ZM250.792 137.151c-.002-.052.012-.103.04-.146.028-.044.068-.078.115-.099.048-.021.1-.027.151-.017.051.009.098.033.135.069.037.036.062.083.073.133.01.051.006.103-.014.151-.019.048-.053.089-.096.118-.042.029-.093.044-.145.044-.033.001-.067-.005-.099-.017-.031-.013-.06-.031-.084-.055-.024-.023-.043-.052-.057-.083-.013-.031-.019-.064-.019-.098ZM225.372 127.361c.237 0 .429-.189.429-.422 0-.233-.192-.423-.429-.423s-.429.19-.429.423c0 .233.192.422.429.422ZM206.241 113.959c-.003-.184.05-.365.15-.519.101-.155.245-.276.414-.348.17-.072.357-.093.538-.058.181.034.348.122.479.251s.221.295.258.475c.037.181.019.368-.051.539-.07.17-.189.316-.342.419-.153.103-.333.157-.517.157-.121.001-.241-.022-.354-.067-.112-.046-.214-.113-.3-.198-.087-.085-.155-.186-.202-.298-.048-.112-.072-.231-.073-.353ZM181.237 131.116c-.001-.049.012-.098.039-.139.026-.042.064-.074.109-.094.045-.02.095-.025.143-.017.048.009.093.032.128.066.035.035.059.079.07.127.01.048.005.098-.013.143-.019.046-.05.085-.091.112-.041.027-.089.042-.138.042-.064 0-.126-.025-.172-.07-.046-.045-.073-.106-.075-.17ZM205.656 156.886c-.001-.049.012-.097.039-.139.026-.041.064-.074.109-.094.045-.019.095-.025.143-.016.048.008.093.031.128.066.035.034.059.078.069.126.011.048.006.098-.012.143-.019.046-.051.085-.091.112-.041.028-.089.042-.138.042-.064 0-.126-.025-.172-.07-.046-.044-.073-.106-.075-.17ZM97.4427 140.145c.3408 0 .6171-.27.6171-.604 0-.333-.2763-.604-.6171-.604s-.6171.271-.6171.604c0 .334.2763.604.6171.604ZM71.8933 133.298c.3624 0 .6561-.287.6561-.643 0-.355-.2937-.643-.6561-.643s-.6561.288-.6561.643c0 .356.2937.643.6561.643ZM252.981 112.933c-.003-.206.056-.408.168-.581.113-.173.274-.308.464-.388.19-.081.399-.104.602-.065.202.039.389.137.535.281.147.145.247.33.288.532.041.202.022.412-.057.603-.078.19-.211.353-.382.468-.171.115-.373.176-.579.176-.136.002-.271-.023-.397-.074s-.241-.126-.337-.222c-.097-.095-.174-.209-.226-.334-.052-.126-.079-.26-.079-.396ZM249.408 87.1951c-.003-.1406.037-.2788.113-.3969.076-.1181.186-.2109.315-.2665.129-.0556.272-.0715.41-.0456.138.0258.266.0922.366.1907.1.0985.169.2246.197.3623.029.1377.015.2807-.038.4109-.053.1301-.144.2415-.26.3199-.117.0784-.254.1202-.395.1203-.092.0008-.184-.0165-.269-.0509-.086-.0345-.163-.0855-.229-.15-.066-.0646-.118-.1414-.154-.2262-.036-.0848-.055-.1759-.056-.268ZM205.884 93.4769c0-.1285.038-.2541.109-.3609.071-.1068.173-.1901.292-.2393.118-.0492.249-.062.375-.0369.126.025.242.0869.333.1777.09.0909.152.2066.177.3327.025.126.013.2566-.037.3753-.049.1187-.132.2201-.239.2915-.107.0714-.232.1095-.361.1095-.172 0-.337-.0684-.459-.1903-.122-.1218-.19-.287-.19-.4593ZM184.544 106.32c-.003-.178.047-.353.144-.502.097-.149.236-.266.4-.336.163-.069.344-.089.519-.056.175.033.336.118.462.242.127.125.214.285.249.459.036.174.019.355-.049.52-.067.164-.182.305-.33.404-.147.099-.321.152-.499.152-.117.001-.233-.021-.341-.065-.108-.044-.207-.109-.29-.191-.083-.082-.15-.179-.195-.287-.046-.108-.07-.223-.07-.34ZM175.196 86.4806c-.003-.0699.015-.1389.052-.1983.037-.0594.091-.1063.155-.1349.064-.0286.135-.0374.203-.0253.069.012.133.0443.183.0928.051.0485.086.111.1.1794.015.0683.009.1395-.018.2044-.026.0648-.071.1204-.128.1596-.058.0391-.127.0601-.197.0601-.045.0009-.09-.0072-.132-.0237-.042-.0165-.08-.0412-.113-.0725-.033-.0314-.059-.0689-.077-.1103-.018-.0415-.028-.0861-.028-.1313ZM146.392 85.7206c-.003-.1573.041-.3118.127-.4438.085-.1321.208-.2357.353-.2976.144-.062.304-.0796.459-.0505.154.0291.297.1036.409.2139.112.1103.189.2514.22.4055.032.1541.017.3141-.042.4597-.06.1456-.162.2701-.292.3578-.131.0877-.284.1345-.442.1345-.103.0009-.205-.0186-.301-.0573s-.183-.0959-.256-.1683c-.074-.0724-.133-.1586-.173-.2536-.04-.0951-.061-.1971-.062-.3003ZM128.631 71.221c-.003-.1572.042-.3117.127-.4437.086-.1321.209-.2357.353-.2977.145-.0619.304-.0795.459-.0504.155.0291.297.1035.409.2138.112.1103.189.2515.221.4056.031.1541.016.3141-.043.4597-.06.1455-.161.2701-.292.3578-.13.0876-.284.1345-.441.1345-.104.0009-.206-.0186-.302-.0573-.095-.0388-.183-.0959-.256-.1683-.074-.0724-.132-.1586-.173-.2536-.04-.0951-.061-.1971-.062-.3004ZM45.2915 98.6283c-.0013-.0583.0149-.1157.0465-.1648.0316-.049.0772-.0875.1309-.1104.0537-.0229.113-.0293.1703-.0182.0573.0111.11.039.1512.0803.0413.0413.0693.094.0803.1513.0111.0573.0048.1166-.0182.1703-.0229.0536-.0614.0992-.1104.1308-.0491.0317-.1065.0479-.1648.0466-.0758 0-.1485-.0301-.2021-.0837-.0536-.0536-.0837-.1263-.0837-.2022ZM214.328 78.2305c-.002-.1845.05-.3657.151-.5203.101-.1546.245-.2757.415-.3478.17-.0721.358-.092.539-.0571.181.0349.348.123.479.253.131.1301.22.2962.256.4772.036.1809.018.3686-.053.539-.071.1704-.191.3158-.345.4176-.154.1019-.335.1556-.519.1544-.121.0008-.241-.0222-.353-.0679-.111-.0456-.213-.113-.299-.1981-.086-.0852-.154-.1864-.2-.298-.047-.1115-.071-.2312-.071-.352ZM157.48 109.217c0-.046.01-.091.027-.134.018-.043.044-.081.076-.114.033-.032.071-.058.114-.076.043-.017.088-.027.134-.027.093 0 .183.037.248.103.066.066.103.155.103.248s-.037.183-.103.248c-.065.066-.155.103-.248.103-.046 0-.091-.009-.134-.027-.043-.017-.081-.043-.114-.076-.032-.032-.058-.071-.076-.114-.017-.042-.027-.088-.027-.134ZM116.035 90.6966c.027-.2391.142-.4596.322-.6197.179-.1601.412-.2485.652-.2485.241 0 .473.0884.653.2485.179.1601.294.3806.322.6197-.028.239-.143.4596-.322.6197-.18.1601-.412.2485-.653.2485-.24 0-.473-.0884-.652-.2485-.18-.1601-.295-.3807-.322-.6197ZM128.507 126.445c.095-.183.242-.333.423-.432.181-.1.386-.143.592-.125.205.018.4.097.56.226.161.13.279.304.34.5.062.197.063.408.005.605-.059.198-.175.373-.333.505-.159.131-.353.213-.558.234-.205.021-.411-.02-.593-.116-.121-.063-.229-.148-.316-.253-.088-.104-.154-.225-.194-.354-.041-.13-.055-.267-.042-.403.013-.135.052-.267.116-.387ZM108.07 118.897c.053-.098.123-.184.209-.254.085-.07.183-.122.289-.154.105-.032.216-.043.326-.032.11.011.216.043.313.095.098.052.184.123.254.208.069.086.122.184.154.289.032.106.043.217.032.327-.011.109-.043.216-.095.313-.109.192-.287.333-.498.395-.211.062-.438.039-.633-.064-.097-.05-.183-.12-.253-.204-.07-.083-.123-.18-.155-.285-.033-.104-.045-.214-.035-.323.01-.109.042-.215.092-.311ZM26.3616 126.939c.0013-.085-.0228-.169-.0691-.24-.0463-.072-.1128-.127-.191-.161-.0782-.033-.1646-.043-.2482-.027-.0836.016-.1606.056-.2212.116-.0607.06-.1021.136-.1192.219-.0171.084-.009.17.0233.249.0322.079.0871.146.1578.193.0706.048.1538.073.2388.073.1126 0 .2207-.044.3009-.123.0803-.079.1262-.187.1279-.299ZM23.2305 98.9142c.0013-.085-.0228-.1685-.0691-.2399-.0463-.0714-.1128-.1273-.191-.1608-.0782-.0334-.1647-.0428-.2482-.027-.0836.0158-.1606.0561-.2213.1158-.0606.0597-.1021.136-.1191.2194-.0171.0833-.009.1699.0233.2486.0322.0787.0871.1461.1578.1935.0706.0474.1538.0727.2388.0727.1126 0 .2207-.0443.3009-.1233.0803-.079.1262-.1864.1279-.299ZM13.4277 180.571c.0026.122-.0312.241-.097.344-.0658.102-.1606.182-.2723.23-.1118.048-.2353.062-.3547.039-.1195-.022-.2295-.08-.316-.166-.0864-.085-.1454-.195-.1693-.314-.0238-.119-.0116-.243.0352-.355.0468-.112.1261-.208.2276-.275.1016-.067.2208-.102.3423-.1.1592 0 .3118.062.425.174.1131.112.1775.264.1792.423ZM44.9666 193.616c.0038.166-.042.33-.1317.47-.0897.141-.2192.251-.3719.318-.1528.066-.3218.085-.4857.055-.1638-.03-.3149-.108-.4341-.224-.1191-.117-.2009-.266-.2348-.429-.034-.163-.0186-.333.0442-.487.0629-.154.1702-.286.3084-.379.1382-.093.301-.143.4676-.143.2194-.002.4306.083.5876.237.1569.153.2469.362.2504.582ZM71.6334 182.397c.0013.099-.0269.196-.0811.279-.0542.083-.1318.149-.2231.187-.0913.039-.1921.05-.2895.032-.0975-.019-.1872-.066-.2578-.136-.0706-.07-.1189-.159-.1387-.256-.0199-.097-.0104-.198.0273-.29.0377-.092.1018-.17.1842-.225.0823-.056.1793-.085.2785-.085.1316 0 .2578.052.3514.144.0937.093.1471.218.1488.35ZM93.4996 175.952c.0039.195-.0505.387-.1562.551-.1057.164-.2579.293-.4371.37-.1793.077-.3774.099-.5692.063-.1917-.036-.3683-.129-.5072-.266-.1388-.137-.2337-.312-.2724-.503-.0387-.192-.0196-.39.0551-.57.0746-.181.2013-.335.3639-.442.1625-.108.3536-.165.5487-.164.1271-.001.2531.023.3709.071.1178.048.2249.119.3154.208.0905.089.1625.195.212.313.0494.117.0753.242.0761.369ZM175.371 181.942c.133 0 .24-.108.24-.24 0-.133-.107-.241-.24-.241s-.24.108-.24.241c0 .132.107.24.24.24ZM.513287 197.24c.000011.034-.006753.068-.01989.099-.013136.031-.032381.059-.056599.083-.024219.024-.052918.042-.084409.054-.031492.013-.065137.019-.098951.018-.033514.001-.066856-.005-.097998-.018-.031143-.012-.0594291-.031-.0831355-.054-.0237064-.024-.0423355-.052-.0547511-.084-.0124156-.031-.0183598-.064-.0174656-.098 0-.067.0266916-.131.0742041-.179.0475121-.047.1119541-.074.1791461-.074.067805 0 .132933.027.181481.074.048549.047.076672.112.078368.179ZM70.0678 203.308c0 .065-.026.128-.0723.174-.0463.047-.1091.073-.1745.073-.0655 0-.1283-.026-.1746-.073-.0463-.046-.0723-.109-.0723-.174 0-.066.026-.128.0723-.175.0463-.046.1091-.072.1746-.072.0654 0 .1282.026.1745.072.0463.047.0723.109.0723.175ZM45.6487 177.537c.0012.05-.0121.098-.0384.139-.0264.042-.0645.074-.1094.094-.045.02-.0949.026-.1432.017-.0483-.009-.0928-.032-.128-.066-.0352-.034-.0594-.078-.0694-.126-.0101-.048-.0056-.098.0129-.144.0185-.045.0501-.084.0908-.112.0407-.027.0887-.042.1378-.042.0321-.001.0641.005.094.016.0299.012.0572.03.0802.052.023.023.0413.049.0538.079.0124.03.0189.061.0189.093ZM11.5503 243.727c.0039.141-.0343.28-.1097.399-.0755.119-.1846.212-.3136.269-.129.057-.272.073-.4106.048-.1386-.025-.2666-.091-.3676-.189-.101-.098-.1704-.224-.1993-.362-.0289-.138-.0161-.281.0369-.412.0529-.13.1436-.242.2605-.321.1168-.078.2545-.12.3953-.121.185-.001.3632.07.4958.199s.2089.305.2123.49ZM206.013 235.795c.002.058-.014.115-.046.164-.031.049-.076.088-.13.111-.053.023-.112.03-.169.019-.057-.01-.11-.038-.151-.078-.042-.041-.07-.093-.082-.15-.012-.057-.007-.116.015-.17.022-.054.06-.1.108-.132s.105-.05.163-.05c.076 0 .15.03.204.084.055.053.087.126.088.202ZM204.143 260.715c.003.193-.05.383-.155.546-.105.163-.256.291-.433.368-.178.076-.375.098-.565.063-.19-.035-.366-.126-.504-.262-.138-.135-.233-.309-.272-.499-.039-.189-.021-.386.052-.565.073-.179.198-.333.359-.441.16-.108.35-.165.543-.165.256-.002.502.097.684.276.183.179.287.423.291.679ZM250.792 197.24c.009.061.04.117.087.157.047.04.107.062.169.062.062 0 .122-.022.169-.062.047-.04.078-.096.088-.157-.01-.061-.041-.116-.088-.156-.047-.04-.107-.063-.169-.063-.062 0-.122.023-.169.063-.047.04-.078.095-.087.156ZM228.503 235.938c.237 0 .429-.189.429-.422 0-.233-.192-.422-.429-.422s-.429.189-.429.422c0 .233.192.422.429.422ZM252.981 221.491c-.003.206.056.408.168.581.113.172.274.307.464.388.19.081.399.103.602.065.202-.039.389-.137.535-.282.147-.145.247-.33.288-.532.041-.202.022-.411-.057-.602-.078-.191-.211-.354-.382-.469-.171-.114-.373-.176-.579-.176-.136-.002-.271.024-.397.075-.126.05-.241.126-.337.221-.097.096-.174.209-.226.335-.052.125-.079.26-.079.396Z"/>
  <path fill="#D7099C" d="M206.273 193.531c.364 7.516.228 14.844-.539 16.37-1.585 3.145-16.058 17.579-22.191 23.796-6.132 6.217-7.061 4.794-15.474 7.536-5.119 1.669-16.24 5.71-26.426 9.432-6.555 2.391-12.739 4.645-16.747 6.061-10.245 3.618-6.165 2.826-27.3362 7.204-21.1711 4.379-56.6792 33.826-56.6792 33.826s-36.85931-28.35-28.1025-75.46c0 0 50.313-7.341 54.568-8.919 4.2549-1.579 14.402-8.445 15.8506-11.602 1.4487-3.157 20.7873-30.11 28.3493-33.358 7.562-3.248 23.679-10.582 29.233-15.714 5.554-5.132 22.652-25.102 33.624-27.427 10.972-2.326 8.595 20.723-1.806 29.291-9.991 8.237-23.191 16.572-26.387 20.742 1.715 3.56 3.865 7.796 5.197 9.394 1.334 1.595 2.849 3.029 4.514 4.274 2.796 2.169 5.918 3.88 9.251 5.067 4.292 1.506 8.864 2.043 13.389 1.572 2.775-.306 5.504-.936 8.133-1.877.734-.26 1.455-.539 2.176-.838.474-.201.526-.188.591-.689.049-.487.068-.978.059-1.468.038-1.885-.071-3.77-.325-5.638-.205-1.574-.515-3.132-.929-4.665-.39-1.429-1.046-2.8-1.442-4.242-.741-2.663-1.299-5.385-1.787-8.1-2.234-12.343 9.251-12.096 9.251-12.096s6.697 16.377 9.309 19.696c1.345 1.728 2.287 9.861 2.676 17.832Z"/>
  <path fill="#E0259C" d="m131.411 159.985-21.768 9.53s-26.5372 27.251-25.5823 32.662c.9549 5.412 1.7604-12.044 27.2383-21.606 25.478-9.562 34.729-29.2 20.112-20.586Z"/>
  <path fill="#E0259C" d="M67.3719 213.429c3.9757-2.144-54.5679 8.919-54.5679 8.919-8.76334 47.104 28.109 75.46 28.109 75.46s35.5016-29.448 56.6726-33.826c21.1714-4.378 17.0854-3.586 27.3364-7.211 4.001-1.416 10.186-3.67 16.74-6.061 10.212-3.715 21.308-7.756 26.427-9.426 8.445-2.741 9.341-1.299 15.474-7.535 6.132-6.236 20.612-20.658 22.197-23.796.767-1.533.903-8.854.533-16.37-.39-7.971-1.332-16.137-2.677-17.852-2.598-3.319-9.302-19.702-9.302-19.702s-5.197 1.63-.455 9.465c4.742 7.834 8.666 11.439 8.309 16.201-.358 4.762 1.299 19.969 0 23.425-1.3 3.456-14.188 21.918-39.075 29.967s-31.565 0-50.02 6.906c-18.4561 6.905-48.8063 24.191-55.257 12.206-6.4507-11.986-9.6923-30.396 9.5559-40.77Z"/>
  <path fill="#412D87" d="m40.913 299.003-.6496-.474c-.3833-.292-9.4519-7.347-17.5397-20.32-7.5031-11.986-15.48689-31.448-10.9006-56.088l.1234-.689.6886-.097c17.3708-2.534 51.0795-7.653 54.3471-8.868 4.3589-1.624 14.0772-8.445 15.305-11.101 1.3382-2.924 20.9048-30.429 28.8428-33.846 5.34-2.299 23.211-10.218 28.947-15.532 1.105-1.026 2.735-2.709 4.625-4.658 7.64-7.893 20.431-21.093 29.461-23.009 3.215-.682 5.762.539 7.145 3.449 1.566 3.248 1.592 8.445.078 13.857-1.585 5.697-4.579 10.692-8.224 13.694-4.19 3.449-9.003 6.97-13.252 10.075-5.639 4.112-10.55 7.705-12.609 10.05 2.17 4.463 3.82 7.451 4.781 8.646 1.284 1.538 2.745 2.918 4.353 4.112 2.708 2.112 5.739 3.773 8.977 4.918 4.167 1.453 8.604 1.968 12.993 1.507 2.727-.29 5.409-.905 7.99-1.832.728-.253 1.442-.526 2.118-.812.027-.311.038-.623.032-.935v-.338c.033-1.835-.071-3.67-.312-5.49-.202-1.534-.506-3.053-.909-4.547-.182-.682-.429-1.345-.695-2.053-.267-.708-.533-1.429-.747-2.189-.799-2.884-1.358-5.755-1.8-8.185-.747-4.125-.123-7.399 1.871-9.744 3.053-3.58 8.133-3.515 8.361-3.515h.649l.241.591c.071.163 6.671 16.293 9.172 19.489 1.91 2.43 2.651 13.681 2.885 18.404.065 1.448.649 14.291-.65 16.851-1.364 2.709-10.66 12.213-20.067 21.716l-2.299 2.326c-4.717 4.781-6.561 5.249-10.615 6.288-1.371.345-3.073.78-5.255 1.495-5.1 1.663-16.403 5.775-26.368 9.406-6.321 2.306-12.713 4.638-16.774 6.074-1.76.65-3.092 1.111-4.209 1.52-5.444 2.007-5.658 2.085-23.2629 5.723-20.6839 4.281-55.8672 33.332-56.244 33.624l-.6041.507ZM13.5966 223.16c-4.19006 23.672 3.4949 42.381 10.7252 53.951 4.5058 7.263 10.0891 13.799 16.5587 19.385 4.9696-4.054 36.593-29.402 56.4778-33.521 17.4557-3.612 17.6627-3.683 22.9837-5.638 1.117-.41 2.462-.903 4.222-1.527 4.06-1.442 10.44-3.768 16.734-6.061 10.011-3.644 21.327-7.795 26.459-9.439 2.242-.734 3.983-1.176 5.379-1.533 3.898-1 5.373-1.371 9.706-5.762l2.306-2.332c6.418-6.496 18.371-18.56 19.709-21.217.539-1.078.851-7.321.435-15.889-.506-10.394-1.637-16.241-2.468-17.293-2.397-3.047-7.9-16.202-9.179-19.3-1.3.104-4.34.584-6.23 2.812-1.579 1.865-2.059 4.593-1.423 8.108.435 2.39.981 5.197 1.761 8.016.188.65.435 1.332.695 2.027.26.695.545 1.455.753 2.221.424 1.573.743 3.173.955 4.788.26 1.916.371 3.849.332 5.782v.325c.005.418-.014.837-.059 1.253-.003.324-.112.637-.308.894-.197.256-.472.442-.783.529l-.091.039c-.715.305-1.468.591-2.228.857-2.7.98-5.507 1.634-8.361 1.949-4.688.494-9.427-.059-13.876-1.617-3.432-1.212-6.647-2.967-9.523-5.197-1.726-1.292-3.296-2.781-4.678-4.437-1.11-1.377-2.89-4.606-5.287-9.582l-.26-.539.364-.474c1.948-2.547 7.243-6.419 13.382-10.894 4.222-3.093 9.016-6.594 13.161-10.011 6.054-4.983 10.933-18.358 7.633-25.192-1.02-2.111-2.657-2.891-5.009-2.391-8.445 1.793-20.976 14.727-28.459 22.451-1.91 1.949-3.56 3.677-4.704 4.736-5.801 5.372-22.561 12.901-29.499 15.889-7.366 3.177-26.5561 30.045-27.8424 32.871-1.65 3.605-12.2842 10.582-16.3963 12.115-4.1121 1.533-47.734 7.939-54.0677 8.848Z"/>
  <path fill="#D7099C" d="M250.908 142.958c-1.403 7.796-6.177 19.937-11.218 31.253-6.425 14.428-13.272 27.538-14.117 28.642-1.422 1.845-27.615 27.063-34.429 33.546l-1.053.988c-4.495 4.196-17.052 7.191-27.18 10.121-10.127 2.93-21.242 3.157-21.242 3.157 10.205-3.722 21.307-7.763 26.426-9.433 8.413-2.741 9.335-1.299 15.474-7.535 6.139-6.236 20.606-20.651 22.191-23.796.767-1.526.903-8.854.539-16.376 1.787-9.894 7.854-13.876 13.187-20.632 3.528-4.47 5.737-10.05 7.64-15.364.578-1.604.942-3.352 1.669-4.93 2.143-3.94 5.227-7.287 8.978-9.745 1.708-.998 3.616-1.606 5.587-1.78 2.655-.216 5.307.446 7.548 1.884Z"/>
  <path fill="#E0259C" d="M250.909 142.958c-1.404 7.796-16.89-1.299-21.977 20.684-3.989 17.176-14.292 24.686-14.584 26.017-1.949 9.849-17.124 32.014-23.964 38.503-.436.403-6.574 5.288-6.841 5.535-4.489 4.19-8.646 5.723-18.774 8.653-10.127 2.93-23.126 8.315-23.126 8.315 10.205-3.722 21.307-7.763 26.426-9.432 8.413-2.742 9.335-1.3 15.474-7.536 6.139-6.236 20.606-20.651 22.191-23.796.767-1.526.903-8.854.539-16.376 1.787-9.894 7.854-13.876 13.188-20.632 3.527-4.47 5.736-10.05 7.639-15.364.578-1.604.942-3.352 1.67-4.93 2.142-3.94 5.226-7.287 8.977-9.745 1.708-.998 3.616-1.606 5.587-1.78 2.663-.222 5.326.44 7.575 1.884Z"/>
  <path fill="#412D87" d="m135.79 251.756 5.515-2.007c10.011-3.644 21.327-7.795 26.459-9.439 2.241-.734 3.982-1.176 5.379-1.533 3.897-1 5.372-1.371 9.705-5.762l2.306-2.332c6.418-6.496 18.371-18.56 19.71-21.217.539-1.078.851-7.314.441-15.896v-.221c1.384-7.672 5.243-11.907 9.329-16.39 1.338-1.468 2.728-2.994 4.047-4.67 3.508-4.437 5.704-10.115 7.49-15.084.214-.592.39-1.196.585-1.832.294-1.084.665-2.146 1.111-3.177.856-1.678 1.919-3.243 3.163-4.658l.052-.058c1.702-2.187 3.794-4.04 6.171-5.464 1.83-1.073 3.876-1.725 5.99-1.909 2.894-.247 5.788.478 8.224 2.059l.5.364-.11.597c-1.533 8.504-6.983 21.814-11.29 31.481-6.302 14.155-13.24 27.544-14.234 28.836-1.507 1.949-28.355 27.785-34.559 33.664-.436.409-.793.747-1.066.993-3.982 3.729-13.596 6.419-22.892 9.024-1.592.441-3.157.883-4.671 1.299-10.127 2.936-21.385 3.19-21.496 3.196l-5.859.136Zm71.458-58.166c.091 1.903.61 14.233-.65 16.747-1.364 2.709-10.66 12.213-20.067 21.717l-2.299 2.325c-4.717 4.781-6.561 5.249-10.615 6.288-1.371.345-3.073.78-5.255 1.495-4.002 1.299-11.837 4.125-19.846 7.035 4.764-.466 9.48-1.335 14.096-2.599 1.521-.441 3.093-.883 4.684-1.299 8.647-2.423 18.449-5.197 22.087-8.568l1.053-.988c7.594-7.197 33.046-31.74 34.351-33.435.793-1.033 7.555-13.954 14-28.441 4.151-9.322 9.374-22.048 11.043-30.382-1.959-1.076-4.19-1.556-6.418-1.384-1.835.157-3.612.725-5.197 1.663-2.17 1.301-4.078 2.995-5.626 4.996l-.052.064c-1.14 1.286-2.115 2.709-2.904 4.236-.402.931-.74 1.888-1.013 2.865-.188.649-.383 1.299-.611 1.949-1.838 5.119-4.112 10.965-7.795 15.636-1.364 1.734-2.774 3.281-4.138 4.775-4.028 4.424-7.523 8.237-8.822 15.305h-.006Z"/>
  <path fill="#D7099C" d="M258.418 147.915c-4.781 5.905-6.698 13.447-9.53 17.741-3.501 5.275-9.224 8.555-9.224 8.555 5.041-11.316 9.815-23.451 11.218-31.253-2.249-1.441-4.911-2.101-7.574-1.877 0 0 .611-10.108 16.429-10.53.026 0 2.663 6.268-1.319 17.364Z"/>
  <path fill="#412D87" d="m237.591 176.544 1.209-2.729c4.151-9.322 9.374-22.048 11.043-30.382-1.96-1.073-4.19-1.554-6.418-1.384l-1.124.091.072-1.124c0-.11.857-10.998 17.377-11.433h.649l.26.649c.111.267 2.716 6.743-1.299 18.06l-.058.156-.104.13c-2.807 3.469-4.619 7.574-6.224 11.193-.91 2.247-1.996 4.419-3.248 6.496-3.586 5.424-9.283 8.724-9.523 8.867l-2.612 1.41Zm6.919-36.483c2.476.023 4.895.753 6.97 2.105l.5.364-.11.597c-1.377 7.62-5.892 19.086-9.907 28.343 2.368-1.773 4.432-3.919 6.113-6.353 1.186-1.98 2.22-4.048 3.092-6.185 1.631-3.689 3.476-7.86 6.386-11.498 3.008-8.523 1.994-14.083 1.501-15.876-11.154.526-13.889 6.1-14.545 8.503Z"/>
  <path fill="#D7099C" d="M282.72 142.556s-11.141 18.936-21.294 34.546c-10.154 15.611-11.797 21.113-17.215 24.894-5.418 3.78-35.982 23.081-42.725 28.401-6.412 5.06-10.05 5.931-10.394 6.002 6.84-6.496 33.033-31.701 34.43-33.546.844-1.104 7.691-14.214 14.116-28.642 0 0 5.697-3.248 9.198-8.555 2.833-4.294 4.749-11.836 9.53-17.741 1.145-1.422 2.453-2.704 3.898-3.82 7.841-6.009 16.305-4.729 20.456-1.539Z"/>
  <path fill="#E0259C" d="M282.72 142.556s-17.156-.546-31.415 29.915c-7.893 16.89-9.946 15.272-15.344 19.059-5.399 3.788-28.928 30.766-35.664 36.087-6.412 5.06-8.842 8.711-9.179 8.782 6.84-6.496 33.033-31.701 34.429-33.546.845-1.104 7.692-14.214 14.117-28.642 0 0 5.697-3.248 9.198-8.555 2.833-4.294 4.749-11.836 9.53-17.741 1.145-1.422 2.453-2.704 3.898-3.82 7.815-6.009 16.279-4.729 20.43-1.539Z"/>
  <path fill="#412D87" d="m187.928 238.075 2.52-2.384c7.595-7.197 33.047-31.74 34.352-33.435.793-1.033 7.555-13.954 14-28.441l.129-.286.28-.162c.052-.032 5.541-3.216 8.867-8.25 1.186-1.98 2.22-4.048 3.092-6.185 1.65-3.735 3.521-7.964 6.496-11.628 1.186-1.479 2.542-2.814 4.041-3.975 7.75-5.97 16.741-5.295 21.613-1.546l.682.526-.435.74c-.111.189-11.265 19.132-21.314 34.586-3.463 5.314-5.925 9.445-7.9 12.758-3.897 6.497-5.846 9.784-9.555 12.395-1.949 1.351-7.081 4.69-13.051 8.562-10.68 6.919-25.335 16.403-29.629 19.814-6.555 5.196-10.394 6.099-10.791 6.19l-3.397.721Zm52.528-63.181c-6.269 14.051-13.122 27.284-14.11 28.55-1.299 1.657-20.573 20.281-30.304 29.603 1.686-1.041 3.309-2.182 4.859-3.417 4.391-3.462 18.469-12.589 29.778-19.917 5.957-3.859 11.096-7.191 12.993-8.516 3.378-2.371 5.255-5.522 8.997-11.797 1.988-3.333 4.463-7.478 7.938-12.83 8.874-13.642 18.612-30.006 20.788-33.729-3.761-2.371-11.232-3.592-18.534 2.027-1.376 1.071-2.623 2.298-3.715 3.658-2.807 3.469-4.619 7.574-6.224 11.193-.91 2.247-1.996 4.419-3.248 6.496-3.157 4.794-7.997 7.964-9.218 8.679ZM86.2173 227.298c12.3588-5.961 25.4717-10.211 38.9767-12.635 8.445-1.552 17.378-2.157 25.803.104 1.377.338 3.502.929 4.885 1.163 3.139.518 6.359-.107 9.075-1.761 2.206-1.882 4.516-3.639 6.919-5.261 4.729-3.287 9.861-6.139 14.603-9.309.585-.359 1.106-.814 1.54-1.345.341-1.844.481-3.719.416-5.593h1.949c-.052 2.176.207 4.547-.592 6.652-.573.791-1.295 1.464-2.124 1.981-7.146 4.853-14.87 8.952-21.385 14.558-3.173 2.029-6.986 2.807-10.699 2.183-.78-.117-1.826-.39-2.599-.591-5.624-1.752-11.515-2.484-17.397-2.164-6.762.325-13.447 1.676-20.066 3.112-10.018 2.124-19.7358 5.333-29.3112 8.919l.0065-.013Z"/>
  <path stroke="#8D29FF" stroke-miterlimit="10" stroke-width="3" d="M146.171 175.309c-.121.157-.234.319-.338.487"/>
  <path fill="#412D87" d="M145.294 175.732c-1.014-1.887-1.618-3.965-1.774-6.1h.078c1.515 1.491 2.698 3.287 3.469 5.268l-1.754.844-.019-.012Z"/>
  <path fill="#fff" fill-rule="evenodd" d="M12.7781 222.296s-11.36834 40.101 28.1024 75.46l21.7428-16.189-.4288-1.565S36.5346 268.14 38.5159 221.01l-.6496-2.488-25.0882 3.774Z" clip-rule="evenodd"/>
  <path fill="#FFF66F" d="M99.5215 114.044s13.0965-3.021 9.6275-16.377c0 0 2.689 13.181 13.921 10.264 0 0-11.388 4.547-9.01 13.7 0 0-2.456-10.725-14.5385-7.587ZM229.666 1.64697s-4.437 17.37083 13.525 21.43743c0 0-17.273-4.8722-20.69 10.225 0 0 1.578-16.2795-10.732-19.0663 0-.0065 14.253 3.6443 17.897-12.59613Z"/>
  <path fill="#B30781" stroke="#412D87" stroke-miterlimit="10" stroke-width="2" d="m170.804 48.5493-11.979 6.7041s-14.292 9.3285-15.591 31.1167c-1.39 23.9639 13.993 48.6559 37.879 54.6719 6.848 1.727 14.005 1.82 20.895.269 6.89-1.55 13.318-4.7 18.765-9.195 0 0 .363-.292.357-.305l-50.326-83.2617Z"/>
  <path fill="#D7099C" stroke="#412D87" stroke-miterlimit="10" stroke-width="2" d="M239.664 92.9767c1.143 23.3863-14.169 44.2653-37.607 44.2653-27.933 0-48.201-23.348-49.098-49.5791-.818-24.1074 11.459-45.4083 41.394-44.356 22.808.7796 44.102 25.5495 45.311 49.6698Z"/>
  <path fill="#E0259C" d="M192.105 76.366c-13.155 60.811 32.546 59.986 9.536 59.986-27.439 0-47.311-22.919-48.188-48.6632-.812-23.672 11.245-44.5767 40.627-43.5244 22.425.7731 3.527 6.7366-1.975 32.2016Z"/>
  <path fill="#412D87" d="M204.799 59.7033c.368-.0502.742.0422 1.045.2583.303.216.513.5395.585.9045.435 1.9489.845 3.8977 1.215 5.8855.033.1818.026.3683-.019.5473s-.128.3462-.243.4907c-.115.1444-.26.2627-.424.347-.164.0842-.344.1325-.529.1416-1.078.156-2.156.3249-3.248.4548-.429.0519-.533.2143-.429.6496.156.5976.28 1.2018.377 1.8059.065.4093.254.5327.65.4743.942-.156 1.884-.2794 2.826-.4288 1.422-.2274 1.987.1364 2.286 1.5461.241 1.1238.475 2.2542.689 3.3845.071.3898.234.5262.65.4612 1.39-.2273 2.786-.4222 4.177-.6496 1.39-.2273 1.948.1689 2.247 1.5331.338 1.6111.682 3.2481 1.001 4.8397.078.4092.234.5002.649.4352 1.41-.2274 2.826-.4092 4.242-.6496 1.416-.2404 1.91.2209 2.183 1.5461 1.299 6.4117 2.631 12.8234 3.976 19.2353.234 1.117-.078 1.949-1.455 2.085-1.378.137-2.872.383-4.301.604-1.228.189-1.864-.208-2.118-1.403-.493-2.352-.974-4.7031-1.442-7.0547-.253-1.2603-.247-1.2993-1.513-1.1109-.748.0975-1.488.2404-2.235.3183-.416.0455-.474.2209-.396.5977.532 2.501 1.039 5.0086 1.552 7.5156.039.195.078.39.111.585.048.179.056.367.023.55-.033.183-.106.356-.214.507-.108.151-.249.277-.411.367-.163.09-.343.143-.529.155-1.078.175-2.156.337-3.248.467-.468.059-.617.202-.5.689.266 1.137.487 2.287.721 3.436.234 1.15-.188 1.787-1.371 1.949l-4.716.65c-.374.079-.764.006-1.084-.202-.32-.208-.545-.535-.624-.909-.429-1.949-.838-3.898-1.202-5.846-.054-.185-.065-.379-.032-.568.034-.189.11-.368.224-.523.114-.154.262-.281.432-.369.171-.088.36-.135.552-.139 1.052-.175 2.117-.331 3.176-.467.468-.059.611-.241.487-.702-.155-.597-.266-1.202-.383-1.806-.065-.338-.195-.448-.565-.396-3.04.455-6.087.877-9.134 1.299-2.293.332-4.592.65-6.892.988-.481.065-.604.233-.481.695.15.578.273 1.163.364 1.747.065.403.234.533.65.468.961-.162 1.948-.286 2.884-.435 1.26-.202 1.89.208 2.15 1.442.377 1.786.747 3.573 1.098 5.366.065.194.082.401.052.603-.031.203-.109.395-.228.562-.119.166-.276.302-.458.397-.181.094-.383.144-.587.146l-4.71.689c-.217.064-.445.08-.669.045-.223-.035-.436-.119-.623-.247-.186-.128-.342-.295-.456-.491-.114-.195-.182-.414-.201-.639-.253-1.163-.487-2.332-.714-3.501-.091-.462-.241-.65-.793-.566-.987.202-2.001.293-3.001.429-.221.065-.454.08-.681.042-.227-.038-.442-.127-.63-.26-.187-.133-.342-.308-.453-.509-.111-.202-.174-.427-.185-.657-.533-2.36-1.037-4.766-1.514-7.217-.227-1.117-.214-1.111-1.351-.929-.721.124-1.449.228-2.183.299-.487.052-.649.201-.552.754.552 2.54 1.059 5.086 1.585 7.633.26 1.24-.13 1.799-1.364 1.981l-4.593.65c-.22.053-.449.058-.671.013-.222-.044-.431-.137-.613-.271-.183-.135-.333-.308-.441-.507-.108-.199-.171-.419-.185-.645-.679-3.278-1.355-6.563-2.026-9.855-.667-3.2218-1.334-6.4461-2.001-9.6725-.234-1.1369.162-1.7475 1.299-1.9489 1.41-.2144 2.826-.4288 4.242-.6042.552-.0649.689-.2663.572-.8055-.351-1.5331-.65-3.0727-.968-4.6058-.293-1.3837.058-1.9098 1.461-2.1242 1.404-.2144 2.787-.4223 4.184-.5977.468-.0584.546-.2533.455-.6496-.26-1.1823-.5-2.3711-.747-3.5534-.075-.2026-.099-.4201-.071-.6341.028-.214.107-.4181.231-.5948.124-.1768.288-.321.48-.4203.191-.0993.404-.1509.62-.1502 1.059-.1559 2.118-.3248 3.183-.4548.409-.0454.494-.2014.403-.5846-.154-.5742-.269-1.158-.345-1.7475-.064-.5522-.344-.6496-.818-.5522-.955.1624-1.949.2859-2.884.4353-1.183.1819-1.8-.2274-2.047-1.4227-.376-1.7843-.745-3.5729-1.104-5.3658-.073-.1991-.097-.4132-.068-.6234.028-.2103.108-.4103.232-.5827.123-.1724.287-.3119.477-.4063.19-.0943.401-.1407.613-.1351 1.494-.2144 2.988-.4288 4.476-.6496 1.299-.1949 1.916.2144 2.182 1.4746.234 1.1303.468 2.2542.689 3.3845.084.4547.26.6496.767.5392 1.052-.1949 2.117-.3248 3.176-.4612.196-.0412.397-.0421.593-.0026.196.0395.382.1185.546.2322.164.1137.303.2598.409.4292.106.1693.176.3585.206.556.266 1.1823.513 2.3711.721 3.5599.098.5262.293.7405.864.6496.897-.1689 1.806-.2794 2.709-.3898.429-.0585.565-.2274.468-.6496-.267-1.1563-.494-2.3256-.721-3.495-.228-1.1693.195-1.7409 1.344-1.8968 1.027-.13 2.04-.3119 3.067-.4353.396-.0455.493-.1949.409-.5781-.266-1.2213-.507-2.4491-.747-3.6769-.074-.1984-.099-.4119-.072-.622.028-.2101.106-.4103.228-.5833.122-.1729.285-.3133.474-.4089.189-.0957.399-.1436.611-.1398l4.963-.747Zm-17.754 26.0821c-1.449.2144-3.119.4678-4.788.7016-1.117.1624-1.566.7536-1.345 1.8514.364 1.7887.736 3.5751 1.118 5.3594.016.2352.085.4638.201.6686.117.2049.279.3807.473.5144.194.1336.416.2217.649.2576.233.0358.471.0186.697-.0504 1.546-.2339 3.099-.4548 4.651-.6496.211.0104.421-.0305.612-.1192s.358-.2226.485-.3901c.128-.1675.214-.3637.249-.5714.035-.2078.019-.4211-.047-.6213-.363-1.9489-.773-3.8458-1.188-5.7686-.091-.3841-.323-.7197-.651-.9391-.328-.2194-.727-.3063-1.116-.2433Zm22.45-3.248-4.937.721c-.208-.0036-.414.0428-.6.1354-.187.0927-.349.2288-.471.3969-.123.1681-.204.3633-.236.5692-.031.2058-.013.4162.054.6135.363 1.8644.76 3.7288 1.169 5.5867.022.2231.093.4384.208.6306.116.1921.272.3563.459.4806.186.1243.398.2057.62.2382.221.0325.447.0154.662-.0501l4.768-.6886c.19-.0071.375-.0557.544-.1423.169-.0866.317-.2091.433-.359.117-.1498.199-.3233.241-.5083.042-.185.043-.377.003-.5625-.364-1.9878-.779-3.9692-1.215-5.944-.102-.3635-.337-.6753-.658-.8738-.321-.1984-.705-.2691-1.076-.1981l.032-.0454Z"/>
  <path fill="#412D87" d="M184.602 92.0218c-.071-.078-.234-.1949-.266-.3378-.169-.6951-.325-1.3902-.436-2.0918.012-.0887.046-.173.099-.2447.054-.0717.125-.1284.207-.1646.584-.1234 1.176-.1689 1.76-.2728.364-.065.5.091.559.4223.117.6496.279 1.2342.37 1.8579 0 .1689-.123.5002-.24.5197-.637.1364-1.286.2013-2.053.3118ZM209.411 88.4294c-.819.1234-1.553.2468-2.293.3313-.078-.009-.152-.0375-.216-.0829-.063-.0455-.114-.1064-.148-.177-.173-.7059-.323-1.4205-.448-2.1437.004-.084.03-.1654.076-.2361.045-.0707.109-.1282.184-.1667.62-.1225 1.247-.2092 1.877-.2598.087.0029.172.0277.247.0719.075.0443.137.1067.182.1814.201.799.357 1.6111.539 2.4816Z"/>
  <path fill="#B30781" stroke="#412D87" stroke-miterlimit="10" stroke-width="2" d="m136.712 3.40088 5.424 3.03371s6.497 4.22251 7.042 14.08371c.65 10.8486-6.327 22.0221-17.143 24.744-3.099.7816-6.339.8232-9.457.1213-3.118-.702-6.027-2.1277-8.492-4.162-.055-.0422-.107-.0877-.156-.1364 0 0 13.252-6.0284 18.897-15.3634 5.743-9.504 3.885-22.32092 3.885-22.32092Z"/>
  <path fill="#D7099C" stroke="#412D87" stroke-miterlimit="10" stroke-width="2" d="M105.55 23.5001c-.52 10.5887 6.412 20.0342 17.02 20.0342 12.655 0 21.814-10.5693 22.223-22.4378.371-10.9136-5.196-20.55393-18.735-20.07971-10.335.36379-19.975 11.57621-20.508 22.48331Z"/>
  <path fill="#E0CBC5" d="M160.995 58.5469c-7.081 15.2205-8.049 33.3514-1.371 48.8641 2.247 5.169 5.046 10.081 8.348 14.649-3.951-4.145-7.238-8.876-9.744-14.025-7.569-15.4871-6.497-34.9497 2.76-49.4881h.007ZM134.386 3.40088c2.548 1.06388 4.787 2.75225 6.511 4.90937 1.723 2.15715 2.876 4.71355 3.351 7.43335.346 2.1853.361 4.4103.045 6.6001-1.423 9.5689-7.919 19.638-18.176 20.9047 2.139-.3913 4.187-1.1754 6.041-2.3126 8.718-5.054 14.065-18.6116 10.758-28.1869-1.544-4.0915-4.596-7.43648-8.53-9.34802Z"/>
</svg>
