<svg xmlns="http://www.w3.org/2000/svg" fill="none" viewBox="0 0 408 368">
  <path fill="#F6ECD8" d="M348.23 79.146c0 .0614-.018.1214-.052.1724-.035.051-.083.0908-.14.1143-.057.0235-.119.0296-.179.0177-.06-.012-.116-.0416-.159-.085-.044-.0434-.073-.0987-.085-.1588-.012-.0602-.006-.1226.017-.1793.024-.0567.064-.1052.115-.1393.051-.0341.111-.0523.172-.0523.083 0 .162.0327.22.0909.058.0582.091.1371.091.2194ZM345.613 109.185c-.004.244-.081.482-.22.683-.14.201-.335.357-.563.447-.227.09-.476.112-.715.061-.24-.05-.459-.17-.63-.345-.172-.174-.288-.395-.334-.636-.046-.24-.02-.488.075-.714.094-.225.253-.418.457-.553.204-.135.443-.208.688-.208.165.001.328.035.48.099.151.064.289.158.404.275.116.118.207.257.268.41.062.153.092.316.09.481ZM337.476 206.005c0 .153-.046.303-.131.431s-.206.227-.348.286c-.142.058-.298.074-.449.044-.151-.03-.289-.104-.397-.212-.109-.109-.183-.247-.213-.398-.03-.15-.015-.306.044-.448.059-.142.158-.263.286-.348.128-.085.278-.131.432-.131.205 0 .403.082.549.227.145.146.227.343.227.549ZM327.755 159.907c0 .206-.082.403-.228.548-.145.146-.343.228-.549.228-.206 0-.403-.082-.549-.228-.145-.145-.227-.342-.227-.548 0-.206.082-.403.227-.549.146-.145.343-.227.549-.227.206 0 .404.082.549.227.146.146.228.343.228.549ZM207.272 241.994c.095.225.255.417.459.552.204.135.444.206.688.205.245 0 .484-.073.687-.209.203-.136.362-.329.456-.554.094-.226.12-.474.073-.714-.046-.24-.162-.461-.334-.635-.172-.174-.391-.294-.63-.344-.24-.05-.489-.028-.716.062-.307.127-.552.371-.68.678-.128.307-.129.652-.003.959ZM194.553 165.694c-.049-.133-.058-.277-.025-.415.032-.138.105-.264.208-.361.104-.097.234-.161.373-.185.14-.024.284-.006.414.051.13.058.24.152.316.272.077.119.116.258.114.4-.003.142-.047.28-.127.397-.081.117-.194.207-.325.26-.09.035-.186.052-.282.05-.096-.002-.191-.023-.279-.062-.088-.039-.168-.095-.234-.165s-.118-.152-.153-.242ZM166.042 145.958c-.031-.076-.03-.161.002-.237.032-.076.093-.135.169-.166.037-.016.077-.023.117-.023.04.001.08.009.116.025.037.016.071.039.098.068.028.029.05.063.065.1.015.037.023.077.023.117 0 .041-.008.08-.024.118-.015.037-.038.07-.067.099-.028.028-.062.05-.099.066-.037.015-.077.023-.118.023-.04 0-.08-.008-.117-.024-.037-.015-.071-.038-.099-.067-.028-.028-.051-.062-.066-.099ZM157.307 117.09c-.086-.228-.103-.477-.048-.715.055-.238.179-.454.356-.622.178-.168.401-.28.641-.322.241-.042.489-.012.712.086.224.098.414.26.546.465.133.205.201.445.198.689-.003.244-.079.482-.216.683-.138.202-.332.358-.559.45-.311.12-.656.112-.962-.022-.305-.134-.545-.382-.668-.692ZM132.398 97.3463c-.061-.1047-.099-.2214-.111-.342-.012-.1206.002-.2424.041-.3571.04-.1148.103-.2197.186-.3078.084-.088.185-.1572.298-.2027.112-.0455.233-.0663.354-.061.121.0053.24.0365.348.0916.108.0552.203.1329.278.2278.076.095.13.2051.159.3228.061.1047.099.2214.111.342.012.1206-.002.2424-.041.3571-.04.1147-.103.2197-.186.3077-.084.0881-.185.1572-.298.2027-.112.0455-.233.0664-.354.0611-.121-.0053-.24-.0366-.348-.0917-.108-.0551-.203-.1328-.278-.2278-.076-.095-.13-.205-.159-.3227ZM155.094 63.3584c-.053-.1428-.062-.2979-.027-.4459.035-.1481.113-.2825.224-.3867.111-.1042.25-.1735.4-.1992.15-.0258.305-.0069.444.0543.14.0612.258.162.34.2899.083.1278.126.2771.124.4293-.002.1521-.048.3003-.133.4263-.086.1259-.206.224-.347.282-.097.0398-.201.0597-.305.0585-.105-.0012-.208-.0234-.304-.0655-.095-.042-.182-.1029-.253-.179-.072-.0761-.127-.1659-.163-.264ZM221.38 70.969c-.006-.2441-.084-.4809-.224-.6809-.14-.2-.337-.3543-.564-.4435-.227-.0892-.476-.1094-.715-.0581-.239.0514-.457.172-.628.3468-.171.1747-.286.3959-.332.6358-.045.2399-.019.4879.076.7129.095.225.254.417.458.5521.203.1351.442.2072.687.2072.165-.0009.329-.0348.481-.0994.152-.0647.29-.159.406-.2773.116-.1184.206-.2585.267-.4122.061-.1537.091-.318.088-.4834ZM223.958 175.462c.001.041-.006.082-.022.121-.015.038-.037.073-.066.103-.029.03-.064.053-.102.069-.038.016-.079.025-.121.025-.075-.012-.143-.05-.192-.108-.049-.057-.077-.131-.077-.206 0-.076.028-.15.077-.207.049-.058.117-.096.192-.108.083 0 .162.033.22.091.058.058.091.137.091.22ZM221.38 205.508c-.006.244-.084.481-.224.681-.14.2-.337.355-.564.444-.227.089-.476.109-.715.058s-.457-.172-.628-.347c-.171-.175-.286-.396-.332-.636-.045-.24-.019-.488.076-.713.095-.225.254-.417.458-.552.203-.135.442-.207.687-.207.165.002.328.037.48.102.152.065.289.159.405.277.115.118.206.258.267.411.062.154.092.317.09.482ZM237.15 233.065c-.003.166-.055.328-.15.465s-.228.243-.383.305-.325.076-.488.042c-.163-.035-.312-.116-.429-.235-.117-.119-.196-.27-.227-.433-.032-.164-.014-.333.05-.487.065-.153.173-.285.312-.377.139-.092.302-.141.469-.141.112.001.223.024.326.068.103.043.197.107.275.187.079.08.141.175.183.279.042.104.063.215.062.327ZM213.204 302.321c0 .153-.046.303-.131.431-.085.127-.207.227-.348.285-.142.059-.298.074-.449.044-.151-.03-.289-.103-.398-.212-.108-.108-.182-.247-.212-.397-.03-.151-.015-.307.044-.448.059-.142.158-.263.286-.349.128-.085.278-.13.431-.13.206 0 .404.081.549.227.146.145.228.343.228.549ZM203.444 256.222c0 .154-.046.304-.131.431-.085.128-.207.227-.348.286-.142.059-.298.074-.449.044-.151-.03-.289-.103-.398-.212-.108-.108-.182-.247-.212-.397-.03-.151-.015-.307.044-.448.059-.142.158-.263.286-.349.128-.085.278-.13.431-.13.206 0 .404.081.549.227.146.145.228.343.228.548ZM275.499 61.3181c-.001.061-.021.1202-.056.1702-.035.05-.084.0886-.141.1109-.057.0223-.119.0273-.179.0145-.059-.0128-.114-.043-.157-.0867-.042-.0437-.071-.099-.083-.1589-.011-.06-.004-.122.019-.1783.024-.0562.064-.1042.115-.138.051-.0338.11-.0518.172-.0518.041 0 .082.0083.12.0243.038.0161.073.0397.102.0693.029.0297.052.0648.067.1033.015.0386.022.0798.021.1212ZM272.883 91.3571c-.005.2444-.082.4821-.221.6831-.139.2011-.335.3566-.562.447-.228.0904-.477.1116-.716.0611-.24-.0505-.459-.1705-.63-.3449-.172-.1745-.288-.3957-.334-.6359-.046-.2401-.02-.4885.075-.7139.094-.2255.254-.418.457-.5534.204-.1354.443-.2076.688-.2077.165.001.328.0346.48.0988.152.0642.289.1578.405.2753.115.1175.206.2567.268.4095.061.1529.092.3163.09.481ZM264.745 188.177c0 .153-.045.303-.131.431-.085.128-.206.227-.348.286-.142.058-.298.074-.449.044-.15-.03-.289-.104-.397-.212-.109-.109-.183-.247-.213-.398-.03-.15-.014-.306.044-.448.059-.142.159-.263.286-.348.128-.085.278-.131.432-.131.206 0 .403.082.549.227.145.146.227.343.227.549ZM254.985 142.079c0 .206-.082.403-.227.548-.146.146-.343.228-.549.228-.206 0-.404-.082-.549-.228-.146-.145-.228-.342-.228-.548 0-.206.082-.403.228-.549.145-.145.343-.227.549-.227.206 0 .403.082.549.227.145.146.227.343.227.549ZM129.463 184.127c-.011.141-.062.275-.148.386-.086.112-.202.195-.335.242-.133.046-.277.052-.413.018-.137-.035-.26-.108-.356-.212-.095-.103-.158-.232-.181-.371-.022-.139-.004-.281.053-.41.057-.128.15-.237.269-.313.118-.077.256-.117.397-.115.099 0 .196.021.287.061.09.041.171.099.238.172.067.072.119.158.151.251.033.094.045.193.038.291ZM148.61 213.026c0 .061-.018.121-.052.172-.034.051-.083.091-.139.115-.057.023-.12.029-.18.017s-.115-.041-.159-.085c-.043-.043-.073-.098-.085-.159-.012-.06-.006-.122.018-.179.023-.057.063-.105.114-.139.051-.034.111-.052.173-.052.082 0 .161.032.219.09.059.059.091.138.091.22ZM145.994 243.073c-.006.244-.084.481-.225.681-.14.2-.336.354-.563.443-.228.089-.477.109-.715.058-.239-.051-.458-.172-.628-.347-.171-.174-.286-.396-.332-.635-.045-.24-.019-.488.076-.713.095-.225.254-.417.458-.552.203-.136.442-.208.686-.208.166.001.33.035.482.1.152.064.29.159.406.277.115.118.206.259.267.412.061.154.091.318.088.484ZM128.096 293.787c0 .153-.045.303-.13.431-.086.127-.207.227-.349.285-.142.059-.298.075-.448.045-.151-.03-.289-.104-.398-.213-.109-.108-.183-.246-.213-.397-.03-.15-.014-.306.045-.448.058-.142.158-.263.286-.348.127-.086.277-.131.431-.131.206 0 .403.082.549.227.146.146.227.343.227.549ZM309.027 181.063c.002.145-.038.287-.118.409-.079.121-.193.216-.327.271-.134.056-.282.07-.424.041-.142-.029-.272-.101-.372-.205-.101-.104-.168-.236-.193-.379-.025-.143-.006-.29.055-.422.06-.132.158-.243.282-.318.125-.075.268-.111.413-.103.182.011.352.09.479.221.126.13.199.303.205.485ZM328.166 209.969c.007.045.005.09-.007.133-.013.043-.034.083-.063.118-.029.034-.066.061-.106.08-.041.019-.086.028-.13.028-.045 0-.09-.009-.131-.028-.04-.019-.077-.046-.106-.08-.029-.035-.05-.075-.062-.118-.013-.043-.015-.088-.008-.133-.007-.044-.005-.089.008-.133.012-.043.033-.083.062-.117.029-.034.066-.062.106-.08.041-.019.086-.029.131-.029.044 0 .089.01.13.029.04.018.077.046.106.08.029.034.05.074.063.117.012.044.014.089.007.133ZM325.557 240.008c-.003.247-.079.487-.218.69-.139.203-.335.361-.564.453-.229.092-.48.115-.721.065s-.463-.17-.636-.346c-.173-.175-.291-.397-.338-.639-.047-.242-.021-.492.074-.72.095-.227.255-.421.46-.558.206-.136.447-.209.693-.209.165.001.329.034.481.098.152.064.29.158.406.275.117.118.208.257.271.41.062.153.093.316.092.481ZM341.358 267.565c-.003.166-.055.328-.15.465s-.228.243-.383.305c-.155.061-.324.076-.487.042-.164-.035-.313-.116-.43-.235-.117-.119-.196-.27-.227-.433-.031-.164-.014-.333.051-.487.064-.154.173-.285.311-.377.139-.092.302-.141.469-.141.112.001.223.024.326.067.103.044.197.108.276.188.078.08.14.175.182.279.042.103.063.215.062.327ZM307.66 290.73c0 .154-.045.304-.131.431-.085.128-.206.227-.348.286-.142.059-.298.074-.449.044-.151-.03-.289-.104-.397-.212-.109-.109-.183-.247-.213-.398-.03-.15-.015-.306.044-.448.059-.142.159-.263.286-.348.128-.085.278-.131.432-.131.206 0 .403.082.549.228.145.145.227.342.227.548ZM52.0268 124.445c-.0105.14-.0617.274-.1472.385-.0855.111-.2016.195-.3341.242-.1325.046-.2757.053-.412.019-.1363-.034-.2599-.106-.3555-.209-.0956-.103-.1592-.231-.1829-.369-.0238-.139-.0066-.281.0493-.41.0559-.128.1481-.238.2654-.315.1173-.077.2545-.118.3949-.119.0993.001.1973.022.2881.062.0908.04.1725.098.2401.171.0676.072.1197.158.153.251.0334.094.0473.193.0409.292ZM71.1665 153.344c.001.04-.006.08-.0208.118-.0147.037-.0369.072-.0651.101-.0282.028-.062.051-.0992.067-.0373.016-.0773.024-.1177.024-.0824 0-.1614-.033-.2196-.091-.0583-.058-.091-.137-.091-.219 0-.083.0327-.162.091-.22.0582-.058.1372-.091.2196-.091.0404 0 .0804.008.1177.024.0372.016.071.039.0992.068.0282.028.0504.063.0651.1.0148.038.0218.078.0208.119ZM68.5576 183.39c-.0061.244-.0841.481-.2243.681-.1401.2-.3362.355-.5637.444-.2275.089-.4762.109-.7151.058-.2389-.052-.4574-.172-.628-.347-.1707-.175-.286-.396-.3314-.636-.0455-.24-.0192-.488.0757-.713.0949-.225.2541-.417.4576-.552.2036-.135.4425-.207.6869-.207.1652.002.3284.037.4802.102s.2894.159.4047.277c.1154.118.2063.258.2677.411.0613.153.0918.317.0897.482ZM84.3662 210.939c-.003.167-.0552.328-.1501.465-.0948.137-.228.243-.3829.305s-.3246.076-.4877.042c-.1632-.034-.3125-.116-.4293-.235-.1168-.119-.1959-.27-.2273-.433-.0314-.164-.0138-.333.0507-.487.0645-.153.1729-.284.3118-.377.1388-.092.3018-.141.4685-.141.2259.004.4411.096.5994.257.1583.162.247.378.2469.604ZM60.4126 280.203c0 .153-.0455.303-.1309.431-.0853.127-.2065.227-.3484.285-.1419.059-.298.074-.4486.044-.1507-.03-.289-.103-.3976-.212-.1086-.108-.1825-.247-.2125-.397-.03-.151-.0146-.307.0442-.448.0588-.142.1583-.263.286-.349.1277-.085.2778-.13.4313-.13.206 0 .4035.081.5491.227.1456.145.2274.343.2274.549ZM50.6603 234.104c0 .154-.0456.304-.1309.431-.0853.128-.2066.227-.3485.286-.1419.059-.298.074-.4486.044s-.289-.104-.3975-.212c-.1086-.108-.1826-.247-.2125-.397-.03-.151-.0146-.307.0441-.448.0588-.142.1583-.263.286-.349.1277-.085.2778-.13.4314-.13.2059 0 .4034.081.549.227.1456.145.2275.343.2275.548Z"/>
  <path fill="#FFF66F" d="M344.099 299.83s-17.307-10.473-27.58 7.572c0 0 10.933-17.068-4.262-25.671 0 0 17.082 7.029 24.07-5.338.039.024-8.572 14.174 7.772 23.437ZM82.0369 164.298s-9.5892-5.803-15.2729 4.189c0 0 6.0486-9.434-2.3294-14.212 0 0 9.4495 3.879 13.3473-2.956-.0465 0-4.7907 7.835 4.255 12.979ZM287.713 87.9048s9.209-6.3771 2.399-15.6402c0 0 6.157 9.3717 13.976 3.6463 0 0-7.415 7.0365-2.748 13.3826.015 0-5.234-7.5408-13.627-1.3887Z"/>
  <path fill="#D7099C" d="M102.302 151.97v-49.403h14.124v42.344h28.255v7.059h-42.379ZM153.828 151.97v-49.403h42.395v7.06h-28.255v14.096h21.197v7.06h-21.197v14.112h28.255v7.06l-42.395.015ZM219.509 151.97v-7.059h-7.058v-14.112h-7.066v-28.232h14.124v35.284h14.131v-35.284h14.14v28.232h-7.058v14.112h-7.066v7.059h-14.147ZM256.926 151.97v-49.403h42.379v7.06h-28.232v14.096h21.19v7.06h-21.19v14.112h28.248v7.06l-42.395.015ZM308.468 151.97v-49.403h14.131v42.344h28.248v7.059h-42.379ZM120.93 294.578v-18.619h-18.635V164.244h37.27v111.715h37.27V164.244h37.27v111.715H195.47v18.619h-74.54ZM238.237 294.578V164.29h93.175v18.619h18.635v55.858h-18.635v18.619h-55.905v37.239l-37.27-.047Zm74.54-55.858v-55.857h-37.27v55.857h37.27Z"/>
  <path fill="#38B5FF" d="M95.2367 151.97v-49.403H109.36v42.344h28.256v7.059H95.2367ZM146.778 151.97v-49.403h42.379v7.06h-28.255v14.096h21.197v7.06h-21.197v14.112h28.255v7.06l-42.379.015ZM212.443 151.97v-7.059h-7.058v-14.112h-7.066v-28.232h14.124v35.284h14.132v-35.284h14.123v28.232h-7.058v14.112h-7.065v7.059h-14.132ZM249.861 151.97v-49.403h42.379v7.06h-28.248v14.096h21.19v7.06h-21.19v14.112h28.248v7.06l-42.379.015ZM301.402 151.97v-49.403h14.124v42.344h28.255v7.059h-42.379ZM113.864 294.578v-18.619H95.2289V164.244h37.2701v111.715h37.27V164.244h37.27v111.715h-18.635v18.619h-74.54ZM231.171 294.578V164.29h93.175v18.619h18.635v55.858h-18.635v18.619h-55.905v37.239l-37.27-.047Zm74.54-55.858v-55.857h-37.27v55.857h37.27Z"/>
  <path fill="#fff" d="M98.4124 151.97v-49.403h14.1236v42.344h28.255v7.059H98.4124ZM149.946 151.97v-49.403h42.379v7.06h-28.248v14.096h21.19v7.06h-21.19v14.112h28.256v7.06l-42.387.015ZM215.619 151.97v-7.059h-7.066v-14.112h-7.058v-28.232h14.124v35.284h14.124v-35.284h14.154v28.232h-7.065v14.112h-7.066v7.059h-14.147ZM253.036 151.97v-49.403h42.379v7.06h-28.224v14.096h21.19v7.06h-21.19v14.112h28.255v7.06l-42.41.015ZM304.578 151.97v-49.403h14.123v42.344h28.256v7.059h-42.379ZM117.04 294.578v-18.619H98.4046V164.244h37.2704v111.715h37.27V164.244h37.27v111.715H191.58v18.619h-74.54ZM234.339 294.578V164.29h93.175v18.619h18.635v55.858h-18.635v18.619h-55.905v37.239l-37.27-.047Zm74.54-55.858v-55.857h-37.27v55.857h37.27Z"/>
  <path stroke="#D7099C" stroke-miterlimit="10" stroke-width="2" d="M329.308 128.448c30.103-5.143 50.128-3.933 53.754 4.895 7.943 19.349-65.859 67.929-164.842 108.519-98.983 40.59-185.6901 57.805-193.6332 38.457-4.9616-12.072 21.9039-35.516 66.8452-61.288"/>
</svg>