<svg width="661" height="453" viewBox="0 0 661 453" fill="none" xmlns="http://www.w3.org/2000/svg">
<g clip-path="url(#clip0_536_383)">
<path d="M335.664 68.208C317.058 77.4112 291.638 93.8577 262.006 123.214C199.092 185.553 203.248 219.392 180.688 267.481C168.48 293.514 157.656 305.286 150.279 310.591C120.362 288.16 99.7209 255.522 92.2758 218.874C105.645 212.971 132.427 195.927 153.365 149.337C177.017 96.7753 187.694 70.4834 210.276 39.2125C232.027 34.6394 254.513 34.8645 276.169 39.8722C297.824 44.8799 318.127 54.5497 335.664 68.208Z" fill="url(#paint0_linear_536_383)"/>
<path d="M378.676 121.028C330.359 170.965 324.998 221.893 314.242 260.947C302.979 301.917 278.032 313.193 263.796 319.13C249.56 325.066 202.808 336.027 202.808 336.027C183.824 331.014 165.992 322.364 150.302 310.557C157.656 305.252 168.48 293.48 180.711 267.447C203.236 219.358 199.114 185.519 262.028 123.18C291.66 93.8239 317.08 77.3774 335.686 68.1741C353.805 82.3373 368.499 100.403 378.676 121.028Z" fill="url(#paint1_linear_536_383)"/>
<path d="M394.343 188.515C394.328 211.875 388.954 234.92 378.636 255.877C368.318 276.834 353.33 295.144 334.827 309.398C316.323 323.651 294.796 333.469 271.903 338.096C249.009 342.722 225.36 342.034 202.775 336.083C202.775 336.083 249.515 325.089 263.762 319.186C278.01 313.284 302.934 301.974 314.208 261.004C324.964 221.949 330.325 171.021 378.643 121.085C388.998 142.052 394.371 165.129 394.343 188.515Z" fill="url(#paint2_linear_536_383)"/>
<path d="M210.298 39.2126C187.773 70.461 177.005 96.7754 153.387 149.337C132.45 195.928 105.667 212.971 92.2983 218.874C84.3375 179.419 92.2661 138.416 114.361 104.775C136.456 71.1338 170.933 47.5732 210.298 39.2126Z" fill="url(#paint3_linear_536_383)"/>
<path d="M480.39 360.359C480.39 360.359 479.771 360.933 478.735 361.823C475.382 364.81 471.666 367.361 467.675 369.416C466.517 369.974 465.29 370.375 464.026 370.61C464.026 370.61 429.111 319.479 424.381 282.936L344.787 260.182C348.51 257.605 352.397 255.272 356.421 253.197L325.843 226.68C325.843 226.68 345.586 221.341 347.4 210.617L371.153 222.366L440.385 256.656C440.385 256.656 448.438 259.303 453.551 271.458C458.665 283.612 479.726 351.144 480.39 360.359Z" fill="#412D87"/>
<path d="M388.712 327.015C388.644 337.48 387.777 347.866 387.124 358.297C386.301 371.252 385.344 384.206 383.981 397.127C383.339 403.232 382.99 409.777 381.199 415.691L367.177 416.164C367.177 416.164 364.362 416.39 363.359 412.289C362.357 408.189 347.918 319.806 347.918 319.806C347.918 319.806 310.875 296.15 302.033 285.088C314.76 283.331 327.656 275.558 333.096 269.835C334.911 267.942 336.845 266.166 338.885 264.519C338.885 264.519 359.428 287.465 361.321 289.628C365.995 294.967 371.885 300.329 376.852 305.398C381.042 309.69 386.515 313.644 387.991 319.727C388.529 322.118 388.771 324.565 388.712 327.015Z" fill="#412D87"/>
<path d="M340.901 266.749C337.664 268.861 335.18 271.945 333.806 275.558C331.666 281.438 323.771 291.79 308.16 291.182L302.045 285.122L336.047 263.2L340.901 266.749Z" fill="#302163"/>
<path d="M347.355 210.617C345.541 221.341 325.798 226.68 325.798 226.68C324.131 225.238 322.363 223.718 320.516 222.107C284.655 191.027 282.819 175.617 280.443 169.309C279.204 166.009 278.641 159.114 278.359 153.324C278.627 150.119 278.556 146.894 278.145 143.704C277.075 134.794 273.944 125.016 270.622 116.568C268.56 111.318 267.524 103.793 267.017 96.8768C267.017 96.8768 268.482 101.766 275.442 101.698C282.402 101.631 285.578 93.182 285.578 93.182C285.504 91.3223 285.549 89.4598 285.714 87.606C285.714 87.606 297.314 93.7227 300.648 102.351C303.982 110.98 313.623 134.659 313.623 134.659C315.735 141.454 319.577 147.584 324.773 152.446C324.514 153.493 324.266 156.4 324.153 163.373C323.883 179.797 347.355 210.617 347.355 210.617Z" fill="#EBFBFF"/>
<path d="M380.084 415.612C380.084 415.612 373.608 423.745 382.596 432.859C392.789 443.2 386.211 460.311 378.282 449.621C374.262 444.213 362.357 431.822 360.116 428.938C357.874 426.055 366.062 416.085 366.062 416.085L380.084 415.612Z" fill="#69054B"/>
<path d="M367.549 222.107C367.549 222.107 354.844 222.445 350.08 226.95C345.316 231.456 341.07 237.877 329.807 235.962L325.64 228.696L352.783 213.298L369.396 221.521L367.549 222.107Z" fill="#302163"/>
<path d="M496.834 390.898C490.516 388.566 473.768 384.702 470.31 383.53C467.1 382.404 467.641 370.97 467.72 369.416C471.712 367.361 475.428 364.81 478.78 361.823C478.859 363.265 479.805 371.962 491.259 374.496C505.416 377.571 509.279 395.516 496.834 390.898Z" fill="#69054B"/>
<path d="M478.735 361.823V361.62" stroke="#AD6A67" stroke-miterlimit="10"/>
<path d="M467.675 369.416C467.675 369.292 467.675 369.235 467.675 369.235" stroke="#AD6A67" stroke-miterlimit="10"/>
<path d="M329.92 230.262C329.92 230.262 346.949 228.111 352.783 213.298L347.355 210.617C347.355 210.617 345.879 221.059 325.798 226.68L329.92 230.262Z" fill="#1E143D"/>
<path d="M291.739 51.6826C289.825 57.4501 289.566 63.826 297.663 64.8511C301.222 65.3017 302.169 61.5618 304.061 55.8393C305.953 50.1168 307.969 45.3068 304.635 44.0001C296.605 40.8234 293.665 45.9038 291.739 51.6826Z" fill="#681BA6"/>
<path d="M307.314 56.4743C309.238 50.7022 308.042 45.1042 304.643 43.9707C301.245 42.8372 296.929 46.5975 295.005 52.3695C293.081 58.1416 294.276 63.7397 297.675 64.8732C301.074 66.0067 305.389 62.2464 307.314 56.4743Z" fill="#9F29FF"/>
<path d="M298.722 53.9355L303.79 55.8055L303.126 57.4839L298.497 55.6703L298.722 53.9355Z" fill="white"/>
<path d="M267.074 96.8767L285.883 92.3708C285.883 92.3708 286.367 99.4225 283.089 101.743C279.812 104.064 275.386 106.914 267.569 102.25L267.074 96.8767Z" fill="#D8E7EB"/>
<path d="M356.376 253.197C352.352 255.272 348.465 257.605 344.742 260.181C342.838 261.477 340.845 262.941 338.896 264.518C336.856 266.166 334.922 267.942 333.107 269.835C327.667 275.558 314.771 283.353 302.045 285.088C293.406 286.282 284.858 284.693 278.798 277.788C278.798 277.788 237.554 226.117 224.951 138.59C222.698 139.255 227.902 139.716 227.902 139.716C224.275 149.325 210.76 174.22 210.76 174.22C208.507 176.653 209.69 185.992 209.69 185.992L211.943 233.304L198.585 239.635C197.188 233.124 195.814 226.601 194.463 220.068C192.21 209.344 189.958 198.608 188.02 187.828C187.435 184.595 186.151 180.483 186.793 177.228C186.962 176.372 187.277 175.516 187.525 174.682C188.508 171.34 189.541 168.006 190.622 164.679C193.751 154.743 197.475 145.004 201.772 135.515C204.982 128.576 208.643 120.871 214.409 115.666C228.668 102.746 257.331 90.2417 257.331 90.2417C256.78 94.6012 259.663 119.023 266.488 127.472C273.313 135.92 278.145 155.183 278.145 155.183C278.235 154.586 278.314 153.978 278.359 153.381C278.641 159.171 279.204 166.065 280.443 169.365C282.819 175.673 284.655 191.084 320.516 222.163C322.363 223.774 324.131 225.295 325.798 226.736L356.376 253.197Z" fill="#D7099C"/>
<path d="M299.511 47.5148C299.285 46.4672 299.038 45.4984 298.801 44.5859L299.06 45.4083C299.218 46.1292 299.387 46.8276 299.511 47.5148Z" stroke="#F0C4B3" stroke-miterlimit="10"/>
<path d="M300.862 54.8254L300.006 49.8689C300.333 51.6037 300.626 53.2596 300.862 54.8254Z" stroke="#F0C4B3" stroke-miterlimit="10"/>
<path d="M300.862 54.8256C300.637 53.2598 300.344 51.6039 300.006 49.8691V49.7339L299.544 47.481C299.42 46.7938 299.251 46.0954 299.094 45.3745L298.835 44.5521V44.3832C298.466 42.9553 298.018 41.5488 297.495 40.1701C297.483 40.1118 297.464 40.055 297.438 40.0012C293.744 30.4937 289.948 35.2474 289.948 35.2474C289.948 35.2474 287.696 25.7963 277.559 33.6704C267.423 41.5444 276.084 54.0596 276.084 54.0596C276.084 54.0596 281.028 69.8302 269.247 70.3822C262.895 70.6525 260.71 64.3217 259.471 59.1963C258.615 55.6704 258.052 52.077 257.275 48.5286C256.149 43.5608 252.275 38.0073 255.023 33.1522C256.372 30.7389 258.246 28.66 260.508 27.0693C262.49 25.74 264.9 25.6724 267.175 25.2556C269.901 24.76 271.14 23.6898 273.246 22.0227C277.751 18.5081 283.258 15.5454 288.946 14.7569C291.127 14.3813 293.371 14.7087 295.355 15.6919C296.563 16.4376 297.592 17.4395 298.371 18.6269C299.149 19.8142 299.657 21.158 299.86 22.5634C300.389 25.4472 299.612 28.59 301.425 31.1471C302.266 32.223 303.209 33.2152 304.241 34.1097C305.682 35.3946 306.96 36.851 308.048 38.4466C311.888 44.4958 308.498 50.7027 302.811 53.8568C302.138 54.1314 301.487 54.4552 300.862 54.8256Z" fill="#29D9FF"/>
<path d="M285.657 88.9688C285.657 88.9688 295.298 94.1393 297.832 99.828C300.367 105.517 307.496 130.558 309.411 135.053C311.325 139.547 316.224 152.153 314.456 163.789C312.688 175.426 316.641 242.53 343.323 217.387C345.145 215.456 346.522 213.149 347.355 210.628C347.355 210.628 340.124 200.692 336.835 195.116C333.547 189.54 329.019 182.534 325.404 171.348C325.404 171.348 322.881 164.589 324.75 152.423L318.556 122.504L301.008 93.4409L285.657 88.9688Z" fill="#D8E7EB"/>
<path d="M299.06 45.4083C299.218 46.1292 299.387 46.8276 299.511 47.5148C299.285 46.4672 299.038 45.4984 298.801 44.5859L299.06 45.4083Z" stroke="#AD6A67" stroke-miterlimit="10"/>
<path d="M300.862 54.8254L300.006 49.8689C300.333 51.6037 300.626 53.2596 300.862 54.8254Z" stroke="#AD6A67" stroke-miterlimit="10"/>
<path d="M313.6 134.659C313.6 134.659 303.959 111.003 300.626 102.351C297.292 93.7002 285.657 88.969 285.657 88.969L286.581 85.1277C289.522 85.8104 292.286 87.108 294.69 88.9352L294.746 88.9915C296.002 90.1424 297.334 91.2074 298.733 92.1794C303.351 96.2235 307.62 101.191 309.365 105.337C312.823 113.38 313.6 134.659 313.6 134.659Z" fill="#69054B"/>
<path d="M285.218 92.292C285.386 93.0238 285.299 93.7909 284.97 94.4661C283.765 96.8317 280.679 101.653 275.442 101.698C268.482 101.766 267.017 96.8768 267.017 96.8768C266.612 91.4247 266.544 86.3443 266.544 83.1C267.977 81.3786 268.978 79.3392 269.462 77.1522C269.946 74.9651 269.899 72.694 269.326 70.5286C269.968 72.1282 275.915 85.9838 286.592 84.8235C285.015 88.9915 285.004 91.2106 285.218 92.292Z" fill="#F0C4B3" stroke="#E0B8A8" stroke-miterlimit="10"/>
<path d="M224.951 138.59C227.204 136.81 229.985 138.748 231.709 140.494C229.163 140.201 227.688 138.477 224.951 138.59Z" fill="#69054B"/>
<path d="M224.962 138.579V138.567" stroke="#AD6A67" stroke-miterlimit="10"/>
<path d="M213.148 237.078L199.711 243.972L197.526 235.523L211.931 233.27L213.148 237.078Z" fill="#69054B"/>
<path d="M204.689 260.7C202.437 260.531 202.73 255.315 201.311 251.778C199.058 246.36 200.06 243.329 200.06 243.329L212.731 237.517C214.527 239.606 216.147 241.84 217.574 244.197C220.198 248.354 214.927 246.45 214.927 246.45C214.927 246.45 221.257 261.928 204.689 260.7Z" fill="#F0C4B3" stroke="#E0B8A8" stroke-miterlimit="10"/>
<path d="M428.57 111.363C415.99 118.482 403.792 126.154 390.829 132.687C386.809 134.797 382.672 136.677 378.44 138.32C369.745 141.553 359.642 140.37 350.565 139.818C343.097 139.356 335.63 138.691 328.186 138.004L325.516 137.734C328.005 150.26 376.683 164.003 375.827 163.812C407.847 172.981 421.509 194.778 425.744 201.515C429.978 208.251 424.966 207.665 424.966 207.665C423.75 205.501 422.392 203.421 420.901 201.436C399.974 173.601 353.166 162.967 336.666 158.844C332.209 157.774 328.105 155.57 324.75 152.446C319.555 147.583 315.713 141.454 313.6 134.659C313.6 134.659 312.823 113.379 309.411 105.37C307.665 101.247 299.398 93.0692 294.769 89.0251C295.424 89.3175 296.118 89.5111 296.83 89.5996C298.835 90.1629 300.828 90.7261 302.822 91.3682C310.113 93.6211 317.343 96.0168 324.514 98.5551C332.022 101.229 339.486 104.06 346.904 107.049C351.635 108.964 356.241 111.183 360.915 113.244C366.051 115.497 372.099 119.339 377.809 117.074C393.51 110.822 409.413 105.044 425.034 98.5776L428.57 111.363Z" fill="#D7099C"/>
<path d="M278.337 153.324C278.337 153.324 269.473 138.579 263.695 130.908C257.917 123.236 248.096 92.6075 257.309 90.1855L278.337 153.324Z" fill="#B50883"/>
<path d="M420.867 201.425C388.599 195.117 371.108 222.366 371.108 222.366L347.355 210.617C347.355 210.617 323.883 179.797 324.131 163.384C324.243 156.411 324.491 153.505 324.75 152.457C324.976 152.66 325.212 152.863 325.449 153.043C328.7 155.828 332.556 157.814 336.711 158.844C353.166 162.967 399.974 173.601 420.867 201.425Z" fill="#69054B"/>
<path d="M286.615 84.8234C275.938 85.9499 269.991 72.1281 269.349 70.5285C269.355 70.5064 269.355 70.483 269.349 70.4609C281.13 69.9427 276.185 54.1383 276.185 54.1383C276.185 54.1383 267.344 41.657 277.503 33.7829C287.662 25.9089 289.892 35.36 289.892 35.36C289.892 35.36 293.688 30.6063 297.382 40.1137C297.407 40.1676 297.426 40.2243 297.438 40.2827L298.778 44.4957V44.6647C299.015 45.5771 299.263 46.5459 299.488 47.5935L299.95 49.8465V49.9816L300.806 54.9381C304.387 78.5265 296.729 83.7308 286.615 84.8234Z" fill="#F0C4B3" stroke="#E0B8A8" stroke-miterlimit="10"/>
<path d="M272.052 58.6217C273.032 63.1276 272.705 67.9151 266.533 68.0278C263.83 68.0841 263.447 65.189 262.467 60.7057C261.487 56.2223 260.384 52.4712 262.997 51.7615C269.326 50.0718 271.072 54.1271 272.052 58.6217Z" fill="#302163"/>
<path d="M266.525 68.0481C269.169 67.4735 270.522 63.3655 269.545 58.8728C268.569 54.3801 265.635 51.2039 262.99 51.7785C260.346 52.3532 258.994 56.4611 259.97 60.9539C260.946 65.4466 263.881 68.6228 266.525 68.0481Z" fill="#412D87"/>
<path d="M266.635 59.748L262.67 60.7393L263.03 62.0573L266.657 61.066L266.635 59.748Z" fill="white"/>
<path d="M271.432 63.8035C274.811 65.099 278.539 63.7134 281.952 62.9812C286.57 61.9899 292.685 60.7282 297.314 59.8834C299.195 59.6906 301.012 59.0951 302.642 58.1374C303.419 57.62 304.077 56.944 304.574 56.1538C305.071 55.3636 305.395 54.4771 305.525 53.5526C305.664 52.6976 305.596 51.8219 305.327 50.9984C305.059 50.175 304.597 49.4277 303.981 48.8191C303.365 48.2105 302.612 47.7582 301.785 47.4999C300.958 47.2416 300.082 47.1849 299.229 47.3345L283.022 50.0605C280.319 50.5224 277.616 50.9843 274.924 51.4236C271.703 51.9643 269.112 52.9331 268.38 56.7631C267.964 58.9372 268.268 61.3816 269.856 62.846C270.314 63.2653 270.849 63.5907 271.432 63.8035Z" fill="#302163"/>
<path d="M273.978 64.0287C277.357 65.3128 281.085 63.9272 284.497 63.195C289.104 62.2037 295.219 60.9421 299.86 60.0972C301.74 59.9027 303.556 59.3074 305.187 58.3512C305.96 57.8334 306.615 57.1586 307.11 56.3705C307.605 55.5825 307.928 54.6991 308.059 53.7777C308.197 52.9224 308.129 52.0464 307.86 51.2226C307.592 50.3989 307.13 49.6513 306.514 49.0419C305.899 48.4325 305.146 47.9791 304.32 47.7193C303.493 47.4595 302.617 47.4009 301.763 47.5483L285.556 50.2744L277.458 51.6487C274.248 52.1781 271.658 53.1582 270.914 56.9882C270.498 59.1623 270.802 61.6067 272.401 63.0711C272.863 63.4849 273.398 63.8096 273.978 64.0287Z" fill="#412D87"/>
<path d="M280.139 59.1624C281.715 59.613 283.348 59.061 284.858 58.7568C286.908 58.3513 296.706 56.5602 298.767 56.2223C299.586 56.1411 300.381 55.9041 301.11 55.5239C301.422 55.3457 301.688 55.0952 301.884 54.7934C302.08 54.4916 302.201 54.1472 302.236 53.7891C302.219 53.4273 302.121 53.0738 301.951 52.7543C301.78 52.4348 301.541 52.1572 301.25 51.9416C300.959 51.726 300.623 51.5778 300.268 51.5077C299.913 51.4375 299.546 51.4473 299.195 51.5362C296.796 51.9192 287.302 53.5525 284.903 53.9468L281.287 54.5213C279.857 54.7579 278.719 55.1408 278.517 56.5715C278.431 56.9895 278.467 57.4232 278.618 57.8221C278.77 58.2209 279.031 58.5685 279.373 58.8244C279.607 58.9793 279.866 59.0936 280.139 59.1624Z" fill="white"/>
<path d="M284.565 57.2698C285.584 57.3598 286.611 57.2605 287.595 56.9769C288.89 56.7291 295.141 55.6589 296.458 55.4449C296.97 55.3832 297.47 55.2506 297.945 55.0507C298.119 54.9754 298.271 54.8574 298.387 54.7078C298.503 54.5581 298.58 54.3816 298.61 54.1945C298.61 53.4511 297.54 52.9667 296.537 53.0681C294.994 53.3046 288.946 54.3072 287.403 54.5437L285.151 54.9042C284.238 55.0507 283.517 55.2647 283.45 56.0307C283.43 56.2643 283.483 56.4983 283.602 56.7003C283.721 56.9022 283.9 57.0619 284.114 57.1572C284.259 57.2151 284.41 57.2531 284.565 57.2698Z" fill="#29DCFF"/>
<path d="M428.57 111.363L432.659 109.797L432.479 97.1921L425.023 98.5777L428.57 111.363Z" fill="#69054B"/>
<path d="M432.467 97.2034C436.57 96.1154 440.828 95.7344 445.059 96.0769C452.155 96.6063 461.807 97.3836 461.705 98.7354C461.604 100.087 447.762 99.6478 447.762 99.6478C447.762 99.6478 445.296 108.772 442.638 109.786C439.98 110.8 434.033 108.344 434.033 108.344L432.636 109.797L432.467 97.2034Z" fill="#F0C4B3" stroke="#E0B8A8" stroke-miterlimit="10"/>
<path d="M225.109 139.086L225.041 138.613C227.474 138.049 229.76 139.987 231.213 141.992C234.243 146.183 235.606 150.925 237.318 155.701C239.315 161.266 241.35 166.812 243.422 172.339C246.801 181.351 250.855 190.273 253.941 199.375C256.834 208.274 261.041 216.692 266.421 224.348C276.872 238.801 291.199 244.997 306.854 252.229C310.353 253.746 313.667 255.658 316.731 257.929C321.957 262.006 325.741 267.616 329.391 273.125C322.031 278.805 313.446 282.686 304.32 284.457C298.328 285.584 291.931 285.798 286.367 283.263C281.682 281.123 278.044 277.248 274.845 273.204C267.975 264.507 262.636 254.707 257.793 244.738C241.597 211.385 230.576 175.759 225.109 139.086Z" fill="#B50883"/>
<path d="M278.145 155.127C278.145 155.127 273.325 135.864 266.488 127.415C259.652 118.967 256.521 96.4599 257.073 92.1005C257.579 88.0902 257.388 87.4819 264.528 81.1849C264.702 81.0309 264.917 80.9302 265.146 80.8952C265.376 80.8601 265.61 80.8921 265.822 80.9873C266.034 81.0825 266.214 81.2368 266.34 81.4318C266.466 81.6267 266.533 81.8539 266.533 82.0861V83.0662C266.533 86.3104 266.601 91.3908 267.006 96.8429C267.513 103.759 268.549 111.284 270.61 116.534C273.989 124.982 277.064 134.76 278.134 143.67C278.134 143.67 278.134 148.03 278.348 153.29C278.337 153.921 278.235 154.53 278.145 155.127Z" fill="#69054B"/>
<path d="M325.798 138.77C325.798 138.77 324.987 137.407 326.012 137.858L330.663 138.23C330.663 138.23 329.537 138.86 328.253 137.216C326.969 135.571 324.705 121.445 319.739 118.787C319.739 118.787 324.852 135.74 325.798 138.77Z" fill="#B50883"/>
<path d="M318.072 115.768C322.768 122.098 324.717 130.141 325.471 137.869C323.219 130.423 321.405 122.842 318.072 115.768Z" fill="#69054B"/>
<path opacity="0.4" d="M439.245 34.5331L549.962 20.9152L495.912 279.847L384.487 293.119L439.245 34.5331Z" fill="#8D29FF" stroke="#28D2FF" stroke-width="2"/>
<path opacity="0.4" d="M555.818 71.1102L628.385 62.1847L592.76 232.851L519.726 241.551L555.818 71.1102Z" fill="#8D29FF" stroke="#28D2FF" stroke-width="2"/>
<path opacity="0.4" d="M330.541 93.6964L409.296 84.0098L370.682 268.992L291.422 278.434L330.541 93.6964Z" fill="#8D29FF" stroke="#28D2FF" stroke-width="2"/>
</g>
<defs>
<linearGradient id="paint0_linear_536_383" x1="149.783" y1="111.341" x2="249.372" y2="194.885" gradientUnits="userSpaceOnUse">
<stop stop-color="#9509B5"/>
<stop offset="0.61" stop-color="#AC05BB"/>
<stop offset="1" stop-color="#B504BE"/>
</linearGradient>
<linearGradient id="paint1_linear_536_383" x1="198.957" y1="176.89" x2="339.713" y2="228.106" gradientUnits="userSpaceOnUse">
<stop stop-color="#6B5FFD"/>
<stop offset="0.39" stop-color="#7043F3"/>
<stop offset="0.75" stop-color="#732FEC"/>
<stop offset="1" stop-color="#7428E9"/>
</linearGradient>
<linearGradient id="paint2_linear_536_383" x1="251.576" y1="364.211" x2="388.669" y2="126.794" gradientUnits="userSpaceOnUse">
<stop stop-color="#3889FF"/>
<stop offset="0.55" stop-color="#2FB8FF"/>
<stop offset="1" stop-color="#29D9FF"/>
</linearGradient>
<linearGradient id="paint3_linear_536_383" x1="89.2799" y1="129.038" x2="210.298" y2="129.038" gradientUnits="userSpaceOnUse">
<stop stop-color="#CE0A9A"/>
<stop offset="0.97" stop-color="#E00C99"/>
</linearGradient>
<clipPath id="clip0_536_383">
<rect width="661" height="453" fill="white"/>
</clipPath>
</defs>
</svg>
