<svg xmlns="http://www.w3.org/2000/svg" fill="none" viewBox="0 0 285 302">
  <g clip-path="url(#a)">
    <path fill="#F6ECD8" d="M272.819 34.6389c-.004-.1881-.063-.3709-.17-.5255-.108-.1546-.258-.2742-.433-.3437-.175-.0696-.367-.0859-.552-.0471-.184.0388-.353.1312-.485.2654s-.221.3043-.257.489c-.035.1847-.015.3757.058.5491.073.1735.195.3215.352.4257.157.1041.341.1597.53.1597.127-.0008.252-.0266.369-.076.117-.0493.223-.1213.312-.2117s.159-.1975.206-.315c.048-.1176.071-.2433.07-.3699ZM260.087 92.7583c-.001.1095-.034.2162-.096.3067-.062.0904-.149.1606-.251.2017-.102.0411-.213.0512-.321.0292-.107-.0221-.206-.0754-.283-.1533-.077-.0778-.13-.1767-.151-.2842-.021-.1075-.009-.2187.033-.3198.042-.101.114-.1874.205-.2481.091-.0607.198-.0931.308-.0931.074 0 .147.0145.214.0428.068.0283.13.0697.182.1218.051.0522.092.1141.12.1821.027.068.041.1408.04.2142ZM274.834 114.992c0 .047-.014.093-.04.132-.027.039-.064.07-.108.088-.043.018-.091.023-.138.014-.046-.01-.089-.032-.122-.066-.034-.033-.056-.076-.066-.122-.009-.046-.004-.094.014-.138.018-.043.049-.081.088-.107.039-.026.086-.04.133-.04.063 0 .124.025.169.07.045.045.07.105.07.169ZM272.819 138.102c-.005.188-.065.37-.173.524-.108.154-.259.272-.434.341s-.367.084-.551.045c-.184-.04-.352-.133-.484-.267-.131-.134-.22-.305-.255-.489-.035-.185-.014-.375.059-.548.073-.173.195-.321.352-.425.157-.104.341-.159.529-.159.127 0 .253.026.371.076.117.05.223.122.312.213s.159.199.206.317c.047.119.07.245.068.372ZM284.994 159.291c-.002.128-.043.253-.116.358-.073.106-.175.187-.295.235-.119.047-.25.058-.375.032-.126-.027-.241-.09-.331-.181-.09-.091-.151-.207-.175-.333-.024-.126-.011-.256.039-.374s.133-.219.24-.29c.107-.071.233-.109.361-.109.087.001.172.018.251.052.08.034.152.083.213.144.06.062.108.135.14.215.033.08.049.165.048.251ZM266.57 212.565c0 .118-.035.234-.101.332s-.159.174-.268.22c-.11.045-.23.057-.346.034-.116-.023-.222-.08-.306-.164-.084-.083-.141-.189-.164-.305-.023-.116-.011-.236.034-.345.046-.109.122-.202.221-.268.098-.065.213-.1.332-.1.158 0 .31.063.423.174.112.112.175.264.175.422ZM259.035 177.109c0 .158-.063.31-.175.422-.112.112-.265.175-.423.175-.159 0-.311-.063-.423-.175-.112-.112-.175-.264-.175-.422 0-.158.063-.31.175-.422.112-.112.264-.175.423-.175.158 0 .311.063.423.175.112.112.175.264.175.422ZM222.778 113.601c-.002-.189-.061-.374-.168-.531-.108-.156-.259-.278-.436-.348-.176-.071-.37-.088-.556-.049-.186.039-.356.132-.49.267-.133.136-.223.307-.258.494-.036.186-.015.379.059.554.074.175.198.323.357.428.159.104.345.159.535.158.256-.003.501-.107.68-.289.179-.183.279-.428.277-.684ZM210.047 171.721c-.002.109-.037.215-.1.305-.062.089-.15.159-.252.199-.101.04-.213.049-.32.027-.107-.023-.205-.077-.281-.155-.077-.078-.129-.177-.149-.284-.021-.108-.009-.219.033-.319.043-.101.114-.187.205-.247.091-.061.198-.093.308-.093.074.001.147.016.214.045.068.029.13.071.182.123.051.053.092.115.119.184.028.068.042.141.041.215ZM224.788 193.954c0 .031-.005.062-.016.091-.012.029-.029.055-.051.077-.021.023-.047.04-.076.052-.029.012-.059.019-.091.019-.063 0-.124-.025-.169-.07-.045-.045-.07-.106-.07-.169 0-.064.025-.125.07-.171.045-.046.105-.072.169-.074.032.001.063.008.091.021.029.012.055.031.077.053.021.023.038.05.05.079.011.029.016.061.016.092ZM222.778 217.059c-.002.189-.061.374-.168.531-.108.156-.259.277-.436.348-.176.071-.37.088-.556.049-.186-.039-.356-.132-.49-.267-.133-.136-.223-.308-.258-.494-.036-.186-.015-.379.059-.554.074-.175.198-.324.357-.428.159-.104.345-.159.535-.158.256.003.501.107.68.289.179.183.279.428.277.684ZM234.953 238.254c-.002.128-.042.252-.115.358-.073.105-.176.187-.295.234-.119.047-.25.059-.376.032-.125-.026-.24-.089-.33-.181-.09-.091-.151-.207-.175-.333-.025-.126-.011-.256.039-.374.049-.118.133-.219.24-.29.107-.071.232-.109.361-.109.086.001.171.019.251.053.079.033.151.082.212.144.061.061.108.134.141.214.032.08.048.165.047.252ZM216.505 291.528c0 .118-.035.233-.1.331-.066.098-.16.175-.269.22-.109.045-.229.057-.345.034-.116-.023-.223-.08-.307-.163-.083-.084-.14-.19-.163-.306-.023-.116-.011-.236.034-.345.045-.109.122-.202.22-.267.098-.066.214-.101.332-.101.159 0 .311.063.423.175.112.112.175.263.175.422ZM208.994 256.071c0 .118-.035.234-.1.332-.066.098-.16.174-.269.22-.109.045-.229.057-.345.034-.116-.023-.223-.08-.307-.164-.083-.083-.14-.189-.163-.305-.023-.116-.011-.236.034-.345.045-.109.122-.202.22-.268.098-.065.214-.1.332-.1.159 0 .311.062.423.174.112.112.175.264.175.422ZM117.369 11.8387c-.003-.1895-.063-.3737-.171-.5294-.108-.1558-.26-.2761-.437-.3459-.176-.0698-.37-.0859-.555-.0464-.186.0396-.356.1331-.489.2687-.132.1356-.222.3074-.257.4936-.035.1862-.014.3787.06.5531.075.1744.199.3229.358.427.158.1041.344.159.534.1579.128-.0016.253-.0281.37-.0782.117-.05.223-.1225.312-.2134.089-.0909.159-.1983.206-.3162.047-.1179.071-.2439.069-.3708ZM104.638 69.9641c-.003.1092-.037.2153-.1.305-.062.0896-.15.1589-.252.1991-.101.0402-.213.0495-.32.0267-.107-.0227-.205-.0765-.282-.1545-.076-.0781-.128-.177-.149-.2843-.02-.1073-.008-.2183.034-.319.043-.1007.114-.1867.205-.2471.091-.0605.198-.0928.308-.0928.148.0031.29.0642.394.1702.104.106.162.2484.162.3967ZM119.378 92.1974c.001.0311-.004.062-.016.0909-.011.0289-.028.0553-.05.0775-.021.0223-.047.04-.076.052-.029.0121-.06.0183-.091.0183-.057-.0091-.11-.0384-.148-.0827-.038-.0443-.059-.1007-.059-.159 0-.0583.021-.1146.059-.1589.038-.0443.091-.0737.148-.0827.032.0007.063.0077.091.0204.029.0127.055.0309.077.0537.021.0227.038.0494.05.0787.011.0293.016.0605.015.0918ZM117.369 115.302c-.002.19-.061.374-.168.531-.108.156-.259.278-.436.348-.176.071-.37.088-.556.049-.186-.039-.356-.132-.49-.267-.133-.136-.223-.307-.258-.494-.036-.186-.015-.379.059-.554.074-.174.198-.323.357-.428.159-.104.345-.159.535-.158.256.003.5.107.68.29.179.182.279.428.277.683ZM129.538 136.497c-.002.128-.042.253-.116.359-.073.105-.176.187-.296.234-.119.047-.25.058-.376.031-.126-.027-.241-.09-.33-.182-.09-.092-.151-.209-.174-.335-.024-.126-.009-.257.041-.375.051-.118.135-.218.243-.288.108-.071.234-.108.363-.106.086 0 .171.018.25.052.079.034.151.083.211.144.06.062.107.135.139.215.031.08.047.165.045.251ZM111.09 189.771c0 .118-.035.234-.101.332-.065.098-.159.174-.268.219-.109.046-.229.057-.345.034-.116-.023-.223-.079-.307-.163-.083-.083-.14-.19-.163-.305-.023-.116-.012-.236.034-.345.045-.109.122-.202.22-.268s.214-.101.332-.101c.159 0 .311.063.423.175.112.112.175.264.175.422ZM103.585 154.315c0 .118-.035.233-.101.331-.065.098-.159.175-.268.22-.109.045-.229.057-.345.034-.116-.023-.223-.08-.307-.163-.083-.084-.14-.19-.163-.306-.023-.116-.011-.236.034-.345.045-.109.122-.202.22-.267.098-.066.214-.101.332-.101.159 0 .311.063.423.175.112.112.175.263.175.422ZM96.1402 23.5998c-.0047-.1877-.0648-.3699-.1727-.5237-.108-.1539-.259-.2725-.4342-.3411-.1752-.0687-.3668-.0842-.5508-.0447-.184.0395-.3522.1322-.4836.2667-.1315.1344-.2202.3045-.2553.489-.035.1845-.0147.3753.0584.5483.0731.1731.1956.3208.3524.4247.1568.1039.3408.1594.529.1594.1275-.0008.2535-.0268.3708-.0765.1173-.0498.2236-.1223.3126-.2133.089-.091.159-.1988.2059-.317.047-.1183.0699-.2446.0675-.3718ZM83.3968 81.7252c-.0023.1092-.0369.2153-.0995.305-.0625.0897-.1501.1589-.252.1991-.1018.0402-.2132.0495-.3203.0268-.107-.0228-.205-.0766-.2816-.1546-.0766-.0781-.1284-.177-.1489-.2843-.0205-.1073-.0088-.2183.0336-.319.0424-.1007.1137-.1866.2049-.2471s.1982-.0927.3077-.0928c.0738.0008.1467.0161.2146.045.0679.0289.1295.0709.1811.1235.0517.0527.0924.1149.1199.1833.0276.0683.0413.1414.0405.2151ZM98.1435 103.959c-.0012.046-.0162.092-.0432.13-.027.039-.0648.069-.1086.086-.0438.017-.0916.021-.1376.011-.046-.01-.0881-.033-.121-.067-.0328-.033-.055-.076-.0638-.122-.0087-.046-.0036-.094.0146-.137.0183-.043.0489-.08.0881-.106.0392-.026.0852-.04.1323-.04.0319 0 .0635.006.0929.019.0294.012.0561.03.0784.053s.0397.05.0514.079c.0117.03.0173.062.0165.094ZM96.1402 127.039c-.0035.188-.0626.371-.1699.526-.1072.154-.2579.274-.433.343-.1751.07-.3669.086-.5513.047-.1844-.038-.3532-.131-.4852-.265s-.2214-.304-.2569-.489c-.0355-.185-.0155-.376.0574-.549.0729-.174.1955-.322.3525-.426.1569-.104.3412-.159.5296-.159.127 0 .2525.026.3694.075.1169.05.2229.122.3118.212.0889.091.1591.198.2064.315.0473.118.0708.243.0692.37ZM108.304 148.258c-.003.128-.043.253-.116.358-.073.105-.176.187-.295.234-.119.048-.25.059-.376.033-.125-.027-.24-.09-.33-.181-.09-.092-.151-.207-.175-.333-.025-.126-.011-.256.039-.374.049-.119.133-.219.24-.29.107-.071.232-.109.361-.109.086 0 .171.018.251.052.079.034.152.083.212.144.061.062.108.134.141.214.032.08.048.166.048.252ZM89.8611 201.532c0 .118-.035.234-.1007.332s-.1591.174-.2684.22c-.1093.045-.2295.057-.3455.033-.116-.023-.2226-.079-.3062-.163-.0836-.083-.1406-.19-.1636-.305-.0231-.116-.0113-.236.034-.345.0452-.109.1219-.202.2202-.268.0984-.065.214-.1.3323-.1.1586 0 .3107.062.4228.174.1121.112.1751.264.1751.422ZM82.3443 166.076c0 .158-.063.31-.1751.422-.1122.112-.2643.175-.4229.175-.1586 0-.3107-.063-.4228-.175-.1122-.112-.1752-.264-.1752-.422 0-.158.063-.31.1752-.422.1121-.112.2642-.175.4228-.175.1586 0 .3107.063.4229.175.1121.112.1751.264.1751.422ZM34.6062 94.7393c-.0036-.188-.0627-.3708-.1699-.5254-.1073-.1547-.2579-.2742-.433-.3438-.1751-.0695-.3669-.0859-.5513-.047-.1844.0388-.3532.1311-.4853.2653-.132.1342-.2213.3043-.2568.489-.0355.1847-.0156.3758.0574.5492.0729.1734.1955.3215.3524.4256.157.1041.3412.1597.5297.1597.2559-.0031.5001-.1072.6794-.2894.1793-.1822.279-.4278.2774-.6832ZM21.8748 152.859c-.0012.109-.0348.216-.0966.306-.0618.091-.1491.161-.2508.202-.1017.041-.2134.051-.3208.029-.1075-.022-.2061-.075-.2832-.153-.0772-.078-.1296-.177-.1506-.284-.0209-.108-.0096-.219.0327-.32.0422-.101.1135-.187.2048-.248.0914-.061.1986-.093.3084-.093.148.001.2895.061.3936.166.1041.105.1625.247.1625.395ZM36.6215 175.092c0 .063-.0252.124-.0701.169-.0449.045-.1057.07-.1691.07-.0635 0-.1243-.025-.1692-.07-.0448-.045-.07-.106-.07-.169 0-.063.0252-.124.07-.169.0449-.044.1057-.07.1692-.07.0314 0 .0625.007.0915.019.029.012.0554.029.0776.051.0222.022.0398.049.0519.078.012.029.0182.06.0182.091ZM34.6062 198.203c-.0047.187-.0648.37-.1728.523-.1079.154-.259.273-.4341.341-.1752.069-.3668.085-.5508.045-.184-.039-.3523-.132-.4837-.267-.1314-.134-.2202-.304-.2552-.489-.035-.184-.0147-.375.0583-.548.0731-.173.1957-.321.3525-.425.1568-.103.3408-.159.529-.159.1272.002.2529.028.3698.078s.2229.123.3117.214c.0889.09.1589.198.2061.316.0473.118.0707.244.0692.371ZM46.7814 219.392c-.0023.128-.0425.252-.1156.358-.073.105-.1756.187-.2949.234-.1193.047-.25.059-.3756.032-.1257-.026-.2407-.089-.3306-.181-.09-.091-.1509-.207-.1751-.333-.0242-.125-.0106-.256.039-.374.0497-.118.1332-.219.2402-.29.1069-.071.2324-.109.3608-.109.0864.001.1718.019.2513.053.0795.033.1516.082.2121.144.0605.061.1083.134.1407.214.0323.08.0485.166.0477.252ZM28.3332 272.666c0 .118-.0351.233-.1008.331-.0657.098-.1591.175-.2683.22-.1093.045-.2296.057-.3456.034-.116-.023-.2225-.08-.3061-.163-.0837-.084-.1406-.19-.1637-.306-.0231-.115-.0112-.235.034-.344.0453-.11.1219-.203.2203-.268.0983-.066.2139-.101.3322-.101.1586 0 .3107.063.4229.175.1121.112.1751.264.1751.422ZM20.8223 237.209c0 .159-.063.311-.1751.422-.1122.112-.2643.175-.4229.175-.1586 0-.3107-.063-.4228-.175-.1122-.111-.1752-.263-.1752-.422 0-.158.063-.31.1752-.421.1121-.112.2642-.175.4228-.175.1586 0 .3107.063.4229.175.1121.111.1751.263.1751.421ZM14.9978 66.175c-.0036-.1892-.063-.3732-.1709-.5288-.108-.1556-.2595-.276-.4357-.3459-.1762-.07-.3692-.0865-.5548-.0474-.1855.039-.3554.1319-.4883.267-.1328.135-.2228.3062-.2585.492-.0357.1859-.0156.3781.0578.5526.0733.1745.1967.3235.3546.4283s.3433.1607.533.1608c.2575-.0032.5032-.1079.6836-.2912.1804-.1834.2808-.4305.2792-.6874ZM2.25448 124.282c-.00236.11-.03713.216-.09993.306-.06279.09-.1508.159-.25295.199-.10215.04-.21388.049-.32111.026-.10723-.024-.20519-.078-.28153-.157-.07633-.078-.12764-.178-.14747-.285-.01983-.108-.00729-.219.03605-.32.04333-.1.11553-.186.20748-.246.09196-.059.19958-.091.3093-.09.07355.001.14621.017.21378.046.06757.029.12871.071.17988.123.05117.053.09134.115.11821.184.02686.068.03988.141.03829.214ZM17.007 146.51c.0055.034.0035.069-.0059.102-.0094.033-.0258.064-.0483.09-.0225.027-.0504.048-.0818.062-.0314.015-.0656.022-.1002.022-.0346 0-.0688-.007-.1002-.022-.0314-.014-.0593-.035-.0818-.062-.0224-.026-.0389-.057-.0483-.09-.0093-.033-.0113-.068-.0059-.102-.0054-.034-.0034-.069.0059-.102.0094-.034.0259-.064.0483-.091.0225-.026.0504-.047.0818-.062.0314-.014.0656-.021.1002-.021.0346 0 .0688.007.1002.021.0314.015.0593.036.0818.062.0225.027.0389.057.0483.091.0094.033.0114.068.0059.102ZM14.9978 169.62c-.0036.19-.063.373-.1709.529-.1079.156-.2595.276-.4357.346-.1762.07-.3692.086-.5548.047-.1855-.039-.3554-.132-.4883-.267-.1328-.135-.2228-.306-.2585-.492-.0357-.185-.0156-.378.0578-.552.0733-.175.1967-.324.3546-.429.1579-.104.3433-.16.533-.16.1277.001.254.026.3717.076.1176.05.2242.122.3137.213.0895.091.1601.199.2077.317s.0713.245.0697.372ZM27.1671 190.809c-.0024.129-.0426.253-.1157.358-.073.106-.1756.187-.2949.235-.1193.047-.25.058-.3756.032-.1256-.026-.2407-.089-.3306-.181-.09-.091-.1509-.207-.1751-.333-.0242-.126-.0106-.256.0391-.374.0496-.118.1332-.219.2401-.29.1069-.071.2324-.109.3608-.109.174.003.3398.074.4617.198.1219.124.1902.291.1902.464ZM8.72475 244.084c.01996.087.01993.178-.00008.265-.02001.087-.05948.169-.1155.239-.05601.07-.12713.127-.20805.166-.08093.039-.1696.059-.25942.059-.08982 0-.17849-.02-.25942-.059-.08093-.039-.15204-.096-.20805-.166-.05602-.07-.0955-.152-.1155-.239-.02001-.087-.02004-.178-.00008-.265-.01996-.088-.01993-.179.00008-.266.02-.087.05948-.169.1155-.239.05601-.07.12712-.127.20805-.166.08093-.039.1696-.059.25942-.059.08982 0 .17849.02.25942.059.08092.039.15204.096.20805.166.05602.07.09549.152.1155.239s.02004.178.00008.266ZM1.20796 208.627c0 .118-.03507.233-.10078.332-.06571.098-.159105.174-.268375.219-.10927.046-.229508.057-.345508.034-.116-.023-.222553-.08-.306185-.163-.083631-.083-.1405849-.19-.1636588-.305-.0230739-.116-.0112304-.236.0340307-.345.0452611-.109.1219081-.202.2202481-.268s.213956-.101.332229-.101c.158599 0 .310703.063.422849.175.11215.112.17515.264.17515.422Z"/>
    <path fill="#D7099C" d="M222.625 246.249c46.888-46.788 46.888-122.645 0-169.4331-46.889-46.7875-122.9107-46.7875-169.7994 0-46.88875 46.7881-46.88875 122.6451 0 169.4331 46.8887 46.787 122.9104 46.787 169.7994 0Z"/>
    <path fill="#fff" d="M24.811 207.326C5.8425 163.647 16.4809 109.8 50.1542 76.1758 110.755 14.6313 214.962 34.7643 248.331 114.365c33.147 79.691-25.858 167.675-112.328 167.329-47.6367.191-93.4673-30.152-111.192-74.362v-.006Zm.1973-.077c17.7965 43.953 63.5015 74.218 110.9947 73.622 85.167-.173 143.232-87.269 110.36-165.694-32.686-78.4973-135.548-98.6601-195.6228-38.4224C16.8815 109.991 6.24316 163.689 25.0263 207.249h-.018Z"/>
    <path fill="#E84AAD" d="M230.221 149.452c4.874-1.256 7.338-8.017 5.505-15.1-1.834-7.084-7.27-11.808-12.144-10.552-4.873 1.255-7.338 8.016-5.504 15.099 1.833 7.084 7.27 11.809 12.143 10.553ZM185.367 129.116c4.497-2.262 10.818 1.193 14.119 7.757s2.344 13.659-2.153 15.92c-4.497 2.262-10.811-1.193-14.118-7.721-3.307-6.528-2.338-13.689 2.152-15.956ZM184.046 88.2532c3.097-2.0527 7.176-1.629 10.435-.2089 6.913 3.1029 12.211 9.4996 13.353 17.1967 1.334 10.509-7.947 16.708-17.162 11.433-6.686-3.998-10.585-11.337-10.818-18.8794-.054-3.5803 1.106-7.4708 4.186-9.5474l.006.006Zm.155.2387c-2.99 2.0109-3.976 5.8358-3.695 9.2549.36 3.4932 1.577 6.8442 3.541 9.7582 1.965 2.914 4.618 5.3 7.725 6.95 7.547 3.789 14.196-.639 13.58-9.058-.338-3.497-1.533-6.8561-3.48-9.7824-1.947-2.9262-4.586-5.3294-7.684-6.9974-3.056-1.5694-6.985-2.1004-9.987-.1373v.012ZM89.4008 112.121c7.2537.794 12.3482 8.51 11.3922 17.227-.9572 8.718-7.6189 15.139-14.8666 14.321-7.2477-.817-12.3546-8.509-11.362-17.227.9927-8.717 7.5886-15.114 14.8364-14.321ZM144.267 163.098c12.355 1.259 18.885 15.962 14.065 26.852-5.555 13.253-22.933 15.556-30.922 3.222-8.193-12.644 1.285-31.56 16.857-30.062v-.012Zm-.03.281c-14.86-1.313-23.023 16.892-14.806 28.367 1.237 1.827 2.858 3.364 4.75 4.503 1.892 1.14 4.01 1.855 6.207 2.095 2.197.241 4.42.002 6.515-.701 2.095-.702 4.011-1.851 5.617-3.367 10.518-9.422 6.512-28.958-8.283-30.897ZM68.7997 90.7533c3.7255 2.0706 4.3235 6.9756 3.7495 10.8307-.6638 4.284-2.5535 8.258-6.1594 11.098-6.6617 5.078-14.7168.86-14.3041-7.5.299-4.571 2.4996-8.3542 5.657-11.3377 2.8465-2.6613 7.2298-4.9587 11.057-3.0731v-.0179Zm-.1375.2507c-2.3382-1.1935-5.1548-.4476-7.2478.9547-2.1106 1.4823-3.8344 3.4479-5.0268 5.732-1.1924 2.2841-1.8186 4.8203-1.8262 7.3953.1196 6.182 5.2982 8.897 10.4769 5.484 2.1264-1.468 3.8686-3.423 5.0799-5.702 1.2113-2.28 1.8563-4.816 1.8808-7.3957-.0359-2.5122-1.0226-5.2511-3.3368-6.4982v.0299ZM56.4809 202.821c3.9289-.919 7.5228 2.053 9.6158 5.108 2.3203 3.425 3.5462 7.441 2.7867 11.755-1.4651 7.757-9.9746 10.001-15.0636 3.873-2.7508-3.407-3.6238-7.501-3.265-11.618.3468-3.688 2.0451-8.026 5.9261-9.118Zm.0718.275c-2.392.65-3.9289 2.918-4.5269 5.221-.5587 2.373-.5237 4.848.102 7.205.6258 2.357 1.8229 4.524 3.486 6.31 4.0246 4.177 9.4006 2.793 10.8956-2.81.5836-2.367.5747-4.84-.026-7.202-.6007-2.363-1.7747-4.541-3.4185-6.343-1.6385-1.725-4.0784-2.984-6.4883-2.387l-.0239.006ZM38.3018 170.223c4.0724-1.044 8.6171 2.9 10.166 8.819 1.5488 5.92-.5263 11.57-4.5986 12.621-4.0724 1.05-8.6172-2.9-10.166-8.82-1.5488-5.919.5262-11.57 4.5986-12.62ZM193.016 228.193c2.99 2.984 1.902 8.873-2.422 13.205-4.323 4.332-10.238 5.454-13.222 2.495-2.984-2.96-1.895-8.873 2.422-13.212 4.318-4.338 10.262-5.447 13.222-2.488ZM148.543 265.07c4.186.316 7.445 2.5 7.266 4.881-.18 2.381-3.726 4.057-7.918 3.741-4.192-.316-7.451-2.5-7.272-4.881.18-2.381 3.726-4.058 7.924-3.741ZM215.519 217.214c2.392 1.193 2.9 5.006 1.13 8.485-1.77 3.479-5.131 5.305-7.523 4.099-2.392-1.205-2.894-5.006-1.13-8.479 1.764-3.473 5.137-5.311 7.523-4.105ZM154.959 51.3945c-.484 1.9274 3.403 4.5469 8.671 5.8597 5.269 1.3128 9.933.8115 10.411-1.1158.479-1.9274-3.402-4.547-8.671-5.8597-5.268-1.3128-9.932-.8115-10.411 1.1158ZM96.6844 65.8229c1.0106 3.9621 8.6826 5.436 17.1326 3.2819s14.484-7.1008 13.473-11.063c-1.011-3.9621-8.683-5.436-17.139-3.2878-8.455 2.1481-14.4772 7.1067-13.4666 11.0689ZM88.3183 211.038c5.1428-3.252 13.1557.173 17.9397 7.65 4.784 7.476 4.431 16.182-.711 19.434-5.143 3.252-13.1563-.167-17.9403-7.649-4.784-7.483-4.4371-16.177.7116-19.435Z"/>
    <path fill="#412D87" d="m75.4614 103.821 1.4771 4.261 11.0928 36.888 3.0678 8.569 8.6291 25.796-4.3235 2.386-6.0219 1.791-10.166-33.864-13.5506-41.769c-.0547-.466.0389-.938.2675-1.348.2286-.41.5806-.738 1.0062-.938 1.6367-.702 3.3094-1.317 5.0113-1.843 0 0 3.8989-.818 3.5102.071ZM48.4259 193.178l3.5342 8.127 3.4564 7.549 2.3621 3.729 1.9614 7.131 7.7381 26.1 6.3388 21.076 3.899 13.36 3.8571 11.54 2.9541 1.695 23.9139 3.001 26.133-5.006 3.57-9.088-.162-12.907-1.016-34.525-.76-28.958-.072-5.335.808-2.315.849-6.367.544-4.416 1.914-5.215-54.9027 14.375-36.9204-3.551Z"/>
    <path fill="#96C3FF" d="M131.865 218.574c.275-.793 0-1.587 0-2.387-.03-2.249-.246-4.493-.353-6.742-.108-2.25-.168-4.422-.251-6.63 0-.328-.09-.65-.108-.978-.089-.722.041-1.453.371-2.101.657-1.339 1.062-2.787 1.196-4.272.131-.86.233-1.725.371-2.584.167-1.551.167-3.115 0-4.666-.152-1.12-.417-2.221-.79-3.288-.484-1.79-1.148-3.58-1.746-5.371-.03-.089-.143-.155-.215-.226-.419 0-.55.334-.7.596-1.866 3.414-4.712 5.926-7.744 8.217-2.452 1.85-4.784 3.807-7.176 5.776-3.588 3.014-7.726 4.368-12.373 4.607-4.4906.201-8.9874-.241-13.3528-1.313-3.2726-.787-6.6533-1.027-10.0046-.71-2.1468.209-4.0305 1.241-5.9501 2.13-2.9301 1.349-5.5195 3.264-8.2643 4.935-1.4038.852-2.8736 1.59-4.3953 2.208-.3887.161-.9807.167-.9628.829.4726 1.376 1.2469 2.63 2.2665 3.67.9269.913 1.196 2.029 1.5189 3.157.5442 1.873 1.0285 3.765 1.5608 5.644.1973.693.1315 1.456.598 2.071.2171.197.4875.325.7774.37 3.6657.34 6.8291 2.088 10.0403 3.652 3.1156 1.516 6.0996 3.294 9.3169 4.63 4.1859 1.743 8.5573 2.226 13.0842 2.035 4.1859-.173 7.5589-2.047 10.8299-4.29 2.775-1.904 5.543-3.801 8.461-5.472 4.121-2.387 8.462-3.962 13.348-3.413.107.032.22.041.332.026.111-.014.218-.052.314-.11Z"/>
    <path fill="#3889FF" d="M70.3844 239.668c.0598.28.1256.561.1854.841.2511.316.0957.764.3468 1.08.3588 1.975 1.0286 3.867 1.5129 5.812.4186 1.695.921 3.366 1.3874 5.048.6817 2.451 1.3614 4.905 2.0392 7.364.598 2.208 1.196 4.421 1.794 6.635.6578 2.387 1.3335 4.774 1.9913 7.161.598 2.243 1.196 4.493 1.8299 6.742.1435.525.3408 1.039.4425 1.576.2213 1.116.6997 2.16.4246 3.401-.2273 1.038.4066 1.951 1.2737 2.625 1.2546.896 2.6789 1.528 4.186 1.856 3.0516.736 6.1776 1.12 9.3168 1.146 2.9931.063 5.9871-.032 8.9701-.287 2.258-.163 4.502-.484 6.715-.96 5.675-1.235 11.237-2.847 16.415-5.538 1.64-.809 3.153-1.853 4.491-3.097.57-.519 1.015-1.16 1.304-1.873.196-.395.287-.834.264-1.274-.023-.44-.159-.866-.395-1.238-.333-.569-.493-1.222-.461-1.88-.167-3.962-.299-7.924-.466-11.886-.138-3.342-.317-6.684-.461-10.025-.143-3.342-.221-6.767-.418-10.144-.144-2.387-.114-4.774-.407-7.161-.066-1.36-.156-1.438-1.375-1.038-5.042 1.641-8.797 4.857-11.649 9.267-1.543 2.387-2.871 4.905-4.521 7.22-2.474 3.635-6.241 6.195-10.537 7.161-4.037.901-7.9834.244-11.7448-1.444-4.6524-2.089-8.5813-5.21-12.3247-8.605-3.0199-2.745-5.8126-5.734-8.8624-8.449-.2041-.21-.4307-.396-.6757-.555-.1914-.102-.4126-.257-.598-.102-.1854.155-.1316.4.006.621Z"/>
    <path fill="#fff" d="M59.4351 206.622c.7953-.662 1.794-.853 2.7328-1.283 1.454-.688 2.8534-1.486 4.186-2.387 3.0467-2.122 6.3149-3.909 9.7474-5.328 1.2821-.489 2.6308-.783 4.0006-.871 2.6861-.164 5.3822.024 8.0192.561 1.7162.322 3.4026.775 5.1368 1.032 2.9398.463 5.9196.623 8.8921.477 1.891-.138 3.77-.397 5.627-.776 1.419-.331 2.768-.907 3.989-1.7 2.392-1.414 4.467-3.258 6.578-5.042 1.166-.991 2.392-1.88 3.624-2.811 2.65-1.929 5.003-4.235 6.984-6.844.527-.734.939-1.546 1.406-2.321-.128-.569-.377-1.104-.73-1.57-.867-1.383-1.832-2.703-2.888-3.95-.809-.913-1.836-1.608-2.987-2.019-1.15-.411-2.385-.525-3.591-.332-.215 0-.431.054-.646.096-.095.033-.196.046-.296.04-.1-.007-.198-.034-.288-.08-.089-.046-.168-.109-.233-.187-.064-.077-.111-.166-.14-.263-.57-1.18-1.312-2.269-2.2-3.234-1.021-1.288-2.385-2.264-3.935-2.816-1.467-.488-3.057-.456-4.503.089-.356.167-.756.217-1.142.144-.387-.072-.74-.265-1.011-.55-1.316-1.378-3.074-1.503-4.784-1.426-1.9495.096-3.887.454-5.5434 1.713-.3115.183-.5445.474-.6548.817-.1103.343-.0901.715.0568 1.045 1.196 3.58 2.5355 7.053 3.8212 10.573.7535 2.071.5202 2.787-1.5369 3.515-1.794.638-3.588 1.563-5.5972 1.193-.1572-.026-.3184-.009-.4668.049-.1484.057-.2785.154-.3764.279-.3571.071-.7189.115-1.0824.132-.6399 0-.903-.251-1.0585-.877-.3767-1.588-1.0166-3.091-1.5189-4.637-.3109-.949-.8312-1.844-.6458-2.93.0521-.512-.0325-1.028-.2452-1.497-.6518-1.576-1.0405-3.235-1.6325-4.828-.014-.079-.0449-.154-.0906-.221-.0457-.066-.1052-.122-.1744-.163-.0692-.041-.1465-.067-.2267-.076-.0802-.009-.1613-.001-.2379.025-1.6351.267-3.1087 1.141-4.1262 2.446-.8038.899-1.4817 1.903-2.0152 2.984-.293.668-.897.596-1.495.596-2.2181-.08-4.4202.405-6.3986 1.409-1.0779.542-2.0014 1.346-2.685 2.339-.2452.364-.5442.692-.7595 1.074-.2351.4-.5579.741-.9443.998-.3863.258-.8261.424-1.2862.488-1.0116.241-1.9592.697-2.7784 1.336-.8193.64-1.4911 1.448-1.9697 2.369-.9145 1.66-1.3744 3.531-1.3335 5.424-.0277.329.0364.66.1853.955.1511.251.2258.54.2152.832-.0106.293-.1061.576-.275.815-.0967.235-.2106.462-.3408.68-.8643 1.141-1.2483 2.573-1.0705 3.992.1077 1.408.2094 2.817.4187 4.219.3772 2.219 1.164 4.35 2.3202 6.283Z"/>
    <path fill="#38B5FF" d="M70.3844 239.668v-.597c.7494.417 1.4178.965 1.9734 1.617 2.392 2.256 4.6524 4.595 7.0504 6.809 1.4711 1.348 3.0199 2.613 4.5268 3.926 2.1118 1.763 4.398 3.306 6.8232 4.607 3.1036 1.8 6.6242 2.76 10.2138 2.786 4.344.003 8.524-1.656 11.679-4.636 1.622-1.519 3-3.278 4.084-5.215.957-1.629 1.98-3.223 2.99-4.822 1.086-1.718 2.364-3.307 3.809-4.738 2.303-2.315 5.149-3.747 8.205-4.809.431-.149.712-.078.783.418 0 .179.078.358.114.537.269-.788-.03-1.576-.036-2.387 0-2.166-.209-4.332-.311-6.498-.101-2.166-.161-4.404-.257-6.606 0-.507-.114-1.008-.173-1.51-1.31-.429-2.661-.256-3.995-.232-2.314.041-4.437.895-6.578 1.724-2.53.985-4.754 2.488-7.038 3.909-2.937 1.826-5.646 4.003-8.695 5.644-1.058.564-2.175 1.008-3.331 1.325-4.1443 1.14-8.2765.8-12.3907-.03-3.3847-.686-6.4524-2.243-9.4603-3.86-3.2166-1.768-6.5263-3.362-9.9148-4.774-1.6333-.622-3.3507-.996-5.095-1.11.0658.364.1375.722.2093 1.086.2512.31.0897.758.3528 1.068.3648 2.041 1.0585 3.998 1.5728 5.967.4305 1.689.9149 3.36 1.3514 5.048.4366 1.689.9927 3.336 1.3276 5.049.0419.143.1435.22.2093.304Z"/>
    <path fill="#D7099C" d="M69.2601 119.652c1.248 2.063 2.2153 4.282 2.8764 6.6 1.196 1.044 2.703 1.366 4.0903 1.957 1.704.729 3.4514 1.353 5.2325 1.867 1.483.43 1.6564.257 1.3933-1.247.0013-.254-.0669-.503-.1973-.722-.4425-1.694-.8831-3.389-1.3216-5.084-.281-.471-.7893-.471-1.2378-.596-3.1559-.689-6.2624-1.586-9.2989-2.686-.4784-.161-.9688-.519-1.5369-.089ZM66.8382 112.957c3.2467 1.475 6.5963 2.714 10.0225 3.705.7295.209 1.477.382 2.2126.597.7355.215.6578-.191.598-.644-.3389-1.118-.6837-2.234-1.0346-3.348-.5023-.644-1.3156-.746-1.9793-1.092-3.1575-1.665-6.3089-3.347-9.4245-5.084-.3468-.197-.6937-.596-1.1601-.203-.5561 1.039-.3947 2.113-.1674 3.187.1956.994.5088 1.961.9328 2.882ZM92.7257 159.954c-2.6312-1.057-5.2624-2.101-7.8817-3.169-.8372-.346-1.6564-.746-2.4817-1.122-.1188-.084-.2561-.14-.4005-.162-.1445-.022-.292-.009-.4307.037.0718.43.1495.883.2213 1.337.4604 1.473.8073 2.983 1.4113 4.409.5142.734 1.3694.949 2.1049 1.301 2.4638 1.194 4.9395 2.321 7.4989 3.282.1954.081.395.15.598.209 1.0405.286 1.2678.083 1.0944-.973-.0299-.179-.0897-.352-.1137-.531-.3468-1.331-.9568-2.584-1.1003-3.968-.0249-.143-.0857-.278-.1766-.392-.0909-.113-.2091-.202-.3436-.258ZM75.9757 137.613c2.6371 1.11 5.2743 2.232 7.9175 3.33.598.268 1.2797.483 1.9136.716.1495-.197.0598-.382.0777-.561-.5681-1.737-.7535-3.581-1.3395-5.305-3.1366-.636-6.2089-1.555-9.1793-2.745-.3176-.18-.6827-.259-1.0465-.227.4964 1.617 1.0465 3.211 1.6565 4.792ZM96.2717 172.252c-.3598-.172-.7292-.324-1.1063-.454-2.8845-.894-5.7071-1.977-8.4497-3.24-.1615-.077-.3349-.137-.5024-.215-.6936-.322-.4903.203-.5023.531.5382 1.295.909 2.65 1.3336 3.986.3091.404.7226.715 1.196.901 2.7627 1.194 5.5295 2.375 8.3002 3.545.4006.173.891.507 1.196-.191-.0456-1.722-.5514-3.401-1.4651-4.863ZM88.3662 148.008c-2.5474-.955-5.1009-1.904-7.6424-2.865-.598-.232-1.196-.507-1.794-.752-.3767-.155-.4365.096-.4425.382.3588 1.271.7236 2.536 1.0824 3.807 3.4589 1.816 7.012 3.448 10.6443 4.887.1376.054.2632.15.3708-.029.2811-.699-.2392-1.194-.4246-1.791-.3707-1.08-.7958-2.142-1.2737-3.18-.1435-.245-.2093-.501-.5203-.459ZM91.4937 182.39c.4652-.046.8944-.27 1.196-.627.1613-.232.3755-.423.625-.557.2494-.133.5271-.206.8102-.212 0-.03 0-.072-.0538-.09-1.6684-.931-3.4923-1.486-5.382-2.452.1136.918.1973 1.617.287 2.315.2034.907.9269 1.313 1.6625 1.706l.8551-.083ZM71.5864 103.768c.3349.39.7568.696 1.2319.895.7296.376 1.4531.769 2.1947 1.163.2631-.411 0-.769.0657-1.116-.4544-1.02-1.3036-1.265-2.3202-1.145-.3947.047-.7834.143-1.1721.203Z"/>
    <path fill="#CDADD2" d="M65.9413 223.318c-.0777-.37 0-.794-.3528-1.068.0538.376.012.788.3528 1.068Z"/>
    <path fill="#BF9BC8" d="M70.9167 241.607c-.0658-.376 0-.799-.3469-1.08.0479.364.018.77.3469 1.08Z"/>
    <path fill="#412D87" d="M136.397 177.968c-.416.357-.892.64-1.405.836-2.245.963-4.553 1.777-6.907 2.434-3.486 1.074-7.02 1.987-10.578 2.811-3.947.919-7.914 1.756-11.901 2.512-3.767.722-7.5642 1.247-11.3615 1.79-3.0677.442-6.1175 1.056-9.1972 1.48-3.9827.543-7.9773.961-11.96 1.325-5.4178.501-10.8476.799-16.2834.793-1.6001.028-3.1999-.072-4.784-.298-.3964-.054-.7855-.152-1.1601-.293-.3529-.143-.6459-.382-.3529-.841.2931-.459 0-.507-.3468-.465-.3057.057-.5969.175-.8566.346-.2598.171-.4828.392-.6563.65-.0528.053-.0916.118-.1129.189-.0212.072-.0243.147-.0088.22.0154.073.0488.141.0972.198.0484.056.1103.1.1799.127.3741.207.7773.355 1.196.442 2.1416.459 4.3278.679 6.5182.656 7.89.021 15.774-.433 23.609-1.361 8.372-.883 16.6722-2.178 24.9302-3.729 5.382-1.008 10.663-2.208 15.937-3.58 4.287-1.058 8.513-2.349 12.66-3.867 1.443-.514 2.824-1.191 4.114-2.017.377-.25.951-.483.831-1.032s-.706-.597-1.136-.752c-.231-.113-.497-.135-.744-.062-.247.073-.457.236-.59.456-.436-.084-.514-.454-.64-.8-.299-.823-.598-1.647-.914-2.458-3.78-9.367-10.394-17.323-18.921-22.759-7.565-4.916-15.8411-7.673-24.9367-7.757-.3444.03-.6912-.014-1.0166-.131.1256-.298.3289-.245.4964-.263 1.5634-.12 3.1345-.1 4.6943.06 7.9276.745 15.5266 3.529 22.0546 8.08 7.17 4.804 12.968 11.384 16.827 19.094.813 1.629 1.509 3.314 2.081 5.042.09.275.078.788.55.651.82-.245 1.477.167 2.207.346 1.597.394 2.392 1.492 2.721 2.983.167.669.215 1.367.365 2.041.169 1.015.637 1.956 1.345 2.703.598.555.598.537.03 1.116-1.127 1.142-2.429 2.097-3.857 2.828-.255.12-.47.312-.619.551-.148.239-.224.517-.218.798-.175 2.759-.489 5.507-.939 8.235-.063.837-.265 1.657-.598 2.428-.356.757-.487 1.6-.377 2.429.078 1.492.174 2.983.221 4.475.176 5.351.337 10.703.485 16.058.179 6.229.365 12.459.52 18.682.156 6.224.281 12.317.437 18.498.191 7.284.39 14.568.598 21.852.068.399-.002.809-.198 1.164-.297.505-.438 1.086-.406 1.67-.049 1.274.013 2.55.185 3.813.092.428.072.871-.056 1.289-.129.418-.363.796-.679 1.098-.952.953-1.971 1.837-3.05 2.643-2.392 1.761-5.107 2.793-7.774 3.897-2.537.928-5.12 1.724-7.738 2.387-2.355.695-4.752 1.237-7.176 1.623-3.037.418-6.096.657-9.162.716-3.427.135-6.8596.008-10.2673-.382-2.0622-.265-4.083-.787-6.0159-1.551-.9659-.341-1.8811-.811-2.7209-1.397-.1884-.108-.3505-.257-.4745-.436-.1241-.178-.2071-.382-.2431-.596-.1859-1.009-.4335-2.005-.7415-2.984-.1439-.982-.5579-1.905-1.196-2.667-.3483-.367-.5972-.817-.7235-1.307-.3668-1.225-.7296-2.448-1.0884-3.669-1.5787-5.424-3.1455-10.855-4.7362-16.273-1.4112-4.773-2.8524-9.547-4.2637-14.362-1.9136-6.564-3.7973-13.086-5.7228-19.626-2.1528-7.31-4.2877-14.619-6.273-21.971-.2811-1.014-.5023-2.035-1.3515-2.781-.2162-.246-.3936-.524-.5262-.823-1.5489-2.802-2.9036-5.707-4.0545-8.694-.0754-.275-.2332-.521-.4522-.704-.2191-.184-.489-.296-.7737-.322-.6825-.118-1.3559-.284-2.0152-.496-.912-.265-1.7923-.63-2.6252-1.086-.5562-.292-.598-.423-.2572-.942.2395-.407.396-.858.4605-1.325.1182-1.235.0497-2.48-.2033-3.694-.317-2.482 1.0704-3.729 3.2471-4.624.5262-.215.7535-.364.7475-.943.0084-2.477.2608-4.948.7535-7.375 2.8644-14.703 12.9108-28.171 25.7139-34.478.5143-.251.6399-.501.4425-1.086-1.7182-5.072-3.4086-10.154-5.071-15.246-2.392-7.238-4.6823-14.494-7.0265-21.738-.1427-.393-.1712-.819-.0824-1.227.0889-.409.2916-.784.5847-1.082.5198-.525 1.1268-.955 1.794-1.271 1.9854-1.081 4.186-1.558 6.3388-2.035.5782-.132 1.1836-.069 1.7222.179.4366.203.7655.543.598 1.026-.0741.352-.0322.718.1196 1.044.3708 1.259.7416 2.518 1.1243 3.772 1.3514 4.427 2.7049 8.851 4.0604 13.27 1.196 3.867 2.392 7.734 3.588 11.6.9568 3.095 1.9136 6.182 2.8704 9.261.3408.114.6398-.197.9568 0-.8671.681-.8671.681-.2572 2.047.3528-.188.7428-.296 1.1422-.316 1.3483-.218 2.7294.078 3.8691.829.873.597.9388 1.337.2571 2.13-.3735.402-.8226.726-1.3216.955-3.5832 1.799-7.424 3.033-11.3859 3.658-1.4816.255-2.9999.204-4.461-.149-1.3037-.322-1.6864-1.271-.9748-2.387.5573-.73 1.2469-1.35 2.0332-1.826.0066.264-.047.525-.1568.765-.1099.24-.273.452-.4771.619-.3038.266-.5606.581-.7594.931-.2871.633-.1854.979.4844 1.158.8581.256 1.7585.339 2.6491.244-.598-1.664-1.1661-3.24-1.7342-4.809-.4936.112-.962.314-1.3814.597-7.2234 3.996-13.3039 9.768-17.6648 16.767-4.7669 7.396-7.3988 15.96-7.6066 24.752.0086.36-.0256.721-.1016 1.074-.2572.925-.2751.919.598 1.11.2838.064.5714.11.8611.137 2.5859.207 5.1823.253 7.7739.137 3.7914-.137 7.5827-.382 11.362-.68 4.2219-.334 8.4318-.812 12.6417-1.307 4.0664-.483 8.079-1.313 12.1274-1.891 7.1277-1.027 14.1927-2.389 21.1927-4.088 4.826-1.193 9.64-2.387 14.352-3.95 1.251-.402 2.469-.901 3.642-1.492.407-.209.73-.471.526-1.002.688.37.724.555.281.978ZM82.4759 291.987c2.2337.902 4.5939 1.454 6.9966 1.635 2.2903.114 4.5747.537 6.871.394 2.392-.155 4.7835-.274 7.2115-.519 2.171-.227 4.324-.746 6.531-.686.254.005.509-.029.753-.102 2.805-.871 5.723-1.157 8.575-1.79 4.019-.916 7.943-2.207 11.721-3.855 2.142-.943 4.152-2.161 5.98-3.622.284-.198.509-.469.653-.784.144-.314.202-.662.166-1.006-.191-6.265-.317-12.531-.484-18.79-.15-5.681-.329-11.338-.473-17.042-.143-5.705-.269-11.218-.406-16.827-.108-4.517-.245-9.028-.335-13.546-.084-4.224-.114-8.449-.173-12.674 0-.465 0-.936-.036-1.545-.662.456-1.374.834-2.123 1.128-.204.065-.407.149-.598.197-.025.01-.051.016-.078.016-.027 0-.054-.006-.078-.017-.025-.01-.047-.026-.065-.045-.019-.02-.033-.043-.042-.068-.024-.05-.03-.107-.016-.16.015-.054.048-.101.093-.132.331-.223.676-.423 1.035-.597.623-.265 1.171-.68 1.595-1.208.423-.528.71-1.152.833-1.817.632-3.065 1.091-6.163 1.375-9.279 0-.215.042-.43.072-.734-.73.072-1.238.597-1.878.794-1.232.34-1.614 1.11-1.632 2.387-.029 1.891-.23 3.777-.598 5.632-.254 1.188-.883 2.263-1.794 3.068-.138.118-.286.224-.443.316-.027.023-.059.041-.094.052-.034.01-.07.014-.106.01-.036-.004-.071-.015-.102-.033-.032-.018-.059-.042-.081-.071-.095-.113 0-.203.042-.292.058-.093.129-.177.21-.251 1.429-1.193 1.871-2.81 2.039-4.553.167-1.742.311-3.329.466-4.994 0-.108.042-.221-.095-.257-.042 0-.102.084-.15.125-2.033.8-4.06 1.629-6.105 2.387-4.45 1.659-8.97 3.032-13.569 4.267-5.107 1.43-10.3 2.532-15.548 3.3-3.4385.465-6.8531 1.115-10.2976 1.533-3.8092.465-7.6364.74-11.4696.895-4.8113.233-9.6315.221-14.4416-.036-1.794-.107-3.588-.256-5.3401-.382h-.2392c-.0359 0 0 .156.0897.203.7787 2.136 1.7038 4.215 2.7687 6.224.4209.735 1.0432 1.336 1.794 1.73.4246.245.9388.376 1.2319.848-.3349.382-.6519.131-.909 0-1.116-.488-2.0419-1.326-2.6372-2.387-.9486-1.804-1.764-3.675-2.4398-5.597-.311-.836-.6817-1.337-1.6624-1.331-.7799-.051-1.5553-.157-2.3203-.316-.0462.094-.0667.199-.0594.304.0074.105.0423.206.1013.293 1.2259 2.715 2.4518 5.436 3.893 8.055.873 1.581 2.0571 2.602 3.9228 2.727.3469 0 .8492-.06 1.0047.627-1.0963.114-2.2032-.067-3.2053-.525.0277.593.1784 1.174.4425 1.706 1.3515 4.499 2.7508 8.987 4.1023 13.486 1.2618 4.177 2.4757 8.389 3.7076 12.584 1.0823 3.67 2.1767 7.334 3.2531 11.01 1.0764 3.675 2.1767 7.488 3.271 11.23 1.0645 3.634 2.1468 7.268 3.2173 10.901 1.0704 3.634 2.1647 7.34 3.2411 11.016l2.8644 6.79Zm-16.409-183.69c.3169.966.5979 1.957.9567 2.935 2.0173 6.087 4.0325 12.171 6.0458 18.254 1.5727 4.773 3.1515 9.547 4.6883 14.321.7475 2.321 1.5189 4.636 2.1229 7.005.2272.889.2392.889 1.196.806 1.4515-.175 2.8832-.487 4.2757-.931 2.4124-.58 4.7485-1.439 6.9607-2.56.4586-.209.8666-.514 1.196-.895.4066-.537.3827-.77-.1734-1.164-.9277-.593-2.0018-.92-3.1036-.943-.573.012-1.1458-.032-1.7103-.131.293 1.068.598 2.005.8073 2.984.0777.322.3588.865 0 .966-.4545.138-.4964-.471-.598-.811-1.4173-3.974-2.5355-8.038-3.7554-12.072-1.22-4.033-2.4459-8.091-3.6658-12.131-1.0345-3.419-2.0571-6.838-3.0916-10.251-.8372-2.749-1.6784-5.5-2.5236-8.253-.0649-.138-.143-.27-.2332-.393-2.9481 1.599-5.8604 3.186-9.3945 3.264Zm8.0669-4.774c-2.2843.477-4.5507 1.008-6.5779 2.184-.4872.247-.9266.578-1.2977.978-.4007.466-.287.794.3289.89.3993.053.805.031 1.196-.066 2.3862-.518 4.6737-1.415 6.7753-2.655.4383-.219.7733-.6.9329-1.063-.1934-.139-.4161-.233-.6512-.275-.2352-.041-.4766-.028-.7063.037v-.03Z"/>
    <path fill="#412D87" d="M90.2798 151.14c.5203 2.387 1.3635 4.684 2.093 7.018.7296 2.333 1.495 4.719 2.2485 7.076.7535 2.357 1.507 4.72 2.2545 7.077l2.2544 7.077c-2.9516 1.75-6.1913 2.962-9.568 3.581-3.0856-9.703-6.1773-19.459-9.5679-29.078-.1017.167-.0718-.06-.1854.036-.0229.02-.0378.047-.0419.077-.0089.072-.0089.144 0 .215.0176.107.0416.213.0718.316 1.196 3.899 2.392 7.796 3.588 11.69.0048.04.0048.08 0 .119-.6817.233-1.4292.185-2.111.484-1.8346.79-3.2859 2.266-4.0424 4.111-.4485 1.044-.909 1.748-2.1708 1.253-4.6464-.155-8.5753 2.089-10.3095 6.564-.374.909-.672 1.847-.891 2.804-.0538.251-.1495.508.2631.663.299-.854.598-1.719.897-2.572.4296-1.32 1.1098-2.546 2.0033-3.61 2.4578-2.811 5.6093-3.724 9.3228-3.36-.3066 1.173-.5067 2.372-.598 3.581-.1126 1.108-.0132 2.228.2931 3.299.1196-1.348.1196-2.685.2451-4.015.2134-2.154.9955-4.213 2.2665-5.967.4827-.756 1.1272-1.396 1.8871-1.874.76-.477 1.6165-.781 2.5081-.889.4306-.048.6818 0 .8193.471 1.2518 3.954 2.5076 7.911 3.7674 11.869v.107c-.4653.005-.922.126-1.329.351-.4071.225-.7518.547-1.0032.938l2.4398-1.032c.4784.99.6877 2.106 1.1003 3.15.0957.233.0479.4-.2511.472-.6715.129-1.366.064-2.0017-.188-.6357-.252-1.1861-.679-1.5863-1.232-.1136-.179-.2093-.311-.4126-.263-.2033.048-.2631.298-.2273.519.0893.359.3007.675.598.895.7411.605 1.6624.947 2.6193.973 1.3492.07 2.7002-.101 3.9886-.507 3.4008-.98 6.6505-2.422 9.6573-4.285.532-.32.95-.798 1.196-1.366.093-.179.142-.378.142-.579 0-.201-.049-.4-.142-.579-.025-.069-.073-.128-.136-.168-.062-.04-.136-.059-.21-.053-.037.001-.072.01-.104.027-.032.018-.059.042-.08.072-.02.03-.033.064-.038.1-.004.035 0 .072.012.106.186.674-.203 1.11-.598 1.527-1.166 1.146-1.3154 1.098-1.7938-.423-1.6943-5.192-3.3946-10.383-5.1009-15.574-1.0843-3.282-2.1707-6.564-3.2591-9.846-.1435-.43-.3109-.847-.4664-1.271l-.311.113Z"/>
    <path fill="#412D87" d="M119.343 170.682c-.357-1.268-.964-2.452-1.785-3.483-.822-1.031-1.842-1.887-2.999-2.519-.993-.599-2.13-.915-3.289-.915-1.16 0-2.297.316-3.289.915-.199.142-.44.213-.685.201-.244-.012-.477-.106-.661-.267-1.053-.763-2.264-1.282-3.544-1.517-1.28-.236-2.597-.182-3.8532.156-1.0604.316-2.068.786-2.99 1.397-.1555.095-.3109.197-.2392.465 1.0525-.28 1.9973-.835 2.99-1.193 2.6614-.913 5.1014-.275 7.4274 1.092.341.197.317.429.036.692-.764.732-1.45 1.542-2.046 2.417-.298.364-.474.813-.502 1.282l1.794-2.124c.465-.562.986-1.076 1.555-1.533.99-.828 2.216-1.324 3.504-1.417 1.288-.093 2.573.221 3.672.898 1.833 1.089 3.281 2.719 4.144 4.666.173.364.341.65.742.758l.018.029Z"/>
    <path fill="#412D87" d="M119.36 170.665c.078.417-.322.31-.496.399-2.087 1.074-3.217 2.882-3.929 5.019-.057.116-.087.243-.087.373 0 .129.03.257.087.373.329-.066.287-.382.377-.597.404-1.015.941-1.972 1.597-2.846.685-.958 1.677-1.654 2.813-1.972 1.135-.318 2.345-.239 3.43.223 3.665 1.331 5.095 4.177 5.16 7.447v.967c.509-.275.455-.716.491-1.05.43-4.452-3.588-8.605-8.049-8.426-.485 0-.951.382-1.453.096l.059-.006ZM63.1904 179.669c-.4412.013-.8753.114-1.2761.299-.4009.184-.7601.448-1.0561.775-2.392 2.255-3.6896 5-3.4504 8.354.0215.583.1857 1.153.4784 1.659.0777.125.1973.226.3588.143.1614-.084.1315-.245.0897-.376-1.0405-3.013-.0359-5.621 1.6445-8.074.7084-1.068 1.7325-1.889 2.9302-2.351.1255-.065.2631-.119.281-.429ZM127.661 167.908c2.321 3.033 3.342 6.861 2.84 10.645.254-.22.453-.497.581-.808.127-.311.18-.647.155-.982.036-2.156-.45-4.29-1.418-6.218-.319-.688-.72-1.335-1.196-1.927-.269-.299-.49-.645-.962-.71ZM110.881 177.503c-.372-.098-.767-.048-1.102.141-.335.188-.584.499-.692.867-.158.331-.218.7-.172 1.064.045.364.194.707.429.989.256.29.598.492.975.577.378.086.773.051 1.13-.1.43-.089.828-.296 1.148-.596.04-.038.071-.084.09-.135.02-.051.027-.106.023-.16-.005-.055-.022-.107-.049-.155-.028-.047-.066-.087-.112-.117-.185-.138-.257 0-.4.149-.25.259-.568.441-.917.526-.35.084-.716.067-1.057-.049-.212-.062-.399-.191-.532-.367-.134-.176-.207-.391-.209-.611-.046-.288-.014-.582.091-.853.105-.272.279-.51.507-.693.233-.191.574-.125.849-.477ZM69.3499 184.55c.287.042.4305-.102.598-.143.6936-.173 1.1481.274.9747.96-.0873.297-.2341.574-.4314.813s-.4412.435-.7168.578c-.5322.316-.897-.203-1.4112-.43.598 1.032 1.1601 1.193 1.9435.674.5648-.344.9806-.887 1.166-1.521.09-.319.0585-.659-.0884-.955-.1469-.297-.3988-.528-.7069-.65-.5442-.209-.8013-.09-1.3275.674ZM103.573 171.142c-.205.401-.268.861-.176 1.302.091.442.33.839.679 1.126.897.89 1.668.985 2.918.287-.903 0-1.74.25-2.452-.43-.712-.68-.771-1.444-.969-2.285ZM78.0388 180.23c.1675 1.885 1.3156 2.512 3.2472 1.861-.6339-.411-1.3216.126-1.9017-.25-.58-.376-.8133-1.003-1.3455-1.611ZM101.241 175.575c-.557-.12-1.138-.072-1.6683.138-.0476.021-.0897.053-.1229.094-.0332.04-.0566.087-.0685.138 0 .179.1436.239.305.197.5587-.052 1.0947-.247 1.5547-.567ZM91.2067 290.621c-.1554-.17-.3463-.303-.5592-.391-.213-.088-.4426-.127-.6727-.116-.7954-.09-1.5967-.144-2.392-.263-2.0153-.298-3.301-1.653-4.3534-3.21-.3117-.66-.5253-1.362-.6339-2.083l-3.301-11.445c-1.1322-3.918-2.2644-7.838-3.3966-11.761-1.0684-3.675-2.1368-7.349-3.2053-11.021-1.1362-3.92-2.2604-7.841-3.4026-11.761-1.0644-3.636-2.1368-7.268-3.2172-10.896-1.0824-3.67-2.1528-7.339-3.2531-10.997-.2268-.93-.5391-1.837-.9329-2.709-.0664.156-.1007.325-.1007.495 0 .17.0343.338.1007.495 1.1362 4.07 2.2824 8.133 3.4385 12.191 1.4551 5.12 2.9142 10.235 4.3773 15.347 1.1063 3.849 2.2366 7.692 3.3488 11.547 1.2758 4.411 2.5435 8.823 3.8033 13.235l3.2531 11.23c.598 2.172 1.2678 4.338 1.8658 6.516.5158 1.88 1.6861 3.515 3.3009 4.612 1.7402 1.212 3.7315 1.206 5.9322.985ZM128.516 284.678c2.201-.43 4.288-1.086 5.549-3.169 1.031-1.77 1.489-3.814 1.31-5.854-.215-4.218-.281-8.443-.413-12.668-.131-4.224-.269-8.443-.4-12.668-.126-4.111-.24-8.223-.365-12.34-.132-4.252-.265-8.511-.401-12.775-.119-3.676-.233-7.352-.365-11.028-.125-3.413-.269-6.832-.406-10.251.021-.163.001-.329-.058-.482-.06-.153-.157-.289-.283-.395v3.186c.131 5.745.273 11.493.425 17.245.137 5.203.31 10.413.46 15.616.149 5.203.287 10.556.442 15.837.168 5.788.345 11.576.533 17.364.059 1.963.125 3.932.203 5.895-.005.328-.072.652-.197.955-.303 1.037-.855 1.985-1.607 2.761-.752.777-1.683 1.359-2.711 1.696-.604.209-1.321.37-1.716 1.075ZM128.57 204.528c-.026-.033-.059-.059-.095-.079-.037-.019-.077-.031-.119-.035-.041-.003-.083.002-.122.016-.04.013-.076.034-.107.062-1.74 1.068-3.725 1.45-5.627 2.059-3.588 1.157-7.224 2.07-10.86 2.983-3.39.865-6.733 1.975-10.237 2.339-2.5479.269-5.0655.686-7.5711 1.194-1.907.325-3.8362.504-5.7707.537-3.863.197-7.7201.447-11.5832.596-2.5116.102-5.0291.12-7.5467.114-.8193 0-1.6326-.185-2.4638-.215.741.486 1.6205.719 2.5056.662 3.0199.03 6.0458.03 9.0717-.119l10.9194-.483c2.2594-.121 4.5064-.412 6.7215-.872 2.0392-.411 4.1023-.686 6.1713-.925 2.063-.274 4.102-.703 6.1-1.282 3.313-.89 6.631-1.755 9.926-2.686 2.739-.795 5.46-1.621 8.163-2.476.941-.255 1.806-.732 2.524-1.39ZM118.218 288.001c-2.763.394-5.424 1.223-8.174 1.635-2.751.412-5.496.537-8.372.74.831.43 5.776.304 8.485-.113 2.709-.418 5.394-1.397 8.061-2.262ZM100.864 286.42c-.053.036-.125.06-.155.113-.029.043-.041.095-.034.146.008.051.035.097.076.129.185.149.448.161.562.441.078.185.311.114.442-.029.035-.03.062-.066.081-.106.018-.041.028-.085.028-.13s-.01-.089-.028-.13c-.019-.041-.046-.077-.081-.106-.248-.212-.564-.329-.891-.328ZM120.162 295.83c-5.647 2.552-11.898 3.47-18.042 2.649 3.295 1.773 13.999.543 18.042-2.649ZM183.448 1.39035l-1.902 5.47778-14.244 47.41447-3.941 11.0152-11.117 33.165 5.556 3.0612 7.708 2.303 13.066-43.5296 17.414-53.70375c.071-.59909-.05-1.20518-.344-1.73219s-.747-.94816-1.295-1.20362c-2.104-.90601-4.253-1.70269-6.44-2.38683 0 0-4.963-1.026337-4.461.11934Z"/>
    <path fill="#412D87" d="m218.198 116.251-4.545 10.448-4.437 9.709-3.038 4.791-2.524 9.16-9.944 33.552-8.145 27.091-5.017 17.173-4.958 14.834-3.797 2.184-30.737 3.855-33.596-6.432-4.592-11.678.209-16.594 1.31-44.384.974-37.228.09-6.856-1.035-2.972-1.094-8.187-.7-5.675-2.457-6.707 70.575 18.481 47.458-4.565Z"/>
    <path fill="#9678FF" d="M110.935 148.891c-.353-1.009 0-2.035.036-3.044.035-2.888.311-5.77.448-8.664.138-2.894.215-5.68.323-8.521 0-.423.114-.835.138-1.259.115-.926-.052-1.866-.479-2.697-.852-1.722-1.383-3.584-1.567-5.496-.167-1.104-.299-2.213-.472-3.323-.218-1.993-.218-4.004 0-5.997.084-1.462.646-2.829 1.017-4.219.598-2.339 1.471-4.619 2.236-6.9158.042-.1194.185-.197.287-.2924.532 0 .706.4296.891.7757 2.392 4.3855 6.064 7.6195 9.963 10.5615 3.145 2.387 6.177 4.893 9.191 7.423 4.617 3.873 9.933 5.621 15.901 5.926 5.772.256 11.552-.315 17.162-1.695 4.209-1.007 8.555-1.313 12.863-.907 2.763.268 5.179 1.599 7.649 2.739 3.767 1.736 7.098 4.177 10.62 6.343 1.807 1.092 3.696 2.041 5.651 2.84.503.203 1.268.209 1.244 1.068-.612 1.766-1.606 3.375-2.912 4.714-1.196 1.194-1.537 2.608-1.956 4.058-.699 2.387-1.321 4.839-2.009 7.256-.251.889-.167 1.874-.765 2.667-.279.244-.621.405-.987.466-4.712.429-8.773 2.685-12.899 4.69-4.007 1.951-7.846 4.236-11.96 5.967-5.382 2.243-11.003 2.864-16.822 2.619-5.382-.22-9.717-2.631-13.921-5.513-3.588-2.447-7.128-4.887-10.872-7.035-5.304-3.05-10.883-5.09-17.162-4.386-.142.037-.291.042-.435.017-.145-.026-.282-.083-.402-.166Z"/>
    <path fill="#5B3FBD" d="M189.966 176.017c-.084.358-.161.716-.239 1.074-.323.406-.126.979-.443 1.39-.46 2.536-1.327 4.971-1.943 7.471-.538 2.178-1.196 4.326-1.794 6.492-.873 3.151-1.746 6.304-2.619 9.458-.784 2.846-1.543 5.693-2.327 8.533-.843 3.067-1.71 6.122-2.553 9.189-.795 2.888-1.567 5.777-2.356 8.665-.186.68-.437 1.342-.598 2.028-.281 1.438-.897 2.775-.55 4.374.293 1.331-.521 2.506-1.639 3.372-1.613 1.152-3.444 1.964-5.382 2.387-3.917.944-7.93 1.439-11.96 1.473-3.841.083-7.683-.041-11.511-.37-2.902-.21-5.785-.621-8.629-1.229-7.296-1.593-14.442-3.664-21.104-7.124-2.106-1.041-4.05-2.382-5.77-3.981-.724-.664-1.294-1.479-1.669-2.386-.412-1.098-.544-2.208.168-3.229.434-.731.642-1.574.598-2.422.215-5.09.388-10.186.598-15.276.179-4.296.406-8.593.598-12.889.191-4.296.287-8.694.538-13.032.179-3.085.143-6.176.52-9.243.084-1.748.203-1.85 1.794-1.337 6.476 2.107 11.302 6.248 14.95 11.935 1.985 3.067 3.684 6.301 5.813 9.278 3.39 4.738 7.881 7.925 13.538 9.19 5.191 1.157 10.262.316 15.1-1.856 5.98-2.685 11.033-6.695 15.841-11.057 3.887-3.533 7.469-7.375 11.398-10.866.261-.271.551-.511.867-.716.239-.131.532-.328.777-.125.245.202.167.543-.012.829Z"/>
    <path fill="#fff" d="M204.043 133.537c-1.023-.859-2.344-1.104-3.516-1.653-1.856-.885-3.645-1.904-5.352-3.049-3.989-2.631-8.043-5.125-12.528-6.85-1.646-.632-3.378-1.012-5.137-1.128-3.454-.209-6.919.034-10.31.722-2.206.418-4.377.997-6.578 1.331-3.782.589-7.616.789-11.439.597-2.427-.178-4.84-.511-7.224-.997-1.824-.431-3.559-1.172-5.131-2.19-3.086-1.79-5.747-4.177-8.456-6.48-1.501-1.277-3.103-2.387-4.658-3.58-3.349-2.572-6.5-5.371-8.97-8.802-.676-.937-1.196-1.9867-1.794-2.9832.167-.7309.487-1.4183.939-2.0169 1.12-1.775 2.361-3.4716 3.713-5.078 1.039-1.1707 2.357-2.0624 3.831-2.593 1.474-.5307 3.058-.6835 4.607-.4442.275.0358.556.0775.831.1312.123.0407.252.0566.381.0467.129-.0099.254-.0453.369-.1043.114-.0589.216-.1401.299-.2388.083-.0987.145-.213.183-.3361.729-1.524 1.68-2.9317 2.823-4.1769 1.311-1.6579 3.065-2.9132 5.059-3.622 1.885-.6285 3.929-.5906 5.788.1074.458.2169.972.2836 1.47.1903.497-.0933.952-.3417 1.299-.7095 1.693-1.7901 3.953-1.9333 6.124-1.8319 2.511.1194 5.005.5967 7.128 2.1959.403.2314.706.6024.853 1.0424.146.4401.126.9185-.058 1.3445-1.519 4.5767-3.259 9.064-4.909 13.587-.975 2.6673-.67 3.5803 1.973 4.5234 2.308.823 4.587 2.005 7.176 1.539.203-.032.411-.01.602.064.191.075.359.199.486.36.46.09.926.148 1.394.173.819 0 1.16-.328 1.357-1.134.49-2.0406 1.304-3.9739 1.956-5.967.394-1.1934 1.07-2.3868.831-3.7652-.066-.6565.041-1.3189.311-1.9214.837-2.0228 1.339-4.1769 2.099-6.2058.019-.1015.059-.1979.118-.2827.059-.0848.136-.1561.224-.2091.089-.0531.188-.0867.291-.0986.103-.0119.207-.0018.306.0295 2.103.3408 3.998 1.4645 5.304 3.1447 1.035 1.1517 1.908 2.4384 2.595 3.8249.371.8652 1.154.8055 1.92.7996 2.849-.1116 5.679.5046 8.222 1.7901 1.386.6878 2.575 1.7142 3.457 2.9835.305.4655.693.8891.968 1.3725.64 1.1397 1.567 1.5992 2.871 1.9154 1.301.3121 2.52.9 3.573 1.7236 1.054.824 1.917 1.864 2.532 3.05 1.174 2.133 1.764 4.537 1.711 6.97.037.424-.046.85-.24 1.229-.193.323-.289.695-.275 1.071.014.375.136.739.353 1.047.126.303.274.596.443.877 1.107 1.466 1.598 3.305 1.369 5.126-.137 1.79-.269 3.622-.538 5.43-.494 2.868-1.52 5.618-3.026 8.109Z"/>
    <path fill="#7853FA" d="M189.966 176.017c0-.227 0-.454.03-.8-1.106.508-1.794 1.361-2.535 2.083-3.044 2.9-5.98 5.907-9.066 8.748-1.884 1.736-3.881 3.365-5.819 5.048-2.726 2.286-5.682 4.286-8.82 5.967-3.988 2.313-8.513 3.547-13.126 3.58-5.587-.002-10.962-2.137-15.022-5.967-2.083-1.957-3.854-4.221-5.25-6.713-1.226-2.088-2.542-4.135-3.822-6.194-1.397-2.208-3.042-4.25-4.903-6.086-2.96-2.984-6.614-4.822-10.543-6.188-.556-.191-.915-.102-1.004.543-.036.227-.102.453-.15.686-.347-1.014.036-2.029.048-3.037 0-2.787.269-5.567.395-8.354.125-2.787.209-5.663.334-8.491 0-.651.15-1.295.222-1.945 1.686-.549 3.42-.323 5.131-.293 2.989.048 5.71 1.146 8.443 2.214 3.247 1.271 6.118 3.198 9.054 5.024 3.773 2.345 7.254 5.15 11.177 7.256 1.356.728 2.79 1.3 4.275 1.707 5.328 1.462 10.639 1.026 15.931-.042 4.353-.877 8.294-2.888 12.163-4.959 4.131-2.277 8.383-4.329 12.738-6.146 2.107-.804 4.325-1.283 6.578-1.42l-.27 1.384c-.328.406-.113.985-.454 1.379-.467 2.625-1.358 5.138-2.021 7.709-.556 2.166-1.196 4.321-1.74 6.487-.545 2.166-1.274 4.29-1.711 6.492-.048.113-.203.215-.263.328Z"/>
    <path fill="#412D87" d="M164.778 127.254s1.753 13.915 0 24.405c-1.752 10.49 1.866 15.139 5.508 15.157 3.642.018 8.061-17.902 8.061-17.902s2.392-1.241 3.755 2.137c1.364 3.377 2.96 9.869 6.411 10.478 3.45.609 6.213 13.975 6.213 13.975l4.449-33.201s-27.041-15.186-34.397-15.049Z" opacity=".8"/>
    <path fill="#D7099C" d="M191.407 21.738c-1.722 2.6136-2.727 5.5375-3.695 8.4793-1.507 1.3426-3.475 1.7603-5.257 2.524-2.192.93-4.439 1.727-6.727 2.3869-1.902.5549-2.129.3282-1.794-1.6052.004-.3272.092-.6479.257-.9308l1.704-6.528c.359-.5967 1.011-.5967 1.585-.7519 4.059-.8826 8.055-2.0348 11.96-3.449.586-.2148 1.274-.6802 1.967-.1253ZM194.553 13.1335c-4.173 1.8929-8.476 3.4881-12.875 4.7737-.945.2685-1.908.4893-2.847.7638-.837.2387-.849-.2506-.801-.8294.448-1.4381.891-2.8702 1.334-4.3083.645-.8294 1.692-.9547 2.547-1.4082 4.06-2.13622 8.103-4.2963 12.109-6.53396.449-.25062.897-.77572 1.495-.25658.718 1.33066.509 2.71502.216 4.09938-.246 1.27496-.642 2.51666-1.178 3.69956ZM161.25 73.5443c3.379-1.3605 6.758-2.7031 10.124-4.0755 1.083-.4416 2.129-.9547 3.194-1.444.152-.108.328-.1789.513-.2069.185-.0279.373-.0123.551.0458-.09.5609-.185 1.1397-.281 1.7244-.598 1.8916-1.035 3.8369-1.794 5.6688-.664.9428-1.758 1.1934-2.709 1.6708-3.163 1.5096-6.351 2.9835-9.634 4.2187-.263.0954-.526.1969-.795.2685-1.334.364-1.633.1074-1.405-1.2531.036-.2267.113-.4475.143-.6862.443-1.7066 1.232-3.3177 1.417-5.1019.034-.1838.114-.3562.232-.5012.118-.145.271-.2579.444-.3282ZM182.778 44.8247c-3.391 1.4261-6.781 2.8642-10.166 4.2844-.813.3401-1.644.5967-2.458.9189-.197-.2566-.077-.4953-.101-.722.717-2.2257.956-4.6126 1.71-6.8204 4.031-.8186 7.98-1.9989 11.798-3.5265.412-.2302.882-.332 1.352-.2924-.638 2.0765-1.35 4.1292-2.135 6.158ZM156.687 89.3511c.463-.2251.939-.4243 1.424-.5968 3.708-1.1518 7.336-2.5472 10.859-4.1769.216-.0955.431-.173.646-.2745.891-.4117.634.2626.646.6803-.688 1.6707-1.166 3.4072-1.716 5.1257-.395.5197-.924.922-1.531 1.1636-3.552 1.5315-7.108 3.0491-10.668 4.5528-.515.2208-1.149.6564-1.519-.2446.179-2.1899.574-4.3441 1.859-6.2296ZM166.883 58.185c3.277-1.2252 6.552-2.4524 9.825-3.6817.784-.2983 1.549-.6504 2.327-.9666.484-.1969.556.1253.568.4952l-1.388 4.893c-4.447 2.3355-9.017 4.4329-13.688 6.2834-.173.0656-.335.185-.472-.0358-.365-.9011.305-1.5694.544-2.3272.476-1.3876 1.023-2.7499 1.638-4.0815.132-.3043.21-.6265.646-.5788ZM162.829 102.383c-.598-.057-1.15-.346-1.537-.805-.207-.299-.483-.545-.804-.716-.322-.171-.679-.263-1.044-.269 0-.042.042-.095.078-.119 2.141-1.1937 4.485-1.9097 6.919-3.1569-.15 1.1935-.257 2.0825-.371 2.9839-.263 1.193-1.196 1.694-2.141 2.196l-1.1-.114ZM188.417 1.3366c-.429.49382-.968.88183-1.572 1.13375-.939.48333-1.866.99053-2.823 1.49773-.335-.53703 0-.99053-.078-1.4321.598-1.31872 1.669-1.634976 2.99-1.47386.491.0716.987.17901 1.483.27448Z"/>
    <path fill="#CDADD2" d="M195.677 154.995c.102-.471 0-1.02.454-1.378-.071.489-.017 1.014-.454 1.378Z"/>
    <path fill="#412D87" d="M105.481 95.4137c-.263.6862.155 1.0204.676 1.2948 1.508.7601 3.073 1.4005 4.682 1.9155 6.052 2.035 12.241 3.58 18.442 5.078 8.998 2.196 18.08 3.946 27.245 5.251 5.209.746 10.363 1.79 15.59 2.429 5.412.644 10.818 1.253 16.253 1.682 4.862.388 9.736.698 14.61.872 3.327.151 6.66.093 9.98-.174.372-.035.742-.095 1.106-.179 1.143-.238 1.119-.232.79-1.42-.098-.454-.142-.919-.132-1.384-.261-11.2916-3.634-22.2932-9.747-31.7986-5.613-8.9972-13.435-16.4157-22.724-21.5531-.541-.3788-1.15-.6502-1.794-.7996l-2.231 6.1819c1.144.1218 2.3.0163 3.403-.3103.861-.2387.999-.6803.598-1.4978-.258-.4461-.585-.8488-.969-1.1934-.664-.722-.664-.722-.819-1.7901 1.014.607 1.901 1.4032 2.613 2.3451.915 1.45.425 2.6732-1.25 3.0909-1.879.4505-3.83.5155-5.734.191-5.108-.8061-10.059-2.4005-14.675-4.726-.64-.2945-1.217-.7099-1.699-1.2232-.873-1.0204-.789-1.993.329-2.7449 1.465-.9636 3.238-1.3427 4.97-1.0621.514.0225 1.017.1613 1.471.4057.783-1.7543.783-1.7543-.329-2.6314.406-.2566.795.1432 1.232 0 1.196-3.9443 2.458-7.9243 3.689-11.9342 1.531-4.9646 3.062-9.9372 4.593-14.9177 1.742-5.6807 3.48-11.3673 5.215-17.05991.49-1.61111.962-3.22819 1.441-4.84527.203-.41905.258-.89443.155-1.34856-.197-.596708.221-1.056174.79-1.318725.693-.3147741 1.47-.392386 2.212-.2207821C188.256.614661 191.06 1.2412 193.608 2.62557c.844.41134 1.61.96439 2.266 1.63498.38.38518.643.87011.757 1.39831.114.5282.076 1.07795-.111 1.58523-2.99 9.31461-5.98 18.63521-9.024 27.94381-2.113 6.5877-4.277 13.1376-6.494 19.6496-.251.7459-.096 1.0741.568 1.3963 16.493 8.1093 29.404 25.4198 33.081 44.3172.638 3.119.965 6.293.975 9.476 0 .746.281.943.957 1.223 2.805 1.14 4.581 2.745 4.186 5.938-.197 1.575-.538 3.144-.257 4.773.079.602.283 1.181.598 1.701.424.668.383.835-.335 1.193-1.072.581-2.202 1.047-3.373 1.391-.847.273-1.712.487-2.589.638-.367.032-.715.175-.998.411-.282.236-.485.553-.581.908-1.478 3.84-3.218 7.574-5.208 11.176-.169.385-.397.741-.676 1.056-1.094.961-1.381 2.274-1.734 3.581-2.56 9.445-5.305 18.844-8.067 28.236-2.476 8.407-4.898 16.827-7.362 25.235-1.794 6.158-3.665 12.298-5.471 18.456-2.051 6.969-4.061 13.945-6.094 20.92-.46 1.57-.933 3.145-1.399 4.714-.158.633-.48 1.214-.933 1.683-.927.925-1.196 2.208-1.501 3.425-.397 1.252-.715 2.528-.951 3.819-.048.277-.156.539-.316.77-.16.231-.369.424-.611.567-1.082.747-2.258 1.349-3.498 1.79-2.488.967-5.088 1.621-7.738 1.945-4.38.503-8.793.667-13.198.489-3.942-.072-7.876-.379-11.781-.918-3.107-.497-6.179-1.192-9.197-2.083-3.325-.979-6.721-1.76-9.939-3.073-3.462-1.414-6.972-2.745-10.028-5.006-1.389-1.037-2.7-2.174-3.923-3.402-.407-.388-.707-.874-.871-1.411-.165-.537-.188-1.107-.068-1.656.222-1.625.3-3.266.234-4.905.044-.753-.137-1.503-.521-2.154-.249-.452-.338-.976-.251-1.486.251-9.36.506-18.724.766-28.093.203-7.912.352-15.824.562-23.737.203-8.007.426-16.013.669-24.017.196-6.878.395-13.76.598-20.646.06-1.916.186-3.831.287-5.747.142-1.067-.028-2.153-.49-3.126-.421-.993-.678-2.047-.759-3.121-.568-3.509-.987-7.035-1.196-10.58.011-.362-.084-.72-.274-1.028-.191-.309-.467-.555-.797-.708-1.84-.939-3.516-2.168-4.9632-3.64-.7056-.74-.6996-.716.0419-1.432.9103-.96 1.5122-2.169 1.7282-3.473.1914-.8653.2512-1.7902.4665-2.6315.4664-1.8856 1.4476-3.2998 3.4986-3.807.939-.2268 1.794-.7578 2.834-.4476.598.1791.598-.4773.712-.8294.732-2.2105 1.625-4.3644 2.673-6.4444 4.968-9.884 12.421-18.3134 21.629-24.4651 8.395-5.8465 18.165-9.4199 28.357-10.3707 2.007-.2049 4.029-.2308 6.04-.0776.216 0 .479-.0418.634.3401-.417.1515-.862.2086-1.303.1671-11.691.0895-22.33 3.628-32.059 9.9531-10.946 6.9827-19.436 17.1999-24.285 29.2267-.424 1.0443-.795 2.1005-1.196 3.1626-.161.4416-.257.913-.825 1.0263-.171-.2829-.443-.4914-.76-.5842-.318-.0928-.659-.0632-.956.083-.551.179-1.316.3222-1.453.9607-.138.6385.598 1.0025 1.064 1.3247 1.658 1.0624 3.431 1.9332 5.286 2.5957 5.331 1.9515 10.765 3.6105 16.278 4.9705 6.781 1.742 13.604 3.282 20.481 4.577 10.621 1.999 21.295 3.664 32.047 4.773 10.094 1.069 20.194 1.904 30.348 1.749 2.814.028 5.622-.256 8.372-.848.555-.112 1.089-.314 1.579-.596.085-.039.159-.097.217-.17.058-.073.098-.158.117-.249.02-.091.017-.185-.007-.275-.023-.09-.068-.173-.13-.243-.22-.332-.506-.617-.838-.837-.333-.22-.707-.372-1.099-.446-.437-.054-.813.03-.455.597.359.567 0 .901-.448 1.08-.483.179-.984.305-1.495.376-2.041.297-4.103.424-6.165.382-6.997 0-13.976-.376-20.93-1.015-5.143-.477-10.28-1.008-15.399-1.712-3.959-.543-7.876-1.325-11.822-1.892-4.886-.704-9.766-1.378-14.615-2.303-5.119-.985-10.22-2.047-15.297-3.228-4.569-1.063-9.114-2.232-13.599-3.581-3.031-.841-6.004-1.8816-8.898-3.1145-.654-.2542-1.261-.6174-1.794-1.074-.568-.5729-.49-.8116.371-1.3128Zm72.657 139.1223c1.383-4.722 2.778-9.44 4.186-14.154 1.407-4.714 2.778-9.374 4.114-13.981 1.411-4.809 2.793-9.624 4.186-14.434 1.381-4.72 2.787-9.434 4.186-14.154 1.591-5.37 3.151-10.788 4.784-16.171 1.734-5.788 3.534-11.552 5.28-17.34.209-.692.634-1.343.562-2.19-1.321.704-2.679.704-4.12.68.197-.889.843-.775 1.292-.805 2.392-.173 3.923-1.48 5.041-3.515 1.854-3.365 3.426-6.862 5.005-10.353.075-.108.12-.234.129-.365.01-.132-.016-.263-.075-.381-.985.21-1.985.348-2.99.412-1.262 0-1.734.639-2.135 1.713-.872 2.458-1.919 4.851-3.133 7.16-.771 1.354-1.964 2.421-3.397 3.037-.323.156-.736.478-1.16 0 .371-.596 1.034-.775 1.579-1.086.955-.509 1.745-1.279 2.278-2.219 1.358-2.561 2.537-5.213 3.528-7.937.108-.059.215-.155.126-.262-.09-.108-.204 0-.311-.036-2.291.161-4.575.346-6.865.489-6.185.33-12.382.345-18.568.048-4.922-.197-9.837-.555-14.741-1.152-4.431-.537-8.814-1.372-13.239-1.975-6.74-.984-13.41-2.399-19.968-4.236-5.89-1.588-11.72-3.354-17.437-5.484-2.637-.985-5.239-2.047-7.852-3.079-.066-.054-.143-.167-.191-.161-.174.042-.156.191-.12.334.197 2.136.383 4.278.598 6.415.221 2.243.789 4.332 2.625 5.853.106.096.196.206.269.329.072.107.174.22.048.369-.026.038-.06.07-.1.094-.039.023-.084.038-.13.043-.046.006-.092.001-.136-.014-.044-.014-.084-.038-.118-.069-.21-.117-.41-.25-.598-.4-1.157-1.041-1.953-2.422-2.273-3.944-.459-2.39-.705-4.816-.735-7.25 0-1.641-.514-2.625-2.093-3.061-.825-.233-1.471-.931-2.392-1.02.036.388.06.668.09.942.363 4.008.952 7.993 1.764 11.935.158.855.526 1.657 1.071 2.336.545.679 1.249 1.213 2.05 1.554.462.223.908.479 1.334.764.057.042.098.102.115.171.018.068.011.141-.019.205-.012.032-.029.062-.053.087-.023.026-.051.046-.083.06-.031.014-.065.021-.099.022-.035 0-.069-.007-.1-.02-.269-.066-.533-.173-.796-.262-.964-.371-1.879-.855-2.727-1.445 0 .788-.041 1.385-.047 1.987-.072 5.431-.114 10.861-.222 16.291-.113 5.806-.293 11.606-.436 17.412-.174 7.214-.329 14.422-.514 21.63-.192 7.304-.419 14.602-.598 21.905-.21 8.056-.377 16.112-.598 24.155-.041.439.034.881.219 1.281.185.4.472.745.833.999 2.337 1.875 4.908 3.44 7.648 4.654 4.855 2.119 9.899 3.779 15.064 4.959 3.666.811 7.421 1.193 11.021 2.297.316.096.645.142.975.137 2.834-.077 5.597.597 8.372.877 3.085.317 6.177.472 9.269.669 2.948.185 5.884-.364 8.832-.508 3.08-.236 6.106-.945 8.97-2.1l3.726-8.742Zm5.31-231.61208c-.114.16002-.214.32974-.299.5072-1.088 3.54047-2.169 7.07698-3.241 10.60948-1.334 4.3918-2.649 8.7835-3.977 13.1753-1.567 5.1954-3.137 10.3927-4.712 15.592-1.567 5.1854-2.99 10.4126-4.832 15.5144-.155.4416-.209 1.1934-.795 1.0443-.467-.1313-.102-.8295 0-1.2472.293-1.1934.657-2.3868 1.04-3.795-.726.1288-1.463.1867-2.2.173-1.415.0239-2.795.4369-3.989 1.1934-.718.5132-.742.8116-.227 1.5037.435.4911.971.882 1.572 1.1457 2.817 1.5574 5.885 2.4346 8.97 3.2938 1.791.568 3.631.9676 5.496 1.1935 1.238.1133 1.256.1074 1.543-1.0383.777-3.0432 1.794-6.0208 2.733-9.0043 1.979-6.1461 4.006-12.2803 6.028-18.4145 2.583-7.8208 5.174-15.6397 7.773-23.4566.419-1.26498.82-2.53596 1.226-3.78309-4.586-.0895-8.33-2.13024-12.109-4.20679Zm0-1.5216c.204.59257.634 1.08123 1.196 1.36049 2.699 1.59584 5.636 2.75016 8.701 3.41914.503.11685 1.023.14512 1.537.08354.783-.12531.933-.54301.418-1.15165-.483-.51722-1.054-.94544-1.686-1.26502-2.637-1.50967-5.55-2.18992-8.486-2.8105-.289-.067584-.589-.071086-.879-.01025-.29.06083-.564.18451-.801.36231v.01194Z"/>
    <path fill="#412D87" d="M164.396 62.2128c-.676 3.073-1.758 6.0267-2.697 9.0163-.939 2.9895-1.92 6.0685-2.889 9.0998-.968 3.0312-1.931 6.0685-2.87 9.1177-.939 3.0491-1.937 6.0625-2.9 9.0938 2.816 1.8856 8.772 4.1766 12.265 4.6426 4.006-12.5311 7.977-25.062 12.372-37.4556.126.2148.09-.0776.234.0477.029.0264.048.0624.053.1015.012.0911.012.1834 0 .2745-.023.139-.055.2765-.095.4117-1.551 5.0084-3.098 10.0148-4.641 15.0191-.008.0514-.008.1038 0 .1552.879.2983 1.842.2387 2.721.5967 2.352 1.0335 4.207 2.9437 5.167 5.3226.598 1.3426 1.196 2.2496 2.792 1.6052 5.98-.191 11.022 2.6852 13.252 8.4732.48 1.1597.862 2.3572 1.142 3.5802.072.328.198.656-.341.853-.376-1.104-.753-2.2074-1.142-3.3054-.557-1.6979-1.432-3.2751-2.577-4.6483-3.164-3.5803-7.212-4.7737-11.96-4.3142.383 1.521.633 3.0722.747 4.6364 0 1.4261.138 2.8642-.376 4.2366-.156-1.7364-.156-3.449-.317-5.1615-.279-2.7624-1.286-5.4018-2.919-7.6498-.615-.9791-1.441-1.8087-2.419-2.4282-.978-.6194-2.082-1.013-3.232-1.1521-.55-.0656-.873.0299-1.052.5967-1.595 5.084-3.209 10.1699-4.844 15.2579v.1372c.597.0056 1.183.1597 1.705.4483.522.2887.964.7027 1.285 1.2044l-3.133-1.3245c-.598 1.277-.891 2.7095-1.424 4.0455-.113.299-.059.519.323.597.869.177 1.77.098 2.595-.226.825-.324 1.537-.88 2.052-1.6.143-.227.269-.4.532-.34.371.089.335.394.287.674-.106.46-.373.866-.753 1.146-.949.781-2.132 1.225-3.361 1.259-1.734.084-3.469-.138-5.125-.657-4.372-1.263-8.551-3.116-12.421-5.5071-.688-.4116-1.232-1.0268-1.554-1.7603-.12-.2295-.182-.4843-.182-.7429s.062-.5135.182-.7429c.032-.0889.093-.1645.173-.2152.08-.0507.175-.0737.269-.0653.047.0003.093.0117.134.0331.041.0215.077.0525.104.0904.026.0379.044.0817.05.1276.007.046.002.0929-.013.1368-.239.8652.257 1.4261.802 1.9631 1.489 1.4739 1.68 1.4083 2.32-.543 2.169-6.6751 4.361-13.3483 6.578-20.0195 1.387-4.2168 2.783-8.4375 4.186-12.6622.185-.5489.4-1.086.598-1.623l.317.1432Z"/>
    <path fill="#412D87" d="M127.027 87.3342c.466-1.632 1.253-3.1549 2.316-4.4797 1.062-1.3248 2.379-2.4248 3.873-3.2357 1.275-.7698 2.738-1.1767 4.228-1.1767 1.49 0 2.953.4069 4.228 1.1767.254.1856.564.2786.879.2634.314-.0152.614-.1377.849-.3469 2.906-1.9334 6.07-2.6912 9.514-1.7484 1.346.4101 2.625 1.0131 3.798 1.7901.203.1253.4.2566.31.5967-1.351-.358-2.565-1.0681-3.875-1.5216-3.42-1.1934-6.578-.358-9.568 1.3963-.436.2566-.406.555-.047.8951.983.9399 1.865 1.9799 2.631 3.1029.382.47.606 1.0484.64 1.6529-.903-1.0681-1.609-1.9035-2.321-2.733-.595-.7255-1.264-1.3874-1.997-1.9751-1.272-1.0585-2.845-1.6918-4.498-1.8107-1.652-.1188-3.3.2829-4.711 1.1484-2.358 1.3984-4.219 3.4972-5.322 6.0029-.227.4654-.443.8294-.957.9666l.03.0358Z"/>
    <path fill="#412D87" d="M127.009 87.3104c-.102.543.412.3998.634.5132 2.685 1.3784 4.138 3.7055 5.053 6.4504.069.1519.102.3178.096.4846-.007.1667-.052.3297-.132.4761-.425-.0895-.365-.4893-.484-.7519-.521-1.3048-1.213-2.5348-2.058-3.6578-2.099-2.6255-4.879-3.3893-8.019-2.2496-4.712 1.7126-6.578 5.3704-6.638 9.5474v1.2471c-.651-.3521-.598-.9249-.598-1.3486-.562-5.7224 4.581-11.063 10.34-10.8302.628 0 1.226.4893 1.872.1193h-.066ZM199.211 98.8865c.565.0138 1.121.1414 1.635.3752.513.2338.975.569 1.355.9853 3.086 2.894 4.742 6.427 4.443 10.741-.024.748-.229 1.479-.598 2.13-.101.167-.251.292-.46.185-.209-.107-.174-.31-.114-.483 1.328-3.873.042-7.227-2.117-10.377-.908-1.375-2.226-2.431-3.767-3.0195-.173-.0716-.353-.1372-.377-.537ZM116.335 83.7719c-2.907 4.0397-4.306 8.4613-3.648 13.6825-.325-.2837-.579-.6391-.742-1.0379-.163-.3988-.23-.8301-.197-1.2595-.059-2.7689.557-5.5106 1.794-7.9899.418-.8886.944-1.7223 1.567-2.4823.341-.3878.622-.8294 1.226-.9129ZM137.91 96.0999c.478-.1243.986-.0588 1.416.1827.431.2415.751.6401.893 1.1121.201.4269.277.9022.218 1.3704-.06.4682-.251.9098-.553 1.2729-.333.367-.772.621-1.256.728-.485.107-.99.061-1.447-.131-.556-.112-1.068-.379-1.477-.7699-.053-.0477-.093-.1069-.119-.1728-.025-.066-.035-.137-.029-.2074.006-.0705.029-.1385.066-.1988.037-.0604.087-.1113.147-.149.24-.179.329 0 .509.191.322.3307.733.5625 1.183.6682.451.1057.922.0807 1.358-.0715.273-.0786.513-.243.684-.4689.172-.2258.265-.5009.267-.7842.056-.371.014-.7502-.122-1.0999-.137-.3497-.363-.6576-.655-.8931-.293-.2089-.73-.1253-1.083-.5788ZM191.3 105.158c-.377.054-.556-.131-.778-.185-.891-.221-1.471.352-1.243 1.235.11.383.297.738.55 1.046.253.308.566.561.921.744.687.406 1.154-.262 1.794-.549-.778 1.325-1.489 1.552-2.494.865-.726-.444-1.26-1.142-1.501-1.957-.115-.409-.073-.846.115-1.227.189-.381.512-.679.908-.837.711-.263 1.052-.114 1.728.865ZM147.305 87.9189c.262.5183.342 1.1099.224 1.6788-.117.5688-.424 1.0812-.87 1.454-1.154 1.1397-2.141 1.265-3.755.364 1.166-.0418 2.242.3222 3.151-.555.909-.8771.993-1.8557 1.25-2.9418ZM180.123 99.5906c-.215 2.4224-1.686 3.2284-4.186 2.3864.813-.531 1.698.162 2.44-.328.741-.489 1.064-1.265 1.746-2.0584ZM150.301 93.6235c.717-.1552 1.464-.095 2.147.1731.061.0273.116.0693.157.1224.042.053.07.1155.082.1819 0 .2267-.18.3043-.383.2506-.719-.066-1.41-.3168-2.003-.728ZM163.194 241.512c.201-.219.447-.391.722-.505.275-.113.571-.165.869-.152 1.022-.113 2.051-.185 3.067-.334 2.59-.382 4.24-2.13 5.592-4.135.502-.734.556-1.79.819-2.667 1.411-4.905 2.824-9.81 4.24-14.715 1.451-5.04 2.908-10.08 4.371-15.121 1.367-4.718 2.741-9.44 4.12-14.166 1.459-5.036 2.916-10.074 4.372-15.114 1.363-4.67 2.74-9.341 4.132-14.011 1.393-4.714 2.768-9.434 4.186-14.136.293-1.195.693-2.361 1.196-3.485.085.203.128.42.128.639 0 .219-.043.436-.128.638-1.463 5.227-2.938 10.453-4.425 15.676-1.866 6.576-3.74 13.149-5.622 19.721-1.423 4.953-2.876 9.893-4.305 14.84-1.655 5.669-3.279 11.34-4.874 17.012-1.387 4.814-2.783 9.629-4.186 14.447-.801 2.786-1.632 5.573-2.392 8.354-.662 2.416-2.168 4.518-4.246 5.925-2.242 1.575-4.802 1.569-7.636 1.289ZM115.234 233.85c-2.822-.555-5.507-1.396-7.128-4.07-1.325-2.277-1.914-4.907-1.686-7.53.275-5.418.371-10.854.538-16.278.167-5.424.341-10.854.508-16.284.164-5.287.321-10.574.473-15.861.167-5.478.339-10.951.514-16.421.155-4.726.299-9.452.472-14.178.156-4.392.341-8.784.515-13.175-.026-.211 0-.425.078-.623.077-.198.202-.374.364-.511v4.093c-.171 7.395-.353 14.787-.544 22.174-.185 6.689-.401 13.378-.598 20.073-.191 6.785-.365 13.569-.568 20.354-.215 7.443-.443 14.884-.682 22.323-.076 2.522-.161 5.048-.257 7.578.004.42.09.835.251 1.223.963 2.763 2.679 4.774 5.55 5.729.801.286 1.698.495 2.2 1.384ZM115.174 130.84c.034-.041.075-.076.123-.101.047-.024.099-.039.152-.043.054-.004.107.003.158.021.05.017.096.045.136.081 2.23 1.373 4.784 1.856 7.235 2.644 4.599 1.486 9.281 2.661 13.958 3.855 4.359 1.115 8.653 2.542 13.156 2.983 3.277.346 6.512.883 9.729 1.552 2.452.425 4.933.666 7.421.722 4.964.256 9.927.596 14.89.781 3.23.132 6.465.149 9.7.149 1.052 0 2.105-.238 3.169-.28-.951.625-2.081.923-3.217.847-3.887.042-7.774.042-11.667-.149-4.68-.227-9.365-.443-14.053-.65-2.905-.155-5.794-.533-8.641-1.128-2.613-.519-5.274-.883-7.929-1.193-2.651-.356-5.272-.908-7.84-1.653-4.258-1.14-8.522-2.25-12.761-3.449-3.517-.999-7.015-2.059-10.495-3.181-1.204-.337-2.31-.957-3.224-1.808ZM128.48 238.146c3.546.507 6.973 1.57 10.501 2.095 3.528.525 7.074.698 10.8.954-1.071.549-7.433.388-10.914-.149-3.576-.549-6.96-1.796-10.387-2.9ZM150.779 236.111c.072.048.174.078.203.138.041.054.058.123.048.19-.01.067-.047.127-.101.168-.234.191-.598.209-.724.567-.096.232-.395.149-.598-.036-.042-.038-.076-.084-.099-.135-.023-.051-.035-.107-.035-.164 0-.056.012-.112.035-.163.023-.051.057-.097.099-.135.323-.285.741-.439 1.172-.43ZM125.98 248.201c7.266 3.288 15.313 4.471 23.221 3.413-4.27 2.273-18.03.692-23.221-3.413Z"/>
    <path fill="#A7D7FF" d="M141.755 123.411c13.789 2.858 27.789 4.578 41.86 5.144 3.69.131 7.421.232 11.117.065 5.735-.137 11.434-.596 17.139-1.193.255-.042.516-.042.771 0h.066c4.706-1.193 4.628 5.543 4.742 8.473.383 9.506-.395 18.999-.281 28.505.096 7.829 1.304 15.586 1.758 23.391.269 4.529 1.597 9.756-.215 14.124-1.423 3.425-5.161 4.225-7.613 1.301-1.309-1.558-1.674-3.389-1.674-5.37 0-3.27.347-6.564.598-9.798.311-3.986.598-7.978.664-11.976.035-3.056.113-6.463-.957-9.369-.455-1.241-1.286-2.554-2.787-2.428-3.965.34-5.167 4.869-5.633 8.127-1.746 12.089 1.441 23.916 1.794 35.958.15 5.424.353 10.842.395 16.266.036 5.084.364 10.633-1.137 15.556-.873 2.852-3.247 5.43-6.362 5.722-2.392.221-3.17-1.867-3.588-3.801-.724-3.425-.538-6.79-.449-10.257.108-4.213.126-8.414.377-12.62.532-8.981 1.435-17.938 2.045-26.912.443-6.438.849-12.895.784-19.351-.042-3.724.239-8.766-1.639-12.155-.628-1.134-1.489-2.124-2.918-1.79-4.826 1.193-5.478-15.909-10.495-15.139-1.561.239-1.639 3.944-1.794 5.024-.365 3.074-.532 6.188-1.226 9.214-.413 1.79-1.034 4.135-2.715 5.209-2.494 1.593-5.489-.531-6.123-3.079-.694-2.793-.084-6.188.095-9.028.204-3.211.413-6.427.395-9.649-.036-4.738-.885-9.339-1.794-13.969l-25.2-4.195Z"/>
    <path fill="#fff" d="M217.402 185.045s2.47 12.853-.472 16.845c-2.942 3.992-3.887 1.194-1.764-4.224 1.148-2.936 1.256-6.081 1.16-9.19-.036-1.133-.771-6.76 1.076-3.431ZM193.5 230.443s-1.058 13.861 1.412 13.629c2.469-.233 2.236-2.119 1.883-4.231-.75-4.705-1.229-9.448-1.435-14.208-.179-3.502.885-9.344-.717-12.471-.784.836-.712 2.506-.67 3.652.113 3.64-.473 13.629-.473 13.629ZM176.655 151.266c.155.668-.228 1.79-.323 2.476-.162 1.056-.341 2.1-.55 3.145-.281 1.42-.676 5.698-2.787 5.37-.087-.007-.17-.039-.239-.092-.069-.053-.121-.124-.15-.206-.011-.085 0-.171.03-.251.7-2.387 1.196-4.774 1.98-7.119.113-.358 1.77-4.487 2.039-3.323ZM207.583 129.48s6.459-1.385 7.427 1.193c.969 2.578-.245 12.471 0 18.952.245 6.48-3.48 4.177-2.224-3.545 1.256-7.721 1.459-13.826-1.25-13.861-2.709-.036-6.674-2.393-3.953-2.739Z"/>
    <path fill="#FFF66F" d="M48.4558 42.6825s12.0497-2.7627 8.8564-15.049c0 0 2.4757 12.1073 12.8151 9.428 0 0-10.477 4.177-8.2883 12.5906 0 0-2.2664-9.8517-13.3832-6.9696ZM257.163 249.543s-12.528 9.249-2.661 21.822c0 0-8.97-12.746-19.548-4.463 0 0 10.004-10.085 3.241-18.701 0 0 7.57 10.251 18.968 1.342Z"/>
  </g>
  <defs>
    <clipPath id="a">
      <path fill="#fff" d="M0 0h285v302H0z"/>
    </clipPath>
  </defs>
</svg>
