<svg width="21" height="20" viewBox="0 0 21 20" fill="none" xmlns="http://www.w3.org/2000/svg">
<path d="M19.0339 0.990479L11.4895 6.60276L12.8926 3.29059L19.0339 0.990479Z" fill="#E17726" stroke="#E17726" stroke-linecap="round" stroke-linejoin="round"/>
<path d="M1.59888 0.990479L9.09725 6.64876L7.76318 3.29059L1.59888 0.990479Z" fill="#E27625" stroke="#E27625" stroke-linecap="round" stroke-linejoin="round"/>
<path d="M16.3196 13.9861L14.2955 17.0682L18.6197 18.2643L19.8388 14.0551L16.3196 13.9861Z" fill="#E27625" stroke="#E27625" stroke-linecap="round" stroke-linejoin="round"/>
<path d="M0.816895 14.0551L2.03596 18.2643L6.33717 17.0682L4.33607 13.9861L0.816895 14.0551Z" fill="#E27625" stroke="#E27625" stroke-linecap="round" stroke-linejoin="round"/>
<path d="M6.10719 8.78785L4.91113 10.6049L9.16634 10.7889L9.02834 6.18872L6.10719 8.78785Z" fill="#E27625" stroke="#E27625" stroke-linecap="round" stroke-linejoin="round"/>
<path d="M14.5487 8.78771L11.5815 6.14258L11.4895 10.7888L15.7447 10.6048L14.5487 8.78771Z" fill="#E27625" stroke="#E27625" stroke-linecap="round" stroke-linejoin="round"/>
<path d="M6.33716 17.0683L8.91329 15.8262L6.68218 14.0781L6.33716 17.0683Z" fill="#E27625" stroke="#E27625" stroke-linecap="round" stroke-linejoin="round"/>
<path d="M11.7424 15.8262L14.2956 17.0683L13.9505 14.0781L11.7424 15.8262Z" fill="#E27625" stroke="#E27625" stroke-linecap="round" stroke-linejoin="round"/>
<path d="M14.2956 17.0682L11.7424 15.8262L11.9494 17.4823L11.9264 18.1953L14.2956 17.0682Z" fill="#D5BFB2" stroke="#D5BFB2" stroke-linecap="round" stroke-linejoin="round"/>
<path d="M6.33728 17.0682L8.7294 18.1953L8.7064 17.4823L8.91341 15.8262L6.33728 17.0682Z" fill="#D5BFB2" stroke="#D5BFB2" stroke-linecap="round" stroke-linejoin="round"/>
<path d="M8.77533 12.9739L6.63623 12.3529L8.1313 11.6628L8.77533 12.9739Z" fill="#233447" stroke="#233447" stroke-linecap="round" stroke-linejoin="round"/>
<path d="M11.8806 12.9739L12.5016 11.6628L14.0197 12.3529L11.8806 12.9739Z" fill="#233447" stroke="#233447" stroke-linecap="round" stroke-linejoin="round"/>
<path d="M6.33728 17.0682L6.7053 13.9861L4.33618 14.0551L6.33728 17.0682Z" fill="#CC6228" stroke="#CC6228" stroke-linecap="round" stroke-linejoin="round"/>
<path d="M13.9507 13.9861L14.2957 17.0682L16.3198 14.0551L13.9507 13.9861Z" fill="#CC6228" stroke="#CC6228" stroke-linecap="round" stroke-linejoin="round"/>
<path d="M15.7447 10.605L11.4895 10.789L11.8805 12.9741L12.5016 11.663L14.0196 12.3531L15.7447 10.605Z" fill="#CC6228" stroke="#CC6228" stroke-linecap="round" stroke-linejoin="round"/>
<path d="M6.63622 12.3531L8.13129 11.663L8.77532 12.9741L9.16634 10.789L4.91113 10.605L6.63622 12.3531Z" fill="#CC6228" stroke="#CC6228" stroke-linecap="round" stroke-linejoin="round"/>
<path d="M4.91113 10.605L6.68222 14.0782L6.63622 12.3531L4.91113 10.605Z" fill="#E27525" stroke="#E27525" stroke-linecap="round" stroke-linejoin="round"/>
<path d="M14.0197 12.3531L13.9507 14.0782L15.7448 10.605L14.0197 12.3531Z" fill="#E27525" stroke="#E27525" stroke-linecap="round" stroke-linejoin="round"/>
<path d="M9.16641 10.7888L8.77539 12.9739L9.25842 15.5731L9.37342 12.1459L9.16641 10.7888Z" fill="#E27525" stroke="#E27525" stroke-linecap="round" stroke-linejoin="round"/>
<path d="M11.4895 10.7888L11.2825 12.1459L11.3745 15.5731L11.8805 12.9739L11.4895 10.7888Z" fill="#E27525" stroke="#E27525" stroke-linecap="round" stroke-linejoin="round"/>
<path d="M11.8805 12.9741L11.3745 15.5732L11.7425 15.8262L13.9506 14.0781L14.0196 12.353L11.8805 12.9741Z" fill="#F5841F" stroke="#F5841F" stroke-linecap="round" stroke-linejoin="round"/>
<path d="M6.63623 12.353L6.68223 14.0781L8.91334 15.8262L9.25836 15.5732L8.77533 12.9741L6.63623 12.353Z" fill="#F5841F" stroke="#F5841F" stroke-linecap="round" stroke-linejoin="round"/>
<path d="M11.9266 18.1952L11.9496 17.4821L11.7425 17.3211H8.89041L8.7064 17.4821L8.7294 18.1952L6.33728 17.0681L7.16532 17.7581L8.8674 18.9312H11.7655L13.4676 17.7581L14.2957 17.0681L11.9266 18.1952Z" fill="#C0AC9D" stroke="#C0AC9D" stroke-linecap="round" stroke-linejoin="round"/>
<path d="M11.7426 15.8263L11.3746 15.5732H9.25845L8.91343 15.8263L8.70642 17.4823L8.89043 17.3213H11.7426L11.9496 17.4823L11.7426 15.8263Z" fill="#161616" stroke="#161616" stroke-linecap="round" stroke-linejoin="round"/>
<path d="M19.356 6.97077L20.0001 3.86562L19.034 0.990479L11.7427 6.41875L14.5488 8.78786L18.505 9.93792L19.3791 8.92587L19.011 8.64986L19.6091 8.09783L19.149 7.72981L19.7471 7.26979L19.356 6.97077Z" fill="#763E1A" stroke="#763E1A" stroke-linecap="round" stroke-linejoin="round"/>
<path d="M0.656006 3.86562L1.30004 6.97077L0.886017 7.26979L1.48405 7.72981L1.02402 8.09783L1.64505 8.64986L1.25403 8.92587L2.12808 9.93792L6.10727 8.78786L8.91341 6.41875L1.59905 0.990479L0.656006 3.86562Z" fill="#763E1A" stroke="#763E1A" stroke-linecap="round" stroke-linejoin="round"/>
<path d="M18.5049 9.9379L14.5487 8.78784L15.7448 10.6049L13.9507 14.0781L16.3198 14.0551H19.839L18.5049 9.9379Z" fill="#F5841F" stroke="#F5841F" stroke-linecap="round" stroke-linejoin="round"/>
<path d="M6.10715 8.78784L2.12796 9.9379L0.816895 14.0551H4.33607L6.68218 14.0781L4.9111 10.6049L6.10715 8.78784Z" fill="#F5841F" stroke="#F5841F" stroke-linecap="round" stroke-linejoin="round"/>
<path d="M11.4896 10.7889L11.7426 6.41868L12.8927 3.29053H7.76343L8.91348 6.41868L9.1665 10.7889L9.2585 12.169V15.5731H11.3746V12.169L11.4896 10.7889Z" fill="#F5841F" stroke="#F5841F" stroke-linecap="round" stroke-linejoin="round"/>
</svg>
