<svg xmlns="http://www.w3.org/2000/svg" fill="none" viewBox="0 0 408 368">
  <path fill="#F6ECD8" d="M224.868 43.3509c.001.0754-.02.1495-.061.2128-.041.0633-.1.1129-.17.1424-.069.0295-.146.0376-.22.0232-.074-.0144-.142-.0505-.195-.1039-.053-.0533-.09-.1213-.104-.1954-.014-.074-.006-.1506.023-.22.03-.0694.079-.1284.143-.1694.063-.041.137-.0622.213-.0608.098 0 .192.0391.262.1087s.109.164.109.2624ZM222.613 84.3724c0 .0494-.01.0982-.029.1437-.019.0455-.047.0868-.083.1213-.035.0346-.077.0618-.123.08-.045.0182-.094.0271-.144.0261-.049.001-.098-.0079-.144-.0261-.046-.0182-.088-.0454-.123-.08-.035-.0345-.063-.0758-.082-.1213-.019-.0455-.029-.0943-.029-.1437.002-.099.043-.1934.113-.2628.071-.0694.166-.1083.265-.1083s.194.0389.265.1083c.071.0694.112.1638.114.2628ZM131.606 54.6697c.001.0768-.02.1523-.062.2167-.042.0645-.102.115-.173.145-.07.0301-.148.0383-.224.0237-.075-.0147-.145-.0515-.199-.1058-.054-.0544-.091-.1237-.106-.1991-.014-.0754-.006-.1535.024-.2242.03-.0707.081-.1308.145-.1726.064-.0418.14-.0634.217-.062.1 0 .196.0399.267.1108.071.071.111.1672.111.2675ZM182.533 78.2991c.002.0638-.016.1266-.05.1803-.035.0538-.084.0961-.143.1215-.059.0254-.123.0327-.186.0212-.063-.0116-.121-.0416-.166-.0862-.046-.0446-.077-.1018-.09-.1643-.013-.0625-.007-.1274.017-.1865.024-.0591.065-.1097.118-.1453.053-.0357.115-.0547.179-.0547.084 0 .165.0328.225.0915.06.0587.094.1386.096.2225ZM141.747 73.9387c-.002.1029-.044.2009-.117.273-.074.072-.173.1124-.275.1124-.103 0-.201-.0406-.273-.1129-.072-.0722-.113-.1703-.113-.2725 0-.1022.041-.2002.113-.2725.072-.0723.17-.1129.273-.1129.102 0 .201.0404.275.1125.073.072.115.1701.117.2729ZM241.432 64.3686c.003.1996-.054.3955-.163.5629-.109.1673-.265.2985-.448.3769-.184.0783-.387.1003-.583.0631-.196-.0372-.377-.1319-.519-.272-.142-.1402-.239-.3194-.279-.515-.04-.1956-.021-.3986.054-.5833.076-.1847.205-.3427.371-.454.166-.1112.361-.1706.56-.1706.132-.0009.262.024.383.0733.122.0494.233.1222.326.2143.093.0921.168.2017.219.3226.051.1209.078.2506.079.3818ZM272.269 68.722c.005.2125-.055.4216-.17.6004-.115.1789-.28.3194-.476.4037-.195.0843-.411.1086-.62.0697-.209-.0388-.401-.139-.553-.2879-.152-.1488-.256-.3395-.299-.5477-.043-.2082-.023-.4245.057-.6214.08-.1968.217-.3653.394-.4839.176-.1186.384-.182.597-.182.281-.0019.551.1073.751.3038.201.1966.315.4645.319.7453ZM137.087 96.833c.004.2508-.066.497-.202.7076-.137.2105-.332.3757-.563.4746-.23.0989-.485.127-.731.0807-.247-.0463-.474-.1649-.653-.3406-.178-.1758-.301-.4008-.351-.6464-.051-.2456-.027-.5007.068-.7328.095-.232.257-.4306.465-.5704.208-.1397.453-.2144.704-.2144.164-.0019.328.0288.48.0902.153.0615.292.1526.41.268.117.1154.21.2529.274.4045.065.1516.098.3144.099.479ZM249.018 85.3717c.003.2013-.054.3989-.164.5676-.11.1687-.268.3008-.453.3795-.185.0787-.39.1004-.588.0623-.197-.0381-.379-.1341-.522-.276-.143-.1419-.24-.3231-.28-.5205-.039-.1974-.019-.4021.058-.588.078-.1859.209-.3445.376-.4557.168-.1111.366-.1697.567-.1683.266 0 .52.105.709.2922.188.1872.295.4413.297.7069ZM266.075 105.54c.004.234-.062.464-.189.661-.127.196-.31.35-.525.443-.215.092-.453.118-.683.074-.23-.043-.442-.155-.608-.319-.167-.165-.28-.375-.327-.604-.046-.23-.023-.468.066-.684.09-.217.242-.401.437-.531.195-.129.424-.198.658-.196.153-.001.305.028.446.085.142.058.27.143.379.25.109.108.195.235.254.376.06.141.091.292.092.445ZM301.929 69.778c-.004.1731.043.3434.136.4894.093.146.228.2609.386.3301.159.0692.335.0895.505.0584.17-.0312.327-.1123.451-.2332s.209-.2759.245-.4454c.035-.1695.019-.3456-.046-.5059-.065-.1604-.177-.2977-.32-.3943-.144-.0967-.313-.1483-.486-.1484-.228-.0019-.447.0863-.611.2454-.163.1591-.256.3761-.26.6039ZM309.273 91.6875c0 .1412.042.2792.12.3965.079.1174.19.2089.32.2629.131.054.274.0681.413.0406.138-.0275.265-.0955.365-.1953.1-.0998.168-.227.195-.3654.028-.1385.014-.282-.04-.4124-.054-.1304-.146-.2418-.263-.3202-.117-.0785-.255-.1203-.397-.1203-.189 0-.37.0752-.504.209-.134.1339-.209.3154-.209.5046ZM274.681 173.895c-.002-.183.049-.363.149-.516.1-.154.243-.274.411-.346.169-.071.355-.091.534-.057.18.035.345.122.475.251s.219.293.255.473c.036.179.017.365-.053.534-.071.169-.19.313-.342.414-.153.101-.332.154-.515.153-.12.001-.238-.022-.349-.067-.111-.045-.212-.112-.297-.196-.085-.084-.152-.184-.198-.295-.046-.11-.07-.229-.07-.348ZM245.385 186.227c-.001-.109.03-.216.09-.308.059-.091.144-.162.245-.205.1-.043.211-.055.318-.034.107.02.205.072.283.148.078.077.131.175.152.282.022.106.012.217-.03.318-.041.101-.111.187-.202.248-.09.061-.197.093-.306.093-.072.001-.143-.012-.21-.039-.066-.027-.127-.067-.178-.117-.051-.051-.092-.111-.12-.177-.027-.066-.042-.137-.042-.209ZM158.854 190.359c0-.1.039-.197.11-.268.071-.071.168-.11.268-.11s.196.039.267.11c.071.071.111.168.111.268s-.04.196-.111.267c-.071.071-.167.111-.267.111s-.197-.04-.268-.111c-.071-.071-.11-.167-.11-.267ZM147.207 125.558c-.002-.075.019-.149.06-.212.041-.063.099-.113.168-.142.069-.03.145-.039.219-.025.074.014.142.049.196.102.053.053.09.12.105.194.015.073.008.149-.02.219s-.077.129-.139.171c-.063.042-.136.064-.211.064-.049.001-.098-.008-.144-.026-.046-.018-.088-.045-.123-.08-.035-.034-.063-.076-.082-.121-.02-.046-.029-.095-.029-.144ZM131.413 187.261c.146 0 .264-.118.264-.264 0-.146-.118-.264-.264-.264-.145 0-.264.118-.264.264 0 .146.119.264.264.264ZM98.2137 189.345c-.0029-.192.0518-.382.1571-.543.1052-.162.2562-.289.4337-.364.1775-.076.3734-.096.5628-.06.1895.036.3637.128.5006.264.1371.136.2301.31.2681.499.038.189.018.385-.056.563-.074.178-.1994.33-.3603.437-.1608.106-.3497.162-.5426.161-.1262.001-.2513-.023-.3681-.071-.1169-.048-.2232-.118-.3127-.207-.0896-.089-.1607-.194-.2092-.311-.0485-.116-.0734-.241-.0734-.368ZM323.518 169.884c-.002-.057.014-.113.044-.161.031-.048.075-.085.127-.108.052-.023.109-.029.165-.019.056.01.108.037.148.076.041.04.069.091.08.146.012.056.007.114-.015.166-.021.053-.058.098-.105.129-.047.032-.102.049-.159.049-.037.001-.074-.005-.109-.019-.034-.014-.066-.034-.092-.06-.027-.026-.048-.057-.063-.091-.014-.034-.021-.071-.021-.108ZM295.592 159.129c.26 0 .471-.208.471-.464s-.211-.464-.471-.464-.471.208-.471.464.211.464.471.464ZM274.574 144.406c-.003-.202.055-.401.165-.571.111-.169.269-.303.455-.382.186-.079.392-.102.591-.064.199.038.382.134.526.276.144.142.243.324.284.522.04.199.021.405-.056.592-.077.187-.208.347-.376.46-.168.113-.366.173-.568.173-.133.001-.265-.024-.389-.074-.123-.05-.235-.124-.33-.217-.095-.094-.17-.205-.222-.328-.052-.122-.079-.254-.08-.387ZM247.105 163.254c-.001-.054.014-.107.043-.153.029-.045.07-.081.12-.103.049-.021.104-.028.157-.018.053.009.102.035.141.072.038.038.065.086.076.139.011.053.006.108-.014.158-.021.05-.055.092-.1.123-.045.03-.097.046-.151.046-.071 0-.139-.028-.19-.077-.05-.049-.08-.117-.082-.187ZM273.932 191.565c-.001-.054.013-.107.042-.153.029-.045.071-.081.12-.103.05-.021.105-.028.158-.018.053.01.102.035.14.072.039.038.066.086.077.139.011.053.006.108-.015.158-.02.05-.055.093-.099.123-.045.03-.098.046-.152.046-.07 0-.138-.028-.189-.077-.051-.049-.08-.116-.082-.187ZM155.05 173.174c.374 0 .678-.297.678-.664 0-.367-.304-.664-.678-.664-.375 0-.678.297-.678.664 0 .367.303.664.678.664ZM126.981 165.652c.399 0 .721-.317.721-.707 0-.39-.322-.706-.721-.706-.398 0-.72.316-.72.706 0 .39.322.707.72.707ZM325.922 143.278c-.003-.226.062-.448.186-.638s.301-.338.509-.427c.209-.088.439-.113.661-.071.223.043.427.15.588.31.162.159.272.362.317.584.045.222.023.452-.063.662-.086.209-.232.388-.42.514-.188.127-.409.194-.636.194-.149.002-.297-.026-.436-.082-.138-.056-.264-.138-.37-.243-.107-.105-.191-.23-.248-.368-.058-.138-.088-.285-.088-.435ZM321.997 115.003c-.003-.154.041-.306.124-.436.084-.13.205-.232.347-.293.141-.061.298-.078.45-.05.152.028.292.101.402.21.11.108.186.246.217.398.031.151.017.308-.042.451-.058.143-.158.265-.286.351-.128.087-.279.133-.434.133-.101.001-.201-.018-.295-.056-.094-.038-.18-.094-.252-.165-.072-.071-.13-.155-.169-.249-.04-.093-.061-.193-.062-.294ZM274.182 121.904c0-.141.042-.279.12-.396.078-.118.19-.209.32-.263.131-.054.274-.068.413-.041.138.028.265.096.365.195.1.1.168.227.195.366.028.138.014.282-.04.412-.054.131-.146.242-.263.32-.117.079-.255.121-.397.121-.189 0-.37-.075-.504-.209s-.209-.316-.209-.505ZM250.738 136.013c-.003-.195.052-.387.159-.551.106-.164.259-.292.439-.369.18-.076.378-.098.57-.062.192.037.369.129.508.267.139.137.234.312.274.504.039.191.02.39-.054.571-.074.18-.2.335-.363.444-.162.109-.353.167-.548.167-.129.001-.256-.024-.375-.072-.119-.048-.227-.119-.319-.209-.091-.091-.164-.198-.214-.316-.05-.118-.076-.245-.077-.374ZM240.468 114.218c-.003-.077.018-.153.058-.218.041-.065.1-.117.17-.148.07-.031.148-.041.224-.028.075.013.145.049.201.102.055.053.093.122.109.197.016.075.01.153-.019.225-.029.071-.078.132-.142.175-.063.043-.138.066-.215.066-.05.001-.099-.008-.146-.026-.046-.018-.088-.045-.124-.08-.036-.034-.064-.075-.084-.121-.02-.045-.031-.094-.032-.144ZM208.825 113.383c-.003-.173.045-.343.139-.488.094-.145.229-.258.388-.327.159-.068.334-.087.504-.055.17.032.327.114.45.235.123.121.207.276.242.446.035.169.018.345-.047.505-.065.159-.177.296-.321.393-.143.096-.312.147-.485.147-.113.001-.226-.02-.331-.063-.105-.042-.201-.105-.281-.184-.081-.08-.146-.175-.19-.279-.044-.104-.067-.217-.068-.33ZM189.313 97.454c-.003-.1728.046-.3425.14-.4875.094-.1451.229-.2589.387-.327.159-.0681.335-.0873.505-.0554.169.032.326.1138.449.2349.123.1212.208.2763.242.4456.035.1693.019.345-.047.505-.065.1599-.177.2967-.32.393-.144.0964-.313.1478-.485.1478-.114.001-.226-.0204-.331-.063-.106-.0425-.201-.1053-.282-.1848-.081-.0796-.145-.1742-.19-.2786-.044-.1045-.067-.2166-.068-.33ZM97.7569 127.563c-.0015-.064.0164-.127.0511-.181.0347-.054.0848-.096.1438-.121.0589-.025.1241-.032.1871-.02.0629.012.1208.043.1661.088.0454.046.0761.104.0882.166.0122.063.0052.129-.0199.188-.0252.059-.0675.109-.1214.143-.0539.035-.1169.053-.181.051-.0833 0-.1632-.033-.2221-.092-.0589-.058-.0919-.138-.0919-.222ZM283.459 105.155c-.003-.203.055-.402.166-.572.111-.17.269-.303.456-.382.187-.079.393-.101.592-.063.199.038.382.135.526.278.144.143.242.325.282.524.039.199.019.405-.059.592-.078.188-.21.347-.379.459-.169.112-.368.171-.57.17-.133.001-.265-.025-.388-.075-.122-.05-.234-.124-.328-.217-.095-.094-.169-.205-.22-.328-.051-.122-.078-.254-.078-.386ZM221.007 139.196c0-.05.01-.1.029-.147.019-.047.048-.089.083-.125.036-.036.079-.064.126-.084.046-.019.096-.029.147-.029.102 0 .2.041.272.113.073.072.113.17.113.272 0 .102-.04.201-.113.273-.072.072-.17.113-.272.113-.051 0-.101-.01-.147-.03-.047-.019-.09-.047-.126-.083-.035-.036-.064-.078-.083-.125-.019-.047-.029-.097-.029-.148ZM175.475 118.85c.03-.263.156-.505.354-.681.197-.176.452-.273.716-.273.265 0 .52.097.717.273.198.176.324.418.354.681-.03.262-.156.505-.354.68-.197.176-.452.274-.717.274-.264 0-.519-.098-.716-.274-.198-.175-.324-.418-.354-.68ZM189.177 158.123c.104-.201.266-.367.464-.476.199-.108.425-.156.65-.136.226.02.44.106.616.248.177.143.307.334.374.55.067.216.069.447.005.664-.065.217-.192.41-.366.554-.174.145-.388.234-.613.257-.225.023-.452-.021-.652-.127-.133-.068-.251-.163-.347-.277-.096-.115-.168-.247-.213-.39-.044-.143-.06-.293-.046-.442.014-.149.058-.293.128-.425ZM166.725 149.83c.058-.107.135-.201.229-.278.094-.077.201-.135.317-.17.116-.035.238-.047.359-.035.12.012.237.048.344.105.107.057.202.135.278.228.077.094.135.202.17.318.035.116.047.238.035.358-.012.121-.047.238-.104.345-.119.21-.316.366-.547.434-.232.068-.482.043-.695-.07-.107-.056-.201-.132-.278-.224-.077-.093-.135-.199-.171-.314-.036-.114-.049-.235-.038-.355.011-.119.045-.236.101-.342ZM76.9607 158.665c.0014-.093-.025-.185-.0759-.264-.0509-.078-.1239-.139-.2098-.176-.086-.037-.1809-.047-.2727-.03-.0919.017-.1765.062-.243.127-.0666.066-.1122.15-.131.241-.0187.092-.0098.187.0256.273.0354.087.0958.161.1734.213.0776.052.1689.08.2624.08.1237 0 .2424-.049.3306-.136.0881-.086.1385-.204.1404-.328ZM73.5209 127.878c.0014-.094-.025-.186-.0759-.264-.0509-.078-.1239-.14-.2099-.177-.0859-.036-.1808-.047-.2727-.029-.0918.017-.1764.061-.243.127-.0666.065-.1121.149-.1309.241-.0188.091-.0099.187.0256.273.0354.086.0958.16.1734.213.0776.052.1689.079.2624.079.1237 0 .2424-.048.3305-.135.0882-.087.1386-.205.1405-.328ZM62.7516 217.585c.0028.134-.0343.265-.1065.377-.0723.113-.1765.201-.2992.254-.1228.052-.2584.067-.3897.043-.1313-.025-.2521-.089-.3471-.183-.0949-.094-.1597-.214-.186-.345-.0262-.131-.0128-.267.0387-.39.0514-.123.1385-.228.25-.302.1116-.073.2425-.112.3761-.11.1748 0 .3425.069.4668.191.1243.123.195.29.1969.465ZM97.4 231.915c.0042.183-.0461.363-.1447.518-.0985.154-.2408.275-.4086.348-.1678.073-.3535.094-.5335.061s-.346-.119-.4769-.247c-.1309-.127-.2207-.291-.258-.47-.0373-.18-.0204-.366.0486-.535.069-.17.187-.315.3388-.417.1518-.102.3307-.157.5136-.157.2411-.002.4731.092.6456.26.1724.169.2713.398.2751.639ZM126.696 219.59c.001.109-.03.216-.089.308-.06.091-.145.163-.245.205-.101.043-.211.055-.318.034-.107-.02-.206-.072-.284-.148-.077-.077-.13-.175-.152-.282-.022-.106-.011-.217.03-.318.041-.101.112-.187.202-.248.091-.06.197-.093.306-.093.145 0 .284.057.387.158.102.102.161.24.163.384ZM150.718 212.511c.004.214-.056.425-.172.605-.116.18-.283.322-.48.406-.197.085-.415.109-.625.069-.211-.039-.405-.141-.557-.292-.153-.15-.257-.343-.3-.553-.042-.21-.021-.428.061-.626s.221-.367.4-.486c.178-.118.388-.181.602-.179.14-.001.279.025.408.078.129.053.247.13.346.228.1.098.179.215.233.344.055.128.083.266.084.406ZM240.661 219.091c.146 0 .264-.118.264-.264 0-.146-.118-.264-.264-.264-.146 0-.264.118-.264.264 0 .146.118.264.264.264ZM48.564 235.898c0 .037-.0074.074-.0219.108-.0144.034-.0355.065-.0621.091-.0267.026-.0582.046-.0928.06-.0346.014-.0715.02-.1087.019-.0368.001-.0734-.005-.1076-.019-.0343-.014-.0653-.034-.0914-.06-.026-.026-.0465-.057-.0601-.092-.0137-.034-.0202-.07-.0192-.107 0-.074.0293-.145.0815-.197.0522-.052.123-.082.1968-.082.0745 0 .1461.029.1994.081.0533.052.0842.123.0861.198ZM124.976 242.563c0 .072-.029.141-.08.192-.05.051-.119.08-.191.08-.072 0-.141-.029-.192-.08-.051-.051-.079-.12-.079-.192 0-.071.028-.14.079-.191.051-.051.12-.08.192-.08.072 0 .141.029.191.08.051.051.08.12.08.191ZM98.1493 214.252c.0014.054-.0133.107-.0422.153-.0289.045-.0708.081-.1202.103-.0494.021-.1041.028-.1572.018-.0531-.009-.1021-.035-.1407-.072-.0386-.038-.0652-.086-.0762-.139-.0111-.053-.0062-.108.0141-.158s.0551-.092.0998-.123c.0447-.03.0975-.046.1514-.046.0353-.001.0704.005.1032.018.0329.013.0629.032.0881.057.0253.025.0454.054.0591.086.0137.033.0208.068.0208.103ZM60.6891 286.968c.0043.154-.0377.307-.1205.437-.0829.131-.2028.234-.3445.296-.1418.063-.2988.081-.4511.053-.1523-.027-.2929-.099-.4038-.207-.1109-.108-.1872-.247-.219-.398-.0318-.152-.0177-.309.0405-.453.0582-.143.1579-.266.2862-.352.1284-.087.2796-.133.4343-.133.2032-.002.399.077.5447.218.1456.142.2295.335.2332.539ZM274.324 278.254c.002.063-.016.126-.05.18-.035.054-.084.096-.143.121-.058.026-.123.033-.186.022-.063-.012-.12-.042-.166-.087-.046-.044-.077-.101-.09-.164-.013-.062-.007-.127.017-.186.024-.06.065-.11.118-.146.053-.035.116-.054.179-.054.084 0 .165.032.225.091s.095.139.096.223ZM272.269 305.63c.005.213-.055.422-.17.6-.115.179-.28.32-.476.404-.195.084-.411.109-.62.07-.209-.039-.401-.139-.553-.288-.152-.149-.256-.34-.299-.548-.043-.208-.023-.424.057-.621s.217-.366.394-.484c.176-.119.384-.182.597-.182.281-.002.551.107.751.304.201.196.315.464.319.745ZM323.517 235.898c.011.067.045.128.097.172.052.044.117.068.185.068.068 0 .134-.024.186-.068.051-.044.086-.105.096-.172-.01-.067-.045-.128-.096-.172-.052-.045-.118-.069-.186-.069s-.133.024-.185.069c-.052.044-.086.105-.097.172ZM299.032 278.411c.26 0 .471-.208.471-.464 0-.257-.211-.464-.471-.464-.261 0-.471.207-.471.464 0 .256.21.464.471.464ZM325.922 262.539c-.003.226.062.448.186.638s.301.338.509.427c.209.088.439.113.661.071.223-.043.427-.15.588-.309.162-.16.272-.363.317-.585.045-.222.023-.452-.063-.662-.086-.209-.232-.388-.42-.514-.188-.126-.409-.194-.636-.194-.149-.002-.297.026-.436.082-.138.056-.264.138-.37.243-.107.105-.191.23-.248.368-.058.138-.088.286-.088.435Z"/>
  <path fill="#D7099C" d="M274.61 231.823c.4 8.257.25 16.307-.592 17.984-1.742 3.454-17.642 19.312-24.379 26.142-6.737 6.829-7.758 5.266-17 8.278-5.623 1.834-17.841 6.273-29.031 10.363-7.201 2.626-13.995 5.102-18.399 6.658-11.254 3.975-6.772 3.104-30.031 7.915-23.258 4.81-62.2669 37.16-62.2669 37.16s-40.4933-31.144-30.8731-82.899c0 0 55.273-8.065 59.948-9.799 4.674-1.734 15.822-9.277 17.413-12.746 1.592-3.468 22.837-33.078 31.144-36.647 8.308-3.568 26.014-11.625 32.115-17.263 6.102-5.638 24.886-27.576 36.94-30.131 12.053-2.555 9.441 22.766-1.984 32.179-10.976 9.049-25.478 18.206-28.989 22.787 1.884 3.911 4.246 8.564 5.709 10.32 1.465 1.753 3.13 3.328 4.96 4.696 3.071 2.383 6.501 4.262 10.162 5.567 4.716 1.653 9.739 2.243 14.709 1.727 3.049-.336 6.048-1.029 8.935-2.063.807-.285 1.599-.592 2.391-.92.521-.222.578-.207.649-.757.054-.536.075-1.074.065-1.613.041-2.071-.078-4.142-.357-6.194-.225-1.729-.566-3.441-1.021-5.125-.428-1.57-1.149-3.075-1.584-4.66-.814-2.926-1.427-5.916-1.963-8.899-2.455-13.56 10.163-13.289 10.163-13.289s7.358 17.992 10.227 21.639c1.477 1.898 2.512 10.833 2.94 19.59Z"/>
  <path fill="#E0259C" d="m192.367 194.969-23.915 10.469s-29.153 29.939-28.104 35.884c1.049 5.944 1.934-13.232 29.924-23.737 27.99-10.505 38.153-32.079 22.095-22.616Z"/>
  <path fill="#E0259C" d="M122.014 253.682c4.368-2.355-59.9475 9.799-59.9475 9.799-9.6274 51.748 30.8802 82.899 30.8802 82.899s39.0013-32.35 62.2603-37.16c23.258-4.811 18.769-3.94 30.031-7.922 4.396-1.556 11.19-4.032 18.391-6.659 11.219-4.082 23.408-8.521 29.032-10.355 9.277-3.012 10.262-1.427 16.999-8.278 6.737-6.852 22.645-22.695 24.386-26.142.842-1.684.992-9.727.585-17.984-.428-8.757-1.463-17.728-2.94-19.612-2.855-3.647-10.22-21.645-10.22-21.645s-5.709 1.791-.499 10.398 9.52 12.568 9.128 17.799c-.393 5.231 1.427 21.938 0 25.734-1.428 3.797-15.587 24.079-42.927 32.922-27.341 8.842-34.677 0-54.952 7.586-20.276 7.586-53.618 26.577-60.705 13.41-7.086-13.167-10.648-33.393 10.498-44.79Z"/>
  <path fill="#412D87" d="m92.9468 347.693-.7137-.521c-.421-.321-10.3838-8.071-19.2689-22.323-8.2428-13.167-17.0138-34.549-11.9753-61.618l.1356-.756.7565-.107c19.0834-2.784 56.115-8.407 59.705-9.742 4.789-1.784 15.465-9.278 16.814-12.196 1.47-3.212 22.966-33.428 31.687-37.182 5.866-2.527 25.499-11.226 31.801-17.064 1.213-1.128 3.004-2.976 5.081-5.117 8.393-8.671 22.445-23.173 32.365-25.278 3.532-.749 6.33.592 7.85 3.79 1.72 3.568 1.748 9.277.086 15.222-1.742 6.259-5.032 11.747-9.035 15.044-4.604 3.79-9.892 7.658-14.559 11.069-6.195 4.517-11.59 8.464-13.852 11.04 2.383 4.903 4.196 8.186 5.252 9.499 1.41 1.689 3.015 3.206 4.782 4.518 2.975 2.32 6.305 4.145 9.863 5.402 4.577 1.597 9.451 2.162 14.273 1.656 2.996-.319 5.943-.995 8.778-2.013.799-.278 1.584-.578 2.326-.892.031-.341.043-.684.036-1.027v-.372c.036-2.015-.078-4.031-.342-6.03-.223-1.685-.556-3.354-1-4.996-.199-.749-.471-1.477-.763-2.255-.293-.778-.585-1.57-.821-2.405-.878-3.169-1.491-6.323-1.977-8.992-.82-4.532-.135-8.129 2.056-10.705 3.354-3.932 8.935-3.861 9.185-3.861h.713l.264.649c.079.179 7.33 17.899 10.077 21.41 2.098 2.67 2.912 15.03 3.169 20.219.071 1.591.713 15.7-.714 18.512-1.499 2.976-11.711 13.417-22.045 23.858l-2.526 2.555c-5.181 5.252-7.208 5.766-11.662 6.908-1.505.378-3.375.856-5.773 1.641-5.602 1.827-18.02 6.345-28.968 10.334-6.944 2.534-13.966 5.096-18.427 6.673-1.934.714-3.397 1.22-4.624 1.67-5.981 2.205-6.216 2.291-25.556 6.287-22.724 4.703-61.3756 36.618-61.7895 36.94l-.6637.556Zm-30.0096-83.32c-4.6031 26.006 3.8395 46.559 11.7826 59.27 4.9501 7.979 11.0839 15.159 18.1913 21.296 5.4595-4.454 40.2009-32.301 62.0459-36.826 19.176-3.968 19.405-4.046 25.25-6.194 1.227-.45 2.704-.992 4.638-1.677 4.461-1.585 11.469-4.14 18.384-6.659 10.998-4.003 23.43-8.564 29.068-10.369 2.462-.807 4.375-1.292 5.909-1.685 4.282-1.099 5.902-1.505 10.662-6.33l2.534-2.562c7.051-7.136 20.182-20.389 21.652-23.308.593-1.185.935-8.043.478-17.456-.556-11.419-1.798-17.842-2.711-18.998-2.634-3.347-8.679-17.799-10.085-21.203-1.427.114-4.767.642-6.844 3.09-1.734 2.048-2.262 5.046-1.563 8.907.479 2.626 1.078 5.709 1.934 8.806.207.714.479 1.463.764 2.227.286.764.6 1.599.828 2.441.466 1.728.816 3.485 1.049 5.259.285 2.105.407 4.229.364 6.352v.357c.006.46-.015.92-.064 1.377-.004.355-.123.7-.339.982-.216.281-.518.485-.86.581l-.1.043c-.785.335-1.613.649-2.448.942-2.966 1.076-6.049 1.795-9.185 2.141-5.15.542-10.356-.065-15.244-1.777-3.77-1.332-7.302-3.259-10.462-5.709-1.896-1.42-3.621-3.056-5.138-4.875-1.221-1.513-3.176-5.06-5.81-10.526l-.285-.593.4-.521c2.141-2.797 7.957-7.051 14.701-11.968 4.639-3.397 9.906-7.243 14.459-10.997 6.651-5.474 12.011-20.168 8.385-27.676-1.12-2.32-2.918-3.176-5.502-2.626-9.278 1.969-23.044 16.178-31.266 24.664-2.098 2.141-3.91 4.039-5.166 5.202-6.373 5.902-24.786 14.174-32.408 17.457-8.093 3.489-29.175 33.007-30.588 36.111-1.812 3.961-13.495 11.626-18.013 13.31-4.517 1.684-52.4396 8.721-59.3978 9.72Z"/>
  <path fill="#D7099C" d="M323.646 176.264c-1.542 8.564-6.787 21.902-12.325 34.334-7.058 15.851-14.58 30.253-15.508 31.466-1.563 2.027-30.338 29.731-37.824 36.853l-1.156 1.085c-4.939 4.61-18.734 7.9-29.86 11.119-11.126 3.219-23.337 3.469-23.337 3.469 11.212-4.09 23.408-8.529 29.032-10.363 9.242-3.012 10.255-1.427 16.999-8.278 6.744-6.852 22.638-22.688 24.379-26.142.842-1.677.992-9.727.592-17.991 1.963-10.87 8.629-15.244 14.488-22.666 3.875-4.91 6.301-11.041 8.393-16.879.635-1.762 1.034-3.682 1.834-5.416 2.353-4.328 5.742-8.006 9.862-10.705 1.877-1.097 3.973-1.765 6.138-1.956 2.916-.238 5.83.49 8.293 2.07Z"/>
  <path fill="#E0259C" d="M323.646 176.264c-1.542 8.564-18.555-1.427-24.143 22.723-4.382 18.869-15.701 27.119-16.022 28.582-2.141 10.819-18.812 35.17-26.327 42.299-.478.443-7.222 5.809-7.515 6.081-4.931 4.603-9.499 6.287-20.625 9.506-11.126 3.218-25.406 9.134-25.406 9.134 11.211-4.089 23.408-8.528 29.031-10.362 9.242-3.012 10.256-1.427 17-8.278 6.744-6.852 22.637-22.688 24.379-26.142.842-1.677.992-9.727.592-17.991 1.963-10.87 8.628-15.244 14.487-22.666 3.876-4.91 6.302-11.041 8.393-16.879.635-1.762 1.035-3.682 1.834-5.416 2.354-4.328 5.742-8.006 9.863-10.705 1.877-1.097 3.973-1.765 6.138-1.956 2.926-.244 5.85.484 8.321 2.07Z"/>
  <path fill="#412D87" d="m197.177 295.789 6.059-2.206c10.998-4.003 23.43-8.564 29.068-10.369 2.462-.807 4.375-1.292 5.909-1.684 4.282-1.1 5.902-1.506 10.662-6.331l2.534-2.562c7.051-7.136 20.182-20.389 21.652-23.308.593-1.185.935-8.036.486-17.463v-.243c1.52-8.428 5.759-13.082 10.248-18.006 1.47-1.613 2.997-3.29 4.446-5.131 3.854-4.874 6.266-11.112 8.228-16.571.236-.65.429-1.313.643-2.013.323-1.191.731-2.357 1.22-3.49.941-1.843 2.109-3.562 3.476-5.117l.057-.064c1.869-2.403 4.168-4.438 6.78-6.002 2.01-1.179 4.258-1.896 6.58-2.098 3.179-.271 6.358.525 9.035 2.262l.549.4-.121.657c-1.684 9.341-7.672 23.964-12.404 34.584-6.922 15.55-14.544 30.259-15.636 31.679-1.656 2.141-31.152 30.524-37.967 36.982-.478.45-.871.821-1.17 1.092-4.375 4.097-14.937 7.051-25.15 9.913-1.748.485-3.468.971-5.131 1.427-11.126 3.226-23.494 3.505-23.615 3.512l-6.438.15Zm78.503-63.902c.1 2.091.671 15.636-.713 18.398-1.499 2.976-11.711 13.417-22.045 23.858l-2.527 2.555c-5.181 5.253-7.208 5.766-11.661 6.908-1.506.379-3.376.857-5.774 1.642-4.396 1.427-13.002 4.531-21.802 7.729 5.234-.512 10.415-1.467 15.487-2.855 1.67-.485 3.397-.971 5.145-1.427 9.499-2.662 20.268-5.71 24.265-9.414l1.156-1.084c8.343-7.908 36.304-34.87 37.738-36.733.871-1.134 8.3-15.329 15.38-31.244 4.56-10.241 10.298-24.222 12.132-33.378-2.153-1.181-4.603-1.709-7.051-1.52-2.016.172-3.968.797-5.709 1.827-2.384 1.429-4.48 3.29-6.181 5.488l-.057.071c-1.252 1.413-2.324 2.976-3.19 4.653-.442 1.023-.814 2.075-1.113 3.148-.207.713-.421 1.427-.671 2.141-2.02 5.623-4.517 12.046-8.564 17.178-1.499 1.905-3.047 3.604-4.546 5.245-4.425 4.86-8.264 9.049-9.691 16.814h-.008Z"/>
  <path fill="#D7099C" d="M331.896 181.709c-5.253 6.487-7.358 14.773-10.47 19.49-3.846 5.795-10.134 9.399-10.134 9.399 5.538-12.432 10.784-25.763 12.325-34.334-2.471-1.584-5.396-2.309-8.321-2.063 0 0 .671-11.104 18.049-11.568.028 0 2.926 6.887-1.449 19.076Z"/>
  <path fill="#412D87" d="m309.016 213.16 1.327-2.997c4.56-10.241 10.298-24.222 12.132-33.378-2.153-1.179-4.603-1.707-7.051-1.52l-1.234.1.078-1.235c0-.121.942-12.082 19.091-12.56h.714l.285.713c.121.293 2.983 7.408-1.427 19.84l-.065.172-.114.142c-3.083 3.811-5.074 8.322-6.837 12.297-1 2.469-2.193 4.855-3.568 7.136-3.939 5.959-10.198 9.585-10.462 9.742l-2.869 1.548Zm7.6-40.079c2.721.025 5.378.827 7.658 2.312l.549.4-.121.657c-1.513 8.371-6.473 20.967-10.883 31.137 2.601-1.949 4.869-4.306 6.715-6.98 1.303-2.175 2.439-4.446 3.397-6.794 1.792-4.054 3.818-8.635 7.016-12.632 3.304-9.363 2.191-15.472 1.648-17.442-12.253.578-15.258 6.702-15.979 9.342Z"/>
  <path fill="#D7099C" d="M358.594 175.821s-12.239 20.804-23.394 37.953c-11.154 17.149-12.96 23.194-18.912 27.348-5.952 4.153-39.53 25.356-46.938 31.201-7.043 5.56-11.04 6.516-11.418 6.594 7.515-7.136 36.29-34.826 37.824-36.853.928-1.213 8.45-15.615 15.508-31.466 0 0 6.259-3.568 10.105-9.399 3.112-4.717 5.217-13.003 10.47-19.49 1.257-1.562 2.695-2.97 4.282-4.196 8.614-6.602 17.913-5.196 22.473-1.692Z"/>
  <path fill="#E0259C" d="M358.594 175.821s-18.848-.599-34.513 32.865c-8.671 18.555-10.926 16.778-16.857 20.939-5.93 4.16-31.779 33.799-39.18 39.644-7.044 5.559-9.713 9.57-10.084 9.648 7.515-7.136 36.29-34.826 37.824-36.853.928-1.213 8.45-15.615 15.508-31.466 0 0 6.259-3.568 10.106-9.399 3.111-4.717 5.217-13.003 10.469-19.49 1.258-1.562 2.695-2.97 4.282-4.196 8.586-6.602 17.885-5.196 22.445-1.692Z"/>
  <path fill="#412D87" d="m254.456 280.759 2.769-2.619c8.343-7.908 36.304-34.87 37.739-36.733.87-1.134 8.3-15.329 15.379-31.244l.143-.314.307-.178c.057-.036 6.087-3.533 9.741-9.064 1.303-2.175 2.439-4.447 3.397-6.794 1.813-4.104 3.868-8.75 7.137-12.775 1.303-1.625 2.793-3.091 4.439-4.367 8.514-6.559 18.391-5.817 23.744-1.699l.749.578-.478.814c-.121.207-12.375 21.017-23.415 37.995-3.804 5.838-6.509 10.377-8.679 14.017-4.282 7.136-6.423 10.748-10.498 13.617-2.141 1.484-7.779 5.152-14.337 9.406-11.733 7.6-27.833 18.02-32.55 21.766-7.201 5.71-11.419 6.702-11.854 6.802l-3.733.792Zm57.707-69.411c-6.887 15.436-14.416 29.974-15.501 31.365-1.427 1.82-22.601 22.281-33.292 32.522 1.853-1.144 3.635-2.397 5.338-3.754 4.824-3.804 20.29-13.831 32.714-21.881 6.545-4.239 12.19-7.9 14.274-9.356 3.711-2.605 5.773-6.066 9.884-12.96 2.184-3.661 4.903-8.214 8.721-14.095 9.749-14.987 20.446-32.964 22.837-37.053-4.132-2.605-12.339-3.947-20.361 2.226-1.512 1.176-2.882 2.525-4.082 4.018-3.083 3.811-5.074 8.321-6.837 12.297-1 2.468-2.193 4.855-3.568 7.136-3.468 5.267-8.785 8.75-10.127 9.535ZM142.718 268.919c13.577-6.549 27.982-11.218 42.819-13.881 9.278-1.705 19.091-2.369 28.347.114 1.513.372 3.847 1.021 5.367 1.278 3.448.569 6.985-.117 9.97-1.934 2.423-2.068 4.96-3.998 7.6-5.781 5.196-3.611 10.834-6.744 16.044-10.227.642-.394 1.214-.893 1.691-1.477.375-2.025.528-4.086.457-6.145h2.141c-.057 2.391.228 4.996-.65 7.308-.63.87-1.422 1.609-2.333 2.177-7.851 5.331-16.336 9.834-23.494 15.993-3.486 2.229-7.675 3.084-11.754 2.398-.857-.128-2.006-.428-2.855-.649-6.178-1.924-12.651-2.729-19.112-2.377-7.429.357-14.773 1.841-22.045 3.419-11.005 2.333-21.681 5.859-32.201 9.798l.008-.014Z"/>
  <path stroke="#8D29FF" stroke-miterlimit="10" stroke-width="3" d="M208.582 211.804c-.133.172-.257.351-.371.536"/>
  <path fill="#412D87" d="M207.618 212.268c-1.113-2.072-1.777-4.355-1.948-6.701h.086c1.664 1.639 2.963 3.611 3.811 5.788l-1.927.927-.022-.014Z"/>
  <path fill="#fff" fill-rule="evenodd" d="M62.0379 263.424s-12.4891 44.054 30.8731 82.899l23.886-17.785-.471-1.719s-28.1894-13.032-26.0127-64.808l-.7137-2.734-27.5617 4.147Z" clip-rule="evenodd"/>
  <path fill="#FFF66F" d="M157.333 144.499s14.388-3.319 10.577-17.992c0 0 2.955 14.481 15.294 11.276 0 0-12.511 4.996-9.899 15.051 0 0-2.697-11.782-15.972-8.335ZM300.309 21.0206s-4.874 19.0834 14.859 23.551c0 0-18.977-5.3525-22.731 11.233 0 0 1.735-17.8844-11.789-20.946 0-.0072 15.658 4.0036 19.661-13.838Z"/>
  <path fill="#B30781" stroke="#412D87" stroke-miterlimit="10" stroke-width="2" d="m235.644 72.5471-13.16 7.365s-15.701 10.2483-17.128 34.1849c-1.527 26.327 15.372 53.453 41.614 60.062 7.522 1.898 15.385 1.999 22.954.295 7.569-1.703 14.631-5.163 20.615-10.101 0 0 .4-.321.392-.336l-55.287-91.4699Z"/>
  <path fill="#D7099C" stroke="#412D87" stroke-miterlimit="10" stroke-width="2" d="M311.292 121.355c1.256 25.692-15.565 48.629-41.314 48.629-30.687 0-52.954-25.649-53.938-54.467-.9-26.4843 12.589-49.8853 45.474-48.7292 25.057.8564 48.451 28.0684 49.778 54.5672Z"/>
  <path fill="#E0259C" d="M259.045 103.106c-14.452 66.806 35.755 65.9 10.477 65.9-30.146 0-51.977-25.178-52.94-53.461-.892-26.0056 12.353-48.9713 44.632-47.8152 24.636.8493 3.876 7.4007-2.169 35.3762Z"/>
  <path fill="#412D87" d="M272.99 84.8007c.405-.0551.816.0463 1.149.2837.333.2374.563.5928.642.9937.479 2.141.928 4.282 1.335 6.4658.036.1997.028.4046-.021.6012-.05.1966-.141.3804-.267.5391-.126.1587-.285.2886-.466.3812-.18.0926-.378.1456-.581.1556-1.184.1713-2.369.3569-3.568.4996-.471.0571-.585.2355-.471.7137.171.6565.307 1.3203.414 1.984.071.4496.278.5852.714.5209 1.034-.1712 2.069-.3068 3.104-.471 1.563-.2498 2.184.1499 2.512 1.6985.264 1.2343.521 2.4763.757 3.7183.078.428.257.578.713.507 1.528-.25 3.062-.464 4.589-.714 1.527-.25 2.141.186 2.469 1.684.372 1.77.75 3.569 1.1 5.317.085.45.256.55.713.478 1.549-.25 3.105-.449 4.66-.713 1.556-.265 2.099.242 2.398 1.698 1.428 7.044 2.891 14.088 4.368 21.132.257 1.227-.086 2.141-1.599 2.29-1.513.15-3.154.422-4.724.664-1.349.207-2.048-.228-2.327-1.541-.542-2.584-1.07-5.167-1.584-7.751-.278-1.384-.271-1.427-1.663-1.22-.821.107-1.634.264-2.455.35-.457.05-.521.242-.435.656.585 2.748 1.142 5.503 1.705 8.257.043.214.086.428.122.643.053.197.062.403.026.604-.037.201-.117.391-.236.557-.119.166-.273.304-.451.403-.179.099-.377.157-.581.17-1.185.192-2.369.371-3.568.514-.514.064-.678.221-.55.756.293 1.249.535 2.512.792 3.775.257 1.264-.207 1.963-1.505 2.141l-5.182.714c-.41.087-.839.007-1.191-.222-.352-.229-.598-.588-.686-.998-.471-2.141-.92-4.282-1.32-6.423-.059-.203-.071-.416-.034-.624.036-.208.12-.404.245-.574.125-.17.288-.309.475-.405.188-.097.395-.149.606-.153 1.156-.193 2.326-.364 3.49-.514.514-.064.671-.264.535-.771-.171-.656-.293-1.32-.421-1.983-.072-.372-.214-.493-.621-.436-3.34.5-6.687.964-10.034 1.427-2.519.364-5.046.714-7.572 1.085-.528.072-.664.257-.528.764.164.635.299 1.277.399 1.92.072.442.257.585.714.513 1.056-.178 2.141-.314 3.169-.478 1.384-.221 2.076.229 2.362 1.585.414 1.962.821 3.925 1.206 5.895.071.213.09.44.057.663-.034.222-.12.433-.25.616-.131.183-.303.333-.503.436-.199.104-.421.159-.646.161l-5.174.757c-.238.071-.489.088-.734.049-.246-.038-.479-.131-.685-.271-.205-.14-.376-.324-.501-.539-.125-.215-.2-.454-.221-.702-.278-1.278-.535-2.562-.785-3.847-.1-.506-.264-.713-.87-.621-1.085.222-2.198.322-3.298.471-.242.072-.498.088-.747.046-.249-.041-.486-.139-.692-.285-.206-.147-.377-.338-.498-.56-.122-.222-.191-.468-.204-.721-.585-2.593-1.139-5.236-1.662-7.928-.25-1.228-.236-1.221-1.485-1.021-.792.136-1.591.25-2.398.328-.535.057-.713.221-.606.828.606 2.791 1.163 5.588 1.741 8.386.285 1.363-.143 1.977-1.499 2.176l-5.045.714c-.242.059-.494.064-.737.015-.244-.049-.474-.151-.675-.299-.2-.147-.365-.337-.484-.556-.118-.218-.188-.46-.202-.709-.747-3.601-1.49-7.21-2.227-10.826-.733-3.54-1.465-7.082-2.198-10.626-.257-1.249.178-1.92 1.427-2.141 1.549-.236 3.105-.471 4.66-.664.607-.071.757-.293.628-.885-.385-1.684-.713-3.376-1.063-5.06-.321-1.52.064-2.098 1.606-2.334 1.541-.235 3.061-.463 4.596-.656.514-.064.599-.279.499-.714-.285-1.299-.549-2.605-.82-3.904-.082-.222-.109-.461-.078-.696.031-.235.118-.459.254-.654.136-.194.316-.352.527-.461.21-.11.444-.166.681-.165 1.163-.172 2.327-.357 3.497-.5.45-.05.542-.221.443-.642-.169-.6311-.295-1.2725-.379-1.9201-.071-.6066-.378-.7136-.899-.6066-1.049.1784-2.141.314-3.169.4782-1.298.1998-1.976-.2498-2.248-1.5629-.413-1.9602-.818-3.9252-1.213-5.8949-.08-.2188-.106-.4539-.075-.6849.032-.2309.119-.4507.255-.6401s.316-.3426.525-.4463c.209-.1037.44-.1546.673-.1485 1.641-.2355 3.282-.471 4.917-.7136 1.427-.2141 2.105.2355 2.398 1.62.257 1.2418.513 2.4764.756 3.7182.093.4995.286.7136.842.5923 1.156-.2141 2.327-.3568 3.49-.5067.215-.0452.436-.0462.651-.0028.216.0434.42.1302.6.2551.18.125.333.2854.45.4715.116.186.193.3939.226.6108.293 1.2988.564 2.6048.792 3.9109.107.578.321.8135.949.7136.985-.1855 1.984-.3069 2.976-.4282.471-.0642.621-.2498.514-.7137-.293-1.2703-.542-2.5549-.792-3.8395-.25-1.2846.214-1.9126 1.477-2.0839 1.128-.1427 2.241-.3425 3.369-.4781.435-.05.542-.2141.449-.6352-.292-1.3417-.556-2.6905-.82-4.0393-.082-.218-.109-.4526-.079-.6834s.116-.4507.25-.6407c.135-.19.314-.3443.521-.4493.208-.1051.438-.1578.671-.1535l5.452-.8207Zm-19.504 28.6533c-1.592.236-3.426.514-5.26.771-1.228.178-1.72.828-1.477 2.034.399 1.965.808 3.928 1.227 5.888.018.258.094.509.222.734.128.225.306.418.519.565.214.147.457.244.713.283.256.04.518.021.766-.055 1.698-.257 3.404-.5 5.109-.714.232.012.462-.033.672-.131.21-.097.393-.244.534-.428.14-.184.234-.4.273-.628.038-.228.021-.462-.051-.682-.4-2.141-.849-4.225-1.306-6.338-.099-.422-.355-.79-.715-1.031-.36-.241-.798-.337-1.226-.268Zm24.664-3.568-5.424.792c-.229-.004-.455.047-.66.149-.205.102-.382.251-.517.436s-.224.399-.259.625c-.035.226-.015.457.059.674.399 2.048.835 4.097 1.284 6.138.024.245.103.481.229.692.127.212.299.392.504.528.205.137.437.226.681.262.243.036.492.017.727-.055l5.239-.756c.208-.008.412-.062.597-.157.186-.095.348-.229.476-.394s.218-.355.265-.559c.046-.203.047-.414.003-.617-.399-2.184-.856-4.361-1.334-6.531-.113-.399-.371-.741-.724-.959-.353-.218-.774-.296-1.182-.218l.036-.05Z"/>
  <path fill="#412D87" d="M250.802 120.305c-.078-.085-.257-.214-.293-.371-.185-.763-.356-1.527-.478-2.298.013-.097.05-.19.109-.268.059-.079.137-.142.227-.181.642-.136 1.291-.186 1.934-.3.399-.071.549.1.614.464.128.714.306 1.356.406 2.041 0 .186-.135.549-.264.571-.699.15-1.413.221-2.255.342ZM278.057 116.359c-.899.135-1.706.271-2.519.364-.086-.01-.167-.041-.237-.091-.07-.05-.126-.117-.163-.195-.19-.775-.354-1.56-.492-2.355.004-.092.033-.181.083-.259.05-.078.12-.141.202-.183.681-.135 1.37-.23 2.063-.286.095.004.188.031.271.079.082.049.151.118.2.2.221.878.392 1.77.592 2.726Z"/>
  <path fill="#B30781" stroke="#412D87" stroke-miterlimit="10" stroke-width="2" d="m198.191 22.9474 5.959 3.3328s7.137 4.6388 7.736 15.4722c.714 11.9182-6.951 24.1933-18.834 27.1835-3.404.8588-6.963.9044-10.388.1333-3.426-.7712-6.622-2.3374-9.33-4.5723-.06-.0463-.117-.0964-.171-.1498 0 0 14.558-6.6228 20.76-16.8782 6.309-10.4409 4.268-24.5215 4.268-24.5215Z"/>
  <path fill="#D7099C" stroke="#412D87" stroke-miterlimit="10" stroke-width="2" d="M163.956 45.0282c-.571 11.6327 7.044 22.0094 18.698 22.0094 13.903 0 23.965-11.6113 24.415-24.65.407-11.9895-5.709-22.5803-20.582-22.0593-11.355.3996-21.945 12.7175-22.531 24.6999Z"/>
  <path fill="#E0CBC5" d="M224.868 83.5303c-7.779 16.7207-8.843 36.6397-1.506 53.6817 2.469 5.679 5.543 11.075 9.17 16.093-4.34-4.554-7.951-9.751-10.704-15.408-8.315-17.014-7.137-38.3949 3.033-54.3667h.007ZM195.636 22.9474c2.799 1.1688 5.259 3.0236 7.152 5.3934 1.893 2.3698 3.159 5.1782 3.681 8.1662.381 2.4007.398 4.8451.05 7.2508-1.563 10.5123-8.699 21.5741-19.968 22.9658 2.35-.43 4.6-1.2914 6.637-2.5407 9.577-5.5523 15.451-20.4465 11.818-30.9659-1.696-4.4948-5.049-8.1696-9.37-10.2696Z"/>
</svg>