<svg xmlns="http://www.w3.org/2000/svg" fill="none" viewBox="0 0 408 368">
  <path fill="#F6ECD8" d="M290.055 146.824c-.002-.193-.061-.38-.17-.539-.109-.159-.263-.282-.442-.353-.179-.072-.375-.089-.564-.05-.189.04-.362.134-.497.271-.135.138-.226.312-.262.501-.036.189-.015.384.06.562.075.177.201.328.362.434.161.105.35.161.543.16.26-.003.507-.109.689-.293.182-.185.283-.434.281-.693ZM277.144 205.765c-.002.111-.038.219-.101.309-.063.091-.152.162-.256.202-.103.041-.216.051-.324.028-.109-.024-.208-.078-.286-.157-.078-.079-.13-.18-.151-.288-.021-.109-.009-.222.034-.324.043-.102.115-.189.208-.251.092-.061.201-.094.312-.094.075.001.149.017.218.046.068.029.131.072.183.125.053.054.094.117.122.186.028.069.042.143.041.218ZM292.093 228.313c.001.032-.005.063-.016.092-.012.03-.029.056-.051.079-.022.022-.048.04-.077.053-.03.012-.061.018-.092.018-.065 0-.126-.025-.172-.071-.045-.045-.071-.107-.071-.171 0-.065.025-.127.071-.173.045-.047.107-.073.172-.075.031.001.063.008.092.021.029.013.055.031.077.054s.04.05.051.08c.011.03.017.061.016.093ZM290.055 251.744c-.002.193-.061.38-.17.539-.109.159-.263.282-.442.353-.179.072-.375.089-.564.05-.189-.04-.362-.134-.497-.271s-.226-.312-.262-.501c-.036-.189-.015-.384.06-.561.075-.178.201-.329.362-.434.161-.106.35-.162.543-.161.26.003.507.109.689.294.182.184.283.433.281.692ZM302.403 273.239c-.003.13-.043.257-.117.363-.074.107-.178.19-.299.238-.121.048-.254.059-.381.033-.128-.027-.244-.091-.336-.184-.091-.092-.153-.21-.177-.337-.025-.128-.011-.26.039-.38.051-.12.135-.222.244-.294.108-.072.236-.11.366-.11.087 0 .174.018.255.053.08.034.153.083.215.146.061.062.11.136.142.217.033.081.05.168.049.255ZM283.694 327.267c0 .12-.036.237-.103.336-.066.1-.161.177-.272.223-.111.046-.233.058-.35.035-.118-.024-.226-.081-.311-.166-.084-.085-.142-.193-.166-.31-.023-.117-.011-.239.035-.35.046-.11.124-.205.223-.271.1-.067.217-.102.337-.102.161 0 .315.064.429.177.114.114.178.268.178.428ZM276.077 291.309c0 .12-.036.237-.103.336-.066.1-.161.177-.272.223-.111.046-.233.058-.35.035-.118-.024-.226-.081-.311-.166-.085-.085-.142-.192-.166-.31-.023-.117-.011-.239.035-.349.046-.111.123-.206.223-.272.1-.067.217-.102.337-.102.161 0 .315.064.429.177.114.114.178.268.178.428ZM170.244 102.569c-.003.111-.038.219-.101.31-.064.091-.152.161-.256.202-.103.04-.216.05-.325.027-.108-.023-.208-.078-.285-.157-.078-.079-.13-.18-.151-.288-.021-.109-.009-.222.034-.324.043-.102.115-.189.208-.251.092-.061.201-.094.312-.094.15.004.294.066.399.173.106.107.165.252.165.402ZM185.193 125.117c.001.032-.005.063-.016.092-.012.03-.029.056-.051.079-.022.023-.049.04-.078.053-.029.012-.06.018-.092.018-.058-.009-.111-.039-.15-.084-.038-.045-.06-.102-.06-.161 0-.059.022-.116.06-.161.039-.045.092-.075.15-.084.032.001.064.008.093.021.029.013.055.031.077.054s.039.05.051.08c.011.03.017.061.016.093ZM183.155 148.548c-.002.193-.062.38-.171.539-.109.159-.262.282-.441.353-.179.072-.376.089-.564.05-.189-.04-.362-.134-.497-.271-.135-.138-.226-.312-.262-.501-.036-.189-.015-.384.06-.561.075-.178.201-.329.362-.435.161-.105.35-.161.543-.16.259.003.507.109.689.294.182.184.283.433.281.692ZM195.497 170.043c-.003.13-.044.257-.118.364-.074.107-.179.19-.3.238-.121.047-.254.058-.382.031-.127-.027-.244-.092-.335-.185-.091-.093-.152-.211-.176-.339-.024-.128-.009-.26.042-.38.051-.12.137-.222.246-.293.109-.071.237-.109.368-.107.087 0 .173.018.254.053.08.034.153.084.213.146.061.063.109.137.141.218.033.081.048.167.047.254ZM176.787 224.071c0 .12-.035.237-.102.336-.066.1-.161.177-.272.223-.111.046-.233.058-.35.035-.118-.024-.226-.081-.311-.166-.085-.085-.142-.193-.166-.31-.023-.117-.011-.239.035-.35.046-.11.123-.205.223-.271.1-.067.217-.102.337-.102.161 0 .315.064.429.177.114.114.177.268.177.428ZM169.176 188.113c0 .12-.035.237-.102.336-.066.1-.161.177-.272.223-.111.046-.233.058-.35.035-.118-.024-.226-.081-.311-.166-.085-.085-.142-.192-.166-.31-.023-.117-.011-.239.035-.349.046-.111.123-.206.223-.272.1-.067.217-.102.337-.102.161 0 .315.064.429.177.114.114.177.268.177.428ZM148.702 114.497c-.002.11-.037.218-.101.309-.063.091-.152.161-.255.202-.103.041-.216.05-.325.027-.109-.023-.208-.078-.286-.157-.077-.079-.13-.179-.151-.288-.02-.109-.008-.221.035-.324.043-.102.115-.189.207-.25.093-.061.201-.094.312-.094.075.001.149.016.218.045.069.03.131.072.184.126.052.053.093.116.121.185.028.07.042.144.041.219ZM163.658 137.045c-.002.047-.017.093-.044.132-.028.039-.066.069-.11.087-.045.017-.093.021-.14.011-.047-.01-.089-.033-.123-.067-.033-.034-.055-.078-.064-.124-.009-.047-.004-.096.015-.139.018-.044.049-.082.089-.108.04-.026.086-.04.134-.04.032-.001.064.006.094.018.03.013.057.031.08.055.022.023.04.05.052.08.012.03.017.062.017.095ZM161.626 160.452c-.004.19-.064.376-.172.533-.109.156-.262.278-.439.348-.178.071-.373.087-.56.048-.187-.039-.358-.133-.492-.269s-.224-.309-.26-.496c-.036-.187-.016-.381.058-.557.074-.176.198-.326.357-.432.16-.105.347-.162.538-.162.128.001.256.027.374.077.119.05.226.123.316.215.091.092.162.2.21.32.048.119.072.246.07.375ZM173.961 181.971c-.002.13-.043.256-.117.363-.074.107-.178.189-.299.238-.121.048-.254.059-.381.032-.127-.027-.244-.09-.335-.183-.092-.093-.153-.21-.178-.338-.024-.128-.011-.26.04-.379.05-.12.135-.223.243-.295.109-.072.236-.11.366-.11.088.001.174.019.255.053.081.034.154.084.215.146.062.063.11.137.143.218.033.081.049.167.048.255ZM155.258 235.998c0 .12-.035.237-.102.337-.067.099-.161.177-.272.223-.111.045-.233.057-.351.034-.117-.023-.225-.081-.31-.166-.085-.084-.143-.192-.166-.309-.023-.118-.011-.24.034-.35.046-.111.124-.205.224-.272.1-.066.217-.102.337-.102.161 0 .315.064.429.178.113.113.177.267.177.427ZM147.635 200.041c0 .16-.064.314-.178.427-.113.114-.268.178-.428.178-.161 0-.316-.064-.429-.178-.114-.113-.178-.267-.178-.427 0-.161.064-.315.178-.428.113-.114.268-.178.429-.178.16 0 .315.064.428.178.114.113.178.267.178.428ZM99.2216 127.695c-.0036-.191-.0636-.376-.1723-.533-.1088-.157-.2616-.278-.4392-.348-.1776-.071-.3721-.088-.5591-.048-.187.039-.3582.133-.4921.269-.1339.136-.2245.309-.2605.496-.036.187-.0157.381.0582.557.074.176.1983.326.3575.431.1591.106.346.162.5371.162.2595-.003.5072-.108.689-.293.1818-.185.283-.434.2814-.693ZM86.3101 186.636c-.0012.112-.0353.22-.098.311-.0627.092-.1512.163-.2543.205-.1032.042-.2164.052-.3254.03-.109-.023-.2089-.077-.2872-.156-.0783-.079-.1314-.179-.1527-.288-.0212-.109-.0097-.222.0331-.324.0429-.103.1152-.19.2078-.252.0926-.062.2014-.094.3127-.094.1501.001.2936.062.3992.168.1056.107.1648.251.1648.4ZM101.265 209.184c0 .065-.025.126-.071.171-.045.046-.107.071-.171.071-.065 0-.126-.025-.172-.071-.045-.045-.071-.106-.071-.171 0-.064.026-.125.071-.171.046-.045.107-.071.172-.071.032 0 .063.007.093.019.029.012.056.03.078.052.023.023.041.049.053.079.012.029.018.061.018.092ZM99.2216 232.622c-.0048.19-.0657.375-.1752.531-.1095.156-.2626.276-.4403.346-.1777.069-.372.085-.5586.045-.1866-.04-.3572-.134-.4905-.27-.1333-.137-.2233-.309-.2588-.496-.0355-.187-.0149-.381.0592-.556.0741-.176.1984-.326.3574-.431.159-.105.3456-.162.5365-.162.129.002.2564.029.375.08.1186.05.2261.124.3162.216.0901.092.1611.201.209.321.0479.119.0717.247.0701.376ZM111.569 254.111c-.002.129-.043.256-.117.363-.074.107-.178.189-.299.237-.121.048-.254.06-.381.033-.128-.027-.244-.091-.336-.183-.091-.093-.153-.211-.177-.338-.025-.128-.011-.26.04-.38.05-.12.135-.222.243-.294.108-.072.236-.11.366-.11.088.001.174.019.255.053.08.034.154.084.215.146.061.062.11.136.143.217.032.081.049.168.048.256ZM92.8598 308.138c0 .12-.0355.237-.1022.337-.0666.099-.1613.177-.2721.222-.1109.046-.2328.058-.3504.035-.1177-.024-.2257-.081-.3106-.166-.0848-.084-.1425-.192-.1659-.31-.0234-.117-.0114-.239.0345-.349.0459-.111.1236-.205.2233-.272.0998-.066.217-.102.337-.102.1608 0 .3151.064.4288.177.1137.114.1776.268.1776.428ZM85.2427 272.18c0 .161-.0639.315-.1776.428-.1138.114-.268.177-.4289.177-.1608 0-.3151-.063-.4288-.177-.1137-.113-.1776-.267-.1776-.428 0-.16.0639-.314.1776-.428.1137-.113.268-.177.4288-.177.1609 0 .3151.064.4289.177.1137.114.1776.268.1776.428ZM79.3358 98.7266c-.0036-.1918-.0639-.3784-.1733-.5362-.1095-.1578-.2632-.2799-.4419-.3508-.1787-.071-.3744-.0877-.5626-.0481-.1882.0396-.3604.1338-.4952.2708-.1347.1369-.2259.3105-.2621.499-.0363.1885-.0159.3834.0585.5604.0744.177.1995.3281.3597.4344.1601.1062.3482.163.5405.163.2611-.0032.5104-.1094.6933-.2953.183-.186.2847-.4366.2831-.6972ZM66.4123 157.656c-.0024.111-.0377.219-.1014.31-.0636.091-.1529.161-.2565.202-.1036.04-.2169.049-.3257.026-.1087-.024-.208-.079-.2855-.159-.0774-.08-.1294-.18-.1495-.29-.0201-.109-.0074-.222.0365-.324.044-.102.1172-.188.2105-.249.0932-.06.2024-.092.3136-.091.0746.001.1483.016.2168.046.0686.029.1306.072.1825.125.0518.054.0926.117.1198.186.0273.069.0405.143.0389.218ZM81.3736 180.198c.0055.034.0034.07-.0061.103-.0095.034-.0262.065-.0489.092-.0228.027-.0511.048-.083.063-.0318.014-.0665.022-.1016.022-.0351 0-.0698-.008-.1016-.022-.0319-.015-.0602-.036-.083-.063-.0227-.027-.0394-.058-.0489-.092-.0095-.033-.0116-.069-.0061-.103-.0055-.035-.0034-.07.0061-.104.0095-.034.0262-.065.0489-.091.0228-.027.0511-.048.083-.063.0318-.015.0665-.022.1016-.022.0351 0 .0698.007.1016.022.0319.015.0602.036.083.063.0227.026.0394.057.0489.091.0095.034.0116.069.0061.104ZM79.3358 203.635c-.0036.192-.0639.379-.1733.536-.1095.158-.2632.28-.4419.351-.1787.071-.3744.088-.5626.048-.1882-.039-.3604-.134-.4952-.27-.1347-.137-.2259-.311-.2621-.5-.0363-.188-.0159-.383.0585-.56.0744-.177.1995-.328.3597-.434.1601-.107.3482-.163.5405-.163.1295 0 .2576.027.3769.077.1193.051.2275.124.3182.216.0907.092.1623.202.2106.322.0483.12.0723.248.0707.377ZM91.6773 225.124c-.0024.13-.0432.256-.1173.363-.0741.107-.1781.19-.2991.238-.121.048-.2535.059-.3809.032-.1274-.027-.2441-.09-.3353-.183-.0913-.093-.153-.21-.1776-.338-.0245-.128-.0107-.26.0396-.379.0504-.12.1351-.222.2436-.294.1084-.072.2357-.111.3659-.111.1764.003.3446.076.4682.201.1236.126.1929.295.1929.471ZM72.9741 279.152c.0203.088.0202.18-.0001.269-.0203.088-.0603.171-.1171.242-.0568.072-.1289.129-.211.168-.0821.04-.172.06-.2631.06-.0911 0-.181-.02-.2631-.06-.082-.039-.1542-.096-.211-.168-.0568-.071-.0968-.154-.1171-.242-.0203-.089-.0203-.181-.0001-.269-.0202-.089-.0202-.181.0001-.27.0203-.088.0603-.171.1171-.242.0568-.071.129-.129.211-.168.0821-.04.172-.06.2631-.06.0911 0 .181.02.2631.06.0821.039.1542.097.211.168.0568.071.0968.154.1171.242.0203.089.0204.181.0001.27ZM65.3509 243.194c0 .119-.0355.236-.1022.336-.0666.099-.1613.177-.2721.223-.1108.046-.2328.058-.3504.034-.1177-.023-.2257-.081-.3105-.165-.0849-.085-.1426-.193-.166-.31-.0234-.118-.0114-.239.0345-.35.0459-.11.1236-.205.2234-.271.0997-.067.2169-.102.3369-.102.1608 0 .3151.063.4288.177.1138.113.1776.267.1776.428Z"/>
  <path fill="#D7099C" d="M289.9 281.347c47.552-47.449 47.552-124.38 0-171.829-47.552-47.4494-124.649-47.4494-172.201 0-47.5523 47.449-47.5523 124.38 0 171.829 47.552 47.45 124.649 47.45 172.201 0Z"/>
  <path fill="#fff" d="M89.2878 241.874c-19.2368-44.296-8.448-98.905 25.7012-133.005 61.459-62.4153 167.14-41.9975 200.98 38.729 33.616 80.818-26.223 170.047-113.917 169.696-48.31.194-94.789-30.578-112.7642-75.414v-.006Zm.2001-.078c18.0481 44.575 64.4001 75.268 112.5641 74.663 86.372-.175 145.259-88.503 111.922-168.038-33.149-79.607-137.466-100.055-198.39-38.965-34.3379 33.707-45.1267 88.164-26.0779 132.34h-.0182Z"/>
  <path fill="#E84AAD" d="M297.604 183.181c4.942-1.273 7.441-8.129 5.582-15.313-1.859-7.184-7.373-11.975-12.315-10.702-4.943 1.274-7.442 8.13-5.583 15.314 1.859 7.184 7.373 11.975 12.316 10.701ZM252.115 162.558c4.561-2.294 10.971 1.21 14.319 7.867 3.348 6.656 2.377 13.851-2.183 16.145-4.561 2.293-10.965-1.21-14.319-7.831-3.354-6.62-2.371-13.882 2.183-16.181ZM250.775 121.117c3.142-2.082 7.278-1.652 10.583-.212 7.01 3.147 12.384 9.634 13.542 17.441 1.352 10.656-8.06 16.944-17.405 11.594-6.78-4.054-10.735-11.498-10.971-19.147-.055-3.631 1.122-7.576 4.245-9.682l.006.006Zm.158.242c-3.032 2.039-4.033 5.918-3.748 9.386.366 3.543 1.599 6.941 3.592 9.896 1.992 2.955 4.683 5.375 7.834 7.048 7.653 3.843 14.397-.647 13.772-9.186-.343-3.546-1.555-6.953-3.53-9.92-1.974-2.968-4.651-5.405-7.792-7.097-3.099-1.591-7.084-2.13-10.128-.139v.012ZM154.791 145.323c7.357.805 12.524 8.629 11.553 17.471-.97 8.841-7.726 15.352-15.076 14.523-7.351-.829-12.53-8.629-11.523-17.47 1.007-8.842 7.696-15.329 15.046-14.524ZM210.434 197.021c12.529 1.277 19.152 16.188 14.264 27.232-5.634 13.44-23.258 15.776-31.36 3.267-8.309-12.823 1.304-32.006 17.096-30.487v-.012Zm-.031.284c-15.07-1.331-23.348 17.132-15.016 28.769 1.255 1.853 2.899 3.411 4.818 4.567 1.919 1.155 4.067 1.88 6.295 2.125 2.228.244 4.482.001 6.607-.711 2.124-.713 4.068-1.878 5.696-3.415 10.667-9.555 6.604-29.368-8.4-31.335ZM133.899 123.653c3.778 2.099 4.384 7.074 3.802 10.983-.673 4.345-2.589 8.375-6.246 11.256-6.756 5.15-14.925.871-14.507-7.607.304-4.635 2.535-8.472 5.737-11.498 2.887-2.699 7.332-5.028 11.214-3.116v-.018Zm-.14.254c-2.371-1.211-5.227-.454-7.35.968-2.14 1.503-3.889 3.497-5.098 5.813-1.209 2.317-1.844 4.888-1.852 7.5.121 6.27 5.373 9.023 10.625 5.562 2.157-1.489 3.923-3.472 5.152-5.784 1.228-2.311 1.882-4.883 1.907-7.499-.036-2.548-1.037-5.326-3.384-6.59v.03ZM121.406 237.306c3.984-.932 7.629 2.081 9.752 5.18 2.353 3.473 3.596 7.546 2.826 11.921-1.486 7.867-10.116 10.142-15.277 3.928-2.79-3.456-3.675-7.607-3.311-11.783.351-3.74 2.074-8.139 6.01-9.246Zm.073.278c-2.426.66-3.985 2.959-4.591 5.295-.567 2.407-.531 4.917.103 7.307.635 2.39 1.849 4.588 3.535 6.4 4.082 4.236 9.534 2.832 11.05-2.851.592-2.4.583-4.908-.026-7.304-.609-2.395-1.8-4.604-3.467-6.432-1.662-1.749-4.136-3.026-6.58-2.421l-.024.006ZM102.969 204.246c4.13-1.059 8.739 2.941 10.31 8.944 1.571 6.004-.533 11.734-4.663 12.799-4.13 1.065-8.7395-2.941-10.3102-8.944-1.5707-6.003.5337-11.734 4.6632-12.799ZM259.872 263.037c3.032 3.025 1.929 8.998-2.456 13.391-4.385 4.394-10.383 5.532-13.409 2.53-3.026-3.002-1.922-8.999 2.456-13.398 4.379-4.399 10.407-5.525 13.409-2.523ZM214.77 300.435c4.245.32 7.55 2.535 7.368 4.95-.182 2.414-3.778 4.115-8.029 3.794-4.251-.321-7.557-2.535-7.375-4.95.182-2.415 3.779-4.115 8.036-3.794ZM282.693 251.902c2.426 1.21 2.941 5.077 1.146 8.605-1.795 3.528-5.203 5.38-7.629 4.157-2.426-1.222-2.935-5.077-1.146-8.599 1.789-3.522 5.209-5.386 7.629-4.163ZM221.277 83.7369c-.491 1.9547 3.451 4.6113 8.794 5.9426 5.343 1.3313 10.073.823 10.558-1.1316.485-1.9547-3.451-4.6113-8.793-5.9426-5.343-1.3313-10.074-.823-10.559 1.1316ZM162.178 98.3695c1.025 4.0185 8.806 5.5125 17.375 3.3285 8.569-2.1847 14.688-7.2014 13.663-11.2196-1.025-4.0182-8.805-5.5129-17.381-3.3344-8.575 2.1786-14.682 7.2073-13.657 11.2255ZM153.694 245.639c5.215-3.299 13.342.175 18.193 7.758 4.852 7.582 4.494 16.411-.721 19.709-5.216 3.298-13.343-.169-18.194-7.758-4.852-7.588-4.5-16.405.722-19.709Z"/>
  <path fill="#412D87" d="m140.655 136.905 1.498 4.321 11.249 37.411 3.112 8.689 8.751 26.161-4.385 2.421-6.107 1.815-10.31-34.342-13.742-42.361c-.055-.472.039-.95.271-1.366.232-.416.589-.749 1.021-.951 1.66-.713 3.356-1.337 5.082-1.87 0 0 3.954-.829 3.56.072ZM113.237 227.526l3.584 8.243 3.505 7.655 2.396 3.782 1.989 7.231 7.848 26.47 6.428 21.373 3.954 13.55 3.912 11.703 2.996 1.719 24.252 3.044 26.502-5.077 3.621-9.217-.164-13.089-1.031-35.014-.77-29.368-.073-5.41.819-2.348.861-6.457.552-4.478 1.94-5.289-55.679 14.578-37.442-3.601Z"/>
  <path fill="#96C3FF" d="M197.856 253.282c.279-.805 0-1.61 0-2.421-.031-2.281-.249-4.557-.358-6.838-.109-2.282-.17-4.484-.255-6.723 0-.333-.091-.66-.109-.993-.09-.731.041-1.473.376-2.13.666-1.358 1.077-2.827 1.213-4.333.133-.871.237-1.749.376-2.62.17-1.573.17-3.16 0-4.732-.154-1.136-.422-2.253-.801-3.335-.491-1.815-1.164-3.631-1.77-5.446-.031-.091-.146-.157-.219-.23-.424 0-.558.339-.709.605-1.892 3.461-4.779 6.009-7.854 8.333-2.486 1.876-4.852 3.861-7.277 5.858-3.639 3.056-7.836 4.429-12.548 4.672-4.555.203-9.115-.245-13.542-1.332-3.319-.798-6.748-1.041-10.146-.72-2.177.212-4.088 1.259-6.034 2.16-2.972 1.368-5.598 3.311-8.382 5.005-1.423.864-2.914 1.612-4.457 2.239-.394.163-.995.17-.977.841.48 1.396 1.265 2.667 2.299 3.722.94.926 1.213 2.057 1.54 3.201.552 1.9 1.043 3.819 1.583 5.725.2.702.134 1.476.607 2.1.22.199.494.33.788.375 3.718.345 6.926 2.118 10.182 3.703 3.16 1.538 6.186 3.341 9.449 4.696 4.245 1.767 8.678 2.258 13.269 2.064 4.246-.176 7.666-2.076 10.983-4.351 2.814-1.931 5.622-3.855 8.582-5.549 4.178-2.421 8.581-4.018 13.536-3.462.109.033.223.042.336.027.113-.014.222-.052.319-.111Z"/>
  <path fill="#3889FF" d="M135.506 274.674c.061.284.127.568.188.853.255.32.097.774.352 1.095.364 2.003 1.043 3.921 1.534 5.894.425 1.719.934 3.413 1.407 5.12.691 2.485 1.381 4.974 2.068 7.467.606 2.239 1.213 4.484 1.819 6.73.667 2.42 1.353 4.841 2.02 7.261.606 2.276 1.213 4.557 1.856 6.839.145.532.345 1.053.448 1.597.225 1.132.71 2.191.431 3.449-.23 1.053.412 1.979 1.292 2.663 1.272.909 2.717 1.549 4.245 1.882 3.095.746 6.265 1.136 9.449 1.162 3.035.064 6.071-.033 9.096-.29 2.291-.166 4.566-.492 6.811-.975 5.755-1.252 11.395-2.886 16.647-5.616 1.663-.821 3.197-1.879 4.555-3.14.577-.527 1.029-1.177 1.322-1.9.199-.401.291-.845.267-1.292-.023-.446-.161-.879-.401-1.256-.337-.577-.499-1.239-.467-1.906-.169-4.018-.303-8.037-.473-12.055-.139-3.389-.321-6.778-.467-10.166-.145-3.389-.224-6.863-.424-10.288-.146-2.42-.115-4.841-.413-7.262-.066-1.379-.157-1.458-1.394-1.053-5.113 1.665-8.921 4.926-11.814 9.398-1.565 2.421-2.911 4.975-4.585 7.323-2.509 3.686-6.329 6.282-10.686 7.261-4.093.914-8.096.249-11.911-1.464-4.718-2.118-8.702-5.283-12.499-8.726-3.062-2.784-5.894-5.816-8.987-8.569-.207-.212-.437-.401-.686-.563-.194-.103-.418-.26-.606-.103-.188.157-.134.406.006.63Z"/>
  <path fill="#fff" d="M124.402 241.16c.806-.671 1.819-.865 2.771-1.301 1.475-.698 2.894-1.507 4.245-2.42 3.09-2.153 6.405-3.965 9.886-5.404 1.3-.496 2.668-.794 4.057-.884 2.724-.166 5.458.025 8.132.569 1.741.327 3.451.787 5.21 1.047 2.981.47 6.003.632 9.018.484 1.917-.14 3.823-.403 5.707-.787 1.438-.336 2.807-.92 4.045-1.724 2.426-1.434 4.53-3.304 6.671-5.114 1.182-1.004 2.426-1.906 3.675-2.85 2.688-1.956 5.074-4.295 7.083-6.941.534-.744.952-1.567 1.425-2.354-.13-.577-.382-1.12-.739-1.592-.88-1.403-1.859-2.742-2.93-4.006-.82-.926-1.862-1.63-3.028-2.047-1.166-.417-2.419-.533-3.643-.337-.218 0-.436.054-.655.097-.096.034-.198.047-.3.04-.101-.007-.201-.034-.292-.08-.09-.047-.171-.111-.236-.19-.065-.078-.113-.169-.142-.266-.578-1.197-1.33-2.302-2.232-3.28-1.035-1.307-2.418-2.297-3.99-2.857-1.488-.494-3.1-.462-4.567.091-.361.169-.766.22-1.158.146-.392-.073-.751-.269-1.025-.557-1.334-1.398-3.117-1.525-4.852-1.447-1.977.097-3.942.46-5.622 1.737-.315.186-.552.481-.664.829-.112.348-.091.725.058 1.059 1.213 3.631 2.571 7.153 3.875 10.723.764 2.1.528 2.826-1.558 3.565-1.82.647-3.639 1.585-5.677 1.21-.159-.026-.323-.009-.473.049-.151.059-.283.157-.382.284-.362.071-.729.116-1.098.133-.649 0-.915-.254-1.073-.89-.382-1.609-1.031-3.134-1.54-4.702-.316-.962-.843-1.869-.655-2.971.052-.519-.033-1.043-.249-1.519-.661-1.597-1.055-3.28-1.656-4.895-.014-.081-.045-.157-.092-.224-.046-.068-.106-.124-.176-.166-.071-.042-.149-.068-.23-.077-.082-.009-.164-.001-.242.025-1.658.271-3.152 1.158-4.184 2.481-.815.912-1.503 1.93-2.044 3.026-.297.677-.91.605-1.516.605-2.25-.082-4.483.41-6.489 1.428-1.093.55-2.03 1.366-2.723 2.372-.249.369-.552.702-.77 1.089-.239.406-.566.752-.958 1.013-.392.261-.838.43-1.304.494-1.026.245-1.987.708-2.818 1.356-.831.648-1.512 1.468-1.998 2.402-.927 1.683-1.394 3.581-1.352 5.501-.028.334.037.669.188.968.153.255.229.548.218.844-.011.297-.108.584-.279.826-.098.239-.213.469-.345.69-.877 1.157-1.266 2.61-1.086 4.049.109 1.428.212 2.856.425 4.278.382 2.251 1.18 4.412 2.353 6.372Z"/>
  <path fill="#38B5FF" d="M135.506 274.674v-.606c.76.423 1.438.979 2.001 1.64 2.426 2.288 4.718 4.66 7.15 6.905 1.492 1.368 3.063 2.651 4.591 3.982 2.142 1.788 4.46 3.353 6.92 4.672 3.147 1.825 6.718 2.799 10.358 2.826 4.406.003 8.645-1.68 11.844-4.702 1.645-1.54 3.043-3.324 4.142-5.289.971-1.652 2.008-3.268 3.033-4.89 1.101-1.742 2.397-3.354 3.863-4.805 2.335-2.348 5.221-3.8 8.32-4.877.437-.152.722-.079.795.423 0 .182.079.363.115.545.273-.799-.03-1.598-.036-2.421 0-2.196-.213-4.393-.316-6.59-.103-2.196-.163-4.466-.26-6.699 0-.514-.116-1.022-.176-1.531-1.328-.435-2.699-.26-4.051-.236-2.347.043-4.5.908-6.672 1.749-2.565.999-4.821 2.524-7.138 3.964-2.977 1.852-5.724 4.06-8.817 5.725-1.073.571-2.206 1.022-3.378 1.343-4.203 1.156-8.394.811-12.566-.03-3.433-.696-6.544-2.276-9.594-3.916-3.262-1.792-6.619-3.408-10.055-4.841-1.657-.63-3.398-1.01-5.167-1.125.066.369.139.732.212 1.101.255.315.091.769.358 1.083.37 2.07 1.073 4.055 1.595 6.052.436 1.712.928 3.407 1.37 5.119.443 1.713 1.007 3.383 1.347 5.12.042.145.145.224.212.309Z"/>
  <path fill="#D7099C" d="M134.366 152.96c1.265 2.092 2.246 4.343 2.917 6.693 1.213 1.059 2.741 1.386 4.148 1.985 1.728.74 3.5 1.372 5.306 1.894 1.504.436 1.68.26 1.413-1.265.002-.258-.067-.511-.2-.732-.448-1.719-.895-3.437-1.34-5.156-.285-.478-.8-.478-1.255-.605-3.201-.698-6.351-1.608-9.431-2.723-.485-.164-.982-.527-1.558-.091ZM131.91 146.17c3.292 1.496 6.689 2.752 10.164 3.758.74.212 1.498.387 2.244.605.746.218.667-.193.606-.653-.344-1.134-.693-2.266-1.049-3.395-.509-.654-1.334-.757-2.007-1.108-3.202-1.688-6.399-3.394-9.558-5.155-.352-.2-.704-.606-1.177-.206-.564 1.053-.4 2.142-.169 3.231.198 1.009.516 1.99.946 2.923ZM158.163 193.832c-2.668-1.071-5.337-2.13-7.993-3.214-.849-.351-1.68-.756-2.517-1.137-.12-.086-.26-.143-.406-.165-.147-.022-.296-.009-.437.038.073.435.152.895.225 1.355.467 1.495.818 3.026 1.431 4.472.521.745 1.389.962 2.135 1.319 2.498 1.211 5.009 2.354 7.605 3.329.198.081.4.152.606.212 1.055.29 1.286.084 1.11-.987-.03-.181-.091-.357-.115-.538-.352-1.35-.971-2.621-1.116-4.025-.026-.145-.087-.282-.179-.397-.093-.115-.212-.205-.349-.262ZM141.176 171.175c2.675 1.125 5.349 2.263 8.03 3.377.606.272 1.298.49 1.94.726.152-.2.061-.387.079-.569-.576-1.761-.764-3.631-1.358-5.38-3.181-.645-6.297-1.577-9.309-2.783-.322-.183-.693-.263-1.062-.23.504 1.64 1.062 3.255 1.68 4.859ZM161.759 206.304c-.365-.175-.739-.328-1.122-.46-2.925-.907-5.787-2.005-8.569-3.286-.164-.079-.339-.139-.509-.218-.704-.327-.497.206-.51.539.546 1.313.922 2.687 1.353 4.042.313.409.733.725 1.213.914 2.802 1.21 5.607 2.408 8.417 3.594.407.176.904.515 1.213-.193-.046-1.747-.559-3.45-1.486-4.932ZM153.742 181.717c-2.583-.969-5.173-1.931-7.75-2.905-.607-.236-1.213-.514-1.82-.762-.382-.158-.443.096-.449.387.364 1.289.734 2.572 1.098 3.861 3.508 1.841 7.111 3.496 10.795 4.956.139.054.267.151.376-.03.285-.708-.243-1.211-.431-1.816-.376-1.096-.807-2.173-1.291-3.225-.146-.248-.213-.509-.528-.466ZM156.914 216.585c.472-.046.907-.274 1.213-.635.163-.236.381-.429.634-.565.253-.136.534-.21.821-.216 0-.03 0-.072-.054-.091-1.692-.944-3.542-1.506-5.458-2.487.115.932.2 1.64.291 2.348.206.92.94 1.332 1.686 1.731l.867-.085ZM136.725 136.851c.339.396.767.707 1.249.908.74.381 1.474.78 2.226 1.18.267-.418 0-.781.067-1.132-.461-1.035-1.323-1.283-2.353-1.162-.401.049-.795.145-1.189.206Z"/>
  <path fill="#CDADD2" d="M131 258.092c-.079-.375 0-.804-.358-1.083.055.381.012.799.358 1.083Z"/>
  <path fill="#BF9BC8" d="M136.046 276.64c-.067-.381 0-.811-.352-1.095.048.369.018.781.352 1.095Z"/>
  <path fill="#412D87" d="M202.453 212.101c-.423.362-.905.649-1.426.847-2.277.978-4.617 1.803-7.004 2.469-3.536 1.09-7.12 2.016-10.728 2.851-4.003.932-8.026 1.781-12.069 2.547-3.82.733-7.671 1.265-11.522 1.816-3.112.448-6.205 1.071-9.328 1.501-4.039.55-8.09.974-12.129 1.343-5.494.508-11.001.811-16.514.805-1.622.028-3.245-.073-4.851-.303-.402-.055-.797-.154-1.177-.296-.358-.146-.655-.388-.358-.854.297-.465 0-.514-.352-.472-.31.059-.605.179-.868.352-.264.174-.49.398-.666.659-.053.053-.093.119-.114.192-.022.072-.025.149-.009.223.015.074.049.143.098.2.049.058.112.102.183.129.379.21.788.361 1.213.448 2.172.466 4.389.689 6.61.666 8.002.022 15.997-.439 23.943-1.38 8.49-.896 16.908-2.209 25.283-3.782 5.458-1.023 10.813-2.239 16.162-3.631 4.348-1.073 8.634-2.382 12.839-3.921 1.464-.522 2.864-1.208 4.172-2.046.383-.254.965-.49.843-1.047-.121-.556-.715-.605-1.152-.762-.234-.115-.504-.137-.754-.063-.25.074-.464.239-.598.462-.443-.084-.522-.46-.649-.811-.303-.835-.607-1.67-.928-2.493-3.833-9.499-10.54-17.567-19.188-23.08-7.672-4.987-16.065-7.782-25.29-7.867-.349.03-.701-.015-1.031-.133.128-.303.334-.248.504-.267 1.585-.122 3.179-.101 4.76.061 8.04.756 15.747 3.579 22.367 8.194 7.272 4.872 13.152 11.545 17.065 19.364.825 1.653 1.53 3.362 2.111 5.114.091.278.079.799.558.66.831-.249 1.498.169 2.238.351 1.619.399 2.425 1.512 2.759 3.025.17.678.218 1.386.37 2.07.171 1.029.646 1.983 1.364 2.741.607.563.607.545.031 1.132-1.143 1.158-2.463 2.126-3.912 2.868-.259.122-.477.316-.627.559-.151.242-.228.523-.222.809-.177 2.798-.495 5.585-.952 8.351-.064.849-.269 1.681-.607 2.463-.361.767-.493 1.622-.382 2.463.079 1.513.176 3.026.225 4.538.178 5.427.341 10.855.491 16.285.182 6.318.37 12.636.528 18.947.157 6.312.285 12.491.442 18.76.194 7.387.397 14.774.607 22.16.069.405-.002.821-.2 1.18-.301.513-.445 1.102-.413 1.695-.05 1.292.013 2.586.188 3.867.093.433.074.883-.057 1.307-.13.424-.368.807-.689 1.113-.965.967-1.998 1.863-3.093 2.681-2.425 1.785-5.179 2.832-7.884 3.952-2.572.94-5.191 1.748-7.847 2.42-2.388.706-4.819 1.255-7.278 1.646-3.08.424-6.182.667-9.291.727-3.475.137-6.956.008-10.412-.388-2.092-.269-4.141-.797-6.101-1.573-.98-.346-1.908-.822-2.76-1.416-.191-.11-.355-.261-.481-.442s-.21-.388-.246-.605c-.189-1.023-.44-2.033-.752-3.026-.146-.996-.566-1.932-1.213-2.705-.354-.372-.606-.828-.734-1.325-.372-1.243-.74-2.483-1.104-3.722-1.601-5.501-3.19-11.007-4.803-16.502-1.431-4.841-2.893-9.683-4.324-14.566-1.941-6.657-3.851-13.271-5.804-19.903-2.183-7.414-4.348-14.827-6.362-22.282-.285-1.029-.509-2.064-1.37-2.82-.219-.25-.399-.531-.534-.835-1.571-2.842-2.945-5.788-4.112-8.817-.076-.279-.236-.528-.458-.714-.222-.186-.496-.3-.785-.327-.692-.119-1.375-.287-2.044-.502-.925-.27-1.817-.639-2.662-1.102-.564-.296-.607-.429-.261-.956.243-.412.402-.869.467-1.343.12-1.252.051-2.515-.206-3.746-.321-2.517 1.086-3.782 3.293-4.69.534-.218.764-.369.758-.956.009-2.512.265-5.018.764-7.48 2.905-14.911 13.094-28.569 26.078-34.965.521-.254.649-.509.449-1.102-1.743-5.143-3.457-10.297-5.143-15.461-2.426-7.341-4.749-14.699-7.126-22.046-.145-.398-.174-.83-.084-1.244.091-.414.296-.795.593-1.098.528-.531 1.143-.967 1.82-1.289 2.013-1.095 4.245-1.579 6.428-2.063.587-.133 1.201-.07 1.747.181.443.206.776.551.606 1.041-.075.357-.032.729.122 1.059.376 1.277.752 2.554 1.14 3.825 1.37 4.49 2.743 8.976 4.118 13.458 1.213 3.922 2.425 7.843 3.638 11.764.971 3.139 1.941 6.27 2.911 9.392.346.115.649-.199.971 0-.88.69-.88.69-.261 2.076.358-.191.753-.3 1.158-.321 1.368-.221 2.768.08 3.924.841.885.605.952 1.356.261 2.161-.379.407-.834.736-1.341.968-3.633 1.824-7.529 3.075-11.546 3.71-1.503.258-3.043.207-4.525-.152-1.322-.327-1.71-1.289-.988-2.42.565-.741 1.264-1.369 2.062-1.852.007.267-.048.533-.159.776-.112.243-.277.458-.484.628-.308.269-.569.588-.77.944-.291.641-.188.992.491 1.174.87.259 1.783.344 2.687.248-.607-1.688-1.183-3.286-1.759-4.878-.501.114-.976.319-1.401.606-7.326 4.053-13.492 9.906-17.915 17.004-4.834 7.501-7.503 16.186-7.714 25.102.009.366-.026.731-.103 1.089-.261.938-.279.932.606 1.126.288.065.58.111.874.139 2.622.21 5.255.257 7.884.139 3.845-.139 7.69-.387 11.522-.69 4.282-.339 8.551-.823 12.821-1.325 4.124-.49 8.193-1.331 12.299-1.918 7.229-1.041 14.393-2.423 21.493-4.146 4.894-1.21 9.776-2.42 14.555-4.006 1.268-.408 2.503-.913 3.693-1.513.412-.211.74-.478.534-1.016.697.375.733.563.285.992Zm-54.685 115.632c2.266.915 4.659 1.474 7.096 1.658 2.323.115 4.639.545 6.968.4 2.426-.158 4.852-.279 7.314-.527 2.201-.23 4.385-.756 6.623-.696.258.005.516-.029.764-.103 2.844-.883 5.803-1.174 8.696-1.815 4.076-.93 8.056-2.239 11.887-3.909 2.172-.957 4.211-2.192 6.064-3.674.288-.201.517-.476.663-.795.146-.319.204-.671.168-1.02-.194-6.354-.321-12.708-.491-19.056-.152-5.761-.334-11.498-.479-17.283-.146-5.786-.273-11.377-.412-17.066-.11-4.581-.249-9.155-.34-13.736-.085-4.285-.115-8.569-.176-12.854 0-.472 0-.95-.036-1.567-.672.462-1.394.846-2.153 1.144-.206.066-.413.151-.607.199-.025.011-.052.017-.079.016-.027 0-.054-.005-.079-.016s-.047-.026-.066-.046c-.019-.02-.033-.043-.043-.069-.024-.05-.029-.108-.015-.162.014-.055.048-.102.094-.134.335-.226.686-.429 1.049-.605.633-.269 1.188-.69 1.618-1.226.43-.535.72-1.168.845-1.842.64-3.109 1.106-6.25 1.395-9.411 0-.217.042-.435.072-.744-.74.073-1.255.605-1.904.805-1.249.345-1.637 1.126-1.656 2.421-.029 1.918-.232 3.83-.606 5.712-.257 1.205-.895 2.295-1.819 3.111-.14.12-.29.227-.449.32-.028.024-.06.042-.095.053-.035.011-.072.014-.109.01-.036-.004-.071-.015-.103-.033-.032-.018-.059-.043-.081-.072-.097-.115 0-.206.042-.296.059-.094.13-.18.212-.255 1.45-1.21 1.899-2.85 2.068-4.617.17-1.767.316-3.377.473-5.065 0-.109.043-.224-.097-.26-.042 0-.103.084-.151.127-2.062.811-4.118 1.652-6.192 2.42-4.512 1.683-9.097 3.075-13.761 4.327-5.179 1.451-10.445 2.568-15.768 3.347-3.487.472-6.95 1.131-10.443 1.555-3.863.472-7.744.75-11.632.908-4.879.236-9.767.224-14.646-.037-1.819-.109-3.638-.26-5.415-.387h-.243c-.036 0 0 .157.091.206.79 2.166 1.728 4.274 2.808 6.312.427.745 1.058 1.354 1.819 1.754.431.249.953.382 1.25.86-.34.387-.661.133-.922 0-1.132-.495-2.071-1.345-2.675-2.421-.962-1.829-1.789-3.726-2.474-5.676-.315-.847-.691-1.356-1.686-1.35-.791-.051-1.577-.158-2.353-.32-.047.095-.068.202-.06.308.007.106.043.209.103.297 1.243 2.753 2.486 5.513 3.948 8.169.885 1.604 2.086 2.639 3.978 2.766.352 0 .861-.061 1.019.635-1.112.116-2.235-.068-3.251-.532.028.601.181 1.191.449 1.73 1.371 4.563 2.79 9.114 4.16 13.677 1.28 4.236 2.511 8.508 3.76 12.762 1.098 3.722 2.208 7.438 3.299 11.165 1.092 3.728 2.208 7.595 3.318 11.389 1.079 3.686 2.177 7.371 3.263 11.056 1.085 3.686 2.195 7.444 3.287 11.171l2.904 6.887Zm-16.641-186.289c.322.98.607 1.985.971 2.977 2.045 6.173 4.089 12.343 6.131 18.512 1.595 4.841 3.196 9.682 4.754 14.523.759 2.354 1.541 4.702 2.153 7.105.231.902.243.902 1.213.817 1.472-.177 2.924-.493 4.337-.944 2.446-.588 4.815-1.459 7.059-2.596.465-.212.879-.522 1.213-.908.412-.545.388-.781-.176-1.18-.941-.602-2.03-.933-3.148-.956-.581.011-1.162-.033-1.734-.133.297 1.083.606 2.033.818 3.025.079.327.364.878 0 .981-.46.139-.503-.478-.606-.823-1.437-4.031-2.571-8.152-3.809-12.242-1.237-4.091-2.48-8.206-3.717-12.303-1.049-3.468-2.086-6.935-3.136-10.397-.849-2.787-1.702-5.577-2.559-8.369-.066-.14-.145-.274-.236-.399-2.99 1.622-5.944 3.231-9.528 3.31Zm8.181-4.841c-2.316.484-4.615 1.023-6.671 2.215-.494.25-.939.586-1.316.992-.406.472-.291.805.334.902.405.054.816.031 1.213-.067 2.42-.525 4.74-1.434 6.871-2.693.444-.221.784-.608.946-1.077-.196-.141-.422-.237-.66-.279-.239-.042-.484-.029-.717.037v-.03Z"/>
  <path fill="#412D87" d="M155.683 184.894c.527 2.42 1.382 4.75 2.122 7.116.74 2.366 1.517 4.787 2.281 7.177.764 2.391 1.528 4.787 2.286 7.177l2.286 7.177c-2.993 1.775-6.279 3.004-9.703 3.631-3.129-9.839-6.265-19.734-9.703-29.489-.103.17-.073-.06-.188.037-.024.02-.039.048-.043.078-.009.073-.009.146 0 .218.018.108.042.216.073.321 1.213 3.954 2.426 7.905 3.639 11.855.005.04.005.081 0 .121-.692.236-1.45.187-2.141.49-1.861.801-3.332 2.298-4.1 4.17-.455 1.059-.921 1.773-2.201 1.27-4.712-.157-8.697 2.118-10.455 6.657-.38.922-.682 1.873-.904 2.844-.055.254-.152.515.267.672.303-.865.606-1.743.909-2.608.436-1.339 1.126-2.582 2.032-3.661 2.493-2.851 5.689-3.777 9.455-3.407-.311 1.189-.514 2.404-.607 3.63-.114 1.125-.013 2.26.297 3.347.122-1.368.122-2.723.249-4.073.217-2.184 1.01-4.272 2.299-6.051.489-.767 1.143-1.415 1.913-1.9.771-.484 1.64-.792 2.544-.902.437-.048.691 0 .831.478 1.269 4.01 2.543 8.022 3.821 12.036v.109c-.472.006-.935.128-1.348.356-.413.228-.763.555-1.018.951l2.475-1.046c.485 1.004.697 2.136 1.116 3.195.097.236.048.405-.255.478-.681.131-1.385.065-2.03-.19-.645-.256-1.203-.689-1.609-1.25-.115-.182-.212-.315-.418-.267-.206.049-.267.303-.231.527.091.363.305.684.607.907.751.614 1.686.961 2.656.987 1.368.071 2.738-.103 4.045-.515 3.449-.993 6.745-2.455 9.794-4.344.539-.326.963-.81 1.213-1.386.094-.182.143-.383.143-.587 0-.205-.049-.406-.143-.587-.026-.071-.074-.131-.138-.171-.063-.041-.138-.059-.213-.053-.037.001-.073.01-.105.027-.033.018-.06.042-.081.073-.021.03-.034.065-.039.101-.004.036 0 .073.012.107.188.684-.206 1.126-.606 1.55-1.183 1.162-1.334 1.113-1.82-.43-1.718-5.265-3.442-10.53-5.173-15.794-1.099-3.329-2.201-6.657-3.305-9.985-.145-.436-.315-.86-.473-1.289l-.315.115Z"/>
  <path fill="#412D87" d="M185.157 204.712c-.362-1.286-.977-2.487-1.811-3.532-.833-1.046-1.867-1.914-3.041-2.555-1.006-.608-2.16-.928-3.336-.928-1.175 0-2.329.32-3.335.928-.202.144-.446.216-.694.204-.248-.012-.484-.108-.671-.271-1.068-.774-2.296-1.3-3.594-1.539-1.298-.238-2.633-.184-3.908.159-1.075.32-2.097.797-3.032 1.416-.158.097-.315.2-.242.472 1.067-.284 2.025-.847 3.032-1.21 2.699-.926 5.173-.278 7.532 1.107.346.2.321.436.036.702-.774.743-1.47 1.565-2.074 2.451-.303.369-.481.825-.509 1.301l1.819-2.154c.472-.57 1-1.092 1.577-1.555 1.004-.84 2.247-1.342 3.554-1.437 1.306-.094 2.609.224 3.724.91 1.858 1.105 3.327 2.758 4.202 4.733.176.369.346.659.752.768l.019.03Z"/>
  <path fill="#412D87" d="M185.175 204.694c.079.424-.328.315-.504.406-2.116 1.089-3.262 2.922-3.984 5.089-.058.117-.089.247-.089.378s.031.261.089.378c.333-.066.291-.387.382-.605.409-1.029.954-2 1.619-2.886.695-.972 1.701-1.677 2.853-2 1.151-.322 2.379-.242 3.479.227 3.717 1.349 5.167 4.236 5.233 7.552v.98c.516-.278.461-.726.498-1.065.436-4.514-3.639-8.726-8.163-8.545-.491 0-.965.388-1.474.097l.061-.006ZM128.21 213.826c-.447.013-.887.116-1.294.303-.406.187-.771.455-1.071.786-2.426 2.288-3.742 5.071-3.499 8.472.022.592.188 1.17.485 1.682.079.128.2.23.364.146.164-.085.133-.248.091-.382-1.055-3.056-.037-5.7 1.668-8.187.718-1.084 1.757-1.917 2.971-2.384.128-.067.267-.122.285-.436ZM193.592 201.898c2.354 3.077 3.39 6.959 2.881 10.796.258-.223.459-.504.589-.819.129-.315.183-.657.157-.996.037-2.187-.456-4.35-1.437-6.306-.324-.698-.731-1.354-1.213-1.955-.273-.302-.498-.653-.977-.72ZM176.575 211.629c-.377-.099-.778-.048-1.118.143-.339.191-.591.507-.701.88-.16.336-.221.71-.175 1.079.047.369.198.717.436 1.003.26.293.606.498.989.585.383.087.784.051 1.145-.101.437-.091.84-.301 1.165-.605.04-.039.071-.085.091-.137.02-.052.028-.107.023-.163-.005-.055-.022-.108-.05-.156-.028-.048-.067-.089-.113-.119-.188-.14-.261 0-.406.151-.253.262-.576.447-.93.533-.355.086-.726.069-1.071-.049-.216-.063-.405-.194-.54-.373-.136-.178-.21-.395-.212-.619-.047-.292-.015-.59.092-.865.106-.276.284-.518.514-.703.237-.193.582-.127.861-.484ZM134.457 218.776c.291.042.436-.103.606-.145.704-.176 1.165.278.989.974-.089.301-.238.582-.438.824s-.447.442-.727.586c-.539.321-.909-.206-1.431-.436.607 1.047 1.177 1.211 1.971.684.573-.35.995-.9 1.183-1.543.091-.323.059-.668-.09-.969-.149-.3-.405-.535-.717-.659-.552-.212-.813-.091-1.346.684ZM169.164 205.178c-.208.407-.272.873-.179 1.321.093.448.336.851.689 1.142.909.902 1.692.999 2.959.291-.916 0-1.765.254-2.486-.436-.722-.69-.783-1.465-.983-2.318ZM143.269 214.395c.169 1.912 1.334 2.547 3.293 1.888-.643-.418-1.341.127-1.929-.254-.588-.382-.825-1.017-1.364-1.634ZM166.799 209.674c-.565-.121-1.154-.073-1.692.14-.048.022-.091.054-.125.095-.033.041-.057.089-.069.141 0 .181.146.242.309.199.567-.052 1.11-.25 1.577-.575ZM156.623 326.347c-.158-.172-.351-.307-.567-.396-.216-.089-.449-.129-.683-.118-.806-.091-1.619-.145-2.425-.266-2.044-.303-3.348-1.677-4.415-3.256-.317-.669-.533-1.381-.643-2.112l-3.348-11.607c-1.148-3.974-2.296-7.95-3.445-11.927-1.083-3.728-2.167-7.454-3.25-11.177-1.152-3.976-2.293-7.952-3.451-11.928-1.079-3.687-2.167-7.371-3.263-11.05-1.097-3.722-2.183-7.443-3.299-11.153-.23-.943-.547-1.862-.946-2.747-.067.159-.102.33-.102.502 0 .173.035.343.102.502 1.152 4.127 2.315 8.249 3.487 12.364 1.476 5.192 2.956 10.38 4.44 15.564 1.121 3.903 2.268 7.8 3.396 11.71 1.293 4.474 2.579 8.948 3.857 13.422l3.299 11.389c.606 2.202 1.286 4.399 1.892 6.608.523 1.907 1.71 3.565 3.348 4.678 1.764 1.228 3.784 1.222 6.016.998ZM194.46 320.32c2.231-.436 4.348-1.101 5.628-3.213 1.045-1.795 1.509-3.869 1.328-5.937-.219-4.278-.285-8.563-.419-12.847-.133-4.285-.273-8.563-.406-12.848-.127-4.169-.243-8.339-.37-12.514-.133-4.313-.269-8.631-.406-12.956-.122-3.728-.237-7.456-.37-11.183-.128-3.462-.273-6.929-.413-10.397.022-.165.002-.333-.058-.489-.061-.155-.16-.293-.287-.4v3.231c.133 5.826.277 11.655.43 17.489.14 5.277.316 10.56.467 15.837.152 5.276.291 10.705.449 16.06.17 5.87.35 11.74.54 17.61.06 1.991.127 3.988.206 5.979-.005.332-.073.661-.2.968-.308 1.052-.867 2.013-1.63 2.8-.763.788-1.706 1.378-2.749 1.721-.612.211-1.34.375-1.74 1.089ZM194.514 239.036c-.026-.033-.059-.06-.096-.079-.037-.02-.078-.032-.12-.036-.042-.003-.085.002-.125.016-.04.013-.076.035-.108.063-1.764 1.083-3.778 1.47-5.706 2.088-3.639 1.174-7.326 2.1-11.014 3.025-3.438.878-6.828 2.003-10.382 2.373-2.584.272-5.137.696-7.678 1.21-1.934.33-3.89.512-5.852.545-3.918.199-7.83.453-11.747.605-2.547.103-5.101.121-7.654.115-.831 0-1.655-.188-2.498-.218.751.493 1.643.729 2.541.672 3.062.03 6.131.03 9.2-.121l11.074-.491c2.291-.121 4.57-.417 6.816-.883 2.068-.418 4.16-.696 6.259-.938 2.092-.278 4.159-.713 6.186-1.301 3.359-.902 6.725-1.779 10.067-2.723 2.777-.807 5.537-1.644 8.278-2.512.954-.258 1.832-.742 2.559-1.41ZM184.016 323.691c-2.801.399-5.5 1.24-8.29 1.658-2.79.417-5.573.544-8.49.75.843.436 5.858.309 8.605-.115 2.748-.424 5.471-1.416 8.175-2.293ZM166.417 322.087c-.055.036-.127.06-.158.115-.029.043-.042.096-.034.147.008.052.036.099.077.131.188.152.455.164.57.448.079.188.315.115.449-.03.034-.03.062-.066.081-.108.019-.041.029-.086.029-.131 0-.046-.01-.091-.029-.132-.019-.041-.047-.078-.081-.107-.252-.216-.573-.334-.904-.333ZM185.987 331.63c-5.726 2.589-12.066 3.52-18.296 2.687 3.341 1.797 14.197.551 18.296-2.687ZM250.169 33.0256l-1.929 5.5552-14.446 48.0852-3.996 11.171-11.274 33.634 5.634 3.105 7.817 2.335 13.251-44.1451 17.66-54.4634c.072-.6076-.05-1.2222-.348-1.7567-.299-.5345-.758-.9616-1.314-1.2207-2.133-.9188-4.314-1.7267-6.531-2.4205 0 0-5.034-1.0409-4.524.121Z"/>
  <path fill="#412D87" d="m285.41 149.511-4.609 10.596-4.5 9.846-3.081 4.859-2.559 9.289-10.085 34.027-8.26 27.474-5.089 17.416-5.027 15.044-3.851 2.215-31.172 3.91-34.071-6.524-4.657-11.843.212-16.829 1.328-45.011.989-37.755.091-6.953-1.05-3.014-1.109-8.303-.71-5.755-2.493-6.801 71.575 18.741 48.128-4.629Z"/>
  <path fill="#9678FF" d="M176.63 182.612c-.358-1.022 0-2.063.036-3.086.037-2.929.316-5.852.455-8.787.139-2.935.218-5.761.327-8.641 0-.43.116-.847.14-1.277.117-.94-.052-1.893-.485-2.735-.865-1.746-1.403-3.635-1.589-5.574-.17-1.119-.303-2.245-.479-3.37-.222-2.022-.222-4.061 0-6.082.085-1.483.655-2.869 1.031-4.279.606-2.372 1.492-4.683 2.268-7.013.042-.121.188-.2.291-.297.54 0 .716.436.904.787 2.425 4.448 6.149 7.728 10.103 10.711 3.19 2.421 6.265 4.962 9.321 7.528 4.682 3.927 10.074 5.701 16.126 6.009 5.854.26 11.716-.319 17.405-1.718 4.268-1.022 8.676-1.332 13.045-.92 2.802.272 5.252 1.622 7.757 2.777 3.821 1.761 7.199 4.236 10.771 6.433 1.832 1.107 3.748 2.07 5.731 2.881.509.205 1.285.211 1.261 1.083-.621 1.79-1.629 3.423-2.953 4.781-1.213 1.21-1.559 2.644-1.983 4.115-.71 2.42-1.341 4.907-2.038 7.358-.255.902-.17 1.9-.776 2.705-.283.248-.63.411-1.001.472-4.779.436-8.897 2.723-13.081 4.757-4.064 1.978-7.957 4.296-12.13 6.051-5.458 2.275-11.158 2.905-17.059 2.657-5.458-.224-9.855-2.669-14.118-5.592-3.639-2.481-7.229-4.956-11.026-7.135-5.379-3.092-11.037-5.161-17.405-4.447-.144.037-.295.043-.441.017-.147-.026-.286-.084-.408-.169Z"/>
  <path fill="#5B3FBD" d="M256.779 210.122c-.085.363-.164.727-.243 1.09-.327.411-.127.992-.448 1.41-.467 2.571-1.347 5.041-1.971 7.576-.546 2.209-1.213 4.387-1.82 6.584-.885 3.195-1.771 6.392-2.656 9.592-.794 2.886-1.565 5.773-2.359 8.653-.855 3.111-1.735 6.209-2.59 9.32-.806 2.929-1.589 5.857-2.389 8.786-.188.69-.443 1.362-.607 2.058-.285 1.458-.909 2.814-.557 4.436.297 1.349-.528 2.541-1.662 3.419-1.636 1.168-3.493 1.992-5.458 2.42-3.973.959-8.042 1.46-12.129 1.495-3.896.084-7.793-.042-11.675-.375-2.942-.214-5.866-.631-8.751-1.247-7.399-1.616-14.646-3.715-21.402-7.225-2.136-1.056-4.108-2.415-5.852-4.037-.734-.674-1.312-1.5-1.692-2.42-.419-1.114-.552-2.239.17-3.274.44-.742.651-1.596.606-2.457.219-5.162.394-10.33.607-15.492.182-4.357.412-8.714.606-13.071.194-4.357.291-8.817.546-13.216.182-3.129.145-6.264.528-9.374.084-1.773.206-1.876 1.819-1.356 6.568 2.136 11.462 6.336 15.161 12.103 2.014 3.111 3.736 6.391 5.895 9.41 3.439 4.805 7.993 8.037 13.73 9.32 5.264 1.174 10.407.32 15.313-1.882 6.065-2.724 11.189-6.79 16.065-11.214 3.942-3.582 7.575-7.479 11.559-11.02.265-.274.56-.518.88-.726.242-.133.54-.333.788-.127.249.206.17.551-.012.841Z"/>
  <path fill="#fff" d="M271.055 167.042c-1.037-.872-2.377-1.12-3.566-1.676-1.882-.899-3.696-1.932-5.428-3.093-4.045-2.668-8.156-5.198-12.705-6.947-1.669-.641-3.425-1.026-5.209-1.144-3.503-.212-7.018.035-10.456.733-2.238.423-4.439 1.01-6.671 1.349-3.836.598-7.723.801-11.601.605-2.461-.18-4.908-.517-7.326-1.01-1.85-.437-3.61-1.189-5.204-2.221-3.129-1.816-5.828-4.236-8.575-6.572-1.522-1.295-3.147-2.421-4.724-3.631-3.396-2.608-6.592-5.446-9.097-8.926-.685-.95-1.213-2.015-1.819-3.026.169-.741.493-1.438.952-2.045 1.136-1.8 2.394-3.521 3.766-5.15 1.054-1.187 2.389-2.091 3.884-2.63 1.496-.538 3.102-.693 4.673-.45.279.036.564.079.843.133.124.041.255.057.386.047.13-.01.257-.046.374-.105.116-.06.219-.143.303-.243.084-.1.148-.216.186-.34.739-1.546 1.704-2.974 2.863-4.237 1.33-1.681 3.108-2.954 5.13-3.673 1.912-.637 3.984-.599 5.871.109.463.22.985.288 1.49.193.504-.094.966-.346 1.318-.719 1.716-1.816 4.008-1.961 6.21-1.858 2.547.121 5.076.605 7.229 2.227.408.235.716.611.865 1.057.148.446.128.931-.059 1.363-1.54 4.642-3.305 9.193-4.979 13.78-.988 2.705-.679 3.631 2.002 4.587 2.341.835 4.651 2.033 7.277 1.561.206-.033.416-.01.61.065.195.076.365.202.494.365.466.091.938.149 1.413.175.831 0 1.176-.333 1.377-1.15.497-2.069 1.322-4.03 1.983-6.051.4-1.21 1.085-2.421.843-3.819-.067-.665.042-1.337.315-1.948.849-2.052 1.358-4.236 2.129-6.294.019-.103.06-.2.12-.286.059-.086.137-.159.227-.213.09-.053.191-.087.295-.1.104-.012.21-.001.31.03 2.133.346 4.055 1.486 5.379 3.19 1.05 1.167 1.935 2.472 2.632 3.879.376.877 1.171.816 1.947.81 2.889-.113 5.759.512 8.339 1.816 1.405.697 2.611 1.738 3.505 3.026.309.472.703.901.982 1.391.649 1.156 1.589 1.622 2.911 1.943 1.32.317 2.556.913 3.625 1.748 1.068.835 1.944 1.89 2.567 3.093 1.191 2.163 1.789 4.601 1.735 7.068.038.43-.046.862-.243 1.247-.196.327-.293.704-.279 1.086.014.381.138.75.358 1.062.128.307.278.605.449.89 1.122 1.486 1.621 3.351 1.389 5.198-.14 1.815-.273 3.673-.546 5.507-.501 2.908-1.542 5.697-3.069 8.224Z"/>
  <path fill="#7853FA" d="M256.779 210.122c0-.23 0-.46.03-.811-1.122.515-1.819 1.38-2.571 2.112-3.087 2.941-6.065 5.991-9.194 8.872-1.91 1.761-3.936 3.413-5.901 5.12-2.765 2.318-5.763 4.346-8.945 6.051-4.045 2.346-8.633 3.598-13.312 3.631-5.666-.003-11.116-2.168-15.234-6.052-2.113-1.984-3.909-4.28-5.325-6.808-1.243-2.118-2.577-4.193-3.875-6.281-1.417-2.24-3.085-4.311-4.973-6.172-3.002-3.026-6.707-4.89-10.692-6.276-.564-.194-.927-.103-1.018.551-.037.23-.104.46-.152.696-.352-1.029.036-2.058.048-3.08 0-2.827.273-5.647.401-8.473.127-2.826.212-5.742.339-8.611 0-.659.152-1.313.225-1.973 1.71-.556 3.469-.326 5.203-.296 3.032.048 5.792 1.162 8.563 2.245 3.293 1.289 6.204 3.244 9.182 5.095 3.827 2.379 7.356 5.223 11.335 7.359 1.375.738 2.83 1.318 4.336 1.731 5.403 1.482 10.789 1.041 16.156-.043 4.415-.889 8.411-2.929 12.335-5.028 4.19-2.311 8.502-4.391 12.918-6.234 2.137-.815 4.387-1.301 6.671-1.44l-.273 1.404c-.334.412-.115.999-.461 1.398-.473 2.663-1.377 5.21-2.05 7.819-.564 2.196-1.213 4.381-1.765 6.578-.551 2.196-1.291 4.351-1.734 6.584-.049.115-.206.217-.267.332Z"/>
  <path fill="#412D87" d="M231.235 160.67s1.777 14.112 0 24.75c-1.777 10.639 1.892 15.353 5.586 15.371 3.693.018 8.175-18.155 8.175-18.155s2.425-1.258 3.808 2.167 3.002 10.009 6.501 10.626c3.5.618 6.301 14.173 6.301 14.173l4.513-33.671s-27.424-15.401-34.884-15.261Z" opacity=".8"/>
  <path fill="#D7099C" d="M258.241 53.6612c-1.747 2.6505-2.766 5.6158-3.748 8.5991-1.528 1.3616-3.524 1.7852-5.331 2.5598-2.223.9431-4.502 1.7515-6.823 2.4206-1.928.5628-2.159.3329-1.819-1.6278.004-.3319.094-.6571.261-.9441l1.728-6.6203c.364-.6051 1.025-.6051 1.607-.7625 4.117-.8951 8.169-2.0636 12.129-3.4977.595-.2179 1.292-.6899 1.996-.1271ZM227.657 106.2c3.427-1.38 6.853-2.741 10.267-4.133 1.098-.448 2.159-.968 3.239-1.464.154-.11.333-.182.52-.21.188-.029.379-.013.559.046-.091.569-.188 1.156-.285 1.749-.606 1.918-1.049 3.891-1.819 5.749-.673.956-1.783 1.21-2.747 1.694-3.208 1.531-6.441 3.026-9.77 4.279-.267.097-.534.199-.807.272-1.352.369-1.656.109-1.425-1.271.036-.23.115-.454.145-.696.449-1.73 1.25-3.364 1.438-5.174.034-.186.114-.361.234-.508.12-.147.275-.261.451-.333ZM249.49 77.0743c-3.439 1.4463-6.878 2.9047-10.31 4.345-.825.3449-1.668.6051-2.493.9319-.2-.2602-.079-.5023-.103-.7322.728-2.2572.97-4.6778 1.735-6.9169 4.088-.8302 8.093-2.0272 11.965-3.5764.417-.2334.894-.3367 1.371-.2965-.647 2.1059-1.369 4.1876-2.165 6.2451ZM223.03 122.23c.469-.228.951-.43 1.443-.605 3.761-1.168 7.44-2.583 11.013-4.236.219-.097.437-.175.655-.278.904-.418.643.266.655.69-.697 1.694-1.182 3.455-1.74 5.198-.4.527-.937.935-1.553 1.18-3.602 1.553-7.208 3.092-10.819 4.617-.521.224-1.164.666-1.54-.248.182-2.221.582-4.405 1.886-6.318ZM233.37 90.6236c3.323-1.2426 6.645-2.4872 9.964-3.7338.794-.3026 1.571-.6596 2.359-.9803.491-.1997.564.127.576.5022l-1.407 4.9623c-4.51 2.3685-9.144 4.4955-13.882 6.3722-.175.0665-.339.1876-.479-.0363-.37-.9138.31-1.5916.552-2.3601.483-1.4073 1.037-2.7888 1.662-4.1392.133-.3087.212-.6354.655-.587ZM229.258 135.447c-.607-.058-1.167-.351-1.558-.817-.211-.303-.49-.552-.816-.726-.326-.173-.689-.267-1.058-.273 0-.042.042-.096.078-.121 2.172-1.21 4.549-1.936 7.017-3.201-.152 1.211-.261 2.112-.376 3.026-.267 1.21-1.213 1.719-2.171 2.227l-1.116-.115Z"/>
  <path fill="#CDADD2" d="M262.571 188.803c.103-.478 0-1.035.461-1.398-.073.496-.018 1.029-.461 1.398Z"/>
  <path fill="#412D87" d="M171.099 128.379c-.267.696.158 1.035.685 1.313 1.529.771 3.117 1.42 4.749 1.943 6.137 2.063 12.414 3.63 18.703 5.149 9.125 2.227 18.335 4.002 27.63 5.326 5.282.756 10.51 1.815 15.81 2.463 5.489.653 10.971 1.27 16.484 1.706 4.93.393 9.873.708 14.816.884 3.374.153 6.754.094 10.121-.176.378-.036.753-.097 1.122-.181 1.159-.242 1.134-.236.801-1.441-.099-.461-.144-.932-.134-1.404-.265-11.451-3.685-22.608-9.885-32.248-5.692-9.124-13.624-16.6478-23.045-21.8579-.549-.3841-1.167-.6594-1.82-.8109l-2.262 6.2693c1.16.1236 2.333.0166 3.451-.3147.873-.242 1.013-.6898.607-1.5189-.262-.4524-.594-.8608-.983-1.2103-.673-.7322-.673-.7322-.831-1.8154 1.028.6156 1.928 1.4231 2.65 2.3782.928 1.4705.431 2.7111-1.267 3.1347-1.906.4569-3.884.5227-5.816.1936-5.18-.8174-10.201-2.4344-14.882-4.7928-.649-.2987-1.234-.7199-1.723-1.2405-.885-1.0348-.8-2.0212.334-2.7837 1.485-.9772 3.284-1.3617 5.039-1.0772.523.0229 1.033.1636 1.492.4115.795-1.7791.795-1.7791-.333-2.6687.412-.2602.806.1453 1.249 0 1.213-4 2.493-8.0363 3.742-12.1029 1.552-5.0349 3.105-10.0778 4.657-15.1288 1.767-5.761 3.53-11.528 5.289-17.3012.497-1.6339.976-3.2738 1.461-4.9138.206-.4249.262-.907.158-1.3676-.2-.6051.224-1.0711.801-1.3374.702-.3192 1.491-.3979 2.243-.2239 2.833.6052 5.677 1.2406 8.26 2.6445.856.4172 1.634.9781 2.299 1.6581.385.3907.651.8824.767 1.4181.116.5357.077 1.0932-.112 1.6077-3.032 9.4463-6.065 18.8988-9.152 28.3391-2.142 6.6808-4.338 13.3233-6.586 19.9275-.254.7565-.097 1.0893.576 1.4161 16.726 8.224 29.82 25.7792 33.55 44.9442.646 3.163.977 6.382.988 9.61 0 .756.285.956.97 1.24 2.845 1.156 4.646 2.784 4.246 6.022-.2 1.597-.546 3.189-.261 4.841.08.611.287 1.198.606 1.725.431.677.388.847-.339 1.21-1.087.589-2.234 1.062-3.421 1.41-.859.277-1.736.494-2.626.647-.372.032-.725.178-1.012.417-.286.239-.492.561-.589.921-1.499 3.894-3.264 7.681-5.282 11.334-.171.391-.402.752-.685 1.071-1.11.975-1.401 2.306-1.759 3.631-2.596 9.58-5.379 19.111-8.181 28.636-2.511 8.526-4.967 17.065-7.466 25.592-1.819 6.245-3.717 12.472-5.549 18.717-2.08 7.068-4.117 14.142-6.179 21.216-.467 1.592-.946 3.189-1.42 4.781-.159.642-.486 1.23-.946 1.707-.94.938-1.213 2.239-1.522 3.473-.402 1.27-.724 2.563-.964 3.873-.049.28-.159.547-.321.781-.162.234-.373.43-.619.575-1.098.757-2.291 1.368-3.548 1.815-2.523.981-5.159 1.644-7.847 1.973-4.442.51-8.917.676-13.385.496-3.997-.074-7.987-.385-11.947-.932-3.151-.503-6.267-1.209-9.327-2.112-3.372-.992-6.817-1.785-10.08-3.116-3.511-1.435-7.071-2.784-10.17-5.078-1.409-1.051-2.739-2.204-3.978-3.449-.413-.393-.717-.886-.884-1.431-.167-.545-.19-1.123-.069-1.679.225-1.648.304-3.313.237-4.975.045-.764-.139-1.524-.528-2.184-.253-.459-.343-.991-.254-1.507.254-9.493.513-18.99.776-28.491.206-8.024.358-16.048.57-24.072.206-8.121.433-16.241.679-24.358.198-6.975.4-13.954.607-20.938.06-1.942.188-3.885.291-5.827.144-1.083-.029-2.184-.497-3.171-.428-1.007-.688-2.076-.771-3.165-.576-3.558-1-7.135-1.213-10.729.012-.368-.084-.731-.277-1.044-.193-.313-.474-.562-.808-.717-1.866-.952-3.566-2.199-5.034-3.692-.715-.75-.709-.726.043-1.452.923-.973 1.533-2.2 1.752-3.522.194-.878.255-1.816.473-2.669.473-1.912 1.468-3.346 3.548-3.861.952-.23 1.82-.768 2.875-.454.606.182.606-.484.721-.841.743-2.242 1.649-4.426 2.711-6.535 5.039-10.024 12.597-18.573 21.936-24.8115 8.513-5.9292 18.422-9.5531 28.758-10.5175 2.035-.2077 4.085-.234 6.125-.0786.219 0 .485-.0424.643.3449-.423.1536-.874.2115-1.322.1694-11.856.0908-22.645 3.6793-32.512 10.0939-11.101 7.0814-19.711 17.4434-24.628 29.6404-.431 1.059-.807 2.13-1.213 3.207-.164.448-.261.926-.837 1.041-.174-.287-.449-.498-.771-.593-.323-.094-.669-.064-.97.085-.558.181-1.334.326-1.473.974-.14.647.606 1.017 1.079 1.343 1.681 1.078 3.48 1.961 5.361 2.633 5.407 1.979 10.917 3.662 16.508 5.041 6.877 1.767 13.797 3.328 20.771 4.641 10.771 2.027 21.596 3.716 32.5 4.841 10.237 1.084 20.48 1.931 30.778 1.773 2.853.029 5.701-.259 8.49-.859.563-.114 1.104-.319 1.601-.605.086-.04.161-.099.22-.172.059-.074.1-.161.119-.253.02-.092.017-.188-.007-.279-.024-.091-.069-.175-.132-.246-.223-.337-.513-.626-.85-.849-.338-.224-.717-.377-1.115-.452-.442-.055-.824.03-.46.605.363.575 0 .914-.455 1.095-.49.182-.999.31-1.516.381-2.07.302-4.162.431-6.253.388-7.096 0-14.173-.381-21.226-1.029-5.216-.484-10.425-1.023-15.616-1.737-4.015-.55-7.987-1.343-11.99-1.918-4.955-.714-9.903-1.398-14.822-2.336-5.191-.998-10.364-2.076-15.513-3.274-4.633-1.077-9.242-2.263-13.791-3.631-3.074-.853-6.089-1.908-9.024-3.159-.664-.257-1.279-.626-1.819-1.089-.576-.581-.497-.823.376-1.331Zm73.684 141.09c1.403-4.788 2.818-9.573 4.246-14.354 1.427-4.781 2.818-9.507 4.172-14.178 1.431-4.878 2.832-9.762 4.245-14.639 1.401-4.787 2.826-9.567 4.245-14.354 1.614-5.447 3.196-10.941 4.852-16.4 1.759-5.87 3.584-11.715 5.355-17.585.212-.702.643-1.362.57-2.221-1.34.714-2.717.714-4.178.69.2-.902.855-.787 1.31-.817 2.425-.176 3.978-1.501 5.112-3.565 1.88-3.413 3.475-6.959 5.076-10.499.076-.11.122-.238.131-.371.01-.133-.017-.266-.076-.385-1 .212-2.013.352-3.033.417-1.279 0-1.758.648-2.165 1.737-.884 2.493-1.946 4.92-3.178 7.262-.782 1.373-1.991 2.454-3.444 3.08-.328.157-.746.484-1.177 0 .376-.605 1.049-.787 1.601-1.101.969-.517 1.77-1.298 2.311-2.252 1.377-2.597 2.573-5.286 3.578-8.048.109-.061.218-.157.127-.266-.091-.109-.206 0-.315-.037-2.323.164-4.639.351-6.962.497-6.272.333-12.557.35-18.831.048-4.991-.2-9.976-.563-14.949-1.168-4.494-.545-8.939-1.392-13.427-2.003-6.835-.998-13.599-2.433-20.249-4.297-5.974-1.609-11.887-3.4-17.685-5.561-2.674-.998-5.312-2.076-7.962-3.122-.067-.055-.146-.17-.194-.164-.176.043-.158.194-.122.339.2 2.166.388 4.339.607 6.505.224 2.276.8 4.394 2.662 5.937.107.097.199.209.273.333.073.109.176.224.048.375-.026.038-.061.071-.101.095-.04.024-.085.039-.132.044-.046.005-.093 0-.138-.014-.044-.015-.085-.039-.12-.071-.213-.118-.415-.254-.606-.405-1.174-1.056-1.981-2.457-2.305-4-.465-2.424-.715-4.885-.746-7.353 0-1.664-.521-2.662-2.122-3.104-.837-.236-1.492-.944-2.426-1.035.036.393.061.678.091.956.368 4.065.966 8.106 1.789 12.103.161.867.534 1.681 1.086 2.37.553.688 1.267 1.229 2.08 1.576.468.226.92.485 1.352.774.058.043.1.104.117.174.018.069.011.143-.02.208-.011.033-.029.063-.053.088-.023.026-.052.047-.084.061-.032.014-.066.021-.101.022-.035 0-.069-.007-.102-.02-.272-.067-.539-.176-.806-.266-.978-.376-1.906-.867-2.766-1.465 0 .799-.042 1.404-.048 2.015-.073 5.507-.115 11.014-.225 16.521-.115 5.888-.297 11.77-.442 17.658-.176 7.316-.334 14.627-.522 21.937-.194 7.407-.424 14.808-.606 22.215-.213 8.169-.382 16.339-.607 24.496-.041.445.036.893.223 1.299.187.406.479.755.845 1.013 2.369 1.902 4.977 3.489 7.756 4.72 4.924 2.149 10.038 3.832 15.277 5.029 3.717.823 7.526 1.21 11.177 2.33.32.097.654.144.988.139 2.875-.079 5.677.605 8.491.889 3.129.321 6.265.479 9.4.678 2.99.188 5.967-.369 8.957-.514 3.124-.24 6.192-.959 9.097-2.13l3.778-8.866Zm5.386-234.8882c-.116.1623-.218.3344-.304.5144-1.103 3.5905-2.199 7.177-3.287 10.7595-1.352 4.4539-2.686 8.9078-4.032 13.3617-1.589 5.2688-3.182 10.5397-4.779 15.8125-1.589 5.2588-3.033 10.5599-4.901 15.7339-.157.4478-.212 1.2103-.806 1.059-.473-.1331-.103-.8411 0-1.2648.297-1.2102.667-2.4205 1.055-3.8487-.736.1306-1.484.1894-2.232.1755-1.434.0242-2.834.4431-4.045 1.2103-.727.5204-.752.823-.23 1.525.441.498.985.8944 1.595 1.1619 2.856 1.5794 5.967 2.469 9.097 3.3404 1.816.576 3.681.9812 5.573 1.2103 1.255.115 1.274.1089 1.565-1.053.788-3.0862 1.819-6.1059 2.771-9.1317 2.008-6.233 4.063-12.4539 6.113-18.6749 2.62-7.9315 5.248-15.8609 7.884-23.7884.425-1.2829.831-2.5719 1.243-3.8366-4.651-.0908-8.447-2.1604-12.28-4.2663Zm0-1.5431c.207.6009.642 1.0965 1.213 1.3797 2.737 1.6184 5.716 2.7891 8.824 3.4675.51.1185 1.038.1472 1.558.0847.795-.1271.946-.5507.425-1.1679-.49-.5246-1.069-.9588-1.711-1.2829-2.674-1.5311-5.627-2.2209-8.605-2.8503-.293-.0685-.598-.0721-.892-.0104-.294.0617-.572.1871-.812.3675v.0121Z"/>
  <path fill="#412D87" d="M230.847 94.7083c-.685 3.1166-1.783 6.1117-2.735 9.1437-.952 3.032-1.947 6.155-2.929 9.229-.983 3.074-1.959 6.154-2.911 9.246-.952 3.093-1.965 6.149-2.942 9.223 2.857 1.912 8.897 4.236 12.439 4.708 4.063-12.708 8.09-25.416 12.547-37.9853.128.2178.091-.0787.237.0484.03.0268.049.0632.054.1029.013.0924.013.1859 0 .2783-.023.1411-.056.2805-.097.4176-1.572 5.0791-3.141 10.1561-4.706 15.2311-.008.053-.008.106 0 .158.892.302 1.868.242 2.76.605 2.385 1.048 4.266 2.985 5.24 5.398.606 1.361 1.212 2.281 2.832 1.628 6.064-.194 11.177 2.723 13.439 8.593.486 1.176.874 2.39 1.158 3.631.073.333.2.665-.346.865-.382-1.119-.764-2.239-1.158-3.352-.565-1.722-1.452-3.322-2.614-4.715-3.208-3.63-7.314-4.841-12.129-4.375.389 1.543.642 3.116.758 4.702 0 1.447.14 2.905-.382 4.297-.158-1.761-.158-3.498-.321-5.235-.283-2.801-1.304-5.478-2.96-7.758-.624-.993-1.462-1.834-2.454-2.462-.991-.628-2.111-1.028-3.277-1.169-.558-.066-.885.031-1.067.606-1.617 5.155-3.255 10.313-4.913 15.473v.139c.606.006 1.2.162 1.73.455.529.293.977.713 1.303 1.222l-3.178-1.344c-.607 1.295-.904 2.748-1.443 4.103-.116.303-.061.527.327.605.881.18 1.795.1 2.631-.229.837-.328 1.56-.892 2.081-1.623.146-.229.273-.405.54-.344.376.09.34.399.291.683-.107.466-.378.879-.764 1.162-.962.793-2.161 1.242-3.408 1.277-1.759.086-3.518-.139-5.198-.666-4.434-1.281-8.671-3.16-12.596-5.585-.698-.417-1.249-1.041-1.577-1.785-.121-.233-.184-.491-.184-.754 0-.262.063-.52.184-.753.033-.09.095-.167.176-.218.082-.052.177-.075.273-.066.047 0 .094.011.136.033.042.022.078.053.105.092.027.038.045.083.051.129.007.047.003.094-.013.139-.242.877.261 1.446.813 1.991 1.51 1.495 1.704 1.428 2.353-.551 2.199-6.769 4.423-13.537 6.671-20.303 1.407-4.276 2.822-8.556 4.245-12.8409.188-.5567.406-1.1014.607-1.646l.321.1452Z"/>
  <path fill="#412D87" d="M192.95 120.185c.472-1.655 1.27-3.199 2.348-4.543 1.078-1.344 2.413-2.459 3.928-3.281 1.294-.781 2.776-1.194 4.288-1.194 1.512 0 2.994.413 4.288 1.194.257.188.572.282.891.267.319-.016.623-.14.861-.352 2.948-1.961 6.156-2.729 9.649-1.773 1.365.416 2.662 1.027 3.851 1.815.206.127.406.26.315.605-1.37-.363-2.601-1.083-3.929-1.543-3.469-1.21-6.671-.363-9.704 1.416-.442.26-.412.563-.048.908.997.953 1.891 2.008 2.668 3.147.388.476.615 1.063.649 1.676-.916-1.083-1.631-1.93-2.353-2.772-.604-.735-1.283-1.407-2.026-2.003-1.29-1.073-2.885-1.715-4.561-1.836-1.676-.12-3.347.287-4.778 1.165-2.391 1.418-4.278 3.546-5.397 6.087-.231.472-.449.842-.971.981l.031.036Z"/>
  <path fill="#412D87" d="M192.931 120.161c-.103.551.419.405.643.52 2.723 1.398 4.197 3.758 5.125 6.542.07.154.103.322.097.491-.006.17-.052.335-.134.483-.43-.09-.37-.496-.491-.762-.528-1.323-1.229-2.571-2.086-3.71-2.129-2.662-4.949-3.437-8.133-2.281-4.779 1.737-6.671 5.446-6.731 9.682v1.265c-.661-.357-.607-.938-.607-1.368-.57-5.803 4.646-11.219 10.486-10.983.637 0 1.243.496 1.898.121h-.067ZM266.155 131.901c.572.014 1.136.143 1.657.38.522.237.989.577 1.375.999 3.129 2.935 4.809 6.518 4.506 10.893-.024.759-.232 1.5-.606 2.161-.103.169-.255.296-.467.187-.213-.109-.176-.315-.116-.49 1.347-3.927.043-7.328-2.146-10.524-.922-1.394-2.258-2.465-3.821-3.062-.176-.072-.358-.139-.382-.544ZM182.106 116.572c-2.947 4.097-4.366 8.581-3.699 13.876-.33-.287-.587-.648-.753-1.052-.165-.405-.233-.842-.199-1.277-.06-2.808.565-5.589 1.819-8.103.424-.901.957-1.747 1.589-2.518.345-.393.631-.841 1.243-.926ZM203.987 129.075c.485-.126.999-.06 1.436.185.437.245.761.649.905 1.128.205.433.281.915.221 1.39-.06.474-.255.922-.561 1.291-.337.372-.782.63-1.274.738-.491.109-1.003.062-1.467-.133-.563-.113-1.083-.384-1.498-.781-.053-.048-.094-.108-.12-.175-.026-.067-.036-.139-.03-.21.007-.072.03-.141.067-.202.038-.061.089-.113.15-.151.243-.182.333 0 .515.194.328.335.744.57 1.201.677.456.108.934.082 1.377-.072.276-.08.52-.247.694-.476.173-.229.268-.508.27-.795.057-.376.014-.761-.124-1.116-.138-.354-.367-.666-.664-.905-.297-.212-.74-.127-1.098-.587ZM258.132 138.261c-.383.054-.565-.133-.789-.188-.904-.224-1.492.357-1.261 1.253.112.388.302.749.558 1.061.257.312.574.569.934.754.697.412 1.17-.266 1.819-.556-.788 1.343-1.51 1.573-2.529.877-.736-.451-1.278-1.158-1.522-1.985-.116-.415-.075-.858.117-1.245.191-.386.519-.688.92-.849.722-.266 1.067-.114 1.753.878ZM213.514 120.778c.267.526.347 1.126.228 1.703-.119.577-.43 1.096-.882 1.474-1.171 1.156-2.172 1.283-3.809.369 1.183-.042 2.274.327 3.196-.562.922-.89 1.007-1.882 1.267-2.984ZM246.797 132.615c-.218 2.457-1.71 3.274-4.245 2.42.824-.538 1.722.164 2.474-.332.752-.497 1.079-1.283 1.771-2.088ZM216.553 126.563c.727-.157 1.485-.096 2.177.176.063.028.118.07.16.124.042.054.071.117.083.185 0 .23-.182.308-.389.254-.729-.067-1.429-.322-2.031-.739ZM229.628 276.544c.204-.222.454-.397.733-.512.278-.115.579-.168.88-.154 1.037-.115 2.08-.188 3.111-.339 2.626-.387 4.3-2.16 5.671-4.194.509-.744.564-1.815.831-2.705 1.431-4.974 2.864-9.948 4.299-14.923 1.472-5.111 2.95-10.223 4.434-15.334 1.386-4.785 2.779-9.574 4.178-14.366 1.48-5.108 2.958-10.217 4.433-15.329 1.383-4.736 2.78-9.472 4.191-14.209 1.413-4.78 2.808-9.567 4.245-14.336.297-1.212.703-2.394 1.213-3.534.086.205.13.425.13.648 0 .222-.044.442-.13.647-1.484 5.301-2.98 10.6-4.488 15.898-1.892 6.668-3.792 13.335-5.7 20-1.444 5.022-2.918 10.033-4.367 15.05-1.678 5.749-3.325 11.5-4.943 17.253-1.407 4.881-2.822 9.765-4.245 14.65-.812 2.826-1.655 5.652-2.426 8.472-.672 2.451-2.198 4.582-4.305 6.009-2.275 1.598-4.87 1.592-7.745 1.308ZM180.99 268.773c-2.862-.562-5.585-1.416-7.229-4.127-1.344-2.309-1.941-4.976-1.71-7.637.279-5.495.376-11.007.546-16.508.17-5.501.345-11.008.515-16.515.166-5.361.326-10.723.479-16.085.17-5.555.344-11.106.522-16.653.158-4.793.303-9.586.479-14.379.158-4.454.346-8.907.522-13.361-.027-.214 0-.431.079-.632.078-.2.205-.378.369-.518v4.151c-.173 7.5-.357 14.996-.551 22.488-.188 6.783-.407 13.567-.607 20.357-.194 6.88-.37 13.761-.576 20.641-.218 7.549-.449 15.095-.691 22.639-.077 2.558-.164 5.12-.261 7.685.004.426.091.848.254 1.241.977 2.802 2.717 4.841 5.628 5.809.813.291 1.723.503 2.232 1.404ZM180.93 164.307c.033-.043.076-.078.124-.103.048-.025.1-.04.154-.044.054-.004.109.003.16.021.051.018.098.046.138.083 2.262 1.392 4.851 1.882 7.338 2.681 4.663 1.507 9.412 2.699 14.154 3.909 4.422 1.132 8.776 2.578 13.343 3.026 3.323.351 6.604.896 9.867 1.573 2.486.432 5.002.677 7.526.733 5.033.26 10.067.605 15.101.792 3.274.133 6.555.152 9.836.152 1.068 0 2.135-.242 3.214-.285-.964.634-2.11.936-3.262.859-3.942.043-7.884.043-11.832-.151-4.747-.23-9.497-.45-14.252-.659-2.946-.158-5.876-.54-8.763-1.144-2.651-.527-5.349-.896-8.042-1.21-2.688-.361-5.346-.921-7.951-1.677-4.318-1.156-8.642-2.281-12.941-3.497-3.566-1.013-7.114-2.088-10.644-3.226-1.221-.341-2.342-.97-3.268-1.833ZM194.423 273.13c3.597.515 7.072 1.592 10.65 2.124 3.578.533 7.174.708 10.952.969-1.085.556-7.538.393-11.068-.152-3.626-.556-7.059-1.821-10.534-2.941ZM217.038 271.067c.073.048.176.079.206.139.041.055.058.125.048.193-.01.068-.047.129-.102.17-.237.194-.607.212-.734.575-.097.236-.4.151-.607-.036-.042-.038-.077-.085-.1-.137-.023-.052-.035-.109-.035-.166 0-.057.012-.113.035-.166.023-.052.058-.098.1-.136.327-.29.752-.446 1.189-.436ZM191.888 283.327c7.369 3.335 15.529 4.534 23.549 3.462-4.33 2.305-18.285.702-23.549-3.462Z"/>
  <path fill="#A7D7FF" d="M207.887 156.772c13.983 2.898 28.181 4.643 42.452 5.217 3.741.133 7.526.236 11.274.066 5.815-.139 11.595-.605 17.381-1.21.259-.042.523-.042.782 0h.067c4.772-1.21 4.694 5.622 4.809 8.593.388 9.64-.4 19.268-.285 28.908.097 7.94 1.322 15.807 1.783 23.722.273 4.593 1.619 9.894-.219 14.324-1.443 3.473-5.233 4.284-7.72 1.319-1.328-1.579-1.698-3.437-1.698-5.446 0-3.316.352-6.657.607-9.937.315-4.042.606-8.091.673-12.145.036-3.098.115-6.554-.97-9.501-.461-1.259-1.304-2.59-2.827-2.463-4.02.345-5.239 4.938-5.712 8.242-1.771 12.261 1.461 24.255 1.819 36.466.152 5.501.358 10.996.4 16.497.037 5.156.37 10.784-1.152 15.776-.885 2.893-3.293 5.507-6.453 5.803-2.426.224-3.214-1.894-3.639-3.854-.733-3.474-.545-6.887-.454-10.403.109-4.272.127-8.532.382-12.799.539-9.107 1.455-18.191 2.074-27.292.449-6.53.861-13.077.794-19.625-.042-3.776.243-8.89-1.661-12.327-.637-1.15-1.51-2.154-2.96-1.815-4.894 1.21-5.555-16.134-10.643-15.353-1.583.242-1.662 4-1.82 5.095-.37 3.117-.539 6.276-1.243 9.344-.418 1.815-1.049 4.194-2.753 5.283-2.529 1.616-5.567-.539-6.21-3.123-.704-2.832-.085-6.275.097-9.156.206-3.255.418-6.517.4-9.785-.036-4.805-.898-9.47-1.819-14.166l-25.556-4.255Z"/>
  <path fill="#fff" d="M284.603 219.278s2.505 13.035-.479 17.084c-2.984 4.048-3.942 1.21-1.789-4.285 1.165-2.977 1.274-6.166 1.177-9.319-.037-1.15-.783-6.857 1.091-3.48ZM260.363 265.318s-1.073 14.058 1.431 13.822c2.505-.236 2.269-2.149 1.911-4.291-.761-4.771-1.247-9.582-1.456-14.409-.182-3.552.898-9.476-.727-12.647-.795.847-.722 2.541-.68 3.703.116 3.692-.479 13.822-.479 13.822ZM243.279 185.021c.158.677-.23 1.815-.327 2.511-.164 1.071-.346 2.13-.558 3.189-.285 1.44-.685 5.779-2.826 5.447-.088-.007-.172-.04-.242-.093-.07-.054-.123-.127-.152-.21-.011-.086-.001-.173.03-.254.71-2.421 1.213-4.841 2.007-7.22.116-.363 1.795-4.55 2.068-3.37ZM274.645 162.927s6.55-1.404 7.533 1.21c.982 2.614-.249 12.648 0 19.22.248 6.572-3.53 4.236-2.257-3.595 1.274-7.831 1.48-14.021-1.267-14.058-2.747-.036-6.768-2.426-4.009-2.777Z"/>
  <path fill="#FFF66F" d="M113.267 74.9019s12.22-2.8019 8.982-15.2619c0 0 2.51 12.2785 12.996 9.5614 0 0-10.625 4.236-8.405 12.7686 0 0-2.299-9.991-13.573-7.0681ZM324.927 284.689s-12.706 9.38-2.699 22.13c0 0-9.097-12.926-19.825-4.526 0 0 10.146-10.227 3.287-18.966 0 0 7.678 10.397 19.237 1.362Z"/>
</svg>