<svg xmlns="http://www.w3.org/2000/svg" fill="none" viewBox="0 0 347 283">
  <g clip-path="url(#a)">
    <path fill="#F6ECD8" d="M332.918 30.9266c-.004-.2195-.073-.4329-.198-.6134-.125-.1804-.301-.3198-.506-.4007-.204-.0809-.428-.0996-.642-.0538-.215.0459-.412.1542-.565.3113-.154.1572-.257.3562-.298.572-.04.2158-.016.4387.07.6408.086.2021.23.3743.413.4948.184.1206.399.1843.619.1829.147-.0018.292-.0325.428-.0905.135-.058.258-.142.36-.2473.103-.1053.184-.2298.239-.3664.055-.1366.082-.2826.08-.4297ZM318.185 98.2767c0 .1705-.068.3341-.188.4547-.121.1205-.285.1883-.455.1883-.171 0-.335-.0678-.455-.1883-.121-.1206-.189-.2842-.189-.4547 0-.1706.068-.3341.189-.4547.12-.1206.284-.1883.455-.1883.17 0 .334.0677.455.1883.12.1206.188.2841.188.4547ZM335.243 124.032c.001.036-.005.072-.018.106-.013.034-.033.065-.058.091-.025.027-.055.048-.088.062-.034.015-.069.023-.106.024-.067-.01-.127-.044-.171-.096-.044-.051-.068-.116-.068-.184 0-.068.024-.133.068-.184.044-.051.104-.085.171-.096.036 0 .072.007.105.021.033.014.063.035.089.06.025.026.044.057.058.09.013.034.019.07.018.106ZM332.918 150.81c-.004.219-.073.432-.198.612-.125.181-.3.32-.504.401-.204.081-.427.101-.642.055-.215-.045-.411-.153-.565-.309-.154-.157-.258-.355-.299-.57-.041-.216-.018-.438.067-.641.085-.202.227-.374.41-.496.183-.121.397-.186.617-.186.298.004.582.125.791.337.209.213.325.499.323.797ZM347 175.396c-.003.149-.05.294-.134.416-.085.122-.204.217-.343.271-.138.055-.29.068-.435.036-.146-.031-.279-.104-.383-.211-.104-.107-.174-.242-.201-.388-.027-.146-.01-.297.048-.434.059-.137.156-.253.281-.334.125-.082.271-.125.42-.123.099.001.198.021.289.06.092.04.175.097.244.168.07.071.124.156.161.248.037.093.055.192.053.291ZM325.659 237.091c.023.101.023.206 0 .307s-.069.196-.134.277c-.065.082-.147.147-.241.192-.093.045-.196.069-.3.069-.104 0-.206-.024-.3-.069-.094-.045-.176-.11-.241-.192-.065-.081-.11-.176-.133-.277-.024-.101-.024-.206 0-.307-.024-.102-.024-.207 0-.308.023-.101.068-.196.133-.277.065-.081.147-.147.241-.192.094-.045.196-.069.3-.069.104 0 .207.024.3.069.094.045.176.111.241.192s.111.176.134.277c.023.101.023.206 0 .308ZM316.967 196.007c0 .183-.072.359-.202.489s-.306.203-.49.203c-.183 0-.359-.073-.489-.203s-.203-.306-.203-.489.073-.359.203-.489c.13-.129.306-.202.489-.202.184 0 .36.073.49.202.13.13.202.306.202.489ZM272.59 24.1716c-.001.1269-.04.2505-.112.3553-.071.1049-.172.1862-.29.2338s-.247.0594-.371.0338c-.125-.0256-.239-.0874-.328-.1776-.089-.0902-.15-.2048-.174-.3293-.024-.1245-.011-.2535.038-.3706.049-.1171.131-.2171.237-.2874.105-.0704.23-.1079.356-.1079.086 0 .17.0168.248.0496.079.0327.15.0807.21.1411.06.0605.107.1322.139.211.032.0788.048.1632.047.2482ZM289.654 49.9334c0 .0547-.016.1082-.046.1537-.031.0455-.074.0809-.124.1018-.051.021-.107.0264-.16.0158-.054-.0107-.103-.037-.142-.0757-.039-.0387-.065-.088-.076-.1416-.011-.0537-.005-.1093.016-.1598s.056-.0937.102-.1241c.045-.0304.099-.0466.154-.0466.073 0 .143.0291.195.081.052.0518.081.1222.081.1955ZM287.323 76.7047c-.005.2179-.073.4297-.197.6089-.124.1792-.298.3177-.501.3983-.203.0805-.425.0995-.638.0545-.213-.045-.409-.152-.562-.3075-.152-.1555-.256-.3526-.297-.5666-.041-.214-.018-.4354.067-.6363.084-.2009.226-.3725.407-.4932.182-.1206.395-.185.613-.185.147.0009.293.0308.428.088.135.0572.258.1406.361.2453.103.1048.184.2288.238.365.055.1362.082.2819.081.4286ZM301.411 101.264c-.002.148-.049.292-.133.414-.085.123-.204.217-.342.272-.138.055-.289.068-.434.037-.146-.03-.279-.103-.383-.209-.104-.106-.174-.24-.202-.386-.028-.146-.013-.297.045-.434.057-.137.154-.254.278-.336.123-.082.269-.126.417-.126.1.001.199.022.291.061.092.039.175.095.245.167.07.071.126.155.163.248.038.093.056.192.055.292ZM280.071 162.992c0 .137-.041.271-.117.385-.076.113-.184.202-.311.254-.126.053-.265.066-.399.04-.135-.027-.258-.093-.355-.19-.097-.096-.162-.22-.189-.354-.027-.134-.013-.273.039-.399.053-.127.141-.234.255-.31.114-.076.248-.117.385-.117.183 0 .359.073.489.203.13.129.203.305.203.488ZM271.407 121.909c0 .183-.073.359-.203.489-.13.129-.306.202-.489.202-.184 0-.36-.073-.49-.202-.129-.13-.202-.306-.202-.489s.073-.359.202-.489c.13-.13.306-.202.49-.202.183 0 .359.072.489.202s.203.306.203.489ZM164.03 195.067c.085.2.228.371.409.491.182.12.396.184.614.184.218-.001.431-.066.612-.187s.323-.293.407-.494c.083-.201.106-.422.065-.636-.042-.214-.146-.411-.298-.566-.153-.155-.349-.262-.562-.306-.214-.045-.435-.026-.638.055-.274.113-.492.33-.606.604-.114.273-.115.581-.003.855ZM152.695 127.067c-.044-.119-.052-.247-.023-.37.029-.124.094-.235.186-.322.092-.086.208-.144.333-.165.124-.021.253-.005.368.046.116.051.214.135.282.242.068.106.103.23.101.357-.002.126-.041.249-.113.353-.071.104-.172.185-.29.232-.079.031-.165.047-.251.045-.085-.002-.17-.021-.248-.056-.079-.035-.15-.084-.209-.147-.059-.062-.105-.135-.136-.215ZM127.285 109.477c-.027-.067-.027-.143.002-.211.029-.067.083-.12.15-.148.034-.014.069-.02.105-.02.036.001.071.008.104.022.033.014.062.035.087.061.025.025.044.056.057.089.014.033.021.069.021.104 0 .036-.007.072-.021.105-.014.033-.034.063-.06.088-.025.025-.055.045-.088.059-.034.014-.069.021-.105.021-.036-.001-.071-.008-.104-.021-.033-.014-.064-.034-.089-.06-.025-.025-.045-.055-.059-.089ZM119.5 83.7502c-.076-.2036-.091-.4253-.042-.6373.049-.212.159-.4049.317-.5545s.357-.2494.572-.2868c.214-.0374.435-.0108.634.0765.2.0873.369.2314.487.4143s.179.3964.176.614c-.003.2175-.07.4293-.193.6089-.123.1797-.296.3191-.497.401-.278.1065-.586.0995-.858-.0196-.272-.1191-.486-.3406-.596-.6165ZM97.3012 66.1538c-.0544-.0933-.0882-.1972-.0989-.3048-.0107-.1075.0019-.216.0368-.3182.035-.1023.0915-.1958.1658-.2743.0743-.0785.1646-.1401.2648-.1806.1003-.0406.208-.0591.3161-.0544.108.0047.2137.0325.31.0816.0963.0492.1809.1184.2481.2031.0672.0846.1154.1827.1413.2876.0544.0933.0881.1973.0988.3048.0108.1075-.0018.216-.0367.3183-.035.1022-.0915.1957-.1658.2742-.0743.0785-.1646.1401-.2649.1807-.1002.0405-.208.0591-.316.0544-.108-.0047-.2138-.0326-.3101-.0817s-.1809-.1184-.248-.203c-.0672-.0847-.1154-.1828-.1413-.2877ZM117.528 35.8633c-.047-.1273-.055-.2655-.024-.3974.032-.132.101-.2518.2-.3447.099-.0928.223-.1545.357-.1775.133-.023.271-.0061.395.0484.124.0546.23.1444.303.2584.074.1139.112.247.111.3825-.002.1356-.043.2678-.119.38-.076.1122-.184.1996-.309.2513-.087.0355-.179.0533-.272.0522-.093-.0011-.185-.0209-.271-.0584-.085-.0374-.162-.0917-.225-.1595-.064-.0679-.114-.1479-.146-.2353ZM176.604 42.646c-.006-.2175-.075-.4286-.2-.6068-.125-.1783-.3-.3158-.503-.3953-.202-.0795-.424-.0975-.637-.0517-.213.0457-.408.1532-.56.309-.152.1557-.254.3528-.295.5666-.041.2139-.017.4348.067.6354.085.2005.227.3717.408.4921.182.1203.395.1846.613.1846.147-.0008.293-.031.429-.0886.135-.0577.258-.1417.361-.2472.103-.1054.184-.2303.239-.3673.054-.137.08-.2834.078-.4308ZM178.901 135.772c.001.037-.005.073-.019.108-.013.034-.034.065-.059.092-.026.026-.057.047-.091.061-.034.015-.071.022-.108.022-.066-.01-.127-.044-.171-.096-.044-.051-.068-.116-.068-.184 0-.067.024-.133.068-.184.044-.051.105-.085.171-.096.074 0 .144.029.196.081.052.052.081.122.081.196ZM176.604 162.55c-.006.217-.075.429-.2.607s-.3.316-.503.395c-.202.08-.424.098-.637.052-.213-.046-.408-.153-.56-.309-.152-.156-.254-.353-.295-.567-.041-.214-.017-.435.067-.635.085-.201.227-.372.408-.492.182-.121.395-.185.613-.185.147.002.292.033.427.091.136.058.258.142.361.247.103.105.184.23.239.366.054.137.082.283.08.43ZM190.658 187.109c-.003.148-.049.292-.134.415-.084.122-.203.216-.341.271-.138.055-.289.068-.435.037-.145-.03-.278-.103-.382-.209-.104-.106-.175-.24-.203-.386-.028-.146-.012-.297.045-.434.058-.137.154-.253.278-.336.124-.082.269-.126.418-.126.1.001.199.022.291.061.092.039.175.096.245.167.07.071.125.155.163.248.037.093.056.192.055.292ZM169.317 248.831c0 .136-.041.27-.117.384-.076.113-.184.202-.31.254-.127.053-.266.066-.4.04-.134-.027-.258-.093-.354-.189-.097-.097-.163-.22-.19-.354-.027-.135-.013-.274.04-.4.052-.126.141-.234.254-.31.114-.076.248-.117.385-.117.183 0 .359.073.489.203.13.129.203.305.203.489ZM160.619 207.747c0 .137-.041.271-.117.384-.076.114-.184.203-.311.255-.126.052-.265.066-.399.039-.135-.026-.258-.092-.355-.189-.096-.097-.162-.22-.189-.354-.027-.134-.013-.273.039-.399.053-.127.141-.235.255-.311.114-.076.248-.116.385-.116.183 0 .359.073.489.202.13.13.203.306.203.489ZM224.836 34.0449c-.002.0544-.019.1071-.05.1517-.032.0446-.075.0789-.126.0988-.051.0199-.106.0244-.159.013-.054-.0115-.102-.0384-.14-.0773-.038-.0389-.064-.0882-.074-.1417-.01-.0534-.004-.1087.017-.1588.021-.0501.056-.0929.102-.123.045-.0301.098-.0462.153-.0462.037 0 .073.0074.107.0217s.065.0353.091.0617c.026.0265.046.0578.059.0921.014.0344.02.0711.02.108ZM222.503 60.8162c-.004.2179-.072.4297-.196.6089-.124.1791-.299.3177-.501.3982-.203.0806-.425.0996-.638.0546-.214-.045-.409-.152-.562-.3075-.152-.1555-.256-.3526-.297-.5666-.041-.214-.018-.4354.067-.6363.084-.201.226-.3725.407-.4932.182-.1207.395-.1851.613-.1851.147.0009.292.0308.428.088.135.0573.258.1406.361.2454.102.1047.184.2288.238.365.055.1362.082.2818.08.4286ZM215.251 147.104c0 .137-.04.27-.116.384-.076.114-.184.202-.311.255-.126.052-.265.066-.4.039-.134-.027-.257-.093-.354-.189-.097-.097-.163-.22-.189-.354-.027-.134-.013-.273.039-.4.052-.126.141-.234.255-.31.114-.076.248-.117.384-.117.184 0 .36.073.49.203s.202.306.202.489ZM206.553 106.02c0 .184-.073.36-.203.489-.13.13-.306.203-.489.203-.184 0-.36-.073-.489-.203-.13-.129-.203-.305-.203-.489 0-.183.073-.359.203-.488.129-.13.305-.203.489-.203.183 0 .359.073.489.203.13.129.203.305.203.488ZM94.6854 143.495c-.0094.125-.0552.244-.1317.344-.0765.099-.1804.174-.2989.215-.1185.041-.2464.046-.3681.016-.1216-.031-.2317-.096-.3166-.188-.0849-.093-.141-.208-.1614-.331-.0204-.124-.0041-.251.0467-.365.0509-.115.1341-.212.2396-.28.1054-.068.2284-.104.3538-.103.0881.001.1752.02.2558.056.0806.035.153.087.2127.152s.1054.141.1343.224c.029.084.0405.172.0338.26ZM111.75 169.25c0 .054-.016.108-.047.153-.03.046-.073.081-.124.102-.05.021-.106.027-.16.016-.053-.011-.103-.037-.142-.076-.038-.038-.065-.088-.075-.141-.011-.054-.005-.11.015-.16.021-.051.057-.094.102-.124.046-.031.099-.047.154-.047.074 0 .144.029.196.081.052.052.081.122.081.196ZM109.418 196.028c-.005.217-.075.428-.2.607-.125.178-.3.315-.502.395-.203.079-.425.097-.638.052-.213-.046-.407-.154-.559-.309-.152-.156-.255-.353-.296-.567-.04-.214-.017-.435.068-.635.084-.201.226-.372.408-.492.181-.121.394-.185.612-.185.147.001.293.031.429.089.136.057.259.141.362.247.103.105.184.23.238.367.054.137.081.283.078.431ZM93.4675 241.225c0 .137-.0406.271-.1166.384-.0761.114-.1841.203-.3106.255-.1264.052-.2656.066-.3998.039-.1342-.026-.2575-.092-.3543-.189s-.1627-.22-.1894-.354c-.0267-.134-.013-.273.0394-.399.0524-.127.141-.235.2548-.311.1138-.076.2476-.116.3845-.116.1835 0 .3595.073.4893.202.1298.13.2027.306.2027.489ZM254.716 140.764c.002.129-.034.256-.105.364-.07.108-.172.193-.291.242-.12.05-.251.062-.378.036-.127-.026-.242-.09-.332-.182-.09-.093-.15-.211-.172-.338-.022-.128-.005-.259.049-.376.053-.118.141-.216.252-.283.11-.067.239-.099.368-.093.161.011.313.081.426.197.113.117.178.271.183.433ZM271.773 166.525c.007.04.004.08-.007.119-.01.038-.029.074-.055.105-.026.03-.059.054-.095.071-.036.017-.076.026-.116.026-.04 0-.08-.009-.116-.026-.036-.017-.069-.041-.095-.071-.026-.031-.045-.067-.056-.105-.01-.039-.013-.079-.006-.119-.007-.039-.004-.079.006-.118.011-.038.03-.074.056-.105.026-.03.059-.054.095-.071.036-.017.076-.026.116-.026.04 0 .08.009.116.026.036.017.069.041.095.071.026.031.045.067.055.105.011.039.014.079.007.118ZM269.448 193.297c-.002.219-.07.433-.194.614-.124.182-.299.322-.503.404-.204.082-.427.103-.642.058-.216-.044-.413-.152-.567-.308-.155-.156-.259-.354-.301-.57-.042-.215-.019-.439.065-.641.085-.203.228-.376.411-.498.183-.121.397-.186.617-.186.147.001.293.031.429.088.135.057.258.14.362.245.103.104.185.228.241.365.055.136.083.282.082.429ZM283.53 217.856c-.002.148-.049.292-.133.414-.085.123-.204.217-.342.272-.138.055-.289.068-.434.037-.146-.03-.279-.103-.383-.209-.104-.106-.175-.24-.203-.386-.028-.146-.012-.297.046-.434.057-.137.154-.254.278-.336.123-.082.269-.126.417-.126.1.001.199.022.291.061.092.039.175.096.245.167.07.071.126.155.163.248.038.093.056.192.055.292ZM253.498 238.501c0 .137-.041.27-.117.384-.076.114-.184.202-.31.255-.127.052-.266.066-.4.039-.134-.027-.258-.092-.355-.189-.096-.097-.162-.22-.189-.354-.027-.134-.013-.273.039-.4.053-.126.142-.234.255-.31.114-.076.248-.116.385-.116.183 0 .359.072.489.202s.203.306.203.489ZM40.4054 22.9548c-.0054-.2176-.0749-.4287-.1999-.6069-.1249-.1783-.2996-.3158-.5024-.3953-.2027-.0795-.4244-.0975-.6373-.0517-.2129.0458-.4076.1532-.5597.309-.1521.1557-.2548.3529-.2954.5667-.0405.2138-.017.4348.0676.6353.0845.2005.2264.3717.4078.4921.1814.1204.3944.1846.6121.1847.2968-.0055.5794-.1276.7867-.3398.2072-.2123.3224-.4976.3205-.7941ZM25.673 90.3047c-.0094.1247-.055.244-.1312.3432-.0762.0991-.1797.174-.2978.2153-.1181.0413-.2457.0474-.3672.0174-.1215-.03-.2316-.0948-.3168-.1864-.0852-.0915-.1419-.2059-.163-.3291-.0212-.1233-.0059-.25.0439-.3647.0498-.1147.132-.2124.2365-.2812.1046-.0687.2269-.1055.352-.1059.0885.0008.1758.0196.2568.0552.0809.0357.1537.0874.214.1521.0602.0648.1066.1411.1363.2243.0297.0832.0421.1717.0365.2598ZM42.7306 116.06c.001.036-.0053.071-.0185.105-.0131.033-.0329.064-.058.09-.0252.026-.0552.046-.0884.06-.0332.014-.0689.021-.1049.021-.0735 0-.1439-.029-.1958-.081-.0519-.052-.081-.122-.081-.195 0-.074.0291-.144.081-.196.0519-.052.1223-.081.1958-.081.036 0 .0717.007.1049.021.0332.014.0632.035.0884.06.0251.026.0449.057.058.09.0132.034.0195.07.0185.106ZM40.4054 142.838c-.0054.217-.0749.429-.1999.607-.1249.178-.2997.316-.5024.395-.2027.08-.4244.098-.6373.052-.2129-.046-.4076-.153-.5597-.309-.1521-.156-.2548-.353-.2954-.567-.0405-.214-.017-.435.0676-.635.0845-.201.2264-.372.4078-.492.1814-.121.3944-.185.6121-.185.1473.002.2927.033.428.091.1353.057.2579.141.3607.247.1028.105.1839.23.2385.366.0547.137.0819.283.08.43ZM54.4945 167.39c-.0027.148-.0493.293-.1338.415s-.2032.216-.3413.271c-.138.055-.2892.068-.4346.037-.1454-.03-.2785-.103-.3826-.209-.1041-.106-.1746-.24-.2026-.386-.028-.146-.0123-.297.0452-.434.0575-.136.1541-.253.2778-.336.1238-.082.269-.126.4176-.126.2013.004.3932.086.5342.23.1411.143.2201.337.2201.538ZM33.1464 229.119c0 .136-.0405.27-.1166.384-.076.113-.1841.202-.3105.254-.1265.053-.2656.066-.3999.04-.1342-.027-.2575-.093-.3543-.189-.0967-.097-.1627-.22-.1894-.355-.0267-.134-.0129-.273.0394-.399.0524-.126.1411-.234.2549-.31.1138-.076.2476-.117.3844-.117.1836 0 .3596.073.4894.203.1297.129.2026.305.2026.489ZM24.455 188.035c0 .137-.0406.271-.1166.384-.076.114-.1841.203-.3105.255-.1265.052-.2656.066-.3999.039-.1342-.026-.2575-.092-.3543-.189s-.1627-.22-.1894-.354c-.0267-.134-.013-.273.0394-.399.0524-.127.1411-.235.2549-.311.1138-.076.2476-.116.3844-.116.1836 0 .3596.073.4894.202.1297.13.2026.306.2026.489Z"/>
    <path fill="#FFF66F" d="M285.973 246.611s-15.424-9.334-24.579 6.748c0 0 9.743-15.211-3.8-22.878 0 0 15.224 6.264 21.452-4.757.035.021-7.639 12.632 6.927 20.887ZM52.4184 125.822s-8.5461-5.171-13.6115 3.734c0 0 5.3907-8.408-2.0759-12.667 0 0 8.4215 3.457 11.8953-2.634-.0415 0-4.2696 6.983 3.7921 11.567ZM235.72 57.7394s8.207-5.6833 2.139-13.9387c0 0 5.487 8.3522 12.456 3.2496 0 0-6.609 6.271-2.45 11.9268.014 0-4.664-6.7205-12.145-1.2377Z"/>
    <path fill="#D7099C" d="M70.4795 114.836V70.807h12.5873v37.737h25.1812v6.292H70.4795ZM116.4 114.836V70.807h37.783v6.2918h-25.182v12.5629h18.892v6.2918h-18.892V108.53h25.182v6.292l-37.783.014ZM174.936 114.836v-6.292h-6.29V95.9673h-6.297V70.807h12.587v31.445h12.594V70.807h12.601v25.1603h-6.29v12.5767h-6.297v6.292h-12.608ZM208.283 114.836V70.807h37.769v6.2918h-25.161v12.5629h18.885v6.2918h-18.885V108.53h25.175v6.292l-37.783.014ZM254.218 114.836V70.807h12.594v37.737h25.174v6.292h-37.768ZM87.0804 241.93v-16.593H70.4725v-99.563h33.2155v99.563h33.216v-99.563h33.216v99.563h-16.608v16.593H87.0804ZM191.627 241.93V125.815h83.039v16.594h16.608v49.782h-16.608v16.593h-49.824v33.188l-33.215-.042Zm66.431-49.781v-49.781h-33.216v49.781h33.216Z"/>
    <path fill="#38B5FF" d="M64.1824 114.836V70.807h12.5873v37.737h25.1813v6.292H64.1824ZM110.117 114.836V70.807h37.769v6.2918h-25.182v12.5629h18.892v6.2918h-18.892V108.53h25.182v6.292l-37.769.014ZM168.639 114.836v-6.292h-6.29V95.9673h-6.298V70.807h12.588v31.445h12.594V70.807h12.587v25.1603h-6.29v12.5767h-6.297v6.292h-12.594ZM201.986 114.836V70.807h37.769v6.2918H214.58v12.5629h18.885v6.2918H214.58V108.53h25.175v6.292l-37.769.014ZM247.92 114.836V70.807h12.588v37.737h25.181v6.292H247.92ZM80.7832 241.93v-16.593H64.1754v-99.563h33.2157v99.563h33.2159v-99.563h33.215v99.563h-16.607v16.593H80.7832ZM185.33 241.93V125.815h83.039v16.594h16.608v49.782h-16.608v16.593h-49.824v33.188l-33.215-.042Zm66.431-49.781v-49.781h-33.216v49.781h33.216Z"/>
    <path fill="#fff" d="M67.0126 114.836V70.807h12.5873v37.737h25.1821v6.292H67.0126ZM112.94 114.836V70.807h37.769v6.2918h-25.175v12.5629h18.885v6.2918h-18.885V108.53h25.182v6.292l-37.776.014ZM171.469 114.836v-6.292h-6.297V95.9673h-6.29V70.807h12.587v31.445h12.587V70.807h12.615v25.1603h-6.297v12.5767h-6.297v6.292h-12.608ZM204.816 114.836V70.807h37.769v6.2918h-25.154v12.5629h18.885v6.2918h-18.885V108.53h25.182v6.292l-37.797.014ZM250.751 114.836V70.807h12.587v37.737h25.182v6.292h-37.769ZM83.6136 241.93v-16.593H67.0057v-99.563h33.2153v99.563h33.216v-99.563h33.216v99.563h-16.608v16.593H83.6136ZM188.153 241.93V125.815h83.039v16.594H287.8v49.782h-16.608v16.593h-49.823v33.188l-33.216-.042Zm66.431-49.781v-49.781h-33.215v49.781h33.215Z"/>
    <path stroke="#D7099C" stroke-miterlimit="10" stroke-width="2" d="M272.791 93.8724c26.828-4.584 44.675-3.5054 47.906 4.3628 7.079 17.2438-58.695 60.5398-146.91 96.7138C85.5719 231.124 8.29699 246.466 1.2179 229.222c-4.42184-10.758 19.5211-31.652 59.5737-54.621"/>
  </g>
  <defs>
    <clipPath id="a">
      <path fill="#fff" d="M0 0h347v283H0z"/>
    </clipPath>
  </defs>
</svg>
