<svg width="114" height="19" viewBox="0 0 114 19" fill="none" xmlns="http://www.w3.org/2000/svg">
<path d="M7.51206 7.58823L7.61046 5.44967H7.4928L5.29648 9.04008H4.82584L2.53112 5.44967H2.43271L2.55037 7.37216V14.9028H0V1.17505H2.72686L5.08042 4.97939H5.1585L7.4928 1.17505H10.1997V14.9028H7.51206V7.58823Z" fill="#29C278"/>
<path d="M12.1396 12.7459H15.5924V7.25366H12.1396V5.09763H18.141V12.7459H21.7699V14.9026H12.1396V12.7459ZM15.1207 2.42996C15.1207 2.02528 15.2719 1.67872 15.5735 1.39099C15.8737 1.10325 16.2923 0.958496 16.8279 0.958496C17.3769 0.958496 17.8159 1.10325 18.1428 1.39099C18.4701 1.67872 18.6338 2.02528 18.6338 2.42996C18.6338 2.84854 18.4701 3.19261 18.1428 3.46073C17.8166 3.72885 17.3777 3.86185 16.8279 3.86185C16.2923 3.86185 15.8737 3.72885 15.5735 3.46073C15.2712 3.19261 15.1207 2.84854 15.1207 2.42996Z" fill="#29C278"/>
<path d="M26.8889 9.84363L23.4757 5.09766H26.5159L28.7322 8.37288L31.0466 5.09766H33.8116L30.4583 9.80513L34.0063 14.9027H31.0466L28.5561 11.2948L26.0261 14.9027H23.2407L26.8889 9.84363Z" fill="#29C278"/>
<path d="M44.9703 4.37131C44.9703 4.71252 44.9279 5.05088 44.8423 5.39067C44.7582 5.73189 44.6177 6.0403 44.4209 6.32304C44.2259 6.60364 43.9695 6.85358 43.6558 7.06822C43.3413 7.28357 42.9637 7.44509 42.5177 7.54884V7.6665C42.9113 7.73139 43.2828 7.84192 43.6361 8.00094C43.9898 8.15711 44.2968 8.37282 44.5589 8.64736C44.8195 8.92225 45.0256 9.25527 45.1764 9.64818C45.3265 10.0407 45.4018 10.5042 45.4018 11.0391C45.4018 11.7447 45.2513 12.3558 44.9493 12.8738C44.6495 13.3891 44.2473 13.8123 43.7442 14.1378C43.2407 14.4644 42.6671 14.7065 42.0285 14.8634C41.3856 15.0203 40.726 15.0987 40.0457 15.0987C39.8233 15.0987 39.5394 15.0987 39.1925 15.0987C38.8463 15.0987 38.4723 15.0901 38.0748 15.0709C37.6758 15.0495 37.2697 15.0203 36.8582 14.981C36.4475 14.9425 36.071 14.8844 35.7305 14.8042V1.27329C35.9783 1.23371 36.2639 1.19449 36.5833 1.15491C36.9042 1.11748 37.2476 1.08539 37.6148 1.05829C37.9796 1.0319 38.3568 1.01229 38.7415 0.997676C39.1269 0.986623 39.5095 0.979492 39.8899 0.979492C40.5303 0.979492 41.155 1.02763 41.7621 1.12568C42.3701 1.22373 42.9134 1.39665 43.3891 1.64516C43.8665 1.8951 44.2491 2.24059 44.5379 2.68556C44.8263 3.1291 44.9703 3.69245 44.9703 4.37131ZM39.1633 6.94093C39.349 6.94093 39.5658 6.9338 39.8122 6.92275C40.0593 6.90813 40.2632 6.88852 40.4237 6.86356C40.9293 6.70739 41.3671 6.47564 41.734 6.16438C42.0994 5.85383 42.2834 5.44701 42.2834 4.94285C42.2834 4.60592 42.2164 4.32638 42.0827 4.10711C41.9486 3.88712 41.7728 3.71313 41.5536 3.58334C41.3332 3.45463 41.0836 3.36335 40.8034 3.31237C40.5235 3.26067 40.2308 3.23357 39.9231 3.23357C39.5762 3.23357 39.2571 3.2407 38.9629 3.2539C38.6702 3.26637 38.4434 3.28598 38.2844 3.31094V6.94058L39.1633 6.94093ZM40.0283 12.845C40.3545 12.845 40.6725 12.8054 40.9795 12.7266C41.2865 12.6492 41.5582 12.5301 41.7928 12.3693C42.0296 12.2071 42.2175 12.0025 42.3622 11.7564C42.5059 11.5111 42.5776 11.2188 42.5776 10.8818C42.5776 10.455 42.4927 10.1178 42.3219 9.87423C42.1511 9.62714 41.9294 9.43746 41.6541 9.30126C41.3796 9.16542 41.0733 9.07842 40.7332 9.03956C40.3937 9.00141 40.0539 8.9818 39.7141 8.9818H38.283V12.7284C38.3475 12.7548 38.452 12.7737 38.596 12.7876C38.7397 12.7993 38.8937 12.81 39.057 12.8161C39.2207 12.8236 39.3904 12.8293 39.5669 12.8371C39.7441 12.8421 39.8974 12.845 40.0283 12.845Z" fill="#29C278"/>
<path d="M52.1866 12.1387H52.9336L54.8361 5.09766H57.4635L54.6778 13.9425C54.43 14.6745 54.1872 15.3458 53.9529 15.9516C53.7169 16.5617 53.442 17.0876 53.129 17.5311C52.8152 17.9768 52.4448 18.3201 52.0208 18.5612C51.5962 18.8029 51.0774 18.9252 50.4609 18.9252C50.1611 18.9252 49.8762 18.8863 49.6081 18.8075C49.3407 18.728 49.0939 18.635 48.8725 18.5241C48.6497 18.4114 48.4539 18.2938 48.2842 18.1704C48.1142 18.0463 47.9769 17.9315 47.8739 17.8278L49.1874 16.0814C49.3581 16.2262 49.5607 16.3591 49.7953 16.4839C50.0302 16.608 50.2527 16.6697 50.4613 16.6697C50.8546 16.6697 51.1651 16.5331 51.3937 16.2582C51.6226 15.9837 51.8415 15.5334 52.0504 14.9044H50.6581L46.5796 5.09944H49.345L52.1866 12.1387Z" fill="#29C278"/>
<path d="M60.3262 7.25373H58.3862V5.0977H60.3262V2.86109L62.8751 2.13623V5.09805H68.0137V7.25408H62.8751V10.0597C62.8751 11.0656 63.0641 11.794 63.4438 12.2457C63.8228 12.6982 64.3534 12.9235 65.0329 12.9235C65.3849 12.9235 65.7058 12.8797 65.9928 12.7959C66.2809 12.7117 66.5376 12.6037 66.7686 12.4721C66.9968 12.3416 67.2065 12.1972 67.3958 12.0411C67.5847 11.8835 67.7598 11.7401 67.9153 11.61L69.0922 13.3745C68.8694 13.6352 68.5931 13.8733 68.2586 14.0905C67.9252 14.3055 67.5666 14.4969 67.1804 14.6599C66.795 14.8221 66.3928 14.9498 65.9739 15.041C65.556 15.1323 65.1445 15.1787 64.7377 15.1787C63.2745 15.1787 62.1731 14.7701 61.4333 13.9529C60.6952 13.136 60.3255 11.8378 60.3255 10.0601V7.25444L60.3262 7.25373Z" fill="#29C278"/>
<path d="M80.2901 13.8638C80.1207 14.0211 79.9018 14.1744 79.6333 14.3248C79.3662 14.4753 79.0518 14.6165 78.6924 14.747C78.3308 14.8778 77.9376 14.9816 77.5058 15.0604C77.0747 15.1392 76.6158 15.1766 76.1317 15.1766C75.2941 15.1766 74.5472 15.0604 73.8858 14.8244C73.2258 14.5905 72.6671 14.2464 72.2097 13.795C71.7522 13.3451 71.4014 12.8027 71.1621 12.167C70.9179 11.5349 70.7981 10.8125 70.7981 10.0014C70.7981 9.13924 70.9347 8.38372 71.2085 7.73552C71.4834 7.08911 71.8599 6.55108 72.3373 6.11788C72.8136 5.68753 73.3741 5.3645 74.0127 5.14629C74.6534 4.93165 75.3458 4.82397 76.0921 4.82397C76.5898 4.82397 77.1022 4.88958 77.6306 5.02043C78.1604 5.15057 78.6478 5.37698 79.0931 5.69715C79.5377 6.01662 79.9003 6.44519 80.1806 6.98143C80.4619 7.51767 80.6031 8.19796 80.6031 9.02194C80.6031 9.58279 80.5371 10.1907 80.4066 10.8453H73.3467C73.3595 11.2643 73.4469 11.6176 73.6105 11.9043C73.7742 12.192 73.9895 12.428 74.2573 12.6099C74.5247 12.7924 74.8321 12.9279 75.1793 13.011C75.5262 13.0962 75.8946 13.1386 76.2871 13.1386C77.0719 13.1386 77.7154 13.0473 78.2182 12.8644C78.722 12.6794 79.1306 12.458 79.444 12.1973L80.2901 13.8638ZM76.0554 6.86234C75.7149 6.86234 75.3943 6.90834 75.0938 7.00247C74.7928 7.09588 74.5219 7.23173 74.2808 7.41249C74.0373 7.59219 73.8401 7.81575 73.6822 8.08102C73.526 8.34771 73.4351 8.64864 73.4073 8.98058H78.2328C78.2328 8.3281 78.0524 7.81147 77.6919 7.43246C77.3332 7.05345 76.787 6.86234 76.0554 6.86234Z" fill="#29C278"/>
<path d="M89.4688 12.1973C89.4688 11.9363 89.3094 11.7274 88.9875 11.5684C88.668 11.4122 88.2715 11.2682 87.8023 11.1387C87.3317 11.0065 86.8143 10.872 86.2521 10.7348C85.6905 10.5975 85.1739 10.4082 84.7018 10.1664C84.2312 9.92398 83.8357 9.617 83.5166 9.24512C83.1961 8.87182 83.0349 8.39012 83.0349 7.80361C83.0349 7.31906 83.1433 6.89335 83.3583 6.5286C83.5737 6.16243 83.8686 5.85045 84.2408 5.59766C84.6141 5.3413 85.0583 5.14841 85.5746 5.01827C86.0905 4.88742 86.651 4.82324 87.2522 4.82324C87.8911 4.82324 88.4541 4.86781 88.9379 4.95909C89.4217 5.05036 89.8439 5.16232 90.2033 5.29353C90.5634 5.42366 90.8697 5.56985 91.126 5.73422C91.381 5.89858 91.5988 6.04405 91.7828 6.17491L90.705 7.9202C90.5081 7.80396 90.2828 7.68274 90.0289 7.55795C89.7729 7.43458 89.5048 7.31906 89.2235 7.21531C88.9433 7.11012 88.6488 7.02598 88.3411 6.95824C88.0334 6.89335 87.7292 6.86161 87.4287 6.86161C86.8792 6.86161 86.4357 6.93328 86.0952 7.07804C85.7561 7.22065 85.5853 7.44421 85.5853 7.74442C85.5853 7.98045 85.7447 8.16978 86.0663 8.31347C86.3858 8.45751 86.7819 8.59121 87.2532 8.71458C87.7217 8.84008 88.2394 8.9745 88.8014 9.11855C89.3636 9.26045 89.8799 9.44871 90.3516 9.67583C90.8212 9.90508 91.2184 10.2035 91.5382 10.5686C91.8577 10.9355 92.0199 11.4058 92.0199 11.9816C92.0199 12.9753 91.6559 13.7561 90.9289 14.3248C90.2033 14.8932 89.1287 15.178 87.7039 15.178C86.5787 15.178 85.6085 15.0115 84.7909 14.6789C83.9741 14.3444 83.3159 13.9562 82.8203 13.5126L83.998 11.6678C84.1688 11.8119 84.3927 11.9723 84.674 12.1492C84.9546 12.3246 85.2716 12.4868 85.6238 12.6305C85.9772 12.7738 86.353 12.8944 86.7526 12.9928C87.1502 13.0908 87.5467 13.1404 87.9389 13.1404C88.3578 13.1404 88.7165 13.0687 89.0178 12.9247C89.3183 12.7788 89.4688 12.5371 89.4688 12.1973Z" fill="#29C278"/>
<path d="M102.202 0.00229026C101.36 1.53009 100.733 3.01082 100.325 4.44449C99.9166 5.87638 99.7106 7.30862 99.7106 8.74122C99.7106 10.1603 99.9159 11.5929 100.325 13.033C100.733 14.4752 101.358 15.9648 102.202 17.4987H100.019C99.0032 16.0208 98.2505 14.5647 97.7581 13.1267C97.2664 11.6941 97.0215 10.2291 97.0215 8.74015C97.0215 7.25692 97.2686 5.79437 97.7631 4.35214C98.2594 2.91063 99.0103 1.45878 100.019 0.0012207H102.202V0.00229026Z" fill="#29C278"/>
<path d="M108.119 0.00219727H110.302C111.311 1.46047 112.063 2.91161 112.557 4.35312C113.052 5.79535 113.3 7.25754 113.3 8.74113C113.3 10.2301 113.054 11.6951 112.563 13.1277C112.071 14.5649 111.318 16.0218 110.302 17.499H108.119C108.961 15.9647 109.588 14.4758 109.997 13.0339C110.406 11.5938 110.611 10.1605 110.611 8.7422C110.611 7.3096 110.406 5.87735 109.997 4.44547C109.588 3.01073 108.962 1.52999 108.119 0.00219727Z" fill="#29C278"/>
</svg>
