<svg width="360" height="107" fill="none" xmlns="http://www.w3.org/2000/svg">
  <path d="M0 106.443C0 105.646.646231 105 1.4434 105h8.5898c.7972 0 1.4434.646 1.4434 1.443H0ZM15.302 106.443c0-.797.6462-1.443 1.4434-1.443h8.5898c.7972 0 1.4434.646 1.4434 1.443H15.302ZM30.6042 106.443c0-.797.6463-1.443 1.4434-1.443h8.5898c.7972 0 1.4434.646 1.4434 1.443H30.6042ZM47.7065 106.443c0-.797.6463-1.443 1.4434-1.443h8.5898c.7972 0 1.4434.646 1.4434 1.443H47.7065ZM63.0085 106.443c0-.797.6463-1.443 1.4434-1.443h8.5898c.7972 0 1.4434.646 1.4434 1.443H63.0085ZM78.3108 106.443c0-.797.6462-1.443 1.4434-1.443h8.5898c.7972 0 1.4434.646 1.4434 1.443H78.3108ZM95.4133 106.443c0-.797.6463-1.443 1.4434-1.443h8.5903c.797 0 1.443.646 1.443 1.443H95.4133ZM110.715 106.443c0-.797.647-1.443 1.444-1.443h8.59c.797 0 1.443.646 1.443 1.443h-11.477ZM126.018 106.443c0-.797.646-1.443 1.443-1.443h8.59c.797 0 1.443.646 1.443 1.443h-11.476ZM143.12 106.443c0-.797.646-1.443 1.443-1.443h8.59c.797 0 1.443.646 1.443 1.443H143.12ZM158.422 106.443c0-.797.646-1.443 1.443-1.443h8.59c.797 0 1.443.646 1.443 1.443h-11.476ZM173.724 106.443c0-.797.646-1.443 1.444-1.443h8.589c.797 0 1.444.646 1.444 1.443h-11.477ZM190.827 106.443c0-.797.646-1.443 1.443-1.443h8.59c.797 0 1.443.646 1.443 1.443h-11.476ZM206.129 106.443c0-.797.646-1.443 1.443-1.443h8.59c.797 0 1.443.646 1.443 1.443h-11.476ZM221.431 106.443c0-.797.646-1.443 1.443-1.443h8.59c.797 0 1.444.646 1.444 1.443h-11.477ZM238.533 106.443c0-.797.646-1.443 1.444-1.443h8.589c.798 0 1.444.646 1.444 1.443h-11.477ZM253.835 106.443c0-.797.646-1.443 1.444-1.443h8.589c.798 0 1.444.646 1.444 1.443h-11.477ZM269.137 106.443c0-.797.647-1.443 1.444-1.443h8.59c.797 0 1.443.646 1.443 1.443h-11.477ZM286.24 106.443c0-.797.646-1.443 1.443-1.443h8.59c.797 0 1.443.646 1.443 1.443H286.24ZM301.542 106.443c0-.797.646-1.443 1.443-1.443h8.59c.797 0 1.443.646 1.443 1.443h-11.476ZM316.844 106.443c0-.797.646-1.443 1.444-1.443h8.589c.798 0 1.444.646 1.444 1.443h-11.477ZM332.621 106.443c0-.797.646-1.443 1.443-1.443h8.59c.797 0 1.444.646 1.444 1.443h-11.477ZM348.523 106.443c0-.797.647-1.443 1.444-1.443h8.59c.797 0 1.443.646 1.443 1.443h-11.477Z" fill="#412D87"/>
  <path d="M1.92847 87.5c7.5-11.6666 32.91433-32.8 74.57143-24 52.0711 11 70.0711 16.0002 87.4291-5.4998 17.357-21.5 41.785-50.49998 88.071-40.5 37.029 8 84-6.0001 102.857-14.0002" stroke="url(#a)" stroke-width="2"/>
  <path d="M174.786 48.7875C176.844 50.5693 178 52.9833 178 55.5s-1.156 4.9308-3.214 6.7125c-1.022.8837-2.236 1.5847-3.572 2.063-1.336.4783-2.768.7245-4.214.7245-1.446 0-2.878-.2462-4.214-.7245-1.336-.4783-2.55-1.1793-3.572-2.063C157.156 60.4308 156 58.0167 156 55.5s1.156-4.9307 3.214-6.7125c1.022-.8837 2.236-1.5847 3.572-2.063C164.122 46.2462 165.554 46 167 46c1.446 0 2.878.2462 4.214.7245 1.336.4783 2.55 1.1793 3.572 2.063Z" fill="#000" fill-opacity=".87"/>
  <path d="M173.383 48.4955C175.059 50.0928 176 52.2509 176 54.5c0 2.2491-.941 4.4072-2.617 6.0045-.836.7911-1.829 1.4187-2.923 1.8469-1.093.4282-2.265.6486-3.449.6486-1.183 0-2.355-.2204-3.448-.6486-1.094-.4282-2.087-1.0558-2.923-1.8469-.837-.7875-1.501-1.7233-1.954-2.7537-.453-1.0304-.686-2.1351-.686-3.2508s.233-2.2204.686-3.2508c.453-1.0304 1.117-1.9662 1.954-2.7537.836-.7911 1.829-1.4187 2.923-1.8469 1.093-.4282 2.265-.6486 3.448-.6486 1.184 0 2.356.2204 3.449.6486 1.094.4282 2.087 1.0558 2.923 1.8469Z" stroke="#A79DE6" stroke-width="1.5"/>
  <path d="M167.143 104V0" stroke="#D7099C"/>
  <defs>
    <linearGradient id="a" x1="370.342" y1="-3.15346" x2="269.503" y2="219.726" gradientUnits="userSpaceOnUse">
      <stop stop-color="#28D2FF"/>
      <stop offset="1" stop-color="#D7099C"/>
    </linearGradient>
  </defs>
</svg>
