<svg width="33" height="33" viewBox="0 0 33 33" fill="none" xmlns="http://www.w3.org/2000/svg">
<path d="M23.7701 31.5662C22.9141 31.5662 21.986 31.3909 20.996 30.9681C20.7898 30.8753 20.6866 30.6381 20.7794 30.4318C20.8723 30.2256 21.1095 30.1225 21.3157 30.2153C24.4507 31.5352 26.8947 30.1431 28.1425 28.4003C28.2766 28.2147 28.5344 28.1734 28.72 28.3075C28.9057 28.4415 28.9469 28.6993 28.8128 28.885C27.7816 30.3184 26.0181 31.5662 23.7701 31.5662Z" fill="url(#paint0_linear_617_622)"/>
<path d="M16.4999 32.9997C25.6125 32.9997 32.9997 25.6125 32.9997 16.4999C32.9997 7.38727 25.6125 0 16.4999 0C7.38725 0 0 7.38727 0 16.4999C0 25.6125 7.38725 32.9997 16.4999 32.9997Z" fill="url(#paint1_radial_617_622)"/>
<path opacity="0.5" d="M16.4999 32.9997C25.6125 32.9997 32.9997 25.6125 32.9997 16.4999C32.9997 7.38727 25.6125 0 16.4999 0C7.38725 0 0 7.38727 0 16.4999C0 25.6125 7.38725 32.9997 16.4999 32.9997Z" fill="url(#paint2_radial_617_622)"/>
<path opacity="0.5" d="M21.5736 21.9446C22.9039 22.0271 24.1414 21.7074 25.1933 21.0887C25.4717 20.9237 25.8326 20.9547 26.0698 21.1815C26.1627 21.2743 26.2555 21.3362 26.3689 21.3878C26.5958 22.254 27.0805 23.0171 27.5651 23.7596C28.3695 25.0074 29.0811 26.1212 28.6583 27.6371C28.9883 27.2761 29.2976 26.9049 29.5967 26.5234C29.5142 25.2858 28.8645 24.2649 28.2561 23.3162C27.8539 22.6871 27.462 22.0787 27.2455 21.429C27.3898 21.3774 27.5239 21.2949 27.6373 21.1712C28.0189 20.7896 28.0601 20.2018 27.7714 19.7687C27.7508 19.7481 27.7405 19.7171 27.7199 19.6965C27.7199 19.6965 27.7199 19.6965 27.7199 19.6862C27.6992 19.6553 27.6683 19.6346 27.6476 19.6037L27.2351 19.2015C28.0292 18.0569 28.4726 16.644 28.3695 15.1281C28.1633 11.8694 25.4614 9.26038 22.1924 9.15725C18.5005 9.04382 15.479 12.055 15.5925 15.7572C15.7059 19.0365 18.3046 21.7384 21.5736 21.9446ZM21.9861 10.3226C24.8839 10.3226 27.2249 12.6738 27.2249 15.5613C27.2249 18.4487 24.8736 20.7999 21.9861 20.7999C19.0883 20.7999 16.7474 18.4487 16.7474 15.5613C16.7474 12.6738 19.0987 10.3226 21.9861 10.3226Z" fill="url(#paint3_radial_617_622)"/>
<path d="M11.1167 17.201C11.9938 17.201 12.7048 16.1252 12.7048 14.7982C12.7048 13.4712 11.9938 12.3954 11.1167 12.3954C10.2396 12.3954 9.52856 13.4712 9.52856 14.7982C9.52856 16.1252 10.2396 17.201 11.1167 17.201Z" fill="url(#paint4_radial_617_622)"/>
<path d="M11.1167 13.2101C11.7973 13.2101 12.3954 13.8082 12.7048 14.6848C12.6842 13.3854 11.983 12.3438 11.1167 12.3438C10.2505 12.3438 9.54919 13.3854 9.52856 14.6848C9.83798 13.8082 10.4258 13.2101 11.1167 13.2101Z" fill="url(#paint5_linear_617_622)"/>
<path d="M21.883 17.201C22.7601 17.201 23.4711 16.1252 23.4711 14.7982C23.4711 13.4712 22.7601 12.3954 21.883 12.3954C21.0059 12.3954 20.2949 13.4712 20.2949 14.7982C20.2949 16.1252 21.0059 17.201 21.883 17.201Z" fill="url(#paint6_radial_617_622)"/>
<path d="M21.883 13.272C21.2024 13.272 20.6043 13.8701 20.2949 14.7467C20.3155 13.4473 21.0168 12.4058 21.883 12.4058C22.7493 12.4058 23.4505 13.4473 23.4711 14.7467C23.1618 13.8701 22.5637 13.272 21.883 13.272Z" fill="url(#paint7_linear_617_622)"/>
<path d="M13.5814 9.99276C12.9833 10.0237 12.4367 10.0134 11.1167 9.62152C9.16769 9.05435 8.69331 9.48747 7.41458 10.6528C7.32178 10.7353 7.21864 10.8281 7.11551 10.9209C6.90929 11.1065 6.87832 11.4468 7.06396 11.715C7.17739 11.8799 7.63114 12.1481 8.03334 11.8078C9.28111 10.7662 10.199 10.8796 11.3024 11.1477C12.1789 11.354 13.0864 11.5809 14.0558 11.1065C14.4477 10.9209 14.5508 10.6424 14.4579 10.3434C14.3445 9.97213 14.0042 9.96184 13.5814 9.99276Z" fill="url(#paint8_linear_617_622)"/>
<path d="M19.4905 8.03367C20.0886 7.98207 20.5939 7.8274 21.8829 7.30148C23.4814 6.6518 24.5745 6.98178 25.6882 7.77585C25.7914 7.84802 25.9048 7.92025 26.0286 8.0027C26.2658 8.15738 26.3379 8.49771 26.1935 8.77615C26.111 8.95145 25.6882 9.28144 25.2448 9.01334C23.8526 8.16772 22.9657 8.4152 21.9139 8.83803C21.0786 9.17836 20.2123 9.52897 19.1811 9.19898C18.7686 9.06488 18.6242 8.8174 18.6654 8.50805C18.7273 8.13681 19.0677 8.07492 19.4905 8.03367Z" fill="url(#paint9_linear_617_622)"/>
<path d="M21.2848 26.8532C21.2126 26.8532 21.1507 26.8429 21.0786 26.8223C21.0579 26.8223 19.4698 26.3685 17.5414 26.1004C15.0767 25.7601 13.1896 25.8426 12.0758 26.3582C11.7149 26.5232 11.2818 26.3685 11.1168 26.0076C10.9517 25.6466 11.1064 25.2135 11.4674 25.0486C14.7055 23.5429 21.192 25.3476 21.4601 25.4301C21.8417 25.5332 22.0686 25.9354 21.9551 26.317C21.8829 26.6367 21.5942 26.8429 21.2848 26.8532Z" fill="#643800"/>
<path d="M21.9962 26.1008C21.9858 25.7915 21.7796 25.5234 21.4702 25.4305C21.1917 25.3481 14.7155 23.5537 11.4775 25.049C11.1371 25.2037 10.9825 25.5852 11.0959 25.9255C12.5603 24.8324 15.0146 24.2755 21.9962 26.1008Z" fill="url(#paint10_linear_617_622)"/>
<path d="M28.4727 29.0398C28.4005 29.0398 28.318 29.0192 28.2561 28.9779C28.0602 28.8542 28.0086 28.5964 28.1323 28.4108C29.5864 26.1317 28.6996 24.7499 27.6786 23.1514C27.029 22.1408 26.3586 21.089 26.3586 19.7793C26.3586 19.5524 26.5442 19.3668 26.7711 19.3668C26.998 19.3668 27.1836 19.5524 27.1836 19.7793C27.1836 20.8415 27.7611 21.7489 28.3799 22.708C29.4111 24.3064 30.5764 26.1317 28.8336 28.8542C28.7408 28.9779 28.6067 29.0398 28.4727 29.0398Z" fill="url(#paint11_linear_617_622)"/>
<path d="M21.8828 8.93073C18.5621 8.93073 15.8706 11.6223 15.8706 14.9429C15.8706 18.2635 18.5621 20.955 21.8828 20.955C25.2033 20.955 27.8949 18.2635 27.8949 14.9429C27.9052 11.6223 25.2033 8.93073 21.8828 8.93073ZM21.8828 20.1816C18.985 20.1816 16.6441 17.8304 16.6441 14.9429C16.6441 12.0451 18.9953 9.70417 21.8828 9.70417C24.7702 9.70417 27.1215 12.0554 27.1215 14.9429C27.1215 17.8407 24.7805 20.1816 21.8828 20.1816Z" fill="url(#paint12_linear_617_622)"/>
<path d="M21.8829 8.54883C18.3561 8.54883 15.4893 11.4157 15.4893 14.9425C15.4893 18.4694 18.3561 21.3362 21.8829 21.3362C25.4098 21.3362 28.2767 18.4694 28.2767 14.9425C28.2767 11.4157 25.4201 8.54883 21.8829 8.54883ZM21.8829 20.6453C18.7274 20.6453 16.1802 18.0878 16.1802 14.9425C16.1802 11.7972 18.7377 9.23976 21.8829 9.23976C25.0283 9.23976 27.5857 11.7972 27.5857 14.9425C27.5857 18.0878 25.0386 20.6453 21.8829 20.6453Z" fill="url(#paint13_linear_617_622)"/>
<path d="M21.8829 19.8104C24.5711 19.8104 26.7503 17.6311 26.7503 14.9429C26.7503 12.2547 24.5711 10.0754 21.8829 10.0754C19.1946 10.0754 17.0154 12.2547 17.0154 14.9429C17.0154 17.6311 19.1946 19.8104 21.8829 19.8104Z" fill="url(#paint14_radial_617_622)"/>
<path d="M23.3987 9.93107C26.1728 10.7664 27.7403 13.6848 26.905 16.4588C26.0697 19.2328 23.1513 20.8004 20.3772 19.965C17.6032 19.1298 16.0357 16.2113 16.871 13.4373C17.7063 10.6633 20.6247 9.09574 23.3987 9.93107Z" fill="url(#paint15_radial_617_622)"/>
<path d="M27.6784 19.1605C27.6578 19.1398 27.6475 19.1089 27.6269 19.0883C27.6269 19.0883 27.6269 19.0883 27.6269 19.078C27.6063 19.0471 27.5754 19.0264 27.5547 18.9955L26.9462 18.4077C26.74 18.7171 26.4926 19.0058 26.2244 19.2739C25.9563 19.5421 25.6572 19.7792 25.3582 19.9958L25.9872 20.563C26.4203 20.9961 27.1216 20.9961 27.5547 20.563C27.926 20.1814 27.9672 19.5936 27.6784 19.1605Z" fill="url(#paint16_linear_617_622)"/>
<path d="M26.7607 20.2433C27.017 20.2433 27.2247 20.0355 27.2247 19.7792C27.2247 19.523 27.017 19.3152 26.7607 19.3152C26.5044 19.3152 26.2966 19.523 26.2966 19.7792C26.2966 20.0355 26.5044 20.2433 26.7607 20.2433Z" fill="url(#paint17_linear_617_622)"/>
<defs>
<linearGradient id="paint0_linear_617_622" x1="25.4973" y1="29.3778" x2="27.4566" y2="28.0371" gradientUnits="userSpaceOnUse">
<stop offset="0.00132565" stop-color="#643800"/>
<stop offset="1" stop-color="#975500"/>
</linearGradient>
<radialGradient id="paint1_radial_617_622" cx="0" cy="0" r="1" gradientUnits="userSpaceOnUse" gradientTransform="translate(13.2524 9.81275) scale(19.905)">
<stop stop-color="#FFE030"/>
<stop offset="1" stop-color="#FFB92E"/>
</radialGradient>
<radialGradient id="paint2_radial_617_622" cx="0" cy="0" r="1" gradientUnits="userSpaceOnUse" gradientTransform="translate(13.2524 9.81275) scale(15.6601)">
<stop stop-color="#FFEA5F"/>
<stop offset="1" stop-color="#FFBC47" stop-opacity="0"/>
</radialGradient>
<radialGradient id="paint3_radial_617_622" cx="0" cy="0" r="1" gradientUnits="userSpaceOnUse" gradientTransform="translate(21.4683 19.8652) scale(17.4265)">
<stop stop-color="#7A4400" stop-opacity="0.5"/>
<stop offset="0.5833" stop-color="#894D00" stop-opacity="0.2069"/>
<stop offset="0.995" stop-color="#975500" stop-opacity="0"/>
</radialGradient>
<radialGradient id="paint4_radial_617_622" cx="0" cy="0" r="1" gradientUnits="userSpaceOnUse" gradientTransform="translate(10.6213 14.8624) rotate(73.8539) scale(2.33131 1.50832)">
<stop offset="0.00132565" stop-color="#7A4400"/>
<stop offset="1" stop-color="#643800"/>
</radialGradient>
<linearGradient id="paint5_linear_617_622" x1="11.1117" y1="12.3858" x2="11.1117" y2="14.6251" gradientUnits="userSpaceOnUse">
<stop offset="0.00132565" stop-color="#3C2200"/>
<stop offset="1" stop-color="#512D00"/>
</linearGradient>
<radialGradient id="paint6_radial_617_622" cx="0" cy="0" r="1" gradientUnits="userSpaceOnUse" gradientTransform="translate(21.3959 14.8628) rotate(73.8539) scale(2.33131 1.50832)">
<stop offset="0.00132565" stop-color="#7A4400"/>
<stop offset="1" stop-color="#643800"/>
</radialGradient>
<linearGradient id="paint7_linear_617_622" x1="21.8858" y1="12.4448" x2="21.8858" y2="14.684" gradientUnits="userSpaceOnUse">
<stop offset="0.00132565" stop-color="#3C2200"/>
<stop offset="1" stop-color="#512D00"/>
</linearGradient>
<linearGradient id="paint8_linear_617_622" x1="10.613" y1="12.2829" x2="10.7662" y2="10.2402" gradientUnits="userSpaceOnUse">
<stop offset="0.00132565" stop-color="#3C2200"/>
<stop offset="1" stop-color="#512D00"/>
</linearGradient>
<linearGradient id="paint9_linear_617_622" x1="22.7653" y1="9.87032" x2="22.3249" y2="7.92913" gradientUnits="userSpaceOnUse">
<stop offset="0.00132565" stop-color="#3C2200"/>
<stop offset="1" stop-color="#512D00"/>
</linearGradient>
<linearGradient id="paint10_linear_617_622" x1="16.6029" y1="27.7233" x2="16.2942" y2="20.4395" gradientUnits="userSpaceOnUse">
<stop offset="0.00132565" stop-color="#3C2200"/>
<stop offset="1" stop-color="#512D00"/>
</linearGradient>
<linearGradient id="paint11_linear_617_622" x1="26.4186" y1="20.9847" x2="28.571" y2="26.2523" gradientUnits="userSpaceOnUse">
<stop offset="0.00132565" stop-color="#643800"/>
<stop offset="1" stop-color="#975500"/>
</linearGradient>
<linearGradient id="paint12_linear_617_622" x1="20.4511" y1="9.99133" x2="25.8136" y2="28.5021" gradientUnits="userSpaceOnUse">
<stop/>
<stop offset="1" stop-color="#8EA5A8"/>
</linearGradient>
<linearGradient id="paint13_linear_617_622" x1="23.7567" y1="25.2662" x2="19.477" y2="1.65072" gradientUnits="userSpaceOnUse">
<stop/>
<stop offset="1" stop-color="#8EA5A8"/>
</linearGradient>
<radialGradient id="paint14_radial_617_622" cx="0" cy="0" r="1" gradientUnits="userSpaceOnUse" gradientTransform="translate(19.6069 12.4386) scale(6.59135)">
<stop stop-color="white" stop-opacity="0.5"/>
<stop offset="1" stop-color="white" stop-opacity="0"/>
</radialGradient>
<radialGradient id="paint15_radial_617_622" cx="0" cy="0" r="1" gradientUnits="userSpaceOnUse" gradientTransform="translate(30.4612 18.4038) rotate(-155.196) scale(23.0901 23.0894)">
<stop stop-color="#367BF5"/>
<stop offset="0.463466" stop-color="#8146CC"/>
<stop offset="1" stop-color="#D7099C"/>
</radialGradient>
<linearGradient id="paint16_linear_617_622" x1="26.0478" y1="19.9921" x2="29.3477" y2="18.7288" gradientUnits="userSpaceOnUse">
<stop/>
<stop offset="1" stop-color="#8EA5A8"/>
</linearGradient>
<linearGradient id="paint17_linear_617_622" x1="26.1745" y1="22.5808" x2="26.862" y2="19.2808" gradientUnits="userSpaceOnUse">
<stop/>
<stop offset="1" stop-color="#8EA5A8"/>
</linearGradient>
</defs>
</svg>
