<svg xmlns="http://www.w3.org/2000/svg" fill="none" viewBox="0 0 172 173">
  <g filter="url(#a)">
    <circle cx="86" cy="82.7539" r="60" fill="#367BF5"/>
    <circle cx="86" cy="82.7539" r="62" fill="#D7099C"/>
    <circle cx="86" cy="82.7537" r="56.7742" fill="url(#b)"/>
    <path fill="url(#c)" fill-rule="evenodd" d="M98.3471 79.2548h3.2929v3.291h-3.2929v-3.291Zm-27.9866 3.291h3.2925v-3.291h-3.2925v3.291Zm51.0345-3.291v23.0372c0 .905-.741 1.645-1.646 1.645h-6.585c-.906 0-1.647-.74-1.647-1.645v-9.8732h-4.939v9.8732c0 .905-.74 1.645-1.646 1.645h-4.9386v4.937c0 .905-.7409 1.645-1.6463 1.645H91.762c-.9055 0-1.6463-.74-1.6463-1.645v-6.582c0-.905.7408-1.646 1.6463-1.646h4.9388-.0157v-3.2907H75.3705v3.2907h-.0712 4.9388c.9054 0 1.6463.741 1.6463 1.646v6.582c0 .905-.7409 1.645-1.6463 1.645H73.653c-.9054 0-1.6463-.74-1.6463-1.645v-4.937h-4.9388c-.9054 0-1.6462-.74-1.6462-1.645v-9.8732h-4.9389v9.8732c0 .905-.7408 1.645-1.6462 1.645h-6.5851c-.9055 0-1.6463-.74-1.6463-1.645V79.2548c0-.9051.7408-1.6455 1.6463-1.6455h6.5851v-6.582c0-.9051.7408-1.6455 1.6462-1.6455h6.5851v-4.9365c0-.9051.7409-1.6455 1.6463-1.6455h4.9388v-3.291h-4.9388c-.9054 0-1.6463-.7405-1.6463-1.6455v-6.5821c0-.905.7409-1.6455 1.6463-1.6455h6.5851c.9054 0 1.6463.7405 1.6463 1.6455v4.9365h4.9388c.9054 0 1.6462.7405 1.6462 1.6456v4.9365h4.9389v-4.9365c0-.9051.7408-1.6456 1.6462-1.6456h4.9388v-4.9365c0-.905.7409-1.6455 1.6463-1.6455h6.5852c.905 0 1.646.7405 1.646 1.6455v6.5821c0 .905-.741 1.6455-1.646 1.6455h-4.9389v3.291h4.9389c.905 0 1.646.7404 1.646 1.6455v4.9365h6.585c.906 0 1.647.7404 1.647 1.6455v6.582h6.585c.905 0 1.646.7404 1.646 1.6455Zm-44.4494-1.6455c0-.9051-.7409-1.6455-1.6463-1.6455h-6.5851c-.9054 0-1.6463.7404-1.6463 1.6455v6.582c0 .905.7409 1.6455 1.6463 1.6455h6.5851c.9054 0 1.6463-.7405 1.6463-1.6455v-6.582Zm27.9864 0c0-.9051-.741-1.6455-1.646-1.6455h-6.5852c-.9054 0-1.6463.7404-1.6463 1.6455v6.582c0 .905.7409 1.6455 1.6463 1.6455h6.5852c.905 0 1.646-.7405 1.646-1.6455v-6.582Z" clip-rule="evenodd"/>
  </g>
  <defs>
    <linearGradient id="b" x1="37.7082" x2="86" y1="25.9795" y2="139.528" gradientUnits="userSpaceOnUse">
      <stop stop-color="#2A3542"/>
      <stop offset="1" stop-color="#4D2B43"/>
    </linearGradient>
    <linearGradient id="c" x1="25.79" x2="129.437" y1="14.6544" y2="170.844" gradientUnits="userSpaceOnUse">
      <stop offset=".0065237" stop-color="#F005C4"/>
      <stop offset=".314174" stop-color="#6C5DFE"/>
      <stop offset=".546875" stop-color="#30C7FF"/>
      <stop offset="1" stop-color="#FFD541"/>
    </linearGradient>
    <filter id="a" width="172" height="172" x="0" y=".753906" color-interpolation-filters="sRGB" filterUnits="userSpaceOnUse">
      <feFlood flood-opacity="0" result="BackgroundImageFix"/>
      <feColorMatrix in="SourceAlpha" result="hardAlpha" values="0 0 0 0 0 0 0 0 0 0 0 0 0 0 0 0 0 0 127 0"/>
      <feOffset dy="4"/>
      <feGaussianBlur stdDeviation="12"/>
      <feComposite in2="hardAlpha" operator="out"/>
      <feColorMatrix values="0 0 0 0 0 0 0 0 0 0 0 0 0 0 0 0 0 0 1 0"/>
      <feBlend in2="BackgroundImageFix" result="effect1_dropShadow_675_383"/>
      <feBlend in="SourceGraphic" in2="effect1_dropShadow_675_383" result="shape"/>
    </filter>
  </defs>
</svg>
