<svg xmlns="http://www.w3.org/2000/svg" fill="none" viewBox="0 0 40 35">
  <path fill="url(#a)" fill-rule="evenodd" d="M26.9586 16.7254h1.8592v1.8583h-1.8592v-1.8583Zm-15.8033 1.8583h1.8592v-1.8583h-1.8592v1.8583Zm28.8178-1.8583v13.0084c0 .511-.4183.9292-.9296.9292h-3.7184c-.5113 0-.9296-.4182-.9296-.9292v-5.575h-2.7888v5.575c0 .511-.4183.9292-.9296.9292h-2.7889v2.7875c0 .511-.4183.9292-.9296.9292h-3.7184c-.5113 0-.9296-.4182-.9296-.9292v-3.7167c0-.511.4183-.9292.9296-.9292H26.02v-1.8583H13.984v1.8583h2.7489c.5113 0 .9297.4182.9297.9292v3.7167c0 .511-.4184.9292-.9297.9292h-3.7184c-.5113 0-.9296-.4182-.9296-.9292V30.663H9.29608c-.51128 0-.92961-.4182-.92961-.9292v-5.575H5.57765v5.575c0 .511-.41833.9292-.92961.9292H.929608C.418324 30.663 0 30.2448 0 29.7338V16.7254c0-.5111.418324-.9292.929608-.9292H4.64804v-3.7167c0-.511.41832-.9292.92961-.9292h3.71843V8.36281c0-.51105.41832-.92918.92962-.92918h2.7888V5.57529h-2.7888c-.5113 0-.92962-.41813-.92962-.92918V.929418c0-.511046.41832-.9291739.92962-.9291739h3.7184c.5113 0 .9296.4181279.9296.9291739V3.71694h2.7889c.5112 0 .9296.41813.9296.92917v2.78752h2.7888V4.64611c0-.51104.4183-.92917.9296-.92917h2.7888V.929418c0-.511046.4183-.9291739.9296-.9291739h3.7185c.5112 0 .9296.4181279.9296.9291739V4.64611c0 .51105-.4184.92918-.9296.92918h-2.7889v1.85834h2.7889c.5112 0 .9296.41813.9296.92918v2.78749h3.7184c.5113 0 .9296.4182.9296.9292v3.7167h3.7184c.5113 0 .9296.4181.9296.9292Zm-25.0994-.9292c0-.5111-.4183-.9292-.9296-.9292h-3.7184c-.5113 0-.92962.4181-.92962.9292v3.7167c0 .511.41832.9292.92962.9292h3.7184c.5113 0 .9296-.4182.9296-.9292v-3.7167Zm15.8034 0c0-.5111-.4184-.9292-.9296-.9292H26.029c-.5113 0-.9296.4181-.9296.9292v3.7167c0 .511.4183.9292.9296.9292h3.7185c.5112 0 .9296-.4182.9296-.9292v-3.7167Z" clip-rule="evenodd"/>
  <defs>
    <linearGradient id="a" x1="-14.0125" x2="44.5143" y1="-19.7528" y2="68.4435" gradientUnits="userSpaceOnUse">
      <stop offset=".0065237" stop-color="#F005C4"/>
      <stop offset=".314174" stop-color="#6C5DFE"/>
      <stop offset=".546875" stop-color="#30C7FF"/>
      <stop offset="1" stop-color="#FFD541"/>
    </linearGradient>
  </defs>
</svg>