<svg width="171" height="157" viewBox="0 0 171 157" fill="none" xmlns="http://www.w3.org/2000/svg">
<g clip-path="url(#clip0_587_324)">
<path fill-rule="evenodd" clip-rule="evenodd" d="M116.68 49.3349H118.886V51.5674H116.68V49.3349ZM97.9515 51.5674H100.154V49.3349H97.9515V51.5674ZM132.106 49.3349V64.9655C132.106 65.1114 132.078 65.256 132.023 65.391C131.968 65.526 131.887 65.6487 131.784 65.7522C131.682 65.8557 131.561 65.9379 131.427 65.9942C131.293 66.0504 131.15 66.0796 131.004 66.08H126.597C126.452 66.0796 126.308 66.0504 126.174 65.9942C126.04 65.9379 125.919 65.8557 125.817 65.7522C125.714 65.6487 125.634 65.526 125.578 65.391C125.523 65.256 125.495 65.1114 125.496 64.9655V58.2647H122.189V64.9655C122.189 65.1413 122.148 65.3146 122.069 65.4712C121.99 65.6278 121.874 65.7632 121.733 65.8661C122.042 66.3183 122.223 66.847 122.255 67.395C122.288 67.943 122.171 68.4896 121.917 68.9755C121.663 69.4615 121.282 69.8684 120.815 70.1523C120.348 70.4362 119.812 70.5863 119.267 70.5864H119.047V66.08H117.781V69.4305C117.782 69.5764 117.754 69.7209 117.698 69.8559C117.643 69.9909 117.562 70.1136 117.46 70.2171C117.358 70.3206 117.236 70.4028 117.103 70.4591C116.969 70.5153 116.825 70.5445 116.68 70.545H112.272C111.98 70.5431 111.7 70.4249 111.493 70.2161C111.287 70.0073 111.171 69.7248 111.171 69.4305V64.9655C111.171 64.6708 111.287 64.388 111.493 64.1787C111.699 63.9693 111.979 63.8503 112.272 63.8476H115.579V61.6151H101.255V63.8476H104.561C104.854 63.8503 105.134 63.9693 105.341 64.1787C105.547 64.388 105.663 64.6708 105.663 64.9655V69.4305C105.663 69.7248 105.547 70.0073 105.34 70.2161C105.134 70.4249 104.854 70.5431 104.561 70.545H100.154C100.009 70.5445 99.8651 70.5153 99.7313 70.4591C99.5974 70.4028 99.4759 70.3206 99.3737 70.2171C99.2714 70.1136 99.1905 69.9909 99.1354 69.8559C99.0803 69.7209 99.0521 69.5764 99.0526 69.4305V66.08H97.8143V70.5864H97.5913C97.0472 70.5858 96.5135 70.4362 96.0476 70.1535C95.5816 69.8708 95.2011 69.4657 94.9468 68.9818C94.6925 68.4979 94.5741 67.9534 94.6043 67.4069C94.6345 66.8604 94.8122 66.3325 95.1182 65.8799C94.9722 65.7769 94.8529 65.64 94.7705 65.4809C94.6881 65.3217 94.645 65.145 94.6449 64.9655V58.2647H91.3382V64.9655C91.3386 65.1114 91.3105 65.256 91.2554 65.391C91.2003 65.526 91.1194 65.6487 91.0171 65.7522C90.9149 65.8557 90.7934 65.9379 90.6595 65.9942C90.5257 66.0504 90.3822 66.0796 90.2371 66.08H85.8293C85.5367 66.0782 85.2566 65.96 85.0504 65.7512C84.8441 65.5424 84.7283 65.2599 84.7283 64.9655V49.3349C84.7283 49.0405 84.8441 48.7581 85.0504 48.5493C85.2566 48.3404 85.5367 48.2222 85.8293 48.2204H90.2371V43.7555C90.2371 43.4608 90.3528 43.178 90.559 42.9686C90.7652 42.7592 91.0452 42.6403 91.3382 42.6375H95.7459V39.2871C95.7468 38.993 95.8629 38.7111 96.069 38.5025C96.2751 38.2939 96.5546 38.1753 96.847 38.1726H100.154V35.9402H96.847C96.554 35.9374 96.274 35.8185 96.0678 35.6091C95.8616 35.3997 95.7459 35.1169 95.7459 34.8222V30.3573C95.7459 30.0629 95.8617 29.7805 96.068 29.5717C96.2743 29.3628 96.5543 29.2446 96.847 29.2428H101.255C101.4 29.2433 101.543 29.2724 101.677 29.3287C101.811 29.3849 101.933 29.4672 102.035 29.5707C102.137 29.6742 102.218 29.7969 102.273 29.9319C102.328 30.0668 102.356 30.2114 102.356 30.3573V33.7077H105.663C105.808 33.7082 105.951 33.7373 106.085 33.7936C106.219 33.8499 106.34 33.9321 106.443 34.0356C106.545 34.1391 106.626 34.2618 106.681 34.3968C106.736 34.5317 106.764 34.6763 106.764 34.8222V38.1726H110.07V34.8222C110.07 34.6763 110.098 34.5317 110.153 34.3968C110.208 34.2618 110.289 34.1391 110.391 34.0356C110.494 33.9321 110.615 33.8499 110.749 33.7936C110.883 33.7373 111.026 33.7082 111.171 33.7077H114.478V30.3573C114.478 30.2114 114.506 30.0668 114.561 29.9319C114.616 29.7969 114.697 29.6742 114.799 29.5707C114.901 29.4672 115.023 29.3849 115.157 29.3287C115.29 29.2724 115.434 29.2433 115.579 29.2428H119.987C120.279 29.2446 120.56 29.3628 120.766 29.5717C120.972 29.7805 121.088 30.0629 121.088 30.3573V34.8222C121.088 35.1169 120.972 35.3997 120.766 35.6091C120.56 35.8185 120.28 35.9374 119.987 35.9402H116.68V38.1726H119.987C120.279 38.1753 120.559 38.2939 120.765 38.5025C120.971 38.7111 121.087 38.993 121.088 39.2871V42.6375H125.496C125.789 42.6394 126.069 42.7581 126.276 42.9676C126.482 43.1772 126.598 43.4605 126.597 43.7555V48.2204H131.004C131.15 48.2208 131.293 48.25 131.427 48.3063C131.561 48.3625 131.682 48.4448 131.784 48.5483C131.887 48.6518 131.968 48.7745 132.023 48.9095C132.078 49.0444 132.106 49.189 132.106 49.3349ZM102.356 48.2204C102.357 47.9254 102.241 47.6421 102.035 47.4325C101.829 47.223 101.548 47.1043 101.255 47.1024H96.847C96.554 47.1052 96.274 47.2242 96.0678 47.4335C95.8616 47.6429 95.7459 47.9257 95.7459 48.2204V52.6853C95.7459 52.9797 95.8617 53.2621 96.068 53.471C96.2743 53.6798 96.5543 53.798 96.847 53.7998H101.255C101.4 53.7994 101.543 53.7702 101.677 53.7139C101.811 53.6577 101.933 53.5754 102.035 53.472C102.137 53.3685 102.218 53.2457 102.273 53.1108C102.328 52.9758 102.356 52.8312 102.356 52.6853V48.2204ZM121.088 48.2204C121.088 47.9257 120.972 47.6429 120.766 47.4335C120.56 47.2242 120.28 47.1052 119.987 47.1024H115.579C115.286 47.1043 115.005 47.223 114.799 47.4325C114.592 47.6421 114.477 47.9254 114.478 48.2204V52.6853C114.478 52.8312 114.506 52.9758 114.561 53.1108C114.616 53.2457 114.697 53.3685 114.799 53.472C114.901 53.5754 115.023 53.6577 115.157 53.7139C115.29 53.7702 115.434 53.7994 115.579 53.7998H119.987C120.279 53.798 120.56 53.6798 120.766 53.471C120.972 53.2621 121.088 52.9797 121.088 52.6853V48.2204Z" fill="url(#paint0_linear_587_324)"/>
<path d="M78.8386 108.593C80.6497 106.896 88.9199 104.398 95.4097 101.465C101.9 98.5318 106.321 87.052 100.411 86.7104C94.5007 86.3688 82.9994 94.1945 79.4629 96.0474C75.9264 97.9003 66.6925 99.3909 62.391 99.9982C58.0896 100.605 44.4856 111.692 43.3057 113.11C42.1257 114.528 35.9926 116.619 33.6155 116.833C31.2384 117.047 4.59296 113.755 4.59296 113.755C-6.43498 136.663 8.39015 156.362 8.39015 156.362C8.39015 156.362 30.5764 146.255 41.9679 146.98C53.3594 147.704 51.171 147.539 56.8959 147.121C62.6209 146.704 76.3758 145.462 81.0408 145.237C85.7058 145.013 85.9802 145.872 89.9592 143.547C93.9382 141.221 103.337 135.856 104.579 134.468C105.82 133.081 109.127 118.707 108.259 116.636C107.391 114.566 106.266 105.25 106.266 105.25C106.266 105.25 100.435 103.525 99.8689 110.15C99.3029 116.774 100.027 117.395 100.027 117.395C100.027 117.395 98.4145 125.608 97.5158 126.474C96.6171 127.34 88.6557 128.944 83.4145 131.48C82.4488 131.772 81.4347 131.864 80.4328 131.752C79.4309 131.64 78.4617 131.326 77.5832 130.828C74.4961 129.141 71.4432 126.567 60.3501 125.897C49.257 125.228 43.8854 126.401 41.275 126.636" stroke="#8D29FF" stroke-width="3" stroke-miterlimit="10"/>
<path d="M78.53 105.115C78.53 105.115 79.5831 112.016 80.4029 113.928C81.2227 115.839 85.9872 125.256 98.2397 123.492" stroke="#8D29FF" stroke-width="3" stroke-miterlimit="10"/>
<path d="M66.2671 146.355C66.2671 146.355 71.9646 147.801 77.5283 147.735C83.092 147.67 89.9077 147.88 92.7787 146.355C95.6497 144.83 114.636 134.437 115.678 133.64C116.721 132.843 132.829 115.146 136.945 106.509C136.945 106.509 132.246 100.643 124.298 108.352C124.298 108.352 120.412 114.725 116.752 117.437C113.092 120.149 109.446 121.339 107.148 126.16" stroke="#8D29FF" stroke-width="3" stroke-miterlimit="10"/>
<path d="M133.333 104.477C133.333 104.477 135.049 99.3874 143.168 101.371C143.168 101.371 143.655 105.167 139.738 110.55" stroke="#8D29FF" stroke-width="3" stroke-miterlimit="10"/>
<path d="M126.861 120.943C126.861 120.943 130.216 120.07 132.737 117.837C135.258 115.605 137.752 110.66 142.571 108.673C147.39 106.685 151.52 108.531 153.204 110.743C153.204 110.743 144.893 118.883 137.546 125.456C130.198 132.029 128.593 134.613 125.317 135.807C122.041 137.001 103.772 142.587 99.5911 144.368C95.4098 146.148 93.4512 145.986 93.4512 145.986" stroke="#8D29FF" stroke-width="3" stroke-miterlimit="10"/>
<path d="M49.3462 70.1171L52.1315 75.7931L58.3572 76.704L53.8534 81.1206L54.9168 87.3591L49.3462 84.4158L43.7757 87.3591L44.839 81.1206L40.3352 76.704L46.5609 75.7931L49.3462 70.1171Z" stroke="#8D29FF" stroke-width="3" stroke-miterlimit="10"/>
<path d="M162.994 16.2587L165.083 19.8817L169.755 20.4613L166.376 23.2838L167.172 27.2657L162.994 25.3852L158.816 27.2657L159.615 23.2838L156.237 20.4613L160.908 19.8817L162.994 16.2587Z" stroke="#8D29FF" stroke-width="3" stroke-miterlimit="10"/>
<path d="M148.159 71.028C149.902 71.028 151.314 69.6067 151.314 67.8535C151.314 66.1003 149.902 64.6791 148.159 64.6791C146.416 64.6791 145.003 66.1003 145.003 67.8535C145.003 69.6067 146.416 71.028 148.159 71.028Z" stroke="#8D29FF" stroke-width="3" stroke-miterlimit="10"/>
<path d="M71.1551 13.1808C74.6313 13.1808 77.4494 10.3461 77.4494 6.8492C77.4494 3.35234 74.6313 0.517578 71.1551 0.517578C67.6788 0.517578 64.8607 3.35234 64.8607 6.8492C64.8607 10.3461 67.6788 13.1808 71.1551 13.1808Z" stroke="#8D29FF" stroke-width="3" stroke-miterlimit="10"/>
</g>
<defs>
<linearGradient id="paint0_linear_587_324" x1="72.7639" y1="2.36016" x2="143.543" y2="107.475" gradientUnits="userSpaceOnUse">
<stop offset="0.01" stop-color="#F005C4"/>
<stop offset="0.31" stop-color="#6C5DFE"/>
<stop offset="0.55" stop-color="#30C7FF"/>
<stop offset="1" stop-color="#FFD541"/>
</linearGradient>
<clipPath id="clip0_587_324">
<rect width="171" height="157" fill="white"/>
</clipPath>
</defs>
</svg>
