<svg xmlns="http://www.w3.org/2000/svg" fill="none" viewBox="0 0 12 12">
  <path fill="#fff" d="m7.842 5.55-.54.552C6.87 6.534 6.6 6.9 6.6 7.8H5.4v-.3c0-.666.27-1.266.702-1.698l.744-.756c.222-.216.354-.516.354-.846C7.2 3.534 6.66 3 6 3c-.31826 0-.62348.12643-.84853.35147C4.92643 3.57652 4.8 3.88174 4.8 4.2H3.6c0-.63652.25286-1.24697.70294-1.69706C4.75303 2.05286 5.36348 1.8 6 1.8s1.24697.25286 1.69706.70294C8.14714 2.95303 8.4 3.56348 8.4 4.2c0 .528-.216 1.002-.558 1.35ZM6.6 10.2H5.4V9h1.2v1.2ZM6 0c-.78793 0-1.56815.155195-2.2961.456723-.72795.301528-1.38939.743487-1.94654 1.300637C.632141 2.88258 0 4.4087 0 6s.632141 3.11742 1.75736 4.2426c.55715.5572 1.21859.9991 1.94654 1.3007C4.43185 11.8448 5.21207 12 6 12c1.5913 0 3.11742-.6321 4.2426-1.7574C11.3679 9.11742 12 7.5913 12 6c0-3.318-2.7-6-6-6Z"/>
</svg>
