<svg width="32" height="32" viewBox="0 0 32 32" fill="none" xmlns="http://www.w3.org/2000/svg">
<path d="M15.8955 31.7909C24.6743 31.7909 31.7909 24.6743 31.7909 15.8955C31.7909 7.11667 24.6743 0 15.8955 0C7.11665 0 0 7.11667 0 15.8955C0 24.6743 7.11665 31.7909 15.8955 31.7909Z" fill="url(#paint0_radial_617_602)"/>
<path opacity="0.5" d="M15.8955 31.7909C24.6743 31.7909 31.7909 24.6743 31.7909 15.8955C31.7909 7.11667 24.6743 0 15.8955 0C7.11665 0 0 7.11667 0 15.8955C0 24.6743 7.11665 31.7909 15.8955 31.7909Z" fill="url(#paint1_radial_617_602)"/>
<path d="M12.3985 7.6597C12.3985 7.02391 11.713 6.62653 10.5209 6.62653C9.51747 6.62653 7.30205 7.18288 5.78204 9.13997C5.50389 9.49766 5.93105 9.69633 6.2092 9.46783C7.14308 8.67306 9.65657 7.64979 11.6137 7.86833C12.3985 7.94782 12.3985 7.6597 12.3985 7.6597Z" fill="url(#paint2_linear_617_602)"/>
<path d="M19.3926 7.6597C19.3926 7.02391 20.0781 6.62653 21.2702 6.62653C22.2736 6.62653 24.4891 7.18288 26.0091 9.13997C26.2873 9.49766 25.86 9.69633 25.5819 9.46783C24.648 8.67306 22.1346 7.64979 20.1774 7.86833C19.3926 7.94782 19.3926 7.6597 19.3926 7.6597Z" fill="url(#paint3_linear_617_602)"/>
<path opacity="0.5" d="M3.01027 19.0448C3.01027 19.0448 1.62936 17.4851 1.18232 13.1337C1.15249 12.8059 0.715358 12.5178 0.397461 12.3588C0.586217 11.5342 0.834589 10.7395 1.14258 9.96457C1.48034 9.90496 1.95722 9.82547 2.60297 9.75594C4.9674 9.4877 8.86181 9.47774 10.6699 10.0241C13.1834 10.7792 14.0874 11.8323 15.6173 11.8323V12.6569C13.8291 12.6569 15.3193 15.7465 12.8555 18.4885C10.8885 20.684 4.25212 20.7238 3.01027 19.0448Z" fill="url(#paint4_radial_617_602)"/>
<path opacity="0.5" d="M28.7807 19.0448C28.7807 19.0448 30.1616 17.4851 30.6087 13.1337C30.6385 12.8059 31.0756 12.5178 31.3935 12.3588C31.2048 11.5342 30.9564 10.7395 30.6484 9.96457C30.3106 9.90496 29.8338 9.82547 29.188 9.75594C26.8236 9.4877 22.9292 9.47774 21.1211 10.0241C18.6076 10.7792 17.7036 11.8323 16.1736 11.8323V12.6569C17.9618 12.6569 16.4717 15.7465 18.9355 18.4885C20.9025 20.684 27.5389 20.7238 28.7807 19.0448Z" fill="url(#paint5_radial_617_602)"/>
<path d="M22.6909 12.1503C22.6909 12.1503 25.4627 12.4284 26.2376 14.5247C26.2872 14.6538 26.3171 14.7928 26.3071 14.932C26.3071 15.2101 26.0488 15.5082 25.5521 15.2399C22.5121 13.561 20.7536 14.3557 19.4423 14.9022C18.9356 15.1207 18.4786 14.6041 18.6376 14.1471C18.6773 14.018 18.717 13.8789 18.7866 13.7597C19.9191 11.8522 22.6909 12.1503 22.6909 12.1503Z" fill="url(#paint6_radial_617_602)"/>
<path d="M22.6314 12.8059C22.6314 12.8059 24.8865 13.0344 26.2972 14.7631C26.2873 14.6836 26.2674 14.6041 26.2376 14.5247C25.4627 12.4284 22.6909 12.1503 22.6909 12.1503C22.6909 12.1503 19.9192 11.8522 18.7866 13.7597C18.7469 13.8292 18.7071 13.9087 18.6873 13.9882C20.3662 12.5675 22.6314 12.8059 22.6314 12.8059Z" fill="url(#paint7_linear_617_602)"/>
<path d="M9.10003 12.1503C9.10003 12.1503 6.3283 12.4284 5.55341 14.5247C5.5037 14.6538 5.47392 14.7928 5.48383 14.932C5.48383 15.2101 5.74216 15.5082 6.23885 15.2399C9.27888 13.561 11.0373 14.3557 12.3487 14.9022C12.8553 15.1207 13.3123 14.6041 13.1534 14.1471C13.1137 14.018 13.0739 13.8789 13.0044 13.7597C11.8718 11.8522 9.10003 12.1503 9.10003 12.1503Z" fill="url(#paint8_radial_617_602)"/>
<path d="M9.1598 12.8059C9.1598 12.8059 6.90464 13.0344 5.4939 14.7631C5.50386 14.6836 5.52373 14.6041 5.55351 14.5247C6.32841 12.4284 9.10019 12.1503 9.10019 12.1503C9.10019 12.1503 11.872 11.8522 13.0045 13.7597C13.0442 13.8292 13.084 13.9087 13.1039 13.9882C11.4249 12.5675 9.1598 12.8059 9.1598 12.8059Z" fill="url(#paint9_linear_617_602)"/>
<path d="M22.9193 21.34C22.7902 21.3201 22.6511 21.3598 22.5617 21.4492C20.8529 23.0487 18.2202 23.913 16.2333 23.913H15.8955H15.5577C13.5708 23.913 10.9381 23.0487 9.22934 21.4492C9.12998 21.3598 9.00084 21.3201 8.8717 21.34C8.7326 21.3698 8.66307 21.5188 8.7326 21.638C10.193 24.1614 12.8853 25.7212 15.816 25.7212H15.9054H15.9948C18.9256 25.7212 21.6179 24.1614 23.0783 21.638C23.1279 21.5188 23.0584 21.3698 22.9193 21.34Z" fill="#643800"/>
<path d="M22.9193 21.34C22.7902 21.3201 22.6511 21.3598 22.5617 21.4492C20.8529 23.0487 18.2202 23.913 16.2333 23.913H15.8955H15.5577C13.5708 23.913 10.9381 23.0487 9.22934 21.4492C9.12998 21.3598 9.00084 21.3201 8.8717 21.34C8.7326 21.3698 8.66307 21.5188 8.7326 21.638C8.74256 21.6678 8.76238 21.6877 8.78225 21.7075C8.92135 21.6281 9.07036 21.5486 9.21938 21.7175C10.8387 23.5355 13.2429 24.6283 15.816 24.6283H15.9054H15.9948C18.5878 24.6283 21.0019 23.5256 22.6213 21.6777C22.7703 21.5089 22.9094 21.5883 23.0385 21.6777C23.0484 21.6579 23.0584 21.648 23.0683 21.6281C23.1279 21.5188 23.0584 21.3698 22.9193 21.34Z" fill="url(#paint10_linear_617_602)"/>
<path d="M8.21594 9.74611C6.18928 9.59705 3.81488 9.40829 3.34797 10.9879C2.88106 12.5675 3.189 14.9518 4.27188 16.7301C5.35477 18.5085 9.64656 18.4091 11.1963 17.4653C13.2628 16.2136 13.4416 14.0975 13.5012 12.8159C13.5707 11.1171 11.3355 9.96465 8.21594 9.74611Z" fill="url(#paint11_linear_617_602)"/>
<path d="M23.5351 9.74611C25.5618 9.59705 27.9362 9.40829 28.4031 10.9879C28.87 12.5675 28.562 14.9518 27.4792 16.7301C26.3963 18.5085 22.1045 18.4091 20.5547 17.4653C18.4883 16.2136 18.3094 14.0975 18.2499 12.8159C18.1803 11.1171 20.4156 9.96465 23.5351 9.74611Z" fill="url(#paint12_linear_617_602)"/>
<path d="M31.1352 9.17975C31.1352 9.17975 30.6285 8.98103 28.89 8.78237C26.5255 8.51412 22.6311 8.50416 20.823 9.05061C18.3096 9.80564 17.4055 10.8587 15.8755 10.8587C14.3456 10.8587 13.4415 9.80563 10.9181 9.04065C9.11996 8.49425 5.22555 8.50416 2.85121 8.7724C1.12257 8.97112 0.605957 9.16979 0.605957 9.16979C0.605957 9.33867 0.605957 9.53739 0.615867 9.75593C0.615867 9.75593 1.68884 9.93477 1.69875 10.0341C1.69875 10.0838 0.645701 10.1831 0.645701 10.1831C0.665573 10.3619 0.695354 10.5507 0.735098 10.7494L1.15235 10.9481C1.48021 11.0971 1.69875 11.415 1.72858 11.7727C2.17562 16.1241 3.55653 17.8825 3.55653 17.8825C4.79839 19.5515 10.64 20.1178 12.607 17.9223C15.0708 15.1703 14.0774 12.6867 15.8656 12.6867C17.6538 12.6867 16.6604 15.1803 19.1242 17.9223C21.0912 20.1178 26.9328 19.5515 28.1746 17.8825C28.1746 17.8825 29.5556 16.1241 30.0026 11.7727C30.0424 11.415 30.2609 11.0971 30.5789 10.9481L30.9961 10.7494C31.0358 10.5507 31.0656 10.3619 31.0855 10.1831C31.0855 10.1831 30.102 10.0838 30.1119 10.0341C30.1219 9.93477 31.1253 9.75593 31.1253 9.75593C31.1451 9.53739 31.1451 9.33867 31.1352 9.17975ZM11.1963 17.4553C9.64649 18.3991 5.36466 18.4984 4.27186 16.7201C3.18898 14.9518 2.88099 12.5575 3.3479 10.9779C3.81486 9.39829 6.18926 9.59701 8.21592 9.73606C11.3354 9.96456 13.5707 11.117 13.5011 12.8059C13.4415 14.0875 13.2627 16.2035 11.1963 17.4553ZM27.4693 16.7201C26.3864 18.4885 22.0946 18.3991 20.5448 17.4553C18.4784 16.2035 18.2996 14.0875 18.24 12.8059C18.1705 11.117 20.4057 9.96456 23.5252 9.73606C25.5519 9.58704 27.9263 9.39829 28.3932 10.9779C28.8601 12.5675 28.5621 14.9518 27.4693 16.7201Z" fill="url(#paint13_linear_617_602)"/>
<path d="M8.21594 9.74611C6.18928 9.59705 3.81488 9.40829 3.34797 10.9879C2.88106 12.5675 3.189 14.9518 4.27188 16.7301C5.35477 18.5085 9.64656 18.4091 11.1964 17.4653C13.2628 16.2136 13.4416 14.0975 13.5012 12.8159C13.5707 11.1171 11.3355 9.96465 8.21594 9.74611Z" fill="url(#paint14_linear_617_602)"/>
<path d="M11.1964 17.4556C9.64657 18.3994 5.36475 18.4987 4.27195 16.7204C3.35795 15.2302 3.00031 13.3029 3.18907 11.7928C3.18907 11.8028 3.17911 11.8028 3.17911 11.8127C3.01022 13.442 3.3083 15.3594 4.20238 16.939C5.30513 18.8862 9.66645 18.7769 11.2461 17.7437C12.8654 16.6807 13.2827 15.1706 13.4118 13.8394C13.2529 15.0514 12.7661 16.5019 11.1964 17.4556Z" fill="url(#paint15_linear_617_602)"/>
<path opacity="0.75" d="M16.8591 12.6868C16.8889 12.1702 17.0081 11.6536 17.2167 11.1867L17.5446 10.4416C16.9981 10.6899 16.4816 10.8588 15.8756 10.8588C15.2696 10.8588 14.7529 10.6899 14.2065 10.4416L14.5343 11.1867C14.743 11.6635 14.8622 12.1702 14.892 12.6868L14.9218 13.1636C15.1205 12.8557 15.3987 12.6768 15.8756 12.6768C16.3524 12.6768 16.6306 12.8557 16.8293 13.1636L16.8591 12.6868Z" fill="url(#paint16_radial_617_602)"/>
<path opacity="0.75" d="M3.34823 11.1967C3.81519 9.61713 6.18958 9.8158 8.21625 9.9549C11.2264 10.1734 13.4121 11.2464 13.5015 12.8459C13.5015 12.8359 13.5015 12.8161 13.5015 12.8061C13.571 11.1172 11.3357 9.96481 8.21625 9.73631C6.18958 9.5873 3.81519 9.39854 3.34823 10.9782C3.19921 11.4948 3.12969 12.0908 3.1396 12.7267C3.14956 12.1703 3.21909 11.6537 3.34823 11.1967Z" fill="black"/>
<path d="M0.615967 9.75598C0.625929 9.88512 0.635839 10.0342 0.655711 10.1832H2.23534C2.47375 10.1832 2.6625 9.99444 2.6625 9.75598H0.615967Z" fill="url(#paint17_linear_617_602)"/>
<path d="M23.5351 9.74611C25.5618 9.59705 27.9362 9.40829 28.4031 10.9879C28.87 12.5675 28.562 14.9518 27.4792 16.7301C26.3963 18.5085 22.1045 18.4091 20.5547 17.4653C18.4883 16.2136 18.3094 14.0975 18.2499 12.8159C18.1803 11.1171 20.4156 9.96465 23.5351 9.74611Z" fill="url(#paint18_linear_617_602)"/>
<path d="M20.5448 17.4556C22.0946 18.3994 26.3764 18.4987 27.4693 16.7204C28.3832 15.2302 28.7409 13.3029 28.5521 11.7928C28.5521 11.8028 28.5621 11.8028 28.5621 11.8127C28.731 13.442 28.4329 15.3594 27.5388 16.939C26.4361 18.8862 22.0747 18.7769 20.4951 17.7437C18.8758 16.6807 18.4585 15.1706 18.3293 13.8394C18.4983 15.0514 18.9751 16.5019 20.5448 17.4556Z" fill="url(#paint19_linear_617_602)"/>
<path opacity="0.75" d="M28.3931 11.1967C27.9261 9.61713 25.5518 9.8158 23.5251 9.9549C20.5149 10.1734 18.3293 11.2464 18.2399 12.8459C18.2399 12.8359 18.2399 12.8161 18.2399 12.8061C18.1703 11.1172 20.4056 9.96481 23.5251 9.73631C25.5518 9.5873 27.9261 9.39854 28.3931 10.9782C28.5421 11.4948 28.6116 12.0908 28.6017 12.7267C28.6017 12.1703 28.5322 11.6537 28.3931 11.1967Z" fill="black"/>
<path d="M31.1352 9.75598C31.1252 9.88512 31.1153 10.0342 31.0954 10.1832H29.5158C29.2774 10.1832 29.0886 9.99444 29.0886 9.75598H31.1352Z" fill="url(#paint20_linear_617_602)"/>
<path opacity="0.5" d="M23.5353 10.251C25.562 10.1019 27.9364 9.91317 28.4034 11.4928C28.8703 13.0724 28.5623 15.4567 27.4794 17.235C26.3965 19.0134 22.1048 18.914 20.5549 17.9702C18.4885 16.7185 18.3097 14.6023 18.2501 13.3208C18.1806 11.6219 20.4159 10.4695 23.5353 10.251Z" fill="url(#paint21_radial_617_602)"/>
<path opacity="0.5" d="M8.22596 10.6084C6.27873 10.4693 4.00369 10.2805 3.55666 11.8005C3.10957 13.3205 3.40764 15.6055 4.45078 17.3143C5.49392 19.023 9.60687 18.9237 11.097 18.0196C13.0741 16.8176 13.2529 14.7809 13.3026 13.559C13.3622 11.9297 11.2064 10.827 8.22596 10.6084Z" fill="url(#paint22_radial_617_602)"/>
<path d="M14.5741 11.1865L14.2463 10.4414C13.4118 10.0639 12.4779 9.49765 10.9579 9.04065C9.15975 8.49425 5.26535 8.50416 2.89095 8.7724C1.16231 8.97112 0.645752 9.16979 0.645752 9.16979C0.645752 9.33867 0.645752 9.53739 0.655662 9.75593C4.35135 9.43803 8.82199 8.70288 14.0873 11.1269C14.2264 11.1965 14.4052 11.2163 14.5841 11.2064C14.5841 11.1965 14.5741 11.1865 14.5741 11.1865Z" fill="url(#paint23_radial_617_602)"/>
<path d="M17.2563 11.1865L17.5842 10.4414C18.4187 10.0639 19.3526 9.49765 20.8726 9.04065C22.6708 8.49425 26.5651 8.50416 28.9395 8.7724C30.6682 8.97112 31.1848 9.16979 31.1848 9.16979C31.1947 9.33867 31.2046 9.52743 31.1947 9.74602C27.499 9.42812 23.0284 8.69292 17.763 11.117C17.624 11.1865 17.4451 11.2064 17.2663 11.1965C17.2563 11.1965 17.2563 11.1865 17.2563 11.1865Z" fill="url(#paint24_radial_617_602)"/>
<defs>
<radialGradient id="paint0_radial_617_602" cx="0" cy="0" r="1" gradientUnits="userSpaceOnUse" gradientTransform="translate(12.768 9.45356) scale(19.1758)">
<stop stop-color="#FFE030"/>
<stop offset="1" stop-color="#FFB92E"/>
</radialGradient>
<radialGradient id="paint1_radial_617_602" cx="0" cy="0" r="1" gradientUnits="userSpaceOnUse" gradientTransform="translate(12.768 9.45356) scale(15.0865)">
<stop stop-color="#FFEA5F"/>
<stop offset="1" stop-color="#FFBC47" stop-opacity="0"/>
</radialGradient>
<linearGradient id="paint2_linear_617_602" x1="9.04665" y1="8.72511" x2="9.04665" y2="7.0502" gradientUnits="userSpaceOnUse">
<stop offset="0.00132565" stop-color="#3C2200"/>
<stop offset="1" stop-color="#7A4400"/>
</linearGradient>
<linearGradient id="paint3_linear_617_602" x1="22.7444" y1="8.72511" x2="22.7444" y2="7.0502" gradientUnits="userSpaceOnUse">
<stop offset="0.00132565" stop-color="#3C2200"/>
<stop offset="1" stop-color="#7A4400"/>
</linearGradient>
<radialGradient id="paint4_radial_617_602" cx="0" cy="0" r="1" gradientUnits="userSpaceOnUse" gradientTransform="translate(1.9943 12.6608) rotate(180) scale(16.0448)">
<stop stop-color="#7A4400" stop-opacity="0.5"/>
<stop offset="0.5833" stop-color="#894D00" stop-opacity="0.2069"/>
<stop offset="0.995" stop-color="#975500" stop-opacity="0"/>
</radialGradient>
<radialGradient id="paint5_radial_617_602" cx="0" cy="0" r="1" gradientUnits="userSpaceOnUse" gradientTransform="translate(29.7967 12.6608) scale(16.0448)">
<stop stop-color="#7A4400" stop-opacity="0.5"/>
<stop offset="0.5833" stop-color="#894D00" stop-opacity="0.2069"/>
<stop offset="0.995" stop-color="#975500" stop-opacity="0"/>
</radialGradient>
<radialGradient id="paint6_radial_617_602" cx="0" cy="0" r="1" gradientUnits="userSpaceOnUse" gradientTransform="translate(22.5406 13.7153) rotate(5.86799) scale(2.99598 1.44546)">
<stop offset="0.00132565" stop-color="#7A4400"/>
<stop offset="1" stop-color="#643800"/>
</radialGradient>
<linearGradient id="paint7_linear_617_602" x1="22.7876" y1="11.2751" x2="22.6008" y2="13.2017" gradientUnits="userSpaceOnUse">
<stop offset="0.00132565" stop-color="#3C2200"/>
<stop offset="1" stop-color="#512D00"/>
</linearGradient>
<radialGradient id="paint8_radial_617_602" cx="0" cy="0" r="1" gradientUnits="userSpaceOnUse" gradientTransform="translate(9.27246 13.7149) rotate(174.132) scale(2.99597 1.44546)">
<stop offset="0.00132565" stop-color="#7A4400"/>
<stop offset="1" stop-color="#643800"/>
</radialGradient>
<linearGradient id="paint9_linear_617_602" x1="9.01528" y1="11.2763" x2="9.20215" y2="13.2029" gradientUnits="userSpaceOnUse">
<stop offset="0.00132565" stop-color="#3C2200"/>
<stop offset="1" stop-color="#512D00"/>
</linearGradient>
<linearGradient id="paint10_linear_617_602" x1="15.8955" y1="22.4635" x2="15.8955" y2="24.8365" gradientUnits="userSpaceOnUse">
<stop offset="0.00132565" stop-color="#3C2200"/>
<stop offset="1" stop-color="#512D00"/>
</linearGradient>
<linearGradient id="paint11_linear_617_602" x1="8.32062" y1="27.2573" x2="8.32062" y2="12.5533" gradientUnits="userSpaceOnUse">
<stop stop-color="#8800C7"/>
<stop offset="1" stop-color="#7000A3" stop-opacity="0"/>
</linearGradient>
<linearGradient id="paint12_linear_617_602" x1="23.4274" y1="27.2573" x2="23.4274" y2="12.5533" gradientUnits="userSpaceOnUse">
<stop stop-color="#8800C7"/>
<stop offset="1" stop-color="#7000A3" stop-opacity="0"/>
</linearGradient>
<linearGradient id="paint13_linear_617_602" x1="15.874" y1="14.3341" x2="15.874" y2="3.30948" gradientUnits="userSpaceOnUse">
<stop stop-color="#242424"/>
<stop offset="1" stop-color="#8EA5A8"/>
</linearGradient>
<linearGradient id="paint14_linear_617_602" x1="2.7744" y1="4.46928" x2="13.9614" y2="13.9623" gradientUnits="userSpaceOnUse">
<stop stop-color="#D7099C"/>
<stop offset="1" stop-color="#9E5BF3"/>
</linearGradient>
<linearGradient id="paint15_linear_617_602" x1="8.27443" y1="14.0679" x2="8.27443" y2="22.494" gradientUnits="userSpaceOnUse">
<stop/>
<stop offset="1" stop-color="#8EA5A8"/>
</linearGradient>
<radialGradient id="paint16_radial_617_602" cx="0" cy="0" r="1" gradientUnits="userSpaceOnUse" gradientTransform="translate(15.8553 11.4847) scale(1.87737 1.14728)">
<stop offset="0.0158651" stop-color="#8EA5A8" stop-opacity="0.25"/>
<stop offset="1" stop-color="#8EA5A8" stop-opacity="0"/>
</radialGradient>
<linearGradient id="paint17_linear_617_602" x1="2.74981" y1="9.96424" x2="0.800133" y2="9.96424" gradientUnits="userSpaceOnUse">
<stop stop-color="white"/>
<stop offset="1" stop-color="#FFBF00"/>
</linearGradient>
<linearGradient id="paint18_linear_617_602" x1="10.1538" y1="10.7893" x2="30.1258" y2="23.2144" gradientUnits="userSpaceOnUse">
<stop offset="0.0319153" stop-color="#C336F5"/>
<stop offset="1" stop-color="#4BABEC"/>
</linearGradient>
<linearGradient id="paint19_linear_617_602" x1="23.4736" y1="14.0679" x2="23.4736" y2="22.494" gradientUnits="userSpaceOnUse">
<stop/>
<stop offset="1" stop-color="#8EA5A8"/>
</linearGradient>
<linearGradient id="paint20_linear_617_602" x1="28.9982" y1="9.96424" x2="30.948" y2="9.96424" gradientUnits="userSpaceOnUse">
<stop stop-color="white"/>
<stop offset="1" stop-color="#FFBF00"/>
</linearGradient>
<radialGradient id="paint21_radial_617_602" cx="0" cy="0" r="1" gradientUnits="userSpaceOnUse" gradientTransform="translate(23.6023 12.7205) rotate(180) scale(5.48707 1.91035)">
<stop stop-color="white" stop-opacity="0.24"/>
<stop offset="1" stop-color="white" stop-opacity="0"/>
</radialGradient>
<radialGradient id="paint22_radial_617_602" cx="0" cy="0" r="1" gradientUnits="userSpaceOnUse" gradientTransform="translate(8.47376 12.9863) scale(5.26191 1.83181)">
<stop stop-color="white" stop-opacity="0.24"/>
<stop offset="1" stop-color="white" stop-opacity="0"/>
</radialGradient>
<radialGradient id="paint23_radial_617_602" cx="0" cy="0" r="1" gradientUnits="userSpaceOnUse" gradientTransform="translate(6.48436 26.9768) scale(31.3633 18.6486)">
<stop offset="0.9647" stop-color="#8EA5A8" stop-opacity="0"/>
<stop offset="1" stop-color="#8EA5A8"/>
</radialGradient>
<radialGradient id="paint24_radial_617_602" cx="0" cy="0" r="1" gradientUnits="userSpaceOnUse" gradientTransform="translate(25.3482 26.9768) rotate(180) scale(31.3632 18.6486)">
<stop offset="0.9647" stop-color="#8EA5A8" stop-opacity="0"/>
<stop offset="1" stop-color="#8EA5A8"/>
</radialGradient>
</defs>
</svg>
