<svg width="457" height="165" viewBox="0 0 457 165" fill="none" xmlns="http://www.w3.org/2000/svg">
<path d="M373.725 133.753H375.721V144.753C375.721 145.018 375.615 145.272 375.428 145.46C375.241 145.648 374.987 145.753 374.723 145.753C374.458 145.753 374.204 145.648 374.017 145.46C373.83 145.272 373.725 145.018 373.725 144.753V133.753Z" fill="#9388DB"/>
<path d="M51.9841 133.753H53.9796V144.753C53.9796 145.018 53.8745 145.272 53.6874 145.46C53.5002 145.648 53.2465 145.753 52.9819 145.753C52.7172 145.753 52.4635 145.648 52.2764 145.46C52.0892 145.272 51.9841 145.018 51.9841 144.753V133.753Z" fill="#9388DB"/>
<path d="M0 137.253L457 136.774" stroke="#D7099C" stroke-opacity="0.7"/>
<path d="M0 91.7529H456" stroke="#D7099C" stroke-opacity="0.7" stroke-dasharray="5 2"/>
<path d="M0 34.7529H456" stroke="#D7099C" stroke-opacity="0.7" stroke-dasharray="5 2"/>
<path d="M19.804 161.873C19.252 161.873 18.784 161.789 18.4 161.621C18.024 161.445 17.716 161.205 17.476 160.901C17.236 160.597 17.06 160.249 16.948 159.857C16.844 159.465 16.784 159.049 16.768 158.609C16.76 158.393 16.752 158.165 16.744 157.925C16.744 157.685 16.744 157.445 16.744 157.205C16.752 156.957 16.76 156.721 16.768 156.497C16.776 156.057 16.836 155.641 16.948 155.249C17.068 154.849 17.244 154.501 17.476 154.205C17.716 153.901 18.028 153.665 18.412 153.497C18.796 153.321 19.26 153.233 19.804 153.233C20.356 153.233 20.82 153.321 21.196 153.497C21.58 153.665 21.892 153.901 22.132 154.205C22.372 154.501 22.548 154.849 22.66 155.249C22.78 155.641 22.844 156.057 22.852 156.497C22.86 156.721 22.864 156.957 22.864 157.205C22.872 157.445 22.872 157.685 22.864 157.925C22.864 158.165 22.86 158.393 22.852 158.609C22.844 159.049 22.78 159.465 22.66 159.857C22.548 160.249 22.372 160.597 22.132 160.901C21.9 161.205 21.592 161.445 21.208 161.621C20.832 161.789 20.364 161.873 19.804 161.873ZM19.804 160.853C20.428 160.853 20.888 160.649 21.184 160.241C21.488 159.825 21.644 159.261 21.652 158.549C21.668 158.317 21.676 158.093 21.676 157.877C21.676 157.653 21.676 157.433 21.676 157.217C21.676 156.993 21.668 156.773 21.652 156.557C21.644 155.861 21.488 155.305 21.184 154.889C20.888 154.465 20.428 154.253 19.804 154.253C19.188 154.253 18.728 154.465 18.424 154.889C18.128 155.305 17.972 155.861 17.956 156.557C17.956 156.773 17.952 156.993 17.944 157.217C17.944 157.433 17.944 157.653 17.944 157.877C17.952 158.093 17.956 158.317 17.956 158.549C17.972 159.261 18.132 159.825 18.436 160.241C18.74 160.649 19.196 160.853 19.804 160.853ZM26.9292 161.753C26.8492 161.753 26.7812 161.729 26.7252 161.681C26.6772 161.625 26.6532 161.557 26.6532 161.477V154.757L24.6612 156.293C24.5972 156.341 24.5292 156.361 24.4572 156.353C24.3852 156.345 24.3252 156.309 24.2772 156.245L23.9652 155.849C23.9172 155.777 23.8972 155.705 23.9052 155.633C23.9212 155.561 23.9612 155.501 24.0252 155.453L26.6412 153.437C26.6972 153.397 26.7492 153.373 26.7972 153.365C26.8452 153.357 26.8972 153.353 26.9532 153.353H27.5652C27.6452 153.353 27.7092 153.381 27.7572 153.437C27.8052 153.485 27.8292 153.549 27.8292 153.629V161.477C27.8292 161.557 27.8052 161.625 27.7572 161.681C27.7092 161.729 27.6452 161.753 27.5652 161.753H26.9292ZM33.0114 161.753C32.9314 161.753 32.8634 161.729 32.8074 161.681C32.7594 161.625 32.7354 161.557 32.7354 161.477V153.641C32.7354 153.553 32.7594 153.485 32.8074 153.437C32.8634 153.381 32.9314 153.353 33.0114 153.353H33.6114C33.7074 153.353 33.7794 153.377 33.8274 153.425C33.8754 153.473 33.9034 153.513 33.9114 153.545L36.4554 158.393L39.0114 153.545C39.0274 153.513 39.0554 153.473 39.0954 153.425C39.1434 153.377 39.2154 153.353 39.3114 153.353H39.8994C39.9874 153.353 40.0554 153.381 40.1034 153.437C40.1594 153.485 40.1874 153.553 40.1874 153.641V161.477C40.1874 161.557 40.1594 161.625 40.1034 161.681C40.0554 161.729 39.9874 161.753 39.8994 161.753H39.3114C39.2314 161.753 39.1634 161.729 39.1074 161.681C39.0594 161.625 39.0354 161.557 39.0354 161.477V155.573L37.0314 159.485C36.9994 159.565 36.9514 159.629 36.8874 159.677C36.8234 159.717 36.7434 159.737 36.6474 159.737H36.2754C36.1714 159.737 36.0874 159.717 36.0234 159.677C35.9674 159.629 35.9194 159.565 35.8794 159.485L33.8754 155.573V161.477C33.8754 161.557 33.8474 161.625 33.7914 161.681C33.7434 161.729 33.6794 161.753 33.5994 161.753H33.0114ZM41.6988 161.753C41.6348 161.753 41.5788 161.729 41.5308 161.681C41.4828 161.633 41.4588 161.577 41.4588 161.513C41.4588 161.473 41.4628 161.429 41.4708 161.381L44.4468 153.617C44.4788 153.537 44.5228 153.473 44.5788 153.425C44.6348 153.377 44.7188 153.353 44.8308 153.353H45.6468C45.7508 153.353 45.8308 153.377 45.8868 153.425C45.9508 153.473 45.9988 153.537 46.0308 153.617L48.9948 161.381C49.0108 161.429 49.0188 161.473 49.0188 161.513C49.0188 161.577 48.9948 161.633 48.9468 161.681C48.8988 161.729 48.8428 161.753 48.7788 161.753H48.1668C48.0708 161.753 47.9988 161.729 47.9508 161.681C47.9108 161.633 47.8828 161.589 47.8668 161.549L47.2068 159.845H43.2708L42.6108 161.549C42.6028 161.589 42.5748 161.633 42.5268 161.681C42.4788 161.729 42.4068 161.753 42.3108 161.753H41.6988ZM43.6188 158.813H46.8588L45.2388 154.553L43.6188 158.813ZM50.5778 161.753C50.4898 161.753 50.4218 161.729 50.3738 161.681C50.3258 161.625 50.3018 161.557 50.3018 161.477V153.641C50.3018 153.553 50.3258 153.485 50.3738 153.437C50.4218 153.381 50.4898 153.353 50.5778 153.353H53.5058C54.4098 153.353 55.1258 153.565 55.6538 153.989C56.1818 154.413 56.4458 155.041 56.4458 155.873C56.4458 156.489 56.2898 156.993 55.9778 157.385C55.6738 157.769 55.2578 158.037 54.7298 158.189L56.5778 161.381C56.6018 161.429 56.6138 161.473 56.6138 161.513C56.6138 161.577 56.5858 161.633 56.5298 161.681C56.4818 161.729 56.4258 161.753 56.3618 161.753H55.7858C55.6498 161.753 55.5498 161.717 55.4858 161.645C55.4218 161.573 55.3658 161.501 55.3178 161.429L53.5778 158.381H51.4778V161.477C51.4778 161.557 51.4498 161.625 51.3938 161.681C51.3458 161.729 51.2778 161.753 51.1898 161.753H50.5778ZM51.4778 157.361H53.4578C54.0578 157.361 54.5058 157.237 54.8018 156.989C55.0978 156.733 55.2458 156.357 55.2458 155.861C55.2458 155.373 55.0978 155.001 54.8018 154.745C54.5138 154.489 54.0658 154.361 53.4578 154.361H51.4778V157.361ZM60.9265 161.753C60.8465 161.753 60.7785 161.729 60.7225 161.681C60.6745 161.625 60.6505 161.557 60.6505 161.477V161.093C60.6505 161.021 60.6705 160.941 60.7105 160.853C60.7505 160.765 60.8305 160.669 60.9505 160.565L63.4945 158.021C63.9025 157.677 64.2225 157.385 64.4545 157.145C64.6945 156.897 64.8625 156.661 64.9585 156.437C65.0625 156.213 65.1145 155.981 65.1145 155.741C65.1145 155.285 64.9865 154.925 64.7305 154.661C64.4745 154.389 64.0945 154.253 63.5905 154.253C63.2705 154.253 62.9945 154.321 62.7625 154.457C62.5305 154.585 62.3465 154.765 62.2105 154.997C62.0825 155.221 61.9985 155.477 61.9585 155.765C61.9425 155.869 61.8985 155.941 61.8265 155.981C61.7625 156.021 61.7025 156.041 61.6465 156.041H61.0225C60.9505 156.041 60.8905 156.021 60.8425 155.981C60.7945 155.933 60.7705 155.877 60.7705 155.813C60.7785 155.509 60.8425 155.205 60.9625 154.901C61.0825 154.589 61.2585 154.309 61.4905 154.061C61.7305 153.813 62.0225 153.613 62.3665 153.461C62.7185 153.301 63.1265 153.221 63.5905 153.221C64.2225 153.221 64.7385 153.337 65.1385 153.569C65.5465 153.793 65.8465 154.093 66.0385 154.469C66.2305 154.845 66.3265 155.257 66.3265 155.705C66.3265 156.057 66.2665 156.381 66.1465 156.677C66.0265 156.965 65.8505 157.249 65.6185 157.529C65.3945 157.801 65.1145 158.081 64.7785 158.369L62.4745 160.709H66.2185C66.3065 160.709 66.3745 160.733 66.4225 160.781C66.4785 160.829 66.5065 160.897 66.5065 160.985V161.477C66.5065 161.557 66.4785 161.625 66.4225 161.681C66.3745 161.729 66.3065 161.753 66.2185 161.753H60.9265ZM70.9095 161.873C70.3575 161.873 69.8895 161.789 69.5055 161.621C69.1295 161.445 68.8215 161.205 68.5815 160.901C68.3415 160.597 68.1655 160.249 68.0535 159.857C67.9495 159.465 67.8895 159.049 67.8735 158.609C67.8655 158.393 67.8575 158.165 67.8495 157.925C67.8495 157.685 67.8495 157.445 67.8495 157.205C67.8575 156.957 67.8655 156.721 67.8735 156.497C67.8815 156.057 67.9415 155.641 68.0535 155.249C68.1735 154.849 68.3495 154.501 68.5815 154.205C68.8215 153.901 69.1335 153.665 69.5175 153.497C69.9015 153.321 70.3655 153.233 70.9095 153.233C71.4615 153.233 71.9255 153.321 72.3015 153.497C72.6855 153.665 72.9975 153.901 73.2375 154.205C73.4775 154.501 73.6535 154.849 73.7655 155.249C73.8855 155.641 73.9495 156.057 73.9575 156.497C73.9655 156.721 73.9695 156.957 73.9695 157.205C73.9775 157.445 73.9775 157.685 73.9695 157.925C73.9695 158.165 73.9655 158.393 73.9575 158.609C73.9495 159.049 73.8855 159.465 73.7655 159.857C73.6535 160.249 73.4775 160.597 73.2375 160.901C73.0055 161.205 72.6975 161.445 72.3135 161.621C71.9375 161.789 71.4695 161.873 70.9095 161.873ZM70.9095 160.853C71.5335 160.853 71.9935 160.649 72.2895 160.241C72.5935 159.825 72.7495 159.261 72.7575 158.549C72.7735 158.317 72.7815 158.093 72.7815 157.877C72.7815 157.653 72.7815 157.433 72.7815 157.217C72.7815 156.993 72.7735 156.773 72.7575 156.557C72.7495 155.861 72.5935 155.305 72.2895 154.889C71.9935 154.465 71.5335 154.253 70.9095 154.253C70.2935 154.253 69.8335 154.465 69.5295 154.889C69.2335 155.305 69.0775 155.861 69.0615 156.557C69.0615 156.773 69.0575 156.993 69.0495 157.217C69.0495 157.433 69.0495 157.653 69.0495 157.877C69.0575 158.093 69.0615 158.317 69.0615 158.549C69.0775 159.261 69.2375 159.825 69.5415 160.241C69.8455 160.649 70.3015 160.853 70.9095 160.853ZM75.5867 161.753C75.5067 161.753 75.4387 161.729 75.3827 161.681C75.3347 161.625 75.3107 161.557 75.3107 161.477V161.093C75.3107 161.021 75.3307 160.941 75.3707 160.853C75.4107 160.765 75.4907 160.669 75.6107 160.565L78.1547 158.021C78.5627 157.677 78.8827 157.385 79.1147 157.145C79.3547 156.897 79.5227 156.661 79.6187 156.437C79.7227 156.213 79.7747 155.981 79.7747 155.741C79.7747 155.285 79.6467 154.925 79.3907 154.661C79.1347 154.389 78.7547 154.253 78.2507 154.253C77.9307 154.253 77.6547 154.321 77.4227 154.457C77.1907 154.585 77.0067 154.765 76.8707 154.997C76.7427 155.221 76.6587 155.477 76.6187 155.765C76.6027 155.869 76.5587 155.941 76.4867 155.981C76.4227 156.021 76.3627 156.041 76.3067 156.041H75.6827C75.6107 156.041 75.5507 156.021 75.5027 155.981C75.4547 155.933 75.4307 155.877 75.4307 155.813C75.4387 155.509 75.5027 155.205 75.6227 154.901C75.7427 154.589 75.9187 154.309 76.1507 154.061C76.3907 153.813 76.6827 153.613 77.0267 153.461C77.3787 153.301 77.7867 153.221 78.2507 153.221C78.8827 153.221 79.3987 153.337 79.7987 153.569C80.2067 153.793 80.5067 154.093 80.6987 154.469C80.8907 154.845 80.9867 155.257 80.9867 155.705C80.9867 156.057 80.9267 156.381 80.8067 156.677C80.6867 156.965 80.5107 157.249 80.2787 157.529C80.0547 157.801 79.7747 158.081 79.4387 158.369L77.1347 160.709H80.8787C80.9667 160.709 81.0347 160.733 81.0827 160.781C81.1387 160.829 81.1667 160.897 81.1667 160.985V161.477C81.1667 161.557 81.1387 161.625 81.0827 161.681C81.0347 161.729 80.9667 161.753 80.8787 161.753H75.5867ZM85.0776 161.753C84.9976 161.753 84.9296 161.729 84.8736 161.681C84.8256 161.625 84.8016 161.557 84.8016 161.477V154.757L82.8096 156.293C82.7456 156.341 82.6776 156.361 82.6056 156.353C82.5336 156.345 82.4736 156.309 82.4256 156.245L82.1136 155.849C82.0656 155.777 82.0456 155.705 82.0536 155.633C82.0696 155.561 82.1096 155.501 82.1736 155.453L84.7896 153.437C84.8456 153.397 84.8976 153.373 84.9456 153.365C84.9936 153.357 85.0456 153.353 85.1016 153.353H85.7136C85.7936 153.353 85.8576 153.381 85.9056 153.437C85.9536 153.485 85.9776 153.549 85.9776 153.629V161.477C85.9776 161.557 85.9536 161.625 85.9056 161.681C85.8576 161.729 85.7936 161.753 85.7136 161.753H85.0776Z" fill="#9388DB"/>
<path d="M337.804 161.873C337.252 161.873 336.784 161.789 336.4 161.621C336.024 161.445 335.716 161.205 335.476 160.901C335.236 160.597 335.06 160.249 334.948 159.857C334.844 159.465 334.784 159.049 334.768 158.609C334.76 158.393 334.752 158.165 334.744 157.925C334.744 157.685 334.744 157.445 334.744 157.205C334.752 156.957 334.76 156.721 334.768 156.497C334.776 156.057 334.836 155.641 334.948 155.249C335.068 154.849 335.244 154.501 335.476 154.205C335.716 153.901 336.028 153.665 336.412 153.497C336.796 153.321 337.26 153.233 337.804 153.233C338.356 153.233 338.82 153.321 339.196 153.497C339.58 153.665 339.892 153.901 340.132 154.205C340.372 154.501 340.548 154.849 340.66 155.249C340.78 155.641 340.844 156.057 340.852 156.497C340.86 156.721 340.864 156.957 340.864 157.205C340.872 157.445 340.872 157.685 340.864 157.925C340.864 158.165 340.86 158.393 340.852 158.609C340.844 159.049 340.78 159.465 340.66 159.857C340.548 160.249 340.372 160.597 340.132 160.901C339.9 161.205 339.592 161.445 339.208 161.621C338.832 161.789 338.364 161.873 337.804 161.873ZM337.804 160.853C338.428 160.853 338.888 160.649 339.184 160.241C339.488 159.825 339.644 159.261 339.652 158.549C339.668 158.317 339.676 158.093 339.676 157.877C339.676 157.653 339.676 157.433 339.676 157.217C339.676 156.993 339.668 156.773 339.652 156.557C339.644 155.861 339.488 155.305 339.184 154.889C338.888 154.465 338.428 154.253 337.804 154.253C337.188 154.253 336.728 154.465 336.424 154.889C336.128 155.305 335.972 155.861 335.956 156.557C335.956 156.773 335.952 156.993 335.944 157.217C335.944 157.433 335.944 157.653 335.944 157.877C335.952 158.093 335.956 158.317 335.956 158.549C335.972 159.261 336.132 159.825 336.436 160.241C336.74 160.649 337.196 160.853 337.804 160.853ZM344.929 161.753C344.849 161.753 344.781 161.729 344.725 161.681C344.677 161.625 344.653 161.557 344.653 161.477V154.757L342.661 156.293C342.597 156.341 342.529 156.361 342.457 156.353C342.385 156.345 342.325 156.309 342.277 156.245L341.965 155.849C341.917 155.777 341.897 155.705 341.905 155.633C341.921 155.561 341.961 155.501 342.025 155.453L344.641 153.437C344.697 153.397 344.749 153.373 344.797 153.365C344.845 153.357 344.897 153.353 344.953 153.353H345.565C345.645 153.353 345.709 153.381 345.757 153.437C345.805 153.485 345.829 153.549 345.829 153.629V161.477C345.829 161.557 345.805 161.625 345.757 161.681C345.709 161.729 345.645 161.753 345.565 161.753H344.929ZM349.855 161.753C349.791 161.753 349.735 161.729 349.687 161.681C349.639 161.633 349.615 161.577 349.615 161.513C349.615 161.473 349.619 161.429 349.627 161.381L352.603 153.617C352.635 153.537 352.679 153.473 352.735 153.425C352.791 153.377 352.875 153.353 352.987 153.353H353.803C353.907 153.353 353.987 153.377 354.043 153.425C354.107 153.473 354.155 153.537 354.187 153.617L357.151 161.381C357.167 161.429 357.175 161.473 357.175 161.513C357.175 161.577 357.151 161.633 357.103 161.681C357.055 161.729 356.999 161.753 356.935 161.753H356.323C356.227 161.753 356.155 161.729 356.107 161.681C356.067 161.633 356.039 161.589 356.023 161.549L355.363 159.845H351.427L350.767 161.549C350.759 161.589 350.731 161.633 350.683 161.681C350.635 161.729 350.563 161.753 350.467 161.753H349.855ZM351.775 158.813H355.015L353.395 154.553L351.775 158.813ZM358.734 161.753C358.646 161.753 358.578 161.729 358.53 161.681C358.482 161.625 358.458 161.557 358.458 161.477V153.641C358.458 153.553 358.482 153.485 358.53 153.437C358.578 153.381 358.646 153.353 358.734 153.353H361.782C362.374 153.353 362.886 153.449 363.318 153.641C363.758 153.833 364.098 154.121 364.338 154.505C364.578 154.881 364.698 155.353 364.698 155.921C364.698 156.489 364.578 156.961 364.338 157.337C364.098 157.713 363.758 157.997 363.318 158.189C362.886 158.381 362.374 158.477 361.782 158.477H359.658V161.477C359.658 161.557 359.63 161.625 359.574 161.681C359.526 161.729 359.458 161.753 359.37 161.753H358.734ZM359.646 157.469H361.722C362.314 157.469 362.758 157.337 363.054 157.073C363.35 156.809 363.498 156.425 363.498 155.921C363.498 155.425 363.354 155.041 363.066 154.769C362.778 154.497 362.33 154.361 361.722 154.361H359.646V157.469ZM366.433 161.753C366.345 161.753 366.277 161.729 366.229 161.681C366.181 161.625 366.157 161.557 366.157 161.477V153.641C366.157 153.553 366.181 153.485 366.229 153.437C366.277 153.381 366.345 153.353 366.433 153.353H369.361C370.265 153.353 370.981 153.565 371.509 153.989C372.037 154.413 372.301 155.041 372.301 155.873C372.301 156.489 372.145 156.993 371.833 157.385C371.529 157.769 371.113 158.037 370.585 158.189L372.433 161.381C372.457 161.429 372.469 161.473 372.469 161.513C372.469 161.577 372.441 161.633 372.385 161.681C372.337 161.729 372.281 161.753 372.217 161.753H371.641C371.505 161.753 371.405 161.717 371.341 161.645C371.277 161.573 371.221 161.501 371.173 161.429L369.433 158.381H367.333V161.477C367.333 161.557 367.305 161.625 367.249 161.681C367.201 161.729 367.133 161.753 367.045 161.753H366.433ZM367.333 157.361H369.313C369.913 157.361 370.361 157.237 370.657 156.989C370.953 156.733 371.101 156.357 371.101 155.861C371.101 155.373 370.953 155.001 370.657 154.745C370.369 154.489 369.921 154.361 369.313 154.361H367.333V157.361ZM374.297 161.753C374.209 161.753 374.141 161.729 374.093 161.681C374.045 161.625 374.021 161.557 374.021 161.477V153.629C374.021 153.549 374.045 153.485 374.093 153.437C374.141 153.381 374.209 153.353 374.297 153.353H374.933C375.013 153.353 375.077 153.381 375.125 153.437C375.181 153.485 375.209 153.549 375.209 153.629V161.477C375.209 161.557 375.181 161.625 375.125 161.681C375.077 161.729 375.013 161.753 374.933 161.753H374.297ZM377.578 161.753C377.49 161.753 377.422 161.729 377.374 161.681C377.326 161.625 377.302 161.557 377.302 161.477V153.629C377.302 153.549 377.326 153.485 377.374 153.437C377.422 153.381 377.49 153.353 377.578 153.353H378.214C378.294 153.353 378.358 153.381 378.406 153.437C378.454 153.485 378.478 153.549 378.478 153.629V160.709H382.474C382.562 160.709 382.63 160.737 382.678 160.793C382.726 160.841 382.75 160.909 382.75 160.997V161.477C382.75 161.557 382.726 161.625 382.678 161.681C382.63 161.729 382.562 161.753 382.474 161.753H377.578ZM386.509 161.753C386.429 161.753 386.361 161.729 386.305 161.681C386.257 161.625 386.233 161.557 386.233 161.477V161.093C386.233 161.021 386.253 160.941 386.293 160.853C386.333 160.765 386.413 160.669 386.533 160.565L389.077 158.021C389.485 157.677 389.805 157.385 390.037 157.145C390.277 156.897 390.445 156.661 390.541 156.437C390.645 156.213 390.697 155.981 390.697 155.741C390.697 155.285 390.569 154.925 390.313 154.661C390.057 154.389 389.677 154.253 389.173 154.253C388.853 154.253 388.577 154.321 388.345 154.457C388.113 154.585 387.929 154.765 387.793 154.997C387.665 155.221 387.581 155.477 387.541 155.765C387.525 155.869 387.481 155.941 387.409 155.981C387.345 156.021 387.285 156.041 387.229 156.041H386.605C386.533 156.041 386.473 156.021 386.425 155.981C386.377 155.933 386.353 155.877 386.353 155.813C386.361 155.509 386.425 155.205 386.545 154.901C386.665 154.589 386.841 154.309 387.073 154.061C387.313 153.813 387.605 153.613 387.949 153.461C388.301 153.301 388.709 153.221 389.173 153.221C389.805 153.221 390.321 153.337 390.721 153.569C391.129 153.793 391.429 154.093 391.621 154.469C391.813 154.845 391.909 155.257 391.909 155.705C391.909 156.057 391.849 156.381 391.729 156.677C391.609 156.965 391.433 157.249 391.201 157.529C390.977 157.801 390.697 158.081 390.361 158.369L388.057 160.709H391.801C391.889 160.709 391.957 160.733 392.005 160.781C392.061 160.829 392.089 160.897 392.089 160.985V161.477C392.089 161.557 392.061 161.625 392.005 161.681C391.957 161.729 391.889 161.753 391.801 161.753H386.509ZM396.492 161.873C395.94 161.873 395.472 161.789 395.088 161.621C394.712 161.445 394.404 161.205 394.164 160.901C393.924 160.597 393.748 160.249 393.636 159.857C393.532 159.465 393.472 159.049 393.456 158.609C393.448 158.393 393.44 158.165 393.432 157.925C393.432 157.685 393.432 157.445 393.432 157.205C393.44 156.957 393.448 156.721 393.456 156.497C393.464 156.057 393.524 155.641 393.636 155.249C393.756 154.849 393.932 154.501 394.164 154.205C394.404 153.901 394.716 153.665 395.1 153.497C395.484 153.321 395.948 153.233 396.492 153.233C397.044 153.233 397.508 153.321 397.884 153.497C398.268 153.665 398.58 153.901 398.82 154.205C399.06 154.501 399.236 154.849 399.348 155.249C399.468 155.641 399.532 156.057 399.54 156.497C399.548 156.721 399.552 156.957 399.552 157.205C399.56 157.445 399.56 157.685 399.552 157.925C399.552 158.165 399.548 158.393 399.54 158.609C399.532 159.049 399.468 159.465 399.348 159.857C399.236 160.249 399.06 160.597 398.82 160.901C398.588 161.205 398.28 161.445 397.896 161.621C397.52 161.789 397.052 161.873 396.492 161.873ZM396.492 160.853C397.116 160.853 397.576 160.649 397.872 160.241C398.176 159.825 398.332 159.261 398.34 158.549C398.356 158.317 398.364 158.093 398.364 157.877C398.364 157.653 398.364 157.433 398.364 157.217C398.364 156.993 398.356 156.773 398.34 156.557C398.332 155.861 398.176 155.305 397.872 154.889C397.576 154.465 397.116 154.253 396.492 154.253C395.876 154.253 395.416 154.465 395.112 154.889C394.816 155.305 394.66 155.861 394.644 156.557C394.644 156.773 394.64 156.993 394.632 157.217C394.632 157.433 394.632 157.653 394.632 157.877C394.64 158.093 394.644 158.317 394.644 158.549C394.66 159.261 394.82 159.825 395.124 160.241C395.428 160.649 395.884 160.853 396.492 160.853ZM401.169 161.753C401.089 161.753 401.021 161.729 400.965 161.681C400.917 161.625 400.893 161.557 400.893 161.477V161.093C400.893 161.021 400.913 160.941 400.953 160.853C400.993 160.765 401.073 160.669 401.193 160.565L403.737 158.021C404.145 157.677 404.465 157.385 404.697 157.145C404.937 156.897 405.105 156.661 405.201 156.437C405.305 156.213 405.357 155.981 405.357 155.741C405.357 155.285 405.229 154.925 404.973 154.661C404.717 154.389 404.337 154.253 403.833 154.253C403.513 154.253 403.237 154.321 403.005 154.457C402.773 154.585 402.589 154.765 402.453 154.997C402.325 155.221 402.241 155.477 402.201 155.765C402.185 155.869 402.141 155.941 402.069 155.981C402.005 156.021 401.945 156.041 401.889 156.041H401.265C401.193 156.041 401.133 156.021 401.085 155.981C401.037 155.933 401.013 155.877 401.013 155.813C401.021 155.509 401.085 155.205 401.205 154.901C401.325 154.589 401.501 154.309 401.733 154.061C401.973 153.813 402.265 153.613 402.609 153.461C402.961 153.301 403.369 153.221 403.833 153.221C404.465 153.221 404.981 153.337 405.381 153.569C405.789 153.793 406.089 154.093 406.281 154.469C406.473 154.845 406.569 155.257 406.569 155.705C406.569 156.057 406.509 156.381 406.389 156.677C406.269 156.965 406.093 157.249 405.861 157.529C405.637 157.801 405.357 158.081 405.021 158.369L402.717 160.709H406.461C406.549 160.709 406.617 160.733 406.665 160.781C406.721 160.829 406.749 160.897 406.749 160.985V161.477C406.749 161.557 406.721 161.625 406.665 161.681C406.617 161.729 406.549 161.753 406.461 161.753H401.169ZM410.66 161.753C410.58 161.753 410.512 161.729 410.456 161.681C410.408 161.625 410.384 161.557 410.384 161.477V154.757L408.392 156.293C408.328 156.341 408.26 156.361 408.188 156.353C408.116 156.345 408.056 156.309 408.008 156.245L407.696 155.849C407.648 155.777 407.628 155.705 407.636 155.633C407.652 155.561 407.692 155.501 407.756 155.453L410.372 153.437C410.428 153.397 410.48 153.373 410.528 153.365C410.576 153.357 410.628 153.353 410.684 153.353H411.296C411.376 153.353 411.44 153.381 411.488 153.437C411.536 153.485 411.56 153.549 411.56 153.629V161.477C411.56 161.557 411.536 161.625 411.488 161.681C411.44 161.729 411.376 161.753 411.296 161.753H410.66Z" fill="#9388DB"/>
<path d="M452.804 130.873C452.252 130.873 451.784 130.789 451.4 130.621C451.024 130.445 450.716 130.205 450.476 129.901C450.236 129.597 450.06 129.249 449.948 128.857C449.844 128.465 449.784 128.049 449.768 127.609C449.76 127.393 449.752 127.165 449.744 126.925C449.744 126.685 449.744 126.445 449.744 126.205C449.752 125.957 449.76 125.721 449.768 125.497C449.776 125.057 449.836 124.641 449.948 124.249C450.068 123.849 450.244 123.501 450.476 123.205C450.716 122.901 451.028 122.665 451.412 122.497C451.796 122.321 452.26 122.233 452.804 122.233C453.356 122.233 453.82 122.321 454.196 122.497C454.58 122.665 454.892 122.901 455.132 123.205C455.372 123.501 455.548 123.849 455.66 124.249C455.78 124.641 455.844 125.057 455.852 125.497C455.86 125.721 455.864 125.957 455.864 126.205C455.872 126.445 455.872 126.685 455.864 126.925C455.864 127.165 455.86 127.393 455.852 127.609C455.844 128.049 455.78 128.465 455.66 128.857C455.548 129.249 455.372 129.597 455.132 129.901C454.9 130.205 454.592 130.445 454.208 130.621C453.832 130.789 453.364 130.873 452.804 130.873ZM452.804 129.853C453.428 129.853 453.888 129.649 454.184 129.241C454.488 128.825 454.644 128.261 454.652 127.549C454.668 127.317 454.676 127.093 454.676 126.877C454.676 126.653 454.676 126.433 454.676 126.217C454.676 125.993 454.668 125.773 454.652 125.557C454.644 124.861 454.488 124.305 454.184 123.889C453.888 123.465 453.428 123.253 452.804 123.253C452.188 123.253 451.728 123.465 451.424 123.889C451.128 124.305 450.972 124.861 450.956 125.557C450.956 125.773 450.952 125.993 450.944 126.217C450.944 126.433 450.944 126.653 450.944 126.877C450.952 127.093 450.956 127.317 450.956 127.549C450.972 128.261 451.132 128.825 451.436 129.241C451.74 129.649 452.196 129.853 452.804 129.853Z" fill="#9388DB"/>
<path d="M452.312 83.7529C452.232 83.7529 452.164 83.7289 452.108 83.6809C452.06 83.6249 452.036 83.5569 452.036 83.4769V76.7569L450.044 78.2929C449.98 78.3409 449.912 78.3609 449.84 78.3529C449.768 78.3449 449.708 78.3089 449.66 78.2449L449.348 77.8489C449.3 77.7769 449.28 77.7049 449.288 77.6329C449.304 77.5609 449.344 77.5009 449.408 77.4529L452.024 75.4369C452.08 75.3969 452.132 75.3729 452.18 75.3649C452.228 75.3569 452.28 75.3529 452.336 75.3529H452.948C453.028 75.3529 453.092 75.3809 453.14 75.4369C453.188 75.4849 453.212 75.5489 453.212 75.6289V83.4769C453.212 83.5569 453.188 83.6249 453.14 83.6809C453.092 83.7289 453.028 83.7529 452.948 83.7529H452.312Z" fill="#9388DB"/>
<path d="M449.864 27.7529C449.784 27.7529 449.716 27.7289 449.66 27.6809C449.612 27.6249 449.588 27.5569 449.588 27.4769V27.0929C449.588 27.0209 449.608 26.9409 449.648 26.8529C449.688 26.7649 449.768 26.6689 449.888 26.5649L452.432 24.0209C452.84 23.6769 453.16 23.3849 453.392 23.1449C453.632 22.8969 453.8 22.6609 453.896 22.4369C454 22.2129 454.052 21.9809 454.052 21.7409C454.052 21.2849 453.924 20.9249 453.668 20.6609C453.412 20.3889 453.032 20.2529 452.528 20.2529C452.208 20.2529 451.932 20.3209 451.7 20.4569C451.468 20.5849 451.284 20.7649 451.148 20.9969C451.02 21.2209 450.936 21.4769 450.896 21.7649C450.88 21.8689 450.836 21.9409 450.764 21.9809C450.7 22.0209 450.64 22.0409 450.584 22.0409H449.96C449.888 22.0409 449.828 22.0209 449.78 21.9809C449.732 21.9329 449.708 21.8769 449.708 21.8129C449.716 21.5089 449.78 21.2049 449.9 20.9009C450.02 20.5889 450.196 20.3089 450.428 20.0609C450.668 19.8129 450.96 19.6129 451.304 19.4609C451.656 19.3009 452.064 19.2209 452.528 19.2209C453.16 19.2209 453.676 19.3369 454.076 19.5689C454.484 19.7929 454.784 20.0929 454.976 20.4689C455.168 20.8449 455.264 21.2569 455.264 21.7049C455.264 22.0569 455.204 22.3809 455.084 22.6769C454.964 22.9649 454.788 23.2489 454.556 23.5289C454.332 23.8009 454.052 24.0809 453.716 24.3689L451.412 26.7089H455.156C455.244 26.7089 455.312 26.7329 455.36 26.7809C455.416 26.8289 455.444 26.8969 455.444 26.9849V27.4769C455.444 27.5569 455.416 27.6249 455.36 27.6809C455.312 27.7289 455.244 27.7529 455.156 27.7529H449.864Z" fill="#9388DB"/>
<path d="M355.365 16.2529C355.255 16.2529 355.165 16.2179 355.095 16.1479C355.025 16.0779 354.99 15.9879 354.99 15.8779V14.8429C354.22 14.7429 353.575 14.5479 353.055 14.2579C352.545 13.9679 352.16 13.6179 351.9 13.2079C351.64 12.7879 351.5 12.3479 351.48 11.8879C351.48 11.8079 351.51 11.7379 351.57 11.6779C351.64 11.6079 351.72 11.5729 351.81 11.5729H353.7C353.84 11.5729 353.945 11.5979 354.015 11.6479C354.085 11.6979 354.155 11.7629 354.225 11.8429C354.305 11.9929 354.415 12.1379 354.555 12.2779C354.705 12.4179 354.895 12.5329 355.125 12.6229C355.365 12.7029 355.66 12.7429 356.01 12.7429C356.59 12.7429 357.025 12.6529 357.315 12.4729C357.615 12.2929 357.765 12.0479 357.765 11.7379C357.765 11.5179 357.685 11.3379 357.525 11.1979C357.365 11.0479 357.105 10.9179 356.745 10.8079C356.395 10.6879 355.925 10.5679 355.335 10.4479C354.575 10.2879 353.925 10.0829 353.385 9.83293C352.855 9.57293 352.45 9.23793 352.17 8.82793C351.89 8.40793 351.75 7.88793 351.75 7.26793C351.75 6.46793 352.035 5.78793 352.605 5.22793C353.185 4.66793 353.98 4.31793 354.99 4.17793V3.12793C354.99 3.01793 355.025 2.92793 355.095 2.85793C355.165 2.78793 355.255 2.75293 355.365 2.75293H356.61C356.71 2.75293 356.795 2.78793 356.865 2.85793C356.945 2.92793 356.985 3.01793 356.985 3.12793V4.20793C357.675 4.32793 358.255 4.54293 358.725 4.85293C359.195 5.16293 359.55 5.51293 359.79 5.90293C360.04 6.29293 360.17 6.66793 360.18 7.02793C360.18 7.10793 360.15 7.18293 360.09 7.25293C360.03 7.31293 359.955 7.34293 359.865 7.34293H357.885C357.775 7.34293 357.68 7.32293 357.6 7.28293C357.52 7.24293 357.45 7.17793 357.39 7.08793C357.33 6.86793 357.17 6.67793 356.91 6.51793C356.65 6.34793 356.315 6.26293 355.905 6.26293C355.475 6.26293 355.135 6.34293 354.885 6.50293C354.635 6.65293 354.51 6.88793 354.51 7.20793C354.51 7.40793 354.575 7.58293 354.705 7.73293C354.845 7.88293 355.075 8.01293 355.395 8.12293C355.715 8.23293 356.15 8.34793 356.7 8.46793C357.61 8.63793 358.345 8.85293 358.905 9.11293C359.465 9.36293 359.875 9.69293 360.135 10.1029C360.395 10.5029 360.525 11.0079 360.525 11.6179C360.525 12.2079 360.375 12.7279 360.075 13.1779C359.785 13.6279 359.375 13.9929 358.845 14.2729C358.315 14.5529 357.695 14.7379 356.985 14.8279V15.8779C356.985 15.9879 356.945 16.0779 356.865 16.1479C356.795 16.2179 356.71 16.2529 356.61 16.2529H355.365ZM365.218 14.7529C365.108 14.7529 365.013 14.7179 364.933 14.6479C364.863 14.5779 364.828 14.4879 364.828 14.3779V13.3129C364.828 13.2429 364.848 13.1379 364.888 12.9979C364.928 12.8479 365.033 12.7079 365.203 12.5779L366.763 11.0479C367.563 10.4379 368.218 9.92293 368.728 9.50293C369.248 9.07293 369.633 8.69293 369.883 8.36293C370.133 8.03293 370.258 7.72293 370.258 7.43293C370.258 7.09293 370.168 6.81293 369.988 6.59293C369.818 6.36293 369.518 6.24793 369.088 6.24793C368.798 6.24793 368.553 6.31293 368.353 6.44293C368.163 6.56293 368.018 6.72293 367.918 6.92293C367.818 7.12293 367.748 7.32793 367.708 7.53793C367.668 7.66793 367.598 7.75793 367.498 7.80793C367.408 7.85793 367.308 7.88293 367.198 7.88293H365.323C365.233 7.88293 365.158 7.85293 365.098 7.79293C365.038 7.73293 365.008 7.65793 365.008 7.56793C365.018 7.08793 365.118 6.63793 365.308 6.21793C365.508 5.79793 365.783 5.42793 366.133 5.10793C366.493 4.77793 366.918 4.52293 367.408 4.34293C367.908 4.16293 368.468 4.07293 369.088 4.07293C369.938 4.07293 370.658 4.20793 371.248 4.47793C371.848 4.74793 372.303 5.12793 372.613 5.61793C372.923 6.09793 373.078 6.66293 373.078 7.31293C373.078 7.80293 372.968 8.26293 372.748 8.69293C372.538 9.11293 372.233 9.51793 371.833 9.90793C371.443 10.2879 370.978 10.6829 370.438 11.0929L369.058 12.4879H372.913C373.023 12.4879 373.113 12.5229 373.183 12.5929C373.263 12.6629 373.303 12.7529 373.303 12.8629V14.3779C373.303 14.4879 373.263 14.5779 373.183 14.6479C373.113 14.7179 373.023 14.7529 372.913 14.7529H365.218ZM374.749 15.8779C374.669 15.8779 374.599 15.8429 374.539 15.7729C374.479 15.7129 374.454 15.6379 374.464 15.5479L374.929 12.6079C374.949 12.4779 374.999 12.3629 375.079 12.2629C375.169 12.1529 375.299 12.0979 375.469 12.0979H377.224C377.304 12.0979 377.369 12.1279 377.419 12.1879C377.479 12.2479 377.509 12.3129 377.509 12.3829C377.509 12.4429 377.499 12.5029 377.479 12.5629L376.339 15.4579C376.299 15.5579 376.239 15.6529 376.159 15.7429C376.079 15.8329 375.959 15.8779 375.799 15.8779H374.749ZM382.944 14.9179C382.004 14.9179 381.219 14.7729 380.589 14.4829C379.959 14.1829 379.479 13.7979 379.149 13.3279C378.829 12.8479 378.659 12.3329 378.639 11.7829C378.639 11.6929 378.669 11.6179 378.729 11.5579C378.789 11.4979 378.864 11.4679 378.954 11.4679H380.964C381.094 11.4679 381.194 11.4979 381.264 11.5579C381.344 11.6079 381.404 11.6729 381.444 11.7529C381.534 11.9829 381.649 12.1729 381.789 12.3229C381.939 12.4729 382.109 12.5829 382.299 12.6529C382.499 12.7229 382.719 12.7579 382.959 12.7579C383.239 12.7579 383.499 12.6979 383.739 12.5779C383.979 12.4579 384.169 12.2829 384.309 12.0529C384.459 11.8129 384.534 11.5279 384.534 11.1979C384.534 10.8979 384.464 10.6379 384.324 10.4179C384.194 10.1979 384.009 10.0229 383.769 9.89293C383.529 9.76293 383.259 9.69793 382.959 9.69793C382.719 9.69793 382.524 9.72793 382.374 9.78793C382.224 9.83793 382.099 9.90293 381.999 9.98293C381.899 10.0629 381.809 10.1329 381.729 10.1929C381.649 10.2429 381.559 10.2679 381.459 10.2679H379.494C379.404 10.2679 379.324 10.2379 379.254 10.1779C379.194 10.1079 379.164 10.0279 379.164 9.93793L379.704 4.70293C379.724 4.55293 379.779 4.44293 379.869 4.37293C379.959 4.29293 380.069 4.25293 380.199 4.25293H386.214C386.324 4.25293 386.414 4.28793 386.484 4.35793C386.554 4.42793 386.589 4.51793 386.589 4.62793V6.03793C386.589 6.14793 386.554 6.23793 386.484 6.30793C386.414 6.37793 386.324 6.41293 386.214 6.41293H381.864L381.669 8.36293C381.889 8.21293 382.144 8.09293 382.434 8.00293C382.734 7.90293 383.139 7.85293 383.649 7.85293C384.129 7.85293 384.584 7.93293 385.014 8.09293C385.454 8.25293 385.844 8.48293 386.184 8.78293C386.534 9.08293 386.804 9.44293 386.994 9.86293C387.194 10.2729 387.294 10.7379 387.294 11.2579C387.294 11.9679 387.119 12.5979 386.769 13.1479C386.429 13.6979 385.934 14.1329 385.284 14.4529C384.634 14.7629 383.854 14.9179 382.944 14.9179ZM393.676 14.7529C393.576 14.7529 393.486 14.7179 393.406 14.6479C393.336 14.5779 393.301 14.4879 393.301 14.3779V12.6829H388.636C388.536 12.6829 388.446 12.6479 388.366 12.5779C388.296 12.5079 388.261 12.4179 388.261 12.3079V10.8829C388.261 10.7929 388.276 10.7129 388.306 10.6429C388.346 10.5629 388.386 10.4879 388.426 10.4179L392.791 4.50793C392.921 4.33793 393.106 4.25293 393.346 4.25293H395.521C395.631 4.25293 395.721 4.28793 395.791 4.35793C395.871 4.42793 395.911 4.51793 395.911 4.62793V10.4479H397.231C397.351 10.4479 397.446 10.4879 397.516 10.5679C397.586 10.6379 397.621 10.7229 397.621 10.8229V12.3079C397.621 12.4179 397.581 12.5079 397.501 12.5779C397.431 12.6479 397.346 12.6829 397.246 12.6829H395.911V14.3779C395.911 14.4879 395.871 14.5779 395.791 14.6479C395.721 14.7179 395.631 14.7529 395.521 14.7529H393.676ZM390.841 10.5529H393.361V7.01293L390.841 10.5529Z" fill="#28D2FF"/>
<path d="M51.7207 119.253C74.9678 119.173 69.1111 82.2529 92.2883 82.2529C115.466 82.2529 109.669 114.253 132.856 114.253C156.043 114.253 153.858 90.2529 173.424 90.2529C192.989 90.2529 192.979 64.2529 213.981 64.2529C234.983 64.2529 234.265 58.2529 254.549 58.2529C274.833 58.2529 277.008 111.253 295.116 111.253C313.225 111.253 315.4 79.2529 335.684 79.2529C355.968 79.2529 355.968 34.2529 376.252 34.2529" stroke="#D7099C" stroke-width="1.5"/>
<path d="M54.7035 116.583C55.4499 117.333 55.869 118.349 55.869 119.408C55.869 120.467 55.4499 121.483 54.7035 122.233C54.3329 122.605 53.8927 122.9 53.4082 123.101C52.9237 123.302 52.4044 123.406 51.8799 123.406C51.3555 123.406 50.8361 123.302 50.3517 123.101C49.8672 122.9 49.427 122.605 49.0564 122.233C48.31 121.483 47.8909 120.467 47.8909 119.408C47.8909 118.349 48.31 117.333 49.0564 116.583C49.427 116.211 49.8672 115.916 50.3517 115.715C50.8361 115.513 51.3555 115.41 51.8799 115.41C52.4044 115.41 52.9237 115.513 53.4082 115.715C53.8927 115.916 54.3329 116.211 54.7035 116.583Z" fill="black" fill-opacity="0.87"/>
<path d="M54.2149 117.113C54.5163 117.414 54.7554 117.772 54.9186 118.165C55.0817 118.559 55.1657 118.981 55.1657 119.408C55.1657 119.834 55.0817 120.257 54.9186 120.65C54.7554 121.044 54.5163 121.402 54.2149 121.703V121.703C53.9146 122.005 53.5577 122.245 53.1648 122.408C52.7719 122.572 52.3506 122.656 51.9251 122.656C51.4997 122.656 51.0784 122.572 50.6855 122.408C50.2925 122.245 49.9357 122.005 49.6354 121.703V121.703C49.334 121.402 49.0949 121.044 48.9317 120.65C48.7686 120.257 48.6846 119.834 48.6846 119.408C48.6846 118.981 48.7686 118.559 48.9317 118.165C49.0949 117.772 49.334 117.414 49.6354 117.113V117.113C49.9357 116.811 50.2925 116.571 50.6855 116.408C51.0784 116.244 51.4997 116.16 51.9251 116.16C52.3506 116.16 52.7719 116.244 53.1648 116.408C53.5577 116.571 53.9146 116.811 54.2149 117.113V117.113Z" stroke="#A79DE6" stroke-width="1.5"/>
<path d="M95.3512 79.5828C96.0976 80.3327 96.5167 81.3486 96.5167 82.4078C96.5167 83.467 96.0976 84.483 95.3512 85.2328C94.9806 85.6047 94.5404 85.8997 94.0559 86.101C93.5714 86.3023 93.0521 86.4059 92.5276 86.4059C92.0032 86.4059 91.4839 86.3023 90.9994 86.101C90.5149 85.8997 90.0747 85.6047 89.7041 85.2328C88.9577 84.483 88.5386 83.467 88.5386 82.4078C88.5386 81.3486 88.9577 80.3327 89.7041 79.5828C90.0747 79.2109 90.5149 78.9159 90.9994 78.7146C91.4839 78.5133 92.0032 78.4097 92.5276 78.4097C93.0521 78.4097 93.5714 78.5133 94.0559 78.7146C94.5404 78.9159 94.9806 79.2109 95.3512 79.5828Z" fill="black" fill-opacity="0.87"/>
<path d="M94.8223 80.113C95.1237 80.414 95.3628 80.7717 95.526 81.1655C95.6891 81.5593 95.7731 81.9816 95.7731 82.408C95.7731 82.8344 95.6891 83.2567 95.526 83.6505C95.3628 84.0443 95.1237 84.402 94.8223 84.703V84.703C94.5211 85.0054 94.1634 85.2452 93.7697 85.4089C93.3759 85.5726 92.9538 85.6568 92.5276 85.6568C92.1013 85.6568 91.6792 85.5726 91.2854 85.4089C90.8917 85.2452 90.5339 85.0054 90.2328 84.703V84.703C89.9314 84.402 89.6923 84.0443 89.5291 83.6505C89.366 83.2567 89.282 82.8344 89.282 82.408C89.282 81.9816 89.366 81.5593 89.5291 81.1655C89.6923 80.7717 89.9314 80.414 90.2328 80.113V80.113C90.5339 79.8106 90.8917 79.5708 91.2854 79.4071C91.6792 79.2434 92.1013 79.1592 92.5276 79.1592C92.9538 79.1592 93.3759 79.2434 93.7697 79.4071C94.1634 79.5708 94.5211 79.8106 94.8223 80.113V80.113Z" stroke="#A79DE6" stroke-width="1.5"/>
<path d="M135.27 111.583C136.017 112.333 136.436 113.349 136.436 114.408C136.436 115.467 136.017 116.483 135.27 117.233C134.9 117.605 134.459 117.9 133.975 118.101C133.49 118.302 132.971 118.406 132.447 118.406C131.922 118.406 131.403 118.302 130.918 118.101C130.434 117.9 129.994 117.605 129.623 117.233C128.877 116.483 128.458 115.467 128.458 114.408C128.458 113.349 128.877 112.333 129.623 111.583C129.994 111.211 130.434 110.916 130.918 110.715C131.403 110.513 131.922 110.41 132.447 110.41C132.971 110.41 133.49 110.513 133.975 110.715C134.459 110.916 134.9 111.211 135.27 111.583Z" fill="black" fill-opacity="0.87"/>
<path d="M134.742 112.113C135.346 112.723 135.684 113.548 135.684 114.408C135.684 115.268 135.346 116.092 134.742 116.703V116.703C134.441 117.005 134.083 117.245 133.689 117.409C133.295 117.573 132.873 117.657 132.447 117.657C132.021 117.657 131.599 117.573 131.205 117.409C130.811 117.245 130.453 117.005 130.152 116.703V116.703C129.851 116.402 129.612 116.044 129.449 115.65C129.285 115.257 129.201 114.834 129.201 114.408C129.201 113.982 129.285 113.559 129.449 113.165C129.612 112.772 129.851 112.414 130.152 112.113V112.113C130.453 111.811 130.811 111.571 131.205 111.407C131.599 111.243 132.021 111.159 132.447 111.159C132.873 111.159 133.295 111.243 133.689 111.407C134.083 111.571 134.441 111.811 134.742 112.113V112.113Z" stroke="#A79DE6" stroke-width="1.5"/>
<path d="M170.44 87.5828C171.186 88.3327 171.606 89.3486 171.606 90.4078C171.606 91.467 171.186 92.483 170.44 93.2328C170.069 93.6047 169.629 93.8997 169.145 94.101C168.66 94.3023 168.141 94.4059 167.617 94.4059C167.092 94.4059 166.573 94.3023 166.088 94.101C165.604 93.8997 165.164 93.6047 164.793 93.2328C164.047 92.483 163.627 91.467 163.627 90.4078C163.627 89.3486 164.047 88.3327 164.793 87.5828C165.164 87.2109 165.604 86.9159 166.088 86.7146C166.573 86.5133 167.092 86.4097 167.617 86.4097C168.141 86.4097 168.66 86.5133 169.145 86.7146C169.629 86.9159 170.069 87.2109 170.44 87.5828Z" fill="black" fill-opacity="0.87"/>
<path d="M169.951 88.113C170.555 88.7235 170.894 89.5484 170.894 90.408C170.894 91.2676 170.555 92.0925 169.951 92.703V92.703C169.65 93.0054 169.293 93.2452 168.899 93.4089C168.505 93.5726 168.083 93.6568 167.657 93.6568C167.23 93.6568 166.808 93.5726 166.415 93.4089C166.021 93.2452 165.663 93.0054 165.362 92.703V92.703C165.061 92.402 164.821 92.0443 164.658 91.6505C164.495 91.2567 164.411 90.8344 164.411 90.408C164.411 89.9816 164.495 89.5593 164.658 89.1655C164.821 88.7717 165.061 88.414 165.362 88.113V88.113C165.663 87.8106 166.021 87.5708 166.415 87.4071C166.808 87.2434 167.23 87.1592 167.657 87.1592C168.083 87.1592 168.505 87.2434 168.899 87.4071C169.293 87.5708 169.65 87.8106 169.951 88.113V88.113Z" stroke="#A79DE6" stroke-width="1.5"/>
<path d="M212.903 61.5828C213.65 62.3327 214.069 63.3486 214.069 64.4078C214.069 65.467 213.65 66.4829 212.903 67.2328C212.533 67.6047 212.092 67.8997 211.608 68.101C211.123 68.3023 210.604 68.406 210.08 68.406C209.555 68.406 209.036 68.3023 208.551 68.101C208.067 67.8997 207.627 67.6047 207.256 67.2328C206.51 66.4829 206.091 65.467 206.091 64.4078C206.091 63.3486 206.51 62.3327 207.256 61.5828C207.627 61.2109 208.067 60.9159 208.551 60.7146C209.036 60.5133 209.555 60.4097 210.08 60.4097C210.604 60.4097 211.123 60.5133 211.608 60.7146C212.092 60.9159 212.533 61.2109 212.903 61.5828Z" fill="black" fill-opacity="0.87"/>
<path d="M212.374 62.113C212.676 62.414 212.915 62.7717 213.078 63.1655C213.241 63.5593 213.325 63.9816 213.325 64.408C213.325 64.8344 213.241 65.2567 213.078 65.6505C212.915 66.0443 212.676 66.402 212.374 66.703V66.703C212.073 67.0053 211.715 67.2452 211.322 67.4089C210.928 67.5726 210.506 67.6568 210.08 67.6568C209.653 67.6568 209.231 67.5726 208.837 67.4089C208.444 67.2452 208.086 67.0053 207.785 66.703V66.703C207.483 66.402 207.244 66.0443 207.081 65.6505C206.918 65.2567 206.834 64.8344 206.834 64.408C206.834 63.9816 206.918 63.5593 207.081 63.1655C207.244 62.7717 207.483 62.414 207.785 62.113V62.113C208.086 61.8106 208.444 61.5708 208.837 61.4071C209.231 61.2434 209.653 61.1592 210.08 61.1592C210.506 61.1592 210.928 61.2434 211.322 61.4071C211.715 61.5708 212.073 61.8106 212.374 62.113V62.113Z" stroke="#A79DE6" stroke-width="1.5"/>
<path d="M257.492 55.5828C258.238 56.3327 258.657 57.3486 258.657 58.4078C258.657 59.467 258.238 60.4829 257.492 61.2328C257.121 61.6047 256.681 61.8997 256.196 62.101C255.712 62.3023 255.192 62.406 254.668 62.406C254.144 62.406 253.624 62.3023 253.14 62.101C252.655 61.8997 252.215 61.6047 251.844 61.2328C251.098 60.4829 250.679 59.467 250.679 58.4078C250.679 57.3486 251.098 56.3327 251.844 55.5828C252.215 55.2109 252.655 54.9159 253.14 54.7146C253.624 54.5133 254.144 54.4097 254.668 54.4097C255.192 54.4097 255.712 54.5133 256.196 54.7146C256.681 54.9159 257.121 55.2109 257.492 55.5828Z" fill="black" fill-opacity="0.87"/>
<path d="M256.963 56.113C257.567 56.7235 257.906 57.5484 257.906 58.408C257.906 59.2676 257.567 60.0925 256.963 60.703V60.703C256.662 61.0053 256.304 61.2452 255.911 61.4089C255.517 61.5726 255.095 61.6568 254.668 61.6568C254.242 61.6568 253.82 61.5726 253.426 61.4089C253.033 61.2452 252.675 61.0053 252.374 60.703V60.703C252.072 60.402 251.833 60.0443 251.67 59.6505C251.507 59.2567 251.423 58.8344 251.423 58.408C251.423 57.9816 251.507 57.5593 251.67 57.1655C251.833 56.7717 252.072 56.414 252.374 56.113V56.113C252.675 55.8106 253.033 55.5708 253.426 55.4071C253.82 55.2434 254.242 55.1592 254.668 55.1592C255.095 55.1592 255.517 55.2434 255.911 55.4071C256.304 55.5708 256.662 55.8106 256.963 56.113V56.113Z" stroke="#A79DE6" stroke-width="1.5"/>
<path d="M298.15 108.583C298.896 109.333 299.315 110.349 299.315 111.408C299.315 112.467 298.896 113.483 298.15 114.233C297.779 114.605 297.339 114.9 296.854 115.101C296.37 115.302 295.85 115.406 295.326 115.406C294.801 115.406 294.282 115.302 293.798 115.101C293.313 114.9 292.873 114.605 292.502 114.233C291.756 113.483 291.337 112.467 291.337 111.408C291.337 110.349 291.756 109.333 292.502 108.583C292.873 108.211 293.313 107.916 293.798 107.715C294.282 107.513 294.801 107.41 295.326 107.41C295.85 107.41 296.37 107.513 296.854 107.715C297.339 107.916 297.779 108.211 298.15 108.583Z" fill="black" fill-opacity="0.87"/>
<path d="M297.661 109.113C298.264 109.723 298.603 110.548 298.603 111.408C298.603 112.268 298.264 113.092 297.661 113.703V113.703C297.36 114.005 297.002 114.245 296.608 114.409C296.214 114.573 295.792 114.657 295.366 114.657C294.94 114.657 294.518 114.573 294.124 114.409C293.73 114.245 293.372 114.005 293.071 113.703V113.703C292.77 113.402 292.531 113.044 292.368 112.65C292.204 112.257 292.12 111.834 292.12 111.408C292.12 110.982 292.204 110.559 292.368 110.165C292.531 109.772 292.77 109.414 293.071 109.113V109.113C293.372 108.811 293.73 108.571 294.124 108.407C294.518 108.243 294.94 108.159 295.366 108.159C295.792 108.159 296.214 108.243 296.608 108.407C297.002 108.571 297.36 108.811 297.661 109.113V109.113Z" stroke="#A79DE6" stroke-width="1.5"/>
<path d="M276.199 76.5828C276.945 77.3327 277.365 78.3486 277.365 79.4078C277.365 80.467 276.945 81.483 276.199 82.2328C275.828 82.6047 275.388 82.8997 274.904 83.101C274.419 83.3023 273.9 83.4059 273.376 83.4059C272.851 83.4059 272.332 83.3023 271.847 83.101C271.363 82.8997 270.923 82.6047 270.552 82.2328C269.806 81.483 269.386 80.467 269.386 79.4078C269.386 78.3486 269.806 77.3327 270.552 76.5828C270.923 76.2109 271.363 75.9159 271.847 75.7146C272.332 75.5133 272.851 75.4097 273.376 75.4097C273.9 75.4097 274.419 75.5133 274.904 75.7146C275.388 75.9159 275.828 76.2109 276.199 76.5828Z" fill="black" fill-opacity="0.87"/>
<path d="M275.711 77.113C276.315 77.7235 276.653 78.5484 276.653 79.408C276.653 80.2676 276.315 81.0925 275.711 81.703V81.703C275.41 82.0054 275.052 82.2452 274.658 82.4089C274.264 82.5726 273.842 82.6568 273.416 82.6568C272.99 82.6568 272.568 82.5726 272.174 82.4089C271.78 82.2452 271.422 82.0054 271.121 81.703V81.703C270.82 81.402 270.581 81.0443 270.418 80.6505C270.254 80.2567 270.17 79.8344 270.17 79.408C270.17 78.9816 270.254 78.5593 270.418 78.1655C270.581 77.7717 270.82 77.414 271.121 77.113V77.113C271.422 76.8106 271.78 76.5708 272.174 76.4071C272.568 76.2434 272.99 76.1592 273.416 76.1592C273.842 76.1592 274.264 76.2434 274.658 76.4071C275.052 76.5708 275.41 76.8106 275.711 77.113V77.113Z" stroke="#A79DE6" stroke-width="1.5"/>
<path d="M379.883 31.5828C380.63 32.3327 381.049 33.3486 381.049 34.4078C381.049 35.467 380.63 36.4829 379.883 37.2328C379.513 37.6047 379.073 37.8997 378.588 38.101C378.104 38.3023 377.584 38.406 377.06 38.406C376.535 38.406 376.016 38.3023 375.532 38.101C375.047 37.8997 374.607 37.6047 374.236 37.2328C373.49 36.4829 373.071 35.467 373.071 34.4078C373.071 33.3486 373.49 32.3327 374.236 31.5828C374.607 31.2109 375.047 30.9159 375.532 30.7146C376.016 30.5133 376.535 30.4097 377.06 30.4097C377.584 30.4097 378.104 30.5133 378.588 30.7146C379.073 30.9159 379.513 31.2109 379.883 31.5828Z" fill="black" fill-opacity="0.87"/>
<path d="M381.29 30.1629C381.846 30.7202 382.288 31.3819 382.589 32.1103C382.89 32.8387 383.045 33.6194 383.045 34.4079C383.045 35.1964 382.89 35.9772 382.589 36.7056C382.288 37.434 381.846 38.0957 381.29 38.6529V38.6529C380.167 39.7765 378.646 40.4077 377.059 40.4077C375.473 40.4077 373.951 39.7765 372.829 38.6529V38.6529C372.272 38.0957 371.831 37.434 371.53 36.7056C371.228 35.9772 371.073 35.1964 371.073 34.4079C371.073 33.6194 371.228 32.8387 371.53 32.1103C371.831 31.3819 372.272 30.7202 372.829 30.1629V30.1629C373.951 29.0393 375.473 28.4082 377.059 28.4082C378.646 28.4082 380.167 29.0393 381.29 30.1629Z" stroke="#28D2FF" stroke-width="4"/>
<path d="M334.813 76.9261C335.559 77.6759 335.978 78.6919 335.978 79.7511C335.978 80.8103 335.559 81.8262 334.813 82.5761C334.442 82.948 334.002 83.243 333.517 83.4443C333.033 83.6456 332.514 83.7492 331.989 83.7492C331.465 83.7492 330.945 83.6456 330.461 83.4443C329.976 83.243 329.536 82.948 329.165 82.5761C328.419 81.8262 328 80.8103 328 79.7511C328 78.6919 328.419 77.6759 329.165 76.9261C329.536 76.5542 329.976 76.2591 330.461 76.0578C330.945 75.8565 331.465 75.7529 331.989 75.7529C332.514 75.7529 333.033 75.8565 333.517 76.0578C334.002 76.2591 334.442 76.5542 334.813 76.9261Z" fill="black" fill-opacity="0.87"/>
<path d="M334.287 77.113C334.891 77.7235 335.23 78.5484 335.23 79.408C335.23 80.2676 334.891 81.0925 334.287 81.703V81.703C333.986 82.0054 333.628 82.2452 333.235 82.4089C332.841 82.5726 332.419 82.6568 331.992 82.6568C331.566 82.6568 331.144 82.5726 330.75 82.4089C330.356 82.2452 329.999 82.0054 329.698 81.703V81.703C329.396 81.402 329.157 81.0443 328.994 80.6505C328.831 80.2567 328.747 79.8344 328.747 79.408C328.747 78.9816 328.831 78.5593 328.994 78.1655C329.157 77.7717 329.396 77.414 329.698 77.113V77.113C329.999 76.8106 330.356 76.5708 330.75 76.4071C331.144 76.2434 331.566 76.1592 331.992 76.1592C332.419 76.1592 332.841 76.2434 333.235 76.4071C333.628 76.5708 333.986 76.8106 334.287 77.113V77.113Z" stroke="#A79DE6" stroke-width="1.5"/>
<path d="M361.256 48.5828C362.002 49.3327 362.421 50.3486 362.421 51.4078C362.421 52.467 362.002 53.4829 361.256 54.2328C360.885 54.6047 360.445 54.8997 359.96 55.101C359.476 55.3023 358.957 55.406 358.432 55.406C357.908 55.406 357.388 55.3023 356.904 55.101C356.419 54.8997 355.979 54.6047 355.609 54.2328C354.862 53.4829 354.443 52.467 354.443 51.4078C354.443 50.3486 354.862 49.3327 355.609 48.5828C355.979 48.2109 356.419 47.9159 356.904 47.7146C357.388 47.5133 357.908 47.4097 358.432 47.4097C358.957 47.4097 359.476 47.5133 359.96 47.7146C360.445 47.9159 360.885 48.2109 361.256 48.5828Z" fill="black" fill-opacity="0.87"/>
<path d="M360.727 49.113C361.331 49.7235 361.669 50.5484 361.669 51.408C361.669 52.2676 361.331 53.0925 360.727 53.703C360.426 54.0053 360.068 54.2452 359.674 54.4089C359.28 54.5726 358.858 54.6568 358.432 54.6568C358.006 54.6568 357.584 54.5726 357.19 54.4089C356.796 54.2452 356.438 54.0053 356.137 53.703V53.703C355.836 53.402 355.597 53.0443 355.434 52.6505C355.271 52.2567 355.187 51.8344 355.187 51.408C355.187 50.9816 355.271 50.5593 355.434 50.1655C355.597 49.7717 355.836 49.414 356.137 49.113V49.113C356.438 48.8106 356.796 48.5708 357.19 48.4071C357.584 48.2434 358.006 48.1592 358.432 48.1592C358.858 48.1592 359.28 48.2434 359.674 48.4071C360.068 48.5708 360.426 48.8106 360.727 49.113V49.113Z" stroke="#A79DE6" stroke-width="1.5"/>
</svg>
