<svg xmlns="http://www.w3.org/2000/svg" fill="none" viewBox="0 0 457 164">
  <path stroke="#D7099C" stroke-width="1.5" d="M52.5 132.5c9 0 22.5 2.5 47-8.5 25.191-11.31 23.989-4 35.5-4 26 0 42-37.0001 68-25.0001 26 12.0001 29 8.5001 37.5-7 8.5-15.5 25.5 10 30-6s4-38.5 16-31.5S302 66 307.5 55s11-24.0002 22-21.5002S342.5 63.5 356.5 60c11.2-2.8 7.5-19 19-11.5"/>
  <path fill="#9388DB" d="M373.725 133h1.996v11c0 .265-.106.52-.293.707-.187.188-.441.293-.705.293-.265 0-.519-.105-.706-.293-.187-.187-.292-.442-.292-.707v-11ZM51.9841 133h1.9955v11c0 .265-.1051.52-.2922.707-.1872.188-.4409.293-.7055.293-.2647 0-.5184-.105-.7055-.293-.1872-.187-.2923-.442-.2923-.707v-11Z"/>
  <path stroke="#D7099C" stroke-opacity=".7" d="m0 136.5 457-.479"/>
  <path stroke="#D7099C" stroke-dasharray="5 2" stroke-opacity=".7" d="M0 91h456M0 34h456"/>
  <path fill="#9388DB" d="M19.804 161.12c-1.032 0-1.788-.3-2.268-.9-.48-.6-.736-1.388-.768-2.364-.008-.216-.012-.564-.012-1.044 0-.496.004-.856.012-1.08.024-.96.28-1.74.768-2.34.488-.608 1.244-.912 2.268-.912 1.032 0 1.792.304 2.28.912.488.6.744 1.38.768 2.34.016.448.024.808.024 1.08 0 .264-.008.612-.024 1.044-.032.976-.288 1.764-.768 2.364-.48.6-1.24.9-2.28.9Zm0-1.032c.6 0 1.052-.2 1.356-.6.312-.4.476-.964.492-1.692.016-.464.024-.8.024-1.008 0-.224-.008-.552-.024-.984-.016-.72-.176-1.284-.48-1.692-.304-.408-.76-.612-1.368-.612-.6 0-1.056.204-1.368.612-.304.408-.464.972-.48 1.692l-.012.984.012 1.008c.016.728.176 1.292.48 1.692.312.4.768.6 1.368.6Zm7.1252.912c-.08 0-.148-.024-.204-.072-.048-.056-.072-.124-.072-.204v-6.72l-1.992 1.536c-.056.048-.116.072-.18.072-.072 0-.14-.04-.204-.12l-.312-.396c-.04-.056-.06-.112-.06-.168 0-.096.04-.172.12-.228l2.616-2.016c.088-.056.192-.084.312-.084h.612c.08 0 .144.028.192.084.056.048.084.112.084.192v7.848c0 .08-.028.148-.084.204-.048.048-.112.072-.192.072h-.636Zm8.3022.12c-.872 0-1.596-.216-2.172-.648-.576-.432-.88-1.064-.912-1.896 0-.072.024-.132.072-.18.048-.056.112-.084.192-.084h.648c.168 0 .272.092.312.276.048.512.244.892.588 1.14.344.248.776.372 1.296.372.6 0 1.06-.196 1.38-.588.328-.4.492-.936.492-1.608v-4.26h-4.26c-.08 0-.148-.024-.204-.072-.048-.056-.072-.124-.072-.204v-.492c0-.08.024-.144.072-.192.056-.056.124-.084.204-.084h5.172c.088 0 .156.028.204.084.056.048.084.116.084.204v5.04c0 .976-.276 1.752-.828 2.328-.544.576-1.3.864-2.268.864Zm8.2775 0c-1.032 0-1.832-.276-2.4-.828-.56-.56-.84-1.404-.84-2.532v-4.872c0-.088.024-.156.072-.204.056-.056.124-.084.204-.084h.612c.088 0 .156.028.204.084.056.048.084.116.084.204v4.896c0 .768.18 1.344.54 1.728.36.384.868.576 1.524.576s1.164-.192 1.524-.576c.36-.384.54-.96.54-1.728v-4.896c0-.088.024-.156.072-.204.056-.056.124-.084.204-.084h.624c.08 0 .144.028.192.084.056.056.084.124.084.204v4.872c0 1.128-.284 1.972-.852 2.532-.56.552-1.356.828-2.388.828Zm5.522-.12c-.08 0-.148-.024-.204-.072-.048-.056-.072-.124-.072-.204v-7.836c0-.088.024-.156.072-.204.056-.056.124-.084.204-.084h.552c.144 0 .244.056.3.168l3.984 6.12v-6c0-.088.024-.156.072-.204.056-.056.124-.084.204-.084h.576c.088 0 .156.028.204.084.056.048.084.116.084.204v7.824c0 .08-.028.148-.084.204-.048.056-.112.084-.192.084h-.576c-.12 0-.216-.056-.288-.168l-3.972-6.06v5.952c0 .08-.028.148-.084.204-.056.048-.124.072-.204.072h-.576Zm8.3438 0c-.08 0-.148-.024-.204-.072-.048-.056-.072-.124-.072-.204v-7.836c0-.088.024-.156.072-.204.056-.056.124-.084.204-.084h4.956c.08 0 .144.028.192.084.056.048.084.116.084.204v.456c0 .08-.024.148-.072.204-.048.048-.116.072-.204.072h-4.08v2.628h3.816c.08 0 .144.028.192.084.056.048.084.116.084.204v.444c0 .08-.028.148-.084.204-.048.048-.112.072-.192.072h-3.816v2.724h4.176c.088 0 .156.024.204.072.048.048.072.116.072.204v.468c0 .08-.028.148-.084.204-.048.048-.112.072-.192.072h-5.052Zm9.7627 0c-.08 0-.148-.024-.204-.072-.048-.056-.072-.124-.072-.204v-.384c0-.184.1-.36.3-.528l2.544-2.544c.616-.512 1.04-.928 1.272-1.248.232-.328.348-.672.348-1.032 0-.464-.132-.828-.396-1.092-.256-.264-.632-.396-1.128-.396-.464 0-.836.14-1.116.42-.28.272-.452.636-.516 1.092-.016.096-.056.168-.12.216-.056.04-.12.06-.192.06h-.624c-.072 0-.132-.02-.18-.06-.048-.048-.072-.104-.072-.168.016-.432.132-.844.348-1.236.216-.4.532-.724.948-.972.424-.256.932-.384 1.524-.384.904 0 1.584.236 2.04.708.464.464.696 1.056.696 1.776 0 .504-.128.96-.384 1.368-.248.4-.636.832-1.164 1.296l-2.304 2.34h3.744c.088 0 .156.028.204.084.056.048.084.112.084.192v.492c0 .08-.028.148-.084.204-.056.048-.124.072-.204.072h-5.292Zm9.983.12c-1.032 0-1.788-.3-2.268-.9-.48-.6-.736-1.388-.768-2.364-.008-.216-.012-.564-.012-1.044 0-.496.004-.856.012-1.08.024-.96.28-1.74.768-2.34.488-.608 1.244-.912 2.268-.912 1.032 0 1.792.304 2.28.912.488.6.744 1.38.768 2.34.016.448.024.808.024 1.08 0 .264-.008.612-.024 1.044-.032.976-.288 1.764-.768 2.364-.48.6-1.24.9-2.28.9Zm0-1.032c.6 0 1.052-.2 1.356-.6.312-.4.476-.964.492-1.692.016-.464.024-.8.024-1.008 0-.224-.008-.552-.024-.984-.016-.72-.176-1.284-.48-1.692-.304-.408-.76-.612-1.368-.612-.6 0-1.056.204-1.368.612-.304.408-.464.972-.48 1.692l-.012.984.012 1.008c.016.728.176 1.292.48 1.692.312.4.768.6 1.368.6Zm4.6772.912c-.08 0-.148-.024-.204-.072-.048-.056-.072-.124-.072-.204v-.384c0-.184.1-.36.3-.528l2.544-2.544c.616-.512 1.04-.928 1.272-1.248.232-.328.348-.672.348-1.032 0-.464-.132-.828-.396-1.092-.256-.264-.632-.396-1.128-.396-.464 0-.836.14-1.116.42-.28.272-.452.636-.516 1.092-.016.096-.056.168-.12.216-.056.04-.12.06-.192.06h-.624c-.072 0-.132-.02-.18-.06-.048-.048-.072-.104-.072-.168.016-.432.132-.844.348-1.236.216-.4.532-.724.948-.972.424-.256.932-.384 1.524-.384.904 0 1.584.236 2.04.708.464.464.696 1.056.696 1.776 0 .504-.128.96-.384 1.368-.248.4-.636.832-1.164 1.296l-2.304 2.34h3.744c.088 0 .156.028.204.084.056.048.084.112.084.192v.492c0 .08-.028.148-.084.204-.056.048-.124.072-.204.072h-5.292Zm9.491 0c-.08 0-.148-.024-.204-.072-.048-.056-.072-.124-.072-.204v-6.72l-1.992 1.536c-.056.048-.116.072-.18.072-.072 0-.14-.04-.204-.12l-.312-.396c-.04-.056-.06-.112-.06-.168 0-.096.04-.172.12-.228l2.616-2.016c.088-.056.192-.084.312-.084h.612c.08 0 .144.028.192.084.056.048.084.112.084.192v7.848c0 .08-.028.148-.084.204-.048.048-.112.072-.192.072h-.636ZM324.576 161.12c-.632 0-1.18-.1-1.644-.3-.456-.208-.804-.476-1.044-.804-.232-.328-.356-.672-.372-1.032 0-.072.024-.128.072-.168.048-.048.108-.072.18-.072h.588c.168 0 .28.088.336.264.104.4.328.684.672.852.344.16.748.24 1.212.24.568 0 1.02-.132 1.356-.396.336-.272.504-.66.504-1.164 0-.968-.588-1.452-1.764-1.452h-1.14c-.08 0-.148-.024-.204-.072-.048-.056-.072-.124-.072-.204v-.324c0-.112.044-.22.132-.324l2.328-2.544h-3.54c-.08 0-.148-.024-.204-.072-.048-.056-.072-.124-.072-.204v-.456c0-.08.024-.148.072-.204.056-.056.124-.084.204-.084h4.788c.088 0 .156.028.204.084.056.048.084.116.084.204v.432c0 .096-.044.188-.132.276l-2.316 2.58.192.012c.816.024 1.46.236 1.932.636s.708.984.708 1.752c0 .52-.132.972-.396 1.356-.264.384-.628.68-1.092.888-.464.2-.988.3-1.572.3Zm6.732-.12c-.08 0-.148-.024-.204-.072-.048-.056-.072-.124-.072-.204v-6.72l-1.992 1.536c-.056.048-.116.072-.18.072-.072 0-.14-.04-.204-.12l-.312-.396c-.04-.056-.06-.112-.06-.168 0-.096.04-.172.12-.228l2.616-2.016c.088-.056.192-.084.312-.084h.612c.08 0 .144.028.192.084.056.048.084.112.084.192v7.848c0 .08-.028.148-.084.204-.048.048-.112.072-.192.072h-.636Zm6.082 0c-.08 0-.148-.024-.204-.072-.048-.056-.072-.124-.072-.204v-7.836c0-.088.024-.156.072-.204.056-.056.124-.084.204-.084h2.724c1.208 0 2.08.272 2.616.816.536.536.816 1.348.84 2.436.008.232.012.544.012.936s-.004.708-.012.948c-.024.76-.152 1.38-.384 1.86-.224.472-.58.824-1.068 1.056-.488.232-1.136.348-1.944.348h-2.784Zm2.724-1.02c.552 0 .988-.076 1.308-.228.328-.152.564-.392.708-.72.152-.336.236-.784.252-1.344.016-.48.024-.78.024-.9 0-.128-.008-.424-.024-.888-.016-.792-.204-1.368-.564-1.728-.36-.368-.948-.552-1.764-.552h-1.764v6.36h1.824Zm5.55 1.02c-.08 0-.148-.024-.204-.072-.048-.056-.072-.124-.072-.204v-7.836c0-.088.024-.156.072-.204.056-.056.124-.084.204-.084h4.956c.08 0 .144.028.192.084.056.048.084.116.084.204v.456c0 .08-.024.148-.072.204-.048.048-.116.072-.204.072h-4.08v2.628h3.816c.08 0 .144.028.192.084.056.048.084.116.084.204v.444c0 .08-.028.148-.084.204-.048.048-.112.072-.192.072h-3.816v2.724h4.176c.088 0 .156.024.204.072.048.048.072.116.072.204v.468c0 .08-.028.148-.084.204-.048.048-.112.072-.192.072h-5.052Zm9.943.12c-1.072 0-1.888-.288-2.448-.864-.552-.576-.848-1.372-.888-2.388-.008-.216-.012-.568-.012-1.056 0-.496.004-.856.012-1.08.04-1.008.34-1.8.9-2.376.56-.584 1.372-.876 2.436-.876.712 0 1.316.128 1.812.384.496.248.872.576 1.128.984.256.408.396.844.42 1.308v.024c0 .064-.028.12-.084.168-.048.04-.104.06-.168.06h-.66c-.16 0-.26-.092-.3-.276-.136-.6-.38-1.02-.732-1.26-.352-.248-.824-.372-1.416-.372-1.376 0-2.088.764-2.136 2.292-.008.216-.012.548-.012.996 0 .448.004.788.012 1.02.048 1.528.76 2.292 2.136 2.292.592 0 1.064-.12 1.416-.36.36-.248.604-.672.732-1.272.024-.104.06-.176.108-.216.048-.04.112-.06.192-.06h.66c.072 0 .132.024.18.072.056.04.08.096.072.168-.024.472-.164.912-.42 1.32-.256.408-.632.74-1.128.996-.496.248-1.1.372-1.812.372Zm5.244-.12c-.08 0-.148-.024-.204-.072-.048-.056-.072-.124-.072-.204v-7.836c0-.088.024-.156.072-.204.056-.056.124-.084.204-.084h4.956c.08 0 .144.028.192.084.056.048.084.116.084.204v.456c0 .08-.024.148-.072.204-.048.048-.116.072-.204.072h-4.08v2.628h3.816c.08 0 .144.028.192.084.056.048.084.116.084.204v.444c0 .08-.028.148-.084.204-.048.048-.112.072-.192.072h-3.816v2.724h4.176c.088 0 .156.024.204.072.048.048.072.116.072.204v.468c0 .08-.028.148-.084.204-.048.048-.112.072-.192.072h-5.052Zm7.278 0c-.08 0-.148-.024-.204-.072-.048-.056-.072-.124-.072-.204v-7.836c0-.088.024-.156.072-.204.056-.056.124-.084.204-.084h.6c.128 0 .232.064.312.192l2.532 4.848 2.556-4.848c.016-.048.048-.092.096-.132.056-.04.124-.06.204-.06h.588c.088 0 .156.028.204.084.056.048.084.116.084.204v7.836c0 .08-.028.148-.084.204-.056.048-.124.072-.204.072h-.588c-.08 0-.148-.024-.204-.072-.048-.056-.072-.124-.072-.204v-5.904l-2.004 3.912c-.08.168-.208.252-.384.252h-.372c-.176 0-.304-.084-.384-.252l-2.016-3.912v5.904c0 .08-.028.148-.084.204-.048.048-.112.072-.192.072h-.588Zm9.527 0c-.08 0-.148-.024-.204-.072-.048-.056-.072-.124-.072-.204v-7.836c0-.088.024-.156.072-.204.056-.056.124-.084.204-.084h3.288c.856 0 1.5.204 1.932.612.432.408.648.944.648 1.608 0 .448-.104.82-.312 1.116-.2.296-.44.512-.72.648.336.168.62.428.852.78.232.352.348.756.348 1.212 0 .448-.104.856-.312 1.224-.2.368-.5.66-.9.876-.4.216-.88.324-1.44.324h-3.384Zm3.108-4.848c.504 0 .888-.116 1.152-.348.272-.232.408-.556.408-.972 0-.408-.132-.72-.396-.936-.264-.216-.652-.324-1.164-.324h-2.208v2.58h2.208Zm.12 3.876c.504 0 .896-.136 1.176-.408.288-.272.432-.62.432-1.044 0-.44-.144-.792-.432-1.056-.28-.272-.672-.408-1.176-.408h-2.328v2.916h2.328Zm4.788.972c-.08 0-.148-.024-.204-.072-.048-.056-.072-.124-.072-.204v-7.836c0-.088.024-.156.072-.204.056-.056.124-.084.204-.084h4.956c.08 0 .144.028.192.084.056.048.084.116.084.204v.456c0 .08-.024.148-.072.204-.048.048-.116.072-.204.072h-4.08v2.628h3.816c.08 0 .144.028.192.084.056.048.084.116.084.204v.444c0 .08-.028.148-.084.204-.048.048-.112.072-.192.072h-3.816v2.724h4.176c.088 0 .156.024.204.072.048.048.072.116.072.204v.468c0 .08-.028.148-.084.204-.048.048-.112.072-.192.072h-5.052Zm7.277 0c-.08 0-.148-.024-.204-.072-.048-.056-.072-.124-.072-.204v-7.836c0-.088.024-.156.072-.204.056-.056.124-.084.204-.084h2.928c.92 0 1.64.216 2.16.648.52.432.78 1.056.78 1.872 0 .608-.152 1.108-.456 1.5-.296.392-.716.664-1.26.816l1.848 3.192c.024.048.036.092.036.132 0 .064-.028.12-.084.168-.048.048-.104.072-.168.072h-.576c-.12 0-.216-.028-.288-.084-.064-.056-.124-.136-.18-.24l-1.74-3.048h-2.1v3.096c0 .08-.028.148-.084.204-.056.048-.124.072-.204.072h-.612Zm2.88-4.392c1.192 0 1.788-.5 1.788-1.5s-.596-1.5-1.788-1.5h-1.98v3h1.98Zm7.469 4.392c-.08 0-.148-.024-.204-.072-.048-.056-.072-.124-.072-.204v-.384c0-.184.1-.36.3-.528l2.544-2.544c.616-.512 1.04-.928 1.272-1.248.232-.328.348-.672.348-1.032 0-.464-.132-.828-.396-1.092-.256-.264-.632-.396-1.128-.396-.464 0-.836.14-1.116.42-.28.272-.452.636-.516 1.092-.016.096-.056.168-.12.216-.056.04-.12.06-.192.06h-.624c-.072 0-.132-.02-.18-.06-.048-.048-.072-.104-.072-.168.016-.432.132-.844.348-1.236.216-.4.532-.724.948-.972.424-.256.932-.384 1.524-.384.904 0 1.584.236 2.04.708.464.464.696 1.056.696 1.776 0 .504-.128.96-.384 1.368-.248.4-.636.832-1.164 1.296l-2.304 2.34h3.744c.088 0 .156.028.204.084.056.048.084.112.084.192v.492c0 .08-.028.148-.084.204-.056.048-.124.072-.204.072h-5.292Zm9.983.12c-1.032 0-1.788-.3-2.268-.9-.48-.6-.736-1.388-.768-2.364-.008-.216-.012-.564-.012-1.044 0-.496.004-.856.012-1.08.024-.96.28-1.74.768-2.34.488-.608 1.244-.912 2.268-.912 1.032 0 1.792.304 2.28.912.488.6.744 1.38.768 2.34.016.448.024.808.024 1.08 0 .264-.008.612-.024 1.044-.032.976-.288 1.764-.768 2.364-.48.6-1.24.9-2.28.9Zm0-1.032c.6 0 1.052-.2 1.356-.6.312-.4.476-.964.492-1.692.016-.464.024-.8.024-1.008 0-.224-.008-.552-.024-.984-.016-.72-.176-1.284-.48-1.692-.304-.408-.76-.612-1.368-.612-.6 0-1.056.204-1.368.612-.304.408-.464.972-.48 1.692l-.012.984.012 1.008c.016.728.176 1.292.48 1.692.312.4.768.6 1.368.6Zm4.677.912c-.08 0-.148-.024-.204-.072-.048-.056-.072-.124-.072-.204v-.384c0-.184.1-.36.3-.528l2.544-2.544c.616-.512 1.04-.928 1.272-1.248.232-.328.348-.672.348-1.032 0-.464-.132-.828-.396-1.092-.256-.264-.632-.396-1.128-.396-.464 0-.836.14-1.116.42-.28.272-.452.636-.516 1.092-.016.096-.056.168-.12.216-.056.04-.12.06-.192.06h-.624c-.072 0-.132-.02-.18-.06-.048-.048-.072-.104-.072-.168.016-.432.132-.844.348-1.236.216-.4.532-.724.948-.972.424-.256.932-.384 1.524-.384.904 0 1.584.236 2.04.708.464.464.696 1.056.696 1.776 0 .504-.128.96-.384 1.368-.248.4-.636.832-1.164 1.296l-2.304 2.34h3.744c.088 0 .156.028.204.084.056.048.084.112.084.192v.492c0 .08-.028.148-.084.204-.056.048-.124.072-.204.072h-5.292Zm9.491 0c-.08 0-.148-.024-.204-.072-.048-.056-.072-.124-.072-.204v-6.72l-1.992 1.536c-.056.048-.116.072-.18.072-.072 0-.14-.04-.204-.12l-.312-.396c-.04-.056-.06-.112-.06-.168 0-.096.04-.172.12-.228l2.616-2.016c.088-.056.192-.084.312-.084h.612c.08 0 .144.028.192.084.056.048.084.112.084.192v7.848c0 .08-.028.148-.084.204-.048.048-.112.072-.192.072h-.636ZM452.804 130.12c-.552 0-1.02-.084-1.404-.252-.376-.176-.684-.416-.924-.72s-.416-.652-.528-1.044c-.104-.392-.164-.808-.18-1.248-.008-.216-.016-.444-.024-.684v-.72c.008-.248.016-.484.024-.708.008-.44.068-.856.18-1.248.12-.4.296-.748.528-1.044.24-.304.552-.54.936-.708.384-.176.848-.264 1.392-.264.552 0 1.016.088 1.392.264.384.168.696.404.936.708.24.296.416.644.528 1.044.12.392.184.808.192 1.248.008.224.012.46.012.708.008.24.008.48 0 .72 0 .24-.004.468-.012.684-.008.44-.072.856-.192 1.248-.112.392-.288.74-.528 1.044-.232.304-.54.544-.924.72-.376.168-.844.252-1.404.252Zm0-1.02c.624 0 1.084-.204 1.38-.612.304-.416.46-.98.468-1.692.016-.232.024-.456.024-.672v-.66c0-.224-.008-.444-.024-.66-.008-.696-.164-1.252-.468-1.668-.296-.424-.756-.636-1.38-.636-.616 0-1.076.212-1.38.636-.296.416-.452.972-.468 1.668 0 .216-.004.436-.012.66v.66c.008.216.012.44.012.672.016.712.176 1.276.48 1.692.304.408.76.612 1.368.612ZM452.312 83c-.08 0-.148-.024-.204-.072-.048-.056-.072-.124-.072-.204v-6.72l-1.992 1.536c-.064.048-.132.068-.204.06-.072-.008-.132-.044-.18-.108l-.312-.396c-.048-.072-.068-.144-.06-.216.016-.072.056-.132.12-.18l2.616-2.016c.056-.04.108-.064.156-.072.048-.008.1-.012.156-.012h.612c.08 0 .144.028.192.084.048.048.072.112.072.192v7.848c0 .08-.024.148-.072.204-.048.048-.112.072-.192.072h-.636ZM449.864 27c-.08 0-.148-.024-.204-.072-.048-.056-.072-.124-.072-.204v-.384c0-.072.02-.152.06-.24.04-.088.12-.184.24-.288l2.544-2.544c.408-.344.728-.636.96-.876.24-.248.408-.484.504-.708.104-.224.156-.456.156-.696 0-.456-.128-.816-.384-1.08-.256-.272-.636-.408-1.14-.408-.32 0-.596.068-.828.204-.232.128-.416.308-.552.54-.128.224-.212.48-.252.768-.016.104-.06.176-.132.216-.064.04-.124.06-.18.06h-.624c-.072 0-.132-.02-.18-.06-.048-.048-.072-.104-.072-.168.008-.304.072-.608.192-.912.12-.312.296-.592.528-.84.24-.248.532-.448.876-.6.352-.16.76-.24 1.224-.24.632 0 1.148.116 1.548.348.408.224.708.524.9.9.192.376.288.788.288 1.236 0 .352-.06.676-.18.972-.12.288-.296.572-.528.852-.224.272-.504.552-.84.84l-2.304 2.34h3.744c.088 0 .156.024.204.072.056.048.084.116.084.204v.492c0 .08-.028.148-.084.204-.048.048-.116.072-.204.072h-5.292Z"/>
  <path fill="#28D2FF" d="M355.365 15.5c-.1 0-.19-.035-.27-.105-.07-.07-.105-.16-.105-.27V14.09c-.74-.09-1.375-.28-1.905-.57-.52-.29-.915-.64-1.185-1.05-.26-.42-.4-.865-.42-1.335 0-.08.03-.15.09-.21.07-.07.15-.105.24-.105h1.89c.12 0 .215.025.285.075.08.04.16.105.24.195.13.26.335.475.615.645.29.17.68.255 1.17.255.57 0 1.005-.09 1.305-.27.3-.18.45-.425.45-.735 0-.22-.08-.4-.24-.54-.15-.14-.39-.265-.72-.375-.33-.11-.82-.235-1.47-.375-1.21-.24-2.11-.605-2.7-1.095-.59-.49-.885-1.185-.885-2.085 0-.8.29-1.48.87-2.04.58-.57 1.37-.92 2.37-1.05v-1.05c0-.11.035-.2.105-.27.08-.07.17-.105.27-.105h1.245c.11 0 .2.035.27.105.07.07.105.16.105.27v1.08c.66.11 1.225.32 1.695.63.48.3.845.645 1.095 1.035.25.39.385.775.405 1.155 0 .08-.03.155-.09.225-.06.06-.135.09-.225.09h-1.98c-.12 0-.22-.02-.3-.06-.07-.04-.135-.105-.195-.195-.06-.23-.225-.425-.495-.585-.26-.16-.585-.24-.975-.24-.45 0-.795.08-1.035.24-.24.16-.36.395-.36.705 0 .21.065.385.195.525.14.14.36.27.66.39.31.11.75.225 1.32.345.93.17 1.67.385 2.22.645.55.25.955.575 1.215.975.26.4.39.91.39 1.53 0 .88-.32 1.6-.96 2.16-.64.56-1.5.91-2.58 1.05v1.05c0 .11-.035.2-.105.27-.07.07-.16.105-.27.105h-1.245Zm14.683-1.5c-.1 0-.19-.035-.27-.105-.07-.08-.105-.17-.105-.27V11.93h-4.665c-.11 0-.2-.035-.27-.105-.07-.07-.105-.16-.105-.27V10.13c0-.15.055-.305.165-.465l4.365-5.91c.14-.17.325-.255.555-.255h2.19c.11 0 .2.035.27.105.07.07.105.16.105.27v5.82h1.32c.12 0 .215.04.285.12.07.07.105.155.105.255v1.485c0 .11-.035.2-.105.27-.07.07-.16.105-.27.105h-1.335v1.695c0 .1-.035.19-.105.27-.07.07-.16.105-.27.105h-1.86Zm-.315-4.2V6.26l-2.52 3.54h2.52Zm5.397 5.325c-.08 0-.15-.035-.21-.105-.06-.06-.085-.135-.075-.225l.465-2.94c.02-.14.075-.26.165-.36.09-.1.215-.15.375-.15h1.755c.08 0 .145.03.195.09.06.05.09.115.09.195 0 .07-.01.125-.03.165l-1.125 2.91c-.06.13-.13.23-.21.3-.08.08-.195.12-.345.12h-1.05ZM380.171 14c-.09 0-.165-.03-.225-.09-.06-.07-.09-.15-.09-.24 0-.05.01-.095.03-.135l3.465-7.77h-4.485c-.11 0-.205-.035-.285-.105-.07-.08-.105-.175-.105-.285v-1.5c0-.11.035-.2.105-.27.08-.07.175-.105.285-.105h7.005c.12 0 .215.035.285.105.07.07.105.16.105.27V5.21c0 .21-.055.435-.165.675l-3.465 7.755c-.11.24-.285.36-.525.36h-1.935Zm8.598 0c-.09 0-.165-.03-.225-.09-.06-.07-.09-.15-.09-.24 0-.05.01-.095.03-.135l3.465-7.77h-4.485c-.11 0-.205-.035-.285-.105-.07-.08-.105-.175-.105-.285v-1.5c0-.11.035-.2.105-.27.08-.07.175-.105.285-.105h7.005c.12 0 .215.035.285.105.07.07.105.16.105.27V5.21c0 .21-.055.435-.165.675l-3.465 7.755c-.11.24-.285.36-.525.36h-1.935Z"/>
  <path fill="#D7099C" d="M38.77 122.3c-.0867 0-.1603-.03-.221-.091-.052-.052-.078-.121-.078-.208v-.91c-.6067-.052-1.131-.191-1.573-.416-.442-.234-.78-.52-1.014-.858-.2253-.347-.3467-.715-.364-1.105 0-.069.026-.13.078-.182.0607-.061.13-.091.208-.091h.676c.156 0 .2643.087.325.26.0867.364.312.676.676.936.364.26.8797.39 1.547.39.7193 0 1.261-.126 1.625-.377.364-.26.546-.62.546-1.079 0-.295-.091-.533-.273-.715-.1733-.182-.4333-.342-.78-.481-.3467-.139-.8667-.312-1.56-.52-.676-.191-1.2133-.394-1.612-.611-.3987-.217-.6977-.485-.897-.806-.1993-.321-.299-.724-.299-1.209 0-.641.2383-1.183.715-1.625.4767-.451 1.1353-.719 1.976-.806v-.897c0-.087.026-.156.078-.208.0607-.061.1343-.091.221-.091h.494c.0867 0 .156.03.208.091.0607.052.091.121.091.208v.91c.5547.069 1.027.225 1.417.468.3987.243.6977.529.897.858.208.329.3207.659.338.988 0 .069-.026.13-.078.182-.0433.052-.1083.078-.195.078h-.689c-.182 0-.2947-.082-.338-.247-.052-.364-.2557-.663-.611-.897-.3553-.243-.8017-.364-1.339-.364-.5893 0-1.053.113-1.391.338-.338.225-.507.559-.507 1.001 0 .295.078.537.234.728.1647.191.4117.36.741.507.3293.139.8103.299 1.443.481.7367.199 1.3173.407 1.742.624.4247.208.741.472.949.793.208.312.312.711.312 1.196 0 .737-.26 1.33-.78 1.781-.52.442-1.235.702-2.145.78v.897c0 .087-.0303.156-.091.208-.052.061-.1213.091-.208.091h-.494Zm11.5737-1.17c-1.118 0-1.937-.325-2.457-.975-.52-.65-.7974-1.504-.832-2.561-.0087-.234-.013-.611-.013-1.131 0-.537.0043-.927.013-1.17.026-1.04.3033-1.885.832-2.535.5286-.659 1.3476-.988 2.457-.988 1.118 0 1.9413.329 2.47.988.5286.65.806 1.495.832 2.535.0173.485.026.875.026 1.17 0 .286-.0087.663-.026 1.131-.0347 1.057-.312 1.911-.832 2.561-.52.65-1.3434.975-2.47.975Zm0-1.118c.65 0 1.1396-.217 1.469-.65.338-.433.5156-1.044.533-1.833.0173-.503.026-.867.026-1.092 0-.243-.0087-.598-.026-1.066-.0174-.78-.1907-1.391-.52-1.833-.3294-.442-.8234-.663-1.482-.663-.65 0-1.144.221-1.482.663-.3294.442-.5027 1.053-.52 1.833l-.013 1.066.013 1.092c.0173.789.1906 1.4.52 1.833.338.433.832.65 1.482.65Zm4.8115 1.963c-.0694 0-.1257-.026-.169-.078-.0347-.052-.0477-.117-.039-.195l.299-1.859c.0346-.251.156-.377.364-.377h.871c.0606 0 .1083.022.143.065.0433.043.065.095.065.156 0 .043-.013.113-.039.208l-.689 1.781c-.0434.104-.091.178-.143.221-.052.052-.13.078-.234.078h-.429Zm6.2306-.845c-.6933 0-1.2956-.139-1.807-.416-.5113-.286-.9013-.667-1.17-1.144-.2686-.477-.403-.997-.403-1.56 0-.459.091-.893.273-1.3.1907-.416.403-.784.637-1.105l2.47-3.445c.0087-.009.0347-.039.078-.091.0347-.052.0824-.091.143-.117.0607-.035.13-.052.208-.052h.689c.078 0 .1387.03.182.091.052.052.078.117.078.195 0 .061-.0173.117-.052.169l-1.898 2.652c.1907-.061.4377-.091.741-.091.624.009 1.1744.152 1.651.429.4854.277.858.65 1.118 1.118.2687.468.403.979.403 1.534s-.1343 1.075-.403 1.56c-.26.477-.6456.858-1.157 1.144-.5026.286-1.0963.429-1.781.429Zm-.013-1.105c.3727 0 .715-.078 1.027-.234.3207-.156.572-.386.754-.689.1907-.312.286-.68.286-1.105 0-.416-.0953-.776-.286-1.079-.182-.303-.4333-.533-.754-.689-.312-.156-.6543-.234-1.027-.234-.364 0-.7063.078-1.027.234-.312.156-.5633.386-.754.689-.1906.303-.286.663-.286 1.079 0 .425.0954.793.286 1.105.1907.303.442.533.754.689.312.156.6544.234 1.027.234Zm9.055.975c-.0866 0-.1603-.026-.221-.078-.052-.061-.078-.134-.078-.221v-1.872h-4.212c-.0866 0-.1603-.026-.221-.078-.052-.061-.078-.134-.078-.221v-.52c0-.13.0477-.26.143-.39l3.9-5.499c.0434-.069.1084-.121.195-.156.0867-.043.182-.065.286-.065h.936c.0867 0 .156.03.208.091.0607.052.091.121.091.208v5.499h1.17c.0867 0 .1604.03.221.091.0607.052.091.121.091.208v.533c0 .087-.0303.16-.091.221-.052.052-.1213.078-.208.078h-1.183v1.872c0 .087-.0303.16-.091.221-.052.052-.1213.078-.208.078h-.65Zm-.286-3.276v-4.459l-3.133 4.459h3.133Z"/>
  <path fill="#000" fill-opacity=".87" d="M55.7035 128.83c.7464.75 1.1655 1.766 1.1655 2.825 0 1.059-.4191 2.075-1.1655 2.825-.3706.372-.8108.667-1.2953.868-.4845.201-1.0038.305-1.5283.305-.5244 0-1.0438-.104-1.5282-.305-.4845-.201-.9247-.496-1.2953-.868-.7464-.75-1.1655-1.766-1.1655-2.825 0-1.059.4191-2.075 1.1655-2.825.3706-.372.8108-.667 1.2953-.868.4844-.202 1.0038-.305 1.5282-.305.5245 0 1.0438.103 1.5283.305.4845.201.9247.496 1.2953.868Z"/>
  <path stroke="#A79DE6" stroke-width="1.5" d="M55.2149 129.36c.3014.301.5405.659.7037 1.052.1631.394.2471.817.2471 1.243 0 .426-.084.849-.2471 1.242-.1632.394-.4023.752-.7037 1.053-.3003.302-.6572.542-1.0501.705-.3929.164-.8142.248-1.2397.248-.4254 0-.8467-.084-1.2396-.248-.393-.163-.7498-.403-1.0501-.705-.3014-.301-.5405-.659-.7037-1.053-.1631-.393-.2471-.816-.2471-1.242 0-.426.084-.849.2471-1.243.1632-.393.4023-.751.7037-1.052.3003-.302.6571-.542 1.0501-.705.3929-.164.8142-.248 1.2396-.248.4255 0 .8468.084 1.2397.248.3929.163.7498.403 1.0501.705Z"/>
  <path fill="#000" fill-opacity=".87" d="M95.3512 123.83c.7464.75 1.1655 1.766 1.1655 2.825 0 1.059-.4191 2.075-1.1655 2.825-.3706.372-.8108.667-1.2953.868-.4845.201-1.0038.305-1.5283.305-.5244 0-1.0437-.104-1.5282-.305-.4845-.201-.9247-.496-1.2953-.868-.7464-.75-1.1655-1.766-1.1655-2.825 0-1.059.4191-2.075 1.1655-2.825.3706-.372.8108-.667 1.2953-.868.4845-.202 1.0038-.305 1.5282-.305.5245 0 1.0438.103 1.5283.305.4845.201.9247.496 1.2953.868Z"/>
  <path stroke="#A79DE6" stroke-width="1.5" d="M94.8223 124.36c.3014.301.5405.659.7037 1.053.1631.393.2471.816.2471 1.242 0 .426-.084.849-.2471 1.243-.1632.393-.4023.751-.7037 1.052-.3012.302-.6589.542-1.0526.706-.3938.164-.8159.248-1.2421.248-.4263 0-.8484-.084-1.2422-.248-.3937-.164-.7515-.404-1.0526-.706-.3014-.301-.5405-.659-.7037-1.052-.1631-.394-.2471-.817-.2471-1.243 0-.426.084-.849.2471-1.242.1632-.394.4023-.752.7037-1.053.3011-.302.6589-.542 1.0526-.706.3938-.164.8159-.248 1.2422-.248.4262 0 .8483.084 1.2421.248.3937.164.7514.404 1.0526.706Z"/>
  <path fill="#000" fill-opacity=".87" d="M135.27 117.83c.747.75 1.166 1.766 1.166 2.825 0 1.059-.419 2.075-1.166 2.825-.37.372-.811.667-1.295.868-.485.201-1.004.305-1.528.305-.525 0-1.044-.104-1.529-.305-.484-.201-.924-.496-1.295-.868-.746-.75-1.165-1.766-1.165-2.825 0-1.059.419-2.075 1.165-2.825.371-.372.811-.667 1.295-.868.485-.202 1.004-.305 1.529-.305.524 0 1.043.103 1.528.305.484.201.925.496 1.295.868Z"/>
  <path stroke="#A79DE6" stroke-width="1.5" d="M134.742 118.36c.604.611.942 1.435.942 2.295 0 .86-.338 1.685-.942 2.295-.301.302-.659.542-1.053.706-.394.164-.816.248-1.242.248-.426 0-.848-.084-1.242-.248-.394-.164-.752-.404-1.053-.706-.301-.301-.54-.659-.703-1.052-.164-.394-.248-.817-.248-1.243 0-.426.084-.849.248-1.242.163-.394.402-.752.703-1.053.301-.302.659-.542 1.053-.706.394-.163.816-.248 1.242-.248.426 0 .848.085 1.242.248.394.164.752.404 1.053.706Z"/>
  <path fill="#000" fill-opacity=".87" d="M170.44 100.83c.746.75 1.166 1.766 1.166 2.825 0 1.059-.42 2.075-1.166 2.825-.371.372-.811.667-1.295.868-.485.201-1.004.305-1.528.305-.525 0-1.044-.104-1.529-.305-.484-.201-.924-.496-1.295-.868-.746-.75-1.166-1.766-1.166-2.825 0-1.059.42-2.075 1.166-2.825.371-.372.811-.667 1.295-.8684.485-.2013 1.004-.3049 1.529-.3049.524 0 1.043.1036 1.528.3049.484.2014.924.4964 1.295.8684Z"/>
  <path stroke="#A79DE6" stroke-width="1.5" d="M169.951 101.36c.604.611.943 1.435.943 2.295 0 .86-.339 1.685-.943 2.295-.301.302-.658.542-1.052.706-.394.164-.816.248-1.242.248-.427 0-.849-.084-1.242-.248-.394-.164-.752-.404-1.053-.706-.301-.301-.541-.659-.704-1.052-.163-.394-.247-.817-.247-1.243 0-.426.084-.849.247-1.242.163-.394.403-.752.704-1.053.301-.302.659-.542 1.053-.706.393-.163.815-.248 1.242-.248.426 0 .848.085 1.242.248.394.164.751.404 1.052.706Z"/>
  <path fill="#000" fill-opacity=".87" d="M212.903 95.8299c.747.7498 1.166 1.7658 1.166 2.825 0 1.0592-.419 2.0751-1.166 2.8251-.37.372-.811.667-1.295.868-.485.201-1.004.305-1.528.305-.525 0-1.044-.104-1.529-.305-.484-.201-.924-.496-1.295-.868-.746-.75-1.165-1.7659-1.165-2.8251s.419-2.0752 1.165-2.825c.371-.3719.811-.667 1.295-.8683.485-.2013 1.004-.3049 1.529-.3049.524 0 1.043.1036 1.528.3049.484.2013.925.4964 1.295.8683Z"/>
  <path stroke="#A79DE6" stroke-width="1.5" d="M212.374 96.3601c.302.301.541.6586.704 1.0525.163.3938.247.816.247 1.2425 0 .4264-.084.8486-.247 1.2425-.163.3934-.402.7514-.704 1.0524-.301.302-.659.542-1.052.706-.394.164-.816.248-1.242.248-.427 0-.849-.084-1.243-.248-.393-.164-.751-.404-1.052-.706-.302-.301-.541-.659-.704-1.0524-.163-.3939-.247-.8161-.247-1.2425 0-.4265.084-.8487.247-1.2425.163-.3939.402-.7515.704-1.0525.301-.3024.659-.5423 1.052-.7059.394-.1637.816-.248 1.243-.248.426 0 .848.0843 1.242.248.393.1636.751.4035 1.052.7059Z"/>
  <path fill="#000" fill-opacity=".87" d="M257.492 81.8299c.746.7498 1.165 1.7658 1.165 2.825 0 1.0592-.419 2.0751-1.165 2.825-.371.3719-.811.6669-1.296.8682-.484.2013-1.004.3049-1.528.3049s-1.044-.1036-1.528-.3049c-.485-.2013-.925-.4963-1.296-.8682-.746-.7499-1.165-1.7658-1.165-2.825 0-1.0592.419-2.0752 1.165-2.825.371-.3719.811-.667 1.296-.8683.484-.2013 1.004-.3049 1.528-.3049s1.044.1036 1.528.3049c.485.2013.925.4964 1.296.8683Z"/>
  <path stroke="#A79DE6" stroke-width="1.5" d="M256.963 82.3601c.604.6105.943 1.4353.943 2.295 0 .8596-.339 1.6844-.943 2.295-.301.3023-.659.5422-1.052.7059-.394.1636-.816.2479-1.243.2479-.426 0-.848-.0843-1.242-.2479-.393-.1637-.751-.4036-1.052-.7059-.302-.301-.541-.6587-.704-1.0525-.163-.3939-.247-.8161-.247-1.2425 0-.4265.084-.8487.247-1.2425.163-.3939.402-.7515.704-1.0525.301-.3024.659-.5423 1.052-.7059.394-.1637.816-.248 1.242-.248.427 0 .849.0843 1.243.248.393.1636.751.4035 1.052.7059Z"/>
  <path fill="#000" fill-opacity=".87" d="M305.813 58.1731c.746.7499 1.165 1.7659 1.165 2.825 0 1.0592-.419 2.0752-1.165 2.8251-.371.3719-.811.6669-1.296.8682-.484.2013-1.003.3049-1.528.3049-.524 0-1.044-.1036-1.528-.3049-.485-.2013-.925-.4963-1.296-.8682-.746-.7499-1.165-1.7659-1.165-2.8251 0-1.0591.419-2.0751 1.165-2.825.371-.3719.811-.6669 1.296-.8682.484-.2013 1.004-.3049 1.528-.3049.525 0 1.044.1036 1.528.3049.485.2013.925.4963 1.296.8682Z"/>
  <path stroke="#A79DE6" stroke-width="1.5" d="M305.324 58.7033c.604.6105.942 1.4354.942 2.295 0 .8597-.338 1.6845-.942 2.295-.301.3024-.659.5423-1.053.7059-.394.1637-.816.2479-1.242.2479-.426 0-.848-.0842-1.242-.2479-.394-.1636-.752-.4035-1.053-.7059-.301-.301-.54-.6587-.703-1.0525-.164-.3938-.248-.816-.248-1.2425 0-.4264.084-.8486.248-1.2425.163-.3938.402-.7515.703-1.0525.301-.3024.659-.5422 1.053-.7059.394-.1636.816-.2479 1.242-.2479.426 0 .848.0843 1.242.2479.394.1637.752.4035 1.053.7059Z"/>
  <path fill="#000" fill-opacity=".87" d="M284.199 46.8299c.746.7498 1.166 1.7658 1.166 2.825 0 1.0592-.42 2.0751-1.166 2.825-.371.3719-.811.6669-1.295.8682-.485.2013-1.004.3049-1.528.3049-.525 0-1.044-.1036-1.529-.3049-.484-.2013-.924-.4963-1.295-.8682-.746-.7499-1.166-1.7658-1.166-2.825 0-1.0592.42-2.0752 1.166-2.825.371-.3719.811-.667 1.295-.8683.485-.2013 1.004-.3049 1.529-.3049.524 0 1.043.1036 1.528.3049.484.2013.924.4964 1.295.8683Z"/>
  <path stroke="#A79DE6" stroke-width="1.5" d="M283.711 47.3601c.604.6105.942 1.4353.942 2.295 0 .8596-.338 1.6845-.942 2.295-.301.3023-.659.5422-1.053.7059-.394.1636-.816.2479-1.242.2479-.426 0-.848-.0843-1.242-.2479-.394-.1637-.752-.4036-1.053-.7059-.301-.301-.54-.6587-.703-1.0525-.164-.3939-.248-.8161-.248-1.2425 0-.4265.084-.8487.248-1.2425.163-.3939.402-.7515.703-1.0525.301-.3024.659-.5423 1.053-.7059.394-.1637.816-.248 1.242-.248.426 0 .848.0843 1.242.248.394.1636.752.4035 1.053.7059Z"/>
  <path fill="#000" fill-opacity=".87" d="M379.883 45.1746c.747.7499 1.166 1.7658 1.166 2.825 0 1.0592-.419 2.0751-1.166 2.825-.37.3719-.81.6669-1.295.8682-.484.2013-1.004.305-1.528.305-.525 0-1.044-.1037-1.528-.305-.485-.2013-.925-.4963-1.296-.8682-.746-.7499-1.165-1.7658-1.165-2.825 0-1.0592.419-2.0751 1.165-2.825.371-.3719.811-.6669 1.296-.8682.484-.2013 1.003-.3049 1.528-.3049.524 0 1.044.1036 1.528.3049.485.2013.925.4963 1.295.8682Z"/>
  <path stroke="#28D2FF" stroke-width="4" d="M381.29 43.7547c.556.5573.998 1.219 1.299 1.9474.301.7284.456 1.5091.456 2.2976s-.155 1.5693-.456 2.2977c-.301.7284-.743 1.3901-1.299 1.9473-1.123 1.1236-2.644 1.7548-4.231 1.7548-1.586 0-3.108-.6312-4.23-1.7548-.557-.5572-.998-1.2189-1.299-1.9473-.302-.7284-.457-1.5092-.457-2.2977 0-.7885.155-1.5692.457-2.2976.301-.7284.742-1.3901 1.299-1.9474 1.122-1.1236 2.644-1.7547 4.23-1.7547 1.587 0 3.108.6311 4.231 1.7547Z"/>
  <path fill="#000" fill-opacity=".87" d="M329.813 30.1731c.746.7499 1.165 1.7659 1.165 2.825 0 1.0592-.419 2.0752-1.165 2.8251-.371.3719-.811.6669-1.296.8682-.484.2013-1.003.3049-1.528.3049-.524 0-1.044-.1036-1.528-.3049-.485-.2013-.925-.4963-1.296-.8682-.746-.7499-1.165-1.7659-1.165-2.8251 0-1.0591.419-2.0751 1.165-2.825.371-.3719.811-.6669 1.296-.8682.484-.2013 1.004-.3049 1.528-.3049.525 0 1.044.1036 1.528.3049.485.2013.925.4963 1.296.8682Z"/>
  <path stroke="#A79DE6" stroke-width="1.5" d="M329.287 30.3601c.604.6105.943 1.4353.943 2.295 0 .8596-.339 1.6845-.943 2.295-.301.3023-.659.5422-1.052.7059-.394.1636-.816.2479-1.243.2479-.426 0-.848-.0843-1.242-.2479-.394-.1637-.751-.4036-1.052-.7059-.302-.301-.541-.6587-.704-1.0525-.163-.3939-.247-.8161-.247-1.2425 0-.4265.084-.8487.247-1.2425.163-.3939.402-.7515.704-1.0525.301-.3024.658-.5423 1.052-.7059.394-.1637.816-.248 1.242-.248.427 0 .849.0843 1.243.248.393.1636.751.4035 1.052.7059Z"/>
  <path fill="#000" fill-opacity=".87" d="M361.256 57.1731c.746.7499 1.165 1.7659 1.165 2.825 0 1.0592-.419 2.0752-1.165 2.825-.371.3719-.811.667-1.296.8683-.484.2013-1.003.3049-1.528.3049-.524 0-1.044-.1036-1.528-.3049-.485-.2013-.925-.4964-1.295-.8683-.747-.7498-1.166-1.7658-1.166-2.825 0-1.0591.419-2.0751 1.166-2.825.37-.3719.81-.6669 1.295-.8682.484-.2013 1.004-.3049 1.528-.3049.525 0 1.044.1036 1.528.3049.485.2013.925.4963 1.296.8682Z"/>
  <path stroke="#A79DE6" stroke-width="1.5" d="M360.727 57.7033c.604.6105.942 1.4354.942 2.295 0 .8597-.338 1.6845-.942 2.295-.301.3024-.659.5423-1.053.7059-.394.1637-.816.2479-1.242.2479-.426 0-.848-.0842-1.242-.2479-.394-.1636-.752-.4035-1.053-.7059-.301-.301-.54-.6587-.703-1.0525-.163-.3938-.247-.816-.247-1.2425 0-.4264.084-.8486.247-1.2425.163-.3938.402-.7515.703-1.0525.301-.3023.659-.5422 1.053-.7059.394-.1636.816-.2479 1.242-.2479.426 0 .848.0843 1.242.2479.394.1637.752.4036 1.053.7059Z"/>
</svg>