<svg xmlns="http://www.w3.org/2000/svg" fill="none" viewBox="0 0 18 16"><path fill="#D7099C" d="m9.09 13.559-.09.087-.099-.087C4.626 9.8 1.8 7.316 1.8 4.796c0-1.744 1.35-3.052 3.15-3.052 1.386 0 2.736.872 3.213 2.058h1.674c.477-1.186 1.827-2.058 3.213-2.058 1.8 0 3.15 1.308 3.15 3.052 0 2.52-2.826 5.005-7.11 8.763ZM13.05 0A5.486 5.486 0 0 0 9 1.814 5.486 5.486 0 0 0 4.95 0C2.178 0 0 2.101 0 4.796c0 3.287 3.06 5.981 7.695 10.053L9 16l1.305-1.151C14.94 10.777 18 8.083 18 4.796 18 2.1 15.822 0 13.05 0Z"/></svg>