<svg xmlns="http://www.w3.org/2000/svg" fill="none" viewBox="0 0 18 20">
  <path fill="#fff" d="M15 14.08c-.76 0-1.44.3-1.96.77L5.91 10.7c.05-.23.09-.46.09-.7 0-.24-.04-.47-.09-.7l7.05-4.11c.54.5 1.25.81 2.04.81.7956 0 1.5587-.31607 2.1213-.87868C17.6839 4.55871 18 3.79565 18 3s-.3161-1.55871-.8787-2.12132C16.5587.316071 15.7956 0 15 0c-.7956 0-1.5587.316071-2.1213.87868C12.3161 1.44129 12 2.20435 12 3c0 .24.04.47.09.7L5.04 7.81C4.5 7.31 3.79 7 3 7c-.79565 0-1.55871.31607-2.12132.87868C.316071 8.44129 0 9.20435 0 10c0 .7956.316071 1.5587.87868 2.1213C1.44129 12.6839 2.20435 13 3 13c.79 0 1.5-.31 2.04-.81l7.12 4.15c-.05.21-.08.43-.08.66 0 1.61 1.31 2.91 2.92 2.91 1.61 0 2.92-1.3 2.92-2.91 0-.7744-.3076-1.5171-.8552-2.0648-.5477-.5476-1.2904-.8552-2.0648-.8552Z"/>
</svg>
