<svg xmlns="http://www.w3.org/2000/svg" fill="none" viewBox="0 0 32 37">
  <g fill="#FF007A" clip-path="url(#a)">
    <path d="M13.0892 8.84484c-.3882-.05504-.4066-.07339-.2218-.09173.3512-.05504 1.1646.01835 1.7377.14677 1.3309.31189 2.5325 1.11912 3.808 2.53182l.3327.3853.4806-.0734c2.0519-.3302 4.1593-.0734 5.9154.7339.4806.2201 1.2385.6604 1.3309.7705.037.0367.0925.2752.1294.5137.1294.8623.074 1.5044-.2033 1.9998-.1479.2752-.1479.3486-.0555.5871.074.1834.2958.3119.4992.3119.4436 0 .9057-.6972 1.1276-1.6696l.0924-.3853.1664.1835c.9427 1.0458 1.6822 2.4951 1.7931 3.5225l.0369.2752-.1663-.2385c-.2773-.4219-.5361-.6971-.8873-.9356-.6285-.422-1.294-.5504-3.0501-.6422-1.5898-.0917-2.4956-.2201-3.3829-.5137-1.5158-.4953-2.2922-1.1375-4.0853-3.5042-.7949-1.0457-1.294-1.6144-1.7931-2.0915-1.0906-1.04571-2.1813-1.5961-3.6047-1.81626Z"/>
    <path d="M26.8609 11.1746c.0369-.6972.1294-1.1558.3327-1.5778.074-.16512.1479-.31189.1664-.31189.0185 0-.0185.12843-.074.2752-.1478.40362-.1663.97239-.0739 1.61449.1294.8256.1849.9357 1.0722 1.8347.4066.4219.8873.954 1.0721 1.1741l.3143.4037-.3143-.2936c-.3882-.3669-1.2755-1.0641-1.4788-1.1558-.1294-.0734-.1479-.0734-.2403.0183-.074.0734-.0925.1835-.0925.7155-.0184.8256-.1294 1.3393-.4066 1.8714-.1479.2752-.1664.2201-.037-.0917.0924-.2386.1109-.3486.1109-1.1375 0-1.5962-.1849-1.9815-1.3125-2.6236-.2773-.1651-.7579-.4036-1.0352-.532-.2957-.1285-.5176-.2385-.4991-.2385.037-.0367 1.1276.2752 1.5528.4586.647.2569.7579.2752.8319.2569.0554-.0551.0924-.2018.1109-.6605ZM13.8472 13.9084c-.7764-1.0641-1.2755-2.7153-1.1646-3.94451l.037-.38528.1848.0367c.3328.05504.9058.27519 1.1831.44029.7394.4403 1.0722 1.0458 1.3864 2.5502.0925.4403.2219.954.2773 1.1191.0924.2752.4437.9174.7394 1.321.2034.2935.074.4403-.3882.4036-.7024-.0734-1.6452-.7155-2.2552-1.5411ZM25.9182 21.8891c-3.6601-1.4677-4.9541-2.7336-4.9541-4.8802 0-.3119.0185-.5687.0185-.5687.0185 0 .1479.1101.3143.2385.7394.5871 1.5712.8439 3.8819 1.1742 1.3495.2018 2.1258.3486 2.8283.5871 2.2367.7338 3.6232 2.2382 3.9559 4.2747.0924.5871.037 1.7062-.1109 2.2933-.1294.4587-.4991 1.3026-.5916 1.321-.0184 0-.0554-.0918-.0554-.2385-.037-.7706-.4252-1.5045-1.0722-2.0732-.7764-.6605-1.7746-1.1558-4.2147-2.1282ZM23.3302 22.4947c-.037-.2752-.1294-.6238-.1848-.7705l-.0925-.2752.1664.2018c.2403.2752.4252.6054.5915 1.0641.1294.3486.1294.4586.1294 1.0274 0 .5504-.0185.6788-.1294.9907-.1848.4954-.4066.8439-.7764 1.2292-.6654.6788-1.5343 1.0458-2.7728 1.2109-.2218.0183-.8503.0734-1.4049.1101-1.3864.0734-2.3107.2201-3.1425.5137-.1109.0367-.2218.0734-.2403.055-.037-.0367.536-.3669.9982-.5871.647-.3119 1.3125-.477 2.7728-.7338.7209-.1101 1.4604-.2569 1.6452-.3303 1.8301-.5687 2.7359-1.9814 2.4401-3.706Z"/>
    <path d="M25.0123 25.4483c-.4806-1.0457-.5915-2.0364-.3327-2.9721.0369-.0917.0739-.1835.1109-.1835.037 0 .1479.0551.2588.1284.2218.1468.6839.4037 1.867 1.0458 1.4973.8072 2.3477 1.431 2.9392 2.1465.5176.6238.8319 1.3393.9797 2.22.0925.4953.037 1.6878-.0924 2.1832-.4067 1.5595-1.3309 2.807-2.6804 3.5225-.2033.1101-.3697.1835-.3882.1835-.0185 0 .0555-.1835.1664-.4036.4436-.9357.4991-1.8347.1664-2.8437-.2034-.6238-.6285-1.376-1.4789-2.6419-1.0167-1.4677-1.257-1.853-1.5158-2.3851ZM11.2406 31.0624c1.3679-1.1375 3.0501-1.9448 4.6029-2.2016.6655-.1101 1.7746-.0734 2.3846.0917.9798.2569 1.8671.8073 2.3292 1.4861.4437.6605.647 1.2292.8503 2.4951.074.4954.1664 1.0091.1849 1.1191.1479.6605.4437 1.1742.8134 1.4494.573.422 1.5712.4403 2.551.0734.1663-.055.3142-.1101.3142-.0917.037.0367-.4621.3669-.7949.532-.4621.2385-.8318.3119-1.3309.3119-.8873 0-1.6452-.4587-2.2553-1.376-.1293-.1834-.3881-.7155-.61-1.2109-.647-1.486-.9797-1.9263-1.7376-2.4217-.6655-.422-1.5158-.5137-2.1628-.2018-.8503.4036-1.0722 1.4861-.4806 2.1465.2403.2752.6839.4954 1.0536.5504.684.0918 1.2755-.4403 1.2755-1.1191 0-.4403-.1663-.6972-.61-.899-.5915-.2568-1.2385.0367-1.22.6055 0 .2385.1109.3852.3512.4953.1479.0734.1479.0734.037.055-.5361-.11-.6655-.7705-.2403-1.1925.5175-.5137 1.6082-.2935 1.9779.422.1479.2935.1664.8806.037 1.2476-.3143.8072-1.2016 1.2292-2.1074.9907-.61-.1651-.8688-.3303-1.6082-1.0825-1.294-1.3209-1.7931-1.5778-3.6417-1.853l-.3512-.055.3882-.3669Z"/>
    <path fill-rule="evenodd" d="M1.51727 1.54281C5.82439 6.73487 12.4607 14.8073 12.7934 15.2477c.2773.3669.1664.7155-.2957.9723-.2588.1468-.7949.2936-1.0537.2936-.2958 0-.647-.1468-.8873-.3853-.1664-.1651-.88732-1.2109-2.51404-3.7244-1.23853-1.9263-2.29221-3.52249-2.31069-3.54083-.07395-.03669-.07395-.03669 2.18129 3.96283 1.42338 2.5135 1.88552 3.4125 1.88552 3.5225 0 .2386-.07394.367-.36971.6972-.49911.5504-.72094 1.1742-.88731 2.4768-.18485 1.4494-.68396 2.4768-2.10734 4.2197-.83185 1.0274-.96125 1.2109-1.16459 1.6328-.2588.5137-.33274.8073-.36971 1.4678-.03697.6971.03697 1.1374.24031 1.7979.18485.5871.3882.9724.8873 1.7246.42517.6605.68397 1.1558.68397 1.3393 0 .1468.03697.1468.70245 0 1.58975-.3669 2.90225-.9907 3.62315-1.7613.4437-.477.5546-.7338.5546-1.3943 0-.422-.0185-.5137-.1294-.7706-.1849-.4036-.5361-.7338-1.294-1.2475-.99823-.6789-1.42339-1.2293-1.53431-1.9631-.09243-.6238.01849-1.0458.57305-2.2016.57305-1.1925.72094-1.6879.81336-2.8987.0555-.7706.1479-1.0825.3697-1.321.2403-.2568.4437-.3486 1.0167-.422.9428-.1284 1.5528-.3669 2.0334-.8256.4252-.3852.61-.7705.6285-1.3393l.0185-.4219-.2403-.2569C12.9783 13.89.944218.753906.888762.753906c-.018486 0 .277278.348584.628508.788904ZM7.19232 27.6316c.20334-.3486.09243-.7889-.24031-1.0091-.31425-.2018-.79488-.1101-.79488.1651 0 .0734.03697.1468.14789.1835.16637.0917.18485.1834.05545.3853-.12939.2018-.1294.3852.03697.5137.2588.2018.61003.0917.79488-.2385ZM14.679 17.9814c-.4437.1284-.8688.6054-.9982 1.0824-.074.2936-.037.8256.0924.9907.2033.2569.3882.3303.9058.3303 1.0167 0 1.8855-.4404 1.9779-.9724.0924-.4403-.2957-1.0458-.8318-1.321-.2773-.1467-.8504-.2018-1.1461-.11Zm1.183.9173c.1479-.2202.0925-.4587-.1848-.6238-.4991-.3119-1.257-.055-1.257.422 0 .2385.3882.4953.7579.4953.2403 0 .573-.1467.6839-.2935Z" clip-rule="evenodd"/>
  </g>
  <defs>
    <clipPath id="a">
      <path fill="#fff" d="M0 0h31.1111v35.5556H0z" transform="translate(.888794 .753906)"/>
    </clipPath>
  </defs>
</svg>
