<svg xmlns="http://www.w3.org/2000/svg" fill="none" viewBox="0 0 32 32">
  <g clip-path="url(#a)">
    <path fill="#0B78DD" d="M16 32c8.8667 0 16-7.1333 16-16 0-8.86672-7.1333-16-16-16C7.13328 0 0 7.13328 0 16c0 8.8667 7.13328 16 16 16Z"/>
    <path fill="#fff" d="M20.4001 18.5333c0-2.3333-1.4-3.1333-4.2-3.4666-2-.2667-2.4-.8-2.4-1.7334s.6667-1.5333 2-1.5333c1.2 0 1.8667.4 2.2 1.4.0667.2.2667.3333.4667.3333h1.0666c.2667 0 .4667-.2.4667-.4666V13c-.2667-1.4667-1.4667-2.6-3-2.7333V8.66674c0-.26672-.2-.46672-.5333-.53344h-1c-.2667 0-.4667.2-.5334.53344V10.2c-2 .2667-3.2666 1.6-3.2666 3.2667 0 2.2 1.3333 3.0666 4.1333 3.4 1.8667.3333 2.4667.7333 2.4667 1.8 0 1.0668-.9334 1.8-2.2 1.8-1.7334 0-2.3334-.7334-2.5334-1.7334-.0666-.2666-.2666-.4-.4666-.4h-1.1334c-.2666 0-.4666.2-.4666.4667v.0667c.2666 1.6666 1.3333 2.8666 3.5333 3.2v1.6c0 .2666.2.4666.5333.5333h1c.2667 0 .4667-.2.5334-.5333v-1.6c2-.3334 3.3333-1.7334 3.3333-3.5334Z"/>
    <path fill="#fff" d="M12.5998 25.5333c-5.19996-1.8666-7.86668-7.6666-5.93324-12.8 1-2.79999 3.2-4.93327 5.93324-5.93327.2668-.13328.4-.33328.4-.66672v-.93328c0-.26672-.1332-.46672-.4-.53328-.0667 0-.2 0-.2667.06656-6.33326 2-9.79999 8.73339-7.79999 15.06669 1.2 3.7333 4.06673 6.6 7.79999 7.8.2667.1333.5335 0 .6-.2667.0667-.0666.0667-.1333.0667-.2666v-.9334c0-.2-.2-.4666-.4-.6Zm7.0668-20.79999c-.2668-.13328-.5335 0-.6.26672-.0668.06672-.0668.13328-.0668.26672v.93328c0 .26672.2.53328.4.66672 5.2 1.86656 7.8668 7.66655 5.9333 12.79995-1 2.8-3.2 4.9333-5.9333 5.9333-.2667.1333-.4.3333-.4.6667V27.2c0 .2667.1333.4667.4.5333.0668 0 .2 0 .2668-.0666 6.3332-2 9.8-8.7334 7.8-15.0667-1.2-3.79997-4.1335-6.66669-7.8-7.86669Z"/>
  </g>
  <defs>
    <clipPath id="a">
      <path fill="#fff" d="M0 0h32v32H0z"/>
    </clipPath>
  </defs>
</svg>
