<?xml version="1.0" encoding="UTF-8"?>
<svg id="Layer_1" data-name="Layer 1" xmlns="http://www.w3.org/2000/svg" xmlns:xlink="http://www.w3.org/1999/xlink" viewBox="0 0 87.56 58.55">
  <defs>
    <style>
      .cls-1 {
        fill: #f4a856;
      }

      .cls-2 {
        fill: url(#radial-gradient);
      }

      .cls-3 {
        fill: #fce586;
      }

      .cls-4 {
        fill: url(#radial-gradient-2);
      }

      .cls-5 {
        fill: #fccc6b;
      }
    </style>
    <radialGradient id="radial-gradient" cx="1118.59" cy="1404.73" fx="1118.59" fy="1404.73" r="1" gradientTransform="translate(78340.6 -52624) rotate(-162.45) scale(52.53 -52.53)" gradientUnits="userSpaceOnUse">
      <stop offset="0" stop-color="#fce586"/>
      <stop offset=".23" stop-color="#fcdb7b"/>
      <stop offset=".62" stop-color="#fccf6f"/>
      <stop offset="1" stop-color="#fccc6b"/>
    </radialGradient>
    <radialGradient id="radial-gradient-2" cx="1104.38" cy="1408.81" fx="1104.38" fy="1408.81" r="1" gradientTransform="translate(184705.35 -126196.53) rotate(-162.45) scale(124.97 -124.97)" xlink:href="#radial-gradient"/>
  </defs>
  <path class="cls-1" d="m7.01,25.76l2,3.03c1.77-2.94,4.7-5.7,8.79-8.04,14.4-8.24,37.69-8.15,52.02.2,3.97,2.31,6.83,5.02,8.59,7.89l2.16-2.79-.02,6.43h0c.12,5.53-3.48,11.08-10.82,15.28-14.4,8.24-37.69,8.15-52.02-.2-7.17-4.17-10.74-9.62-10.72-15.06l.03-6.73h0Z"/>
  <path class="cls-5" d="m17.72,40.82c14.33,8.35,37.62,8.44,52.02.2,14.4-8.24,14.45-21.69.11-30.03-14.33-8.35-37.62-8.44-52.02-.2-14.4,8.24-14.45,21.69-.11,30.03Z"/>
  <path class="cls-2" d="m17.72,40.82c14.33,8.35,37.62,8.44,52.02.2,14.4-8.24,14.45-21.69.11-30.03-14.33-8.35-37.62-8.44-52.02-.2-14.4,8.24-14.45,21.69-.11,30.03Z"/>
  <path class="cls-1" d="m21.75,38.7c-5.92-3.45-9.17-8.03-9.15-12.91s3.3-9.44,9.25-12.84c12.15-6.96,31.89-6.88,43.98.16,5.92,3.45,9.17,8.03,9.15,12.91-.02,4.88-3.3,9.44-9.25,12.84-6.14,3.51-14.21,5.23-22.25,5.17-7.88-.07-15.74-1.85-21.73-5.33Zm.41-25.21c-5.74,3.29-8.92,7.66-8.93,12.3-.02,4.65,3.12,9.04,8.84,12.37,11.93,6.95,31.38,7.02,43.36.16,5.74-3.29,8.92-7.66,8.93-12.31.02-4.65-3.12-9.04-8.84-12.37-5.9-3.44-13.65-5.19-21.42-5.26-7.93-.07-15.89,1.63-21.94,5.09v.02Z"/>
  <path class="cls-4" d="m21.91,38.43c12.03,7.01,31.59,7.08,43.67.17,12.09-6.92,12.13-18.21.1-25.21-12.03-7.01-31.59-7.08-43.67-.16-12.09,6.92-12.13,18.21-.1,25.21h0Z"/>
  <path class="cls-1" d="m65.67,14.85c-12.03-7.01-31.59-7.08-43.67-.16-5.72,3.27-8.74,7.52-9.06,11.83-.33-4.81,2.7-9.67,9.07-13.31,12.09-6.92,31.64-6.84,43.67.16,6.34,3.69,9.32,8.58,8.96,13.38-.29-4.31-3.28-8.59-8.97-11.9Z"/>
  <path class="cls-3" d="m17.73,39.42c14.33,8.35,37.62,8.44,52.02.2,6.89-3.94,10.48-9.08,10.8-14.28.3,5.67-3.3,11.38-10.8,15.68-14.4,8.24-37.69,8.15-52.02-.2-7.47-4.35-11.03-10.09-10.69-15.76.28,5.2,3.83,10.36,10.69,14.36Z"/>
</svg>