<svg width="24" height="24" viewBox="0 0 24 24" fill="none" xmlns="http://www.w3.org/2000/svg">
<path d="M12 24C18.6274 24 24 18.6274 24 12C24 5.37258 18.6274 0 12 0C5.37258 0 0 5.37258 0 12C0 18.6274 5.37258 24 12 24Z" fill="#1F0860"/>
<path d="M18.9565 8.66887C17.6166 7.17221 15.4007 6.86256 13.7001 7.91194C13.3393 8.13558 12.9958 8.44523 12.6866 8.8237L12.1025 9.54624L10.6081 11.4214L9.69765 12.5396C9.56024 12.7116 9.40563 12.8492 9.26821 12.9352C8.52957 13.3825 7.58479 13.2449 7.00074 12.6084C6.39953 11.9375 6.39953 10.9053 7.00074 10.2344C7.34429 9.85588 7.82527 9.64944 8.32343 9.64944C8.64982 9.64944 8.97619 9.75266 9.26821 9.9075C9.42281 9.9935 9.56024 10.1311 9.69765 10.3032L9.94219 10.6035L11.4524 8.7486C11.1603 8.40534 10.8407 8.12008 10.505 7.91194C8.80441 6.86256 6.58848 7.17221 5.24863 8.66887C3.85723 10.2344 3.85723 12.66 5.24863 14.2083C6.05598 15.12 7.1897 15.5845 8.32343 15.5845C9.07926 15.5845 9.81789 15.3781 10.505 14.948C10.8657 14.7243 11.2093 14.4147 11.5185 14.0362L12.1025 13.3137L13.6142 11.4386L14.5246 10.3204C14.662 10.1483 14.8166 10.0107 14.954 9.92469C15.6927 9.47742 16.6374 9.61505 17.2215 10.2516C17.8227 10.9225 17.8227 11.9547 17.2215 12.6256C16.6375 13.2621 15.6927 13.3997 14.954 12.9524C14.7994 12.8664 14.662 12.7288 14.5246 12.5568L14.2709 12.2451L12.7447 14.1196C13.0389 14.4669 13.3614 14.7552 13.7001 14.9652C15.4007 16.0146 17.6166 15.7049 18.9565 14.2083C20.3478 12.6428 20.3478 10.2171 18.9565 8.66887Z" fill="white"/>
<circle cx="12" cy="18" r="1" fill="white"/>
<circle cx="12" cy="5" r="1" fill="white"/>
</svg>
