<svg xmlns="http://www.w3.org/2000/svg" fill="none" viewBox="0 0 71 18">
  <path fill="#1F0860" d="M11.5036.404938H6.33345L0 17.0053h4.42462l3.15133-1.0119h2.68515l3.1579 1.0119h4.1585L11.5036.404938ZM5.66052 13.3463l3.15793-9.17186h.20232c.04179.11711.08137.24305.12315.38225l3.03258 8.78961-1.9132-1.012H7.57815l-1.91543 1.012h-.0022Zm20.68378 3.9595c-1.5877 0-2.9556-.2496-4.1035-.749-1.148-.4994-2.0254-1.2484-2.6346-2.2493-.6091-.9988-.9148-2.2405-.9148-3.7231V.404938h4.3323V10.4893c0 1.0628.2815 1.9025.8422 2.5145.5608.6121 1.3877.9192 2.4784.9192 1.0908 0 1.9243-.3049 2.5026-.9192.5784-.612.8665-1.4517.8665-2.5145V.404938h4.308V10.5844c0 1.4826-.3056 2.7243-.9148 3.7231-.6091 1.0009-1.4844 1.7499-2.6235 2.2493-1.1392.4994-2.518.749-4.1388.749Zm8.7885-.2894 5.9442-8.75207L35.7112.404938h5.2229l3.0326 4.836722h.1187L47.118.404938h4.8842l-5.39 7.857182 5.9442 8.75208h-5.2471l-3.5845-5.7294h-.121l-3.5846 5.7294H35.135l-.0022.0022Zm27.1997.5789c-1.8143 0-3.3647-.3182-4.6555-.9545-1.2909-.6364-2.2827-1.5909-2.9732-2.8658-.6906-1.2727-1.0358-2.868-1.0358-4.78815 0-1.9201.3452-3.50877 1.0358-4.77485.6905-1.26607 1.6801-2.21618 2.9732-2.85253 1.2908-.636356 2.8434-.954532 4.6555-.954532s3.3646.318176 4.6577.954532c1.2909.63635 2.2827 1.58867 2.9732 2.85253.6905 1.26608 1.0358 2.85696 1.0358 4.77485 0 1.91785-.3453 3.51545-1.0358 4.78815-.6905 1.2727-1.6801 2.2294-2.9732 2.8658-1.2909.6363-2.8434.9545-4.6577.9545Zm0-3.3851c.6905 0 1.2997-.1038 1.8297-.3137.5299-.2099.9742-.5148 1.3348-.9192.3607-.4021.629-.8949.8071-1.4738.1759-.5811.2639-1.2329.2639-1.95763V8.48086c0-.7402-.088-1.40306-.2639-1.98197-.1759-.58111-.4464-1.07163-.8071-1.47377-.3606-.40214-.8071-.70927-1.3348-.91918-.53-.2099-1.1392-.31375-1.8297-.31375-.6905 0-1.3239.10385-1.8517.31375-.53.20991-.972.51704-1.3238.91918-.3519.40214-.618.89487-.7939 1.47377-.1759.58112-.2661 1.24177-.2661 1.98197v1.06501c0 .72473.088 1.37873.2661 1.95763.1759.5811.442 1.0717.7939 1.4738.3518.4044.7938.7093 1.3238.9192.53.2099 1.1458.3137 1.8517.3137Z"/>
</svg>
