
<svg width="90" height="83" viewBox="0 0 90 83" fill="none" xmlns="http://www.w3.org/2000/svg">
<path fill-rule="evenodd" clip-rule="evenodd" d="M31.9042 0H59.4151L90 83H66.9637L51.8012 78.1726H39.4987L24.362 83H0L31.9042 0ZM34.5525 3.84141L5.60152 79.1586H23.7611L38.8979 74.3312H52.4011L67.5635 79.1586H84.481L56.7271 3.84141H34.5525ZM43.7968 17.965H47.5118L47.9624 19.2531C48.157 19.8094 48.3683 20.4407 48.569 21.1177L64.7082 67.5904L51.6251 60.7198H39.6737L26.5817 67.5855L43.7968 17.965ZM45.6364 24.4102L57.879 59.6627L52.5772 56.8784H38.7229L33.4043 59.6675L45.6364 24.4102Z" fill="#1F0860"/>
</svg>
