<svg xmlns="http://www.w3.org/2000/svg" fill="none" viewBox="0 0 64 64">
  <path fill="#7378A5" d="m50.73 49.5497-9.78 9.78-8.58-8.58-8.58 8.58-9.79-9.78 18.37-18.37 18.37 18.37h-.01Zm-9.78 3.24 3.24-3.24-11.82-11.82-11.82 11.82 3.24 3.24 8.58-8.58 8.58 8.58Z"/>
  <path fill="#7378A5" d="m50.73 36.4598-9.78 9.78-8.58-8.58-8.58 8.58-9.79-9.78 18.37-18.37 18.37 18.37h-.01Zm-9.78 3.24 3.24-3.24-11.82-11.82-11.83 11.82 3.24 3.24 8.58-8.58 8.58 8.58h.01Z"/>
  <path fill="#7378A5" d="m50.73 23.37-9.78 9.78-8.58-8.58-8.58 8.58L14 23.37 32.37 5l18.37 18.37h-.01Zm-9.78 3.24 3.24-3.24-11.82-11.83-11.83 11.83 3.24 3.24 8.58-8.58 8.58 8.58h.01Z"/>
</svg>
